0
SECTION
2
HEADER
9
$INSUNITS
70
4
0
ENDSEC
0
SECTION
2
TABLES
0
TABLE
2
LTYPE
0
LTYPE
72
65
70
64
2
CONTINUOUS
3
______
73
0
40
0
0
ENDTAB
0
TABLE
2
LAYER
0
ENDTAB
0
ENDSEC
0
SECTION
2
ENTITIES
0
LINE
8
0
10
91.8782446
20
-109.4906875
11
90.3687129
21
-92.2437231
0
LINE
8
0
10
88.5491996
20
-71.4551034
11
87.060611
21
-54.4474236
0
LINE
8
0
10
90.2058682
20
-90.3831624
11
88.7121175
21
-73.3165013
0
LINE
8
0
10
87.5181143
20
-53.9054785
11
108.5050375
21
-52.1960109
0
LINE
8
0
10
108.964445
20
-51.6976614
11
108.964445
21
-39.9078828
0
LINE
8
0
10
109.4627345
20
-39.4078857
11
127.4661555
21
-39.346295
0
LINE
8
0
10
127.964445
20
-38.8462979
11
127.964445
21
-35.0925903
0
LINE
8
0
10
128.464445
20
-34.5925903
11
145.466445
21
-34.5925903
0
LINE
8
0
10
145.966445
20
-35.0925903
11
145.966445
21
-39.8499559
0
LINE
8
0
10
146.4610506
20
-40.3499268
11
164.4718394
21
-40.5442539
0
LINE
8
0
10
164.966445
20
-41.0442248
11
164.966445
21
-42.5400341
0
LINE
8
0
10
165.4739442
20
-43.0399779
11
183.4591712
21
-42.7701995
0
LINE
8
0
10
183.9666704
20
-43.2699213
11
183.9672232
21
-44.5148124
0
LINE
8
0
10
204.4024451
20
-106.0211864
11
211.2693492
21
-131.2007277
0
LINE
8
0
10
211.1405195
20
-131.6858355
11
198.2724595
21
-144.5538955
0
LINE
8
0
10
197.5573001
20
-144.5456552
11
185.2184018
21
-131.6245719
0
LINE
8
0
10
185.1147454
20
-131.5415604
11
167.7363224
21
-121.075771
0
LINE
8
0
10
167.6110135
20
-121.0220102
11
149.4229791
21
-116.017769
0
LINE
8
0
10
149.378279
20
-116.0031771
11
126.8280914
21
-107.448908
0
LINE
8
0
10
126.6138934
20
-107.4177619
11
92.4131977
21
-109.9457316
0
LINE
8
0
10
184.4672232
20
-45.0145904
11
204.2174451
21
-45.0145904
0
LINE
8
0
10
204.7174451
20
-45.5145904
11
204.7174451
21
-105.3416158
0
LINE
8
0
10
204.6504578
20
-105.5916158
11
204.4024451
21
-106.0211864
0
ARC
8
0
10
87.5587068
20
-54.403828
40
0.5
50
94.6566888
51
185.0020393
0
ARC
8
0
10
108.464445
20
-51.6976614
40
0.5
50
274.6566888
51
0
0
ARC
8
0
10
109.464445
20
-39.9078828
40
0.5
50
90.1960093
51
180
0
ARC
8
0
10
127.464445
20
-38.8462979
40
0.5
50
270.1960093
51
0
0
ARC
8
0
10
128.464445
20
-35.0925903
40
0.5
50
90
51
180
0
ARC
8
0
10
145.466445
20
-35.0925903
40
0.5
50
0
51
90
0
ARC
8
0
10
146.466445
20
-39.8499559
40
0.5
50
180
51
269.3818296
0
ARC
8
0
10
164.466445
20
-41.0442248
40
0.5
50
0
51
89.3818296
0
ARC
8
0
10
165.466445
20
-42.5400341
40
0.5
50
180
51
270.8593715
0
ARC
8
0
10
183.4666704
20
-43.2701433
40
0.5
50
0.0254393
51
90.8593715
0
ARC
8
0
10
184.4672232
20
-44.5145904
40
0.5
50
180.0254393
51
270
0
ARC
8
0
10
204.2174451
20
-45.5145904
40
0.5
50
0
51
90
0
ARC
8
0
10
204.2174451
20
-105.3416158
40
0.5
50
329.9999999
51
0
0
ARC
8
0
10
210.7869661
20
-131.3322821
40
0.5
50
315
51
15.2546016
0
ARC
8
0
10
197.9189061
20
-144.2003421
40
0.5
50
223.6796985
51
315
0
ARC
8
0
10
184.8567958
20
-131.969885
40
0.5
50
43.6796985
51
58.9424303
0
ARC
8
0
10
167.4783729
20
-121.5040957
40
0.5
50
58.9424303
51
74.6163323
0
ARC
8
0
10
149.5556197
20
-115.5356835
40
0.5
50
249.2260802
51
254.6163323
0
ARC
8
0
10
126.6507507
20
-107.9164016
40
0.5
50
69.2260802
51
94.2273698
0
ARC
8
0
10
92.3763404
20
-109.4470919
40
0.5
50
185.0020393
51
274.2273698
0
ARC
8
0
10
88.0522117
20
-72.4364306
40
1.1
50
306.8637628
51
423.1403104
0
ARC
8
0
10
89.7081708
20
-91.3641299
40
1.1
50
306.9052002
51
423.0988767
0
CIRCLE
8
0
10
165.3524451
20
-60.0105904
40
1.1
0
CIRCLE
8
0
10
148.8598077
20
-99.0848776
40
1.1
0
CIRCLE
8
0
10
206.488576
20
-122.9027502
40
1.1
0
ENDSEC
0
EOF