0
SECTION
2
HEADER
9
$INSUNITS
70
4
0
ENDSEC
0
SECTION
2
TABLES
0
TABLE
2
LTYPE
0
LTYPE
72
65
70
64
2
CONTINUOUS
3
______
73
0
40
0
0
ENDTAB
0
TABLE
2
LAYER
0
ENDTAB
0
ENDSEC
0
SECTION
2
ENTITIES
0
LINE
8
0
10
91.0819798
20
-108.6707984
11
91.0800177
21
-53.4883757
0
LINE
8
0
10
91.578373
20
-52.9883606
11
128.5816447
21
-52.8666393
0
LINE
8
0
10
129.08
20
-52.366642
11
129.08
21
-41.4909219
0
LINE
8
0
10
129.5809211
20
-40.9909227
11
147.5790789
21
-41.0240773
0
LINE
8
0
10
148.08
20
-40.5240781
11
148.08
21
-36.613
0
LINE
8
0
10
148.58
20
-36.113
11
165.582
21
-36.113
0
LINE
8
0
10
166.082
20
-36.613
11
166.082
21
-41.1978324
0
LINE
8
0
10
166.5741062
20
-41.6977701
11
184.5898938
21
-41.9822299
0
LINE
8
0
10
185.082
20
-42.4821676
11
185.082
21
-43.9780342
0
LINE
8
0
10
185.5918665
20
-44.4779368
11
203.5723599
21
-44.1230587
0
LINE
8
0
10
204.0822263
20
-44.6227393
11
204.083
21
-46.365
0
LINE
8
0
10
204.083
20
-46.365222
11
204.083
21
-95.2847681
0
LINE
8
0
10
204.333
20
-95.7177808
11
224.3222226
21
-107.2585639
0
LINE
8
0
10
224.5624583
20
-107.5932454
11
230.5778805
21
-137.5834997
0
LINE
8
0
10
230.4090386
20
-138.064853
11
217.1155132
21
-149.2194452
0
LINE
8
0
10
216.4110972
20
-149.1578168
11
205.2803965
21
-135.8927642
0
LINE
8
0
10
205.1875726
20
-135.806991
11
189.7461294
21
-124.8014803
0
LINE
8
0
10
189.6308585
20
-124.7402454
11
171.869123
21
-118.1070208
0
LINE
8
0
10
171.7419312
20
-118.0777066
11
153.1012209
21
-116.2898889
0
LINE
8
0
10
152.68761
20
-115.9849406
11
146.9871993
21
-102.3422885
0
LINE
8
0
10
146.4613824
20
-102.0392302
11
126
21
-104.6997457
0
LINE
8
0
10
112
20
-106.5201123
11
91.6464502
21
-109.1666067
0
ARC
8
0
10
91.5800177
20
-53.4883579
40
0.5
50
90.1884748
51
180.0020398
0
ARC
8
0
10
128.58
20
-52.366642
40
0.5
50
270.1884748
51
0
0
ARC
8
0
10
129.58
20
-41.4909219
40
0.5
50
89.8944554
51
180
0
ARC
8
0
10
147.58
20
-40.5240781
40
0.5
50
269.8944554
51
0
0
ARC
8
0
10
148.58
20
-36.613
40
0.5
50
90
51
180
0
ARC
8
0
10
165.582
20
-36.613
40
0.5
50
0
51
90
0
ARC
8
0
10
166.582
20
-41.1978324
40
0.5
50
180
51
269.0954053
0
ARC
8
0
10
184.582
20
-42.4821676
40
0.5
50
0
51
89.0954053
0
ARC
8
0
10
185.582
20
-43.9780342
40
0.5
50
180
51
271.130691
0
ARC
8
0
10
203.5822263
20
-44.6229613
40
0.5
50
0.0254393
51
91.130691
0
ARC
8
0
10
203.583
20
-46.365222
40
0.5
50
0
51
0.0254393
0
ARC
8
0
10
204.583
20
-95.2847681
40
0.5
50
180
51
239.9999999
0
ARC
8
0
10
224.0722226
20
-107.6915766
40
0.5
50
11.3418411
51
59.9999999
0
ARC
8
0
10
230.0876448
20
-137.6818308
40
0.5
50
310.0000012
51
11.3418411
0
ARC
8
0
10
216.7941194
20
-148.836423
40
0.5
50
220.0000012
51
310.0000012
0
ARC
8
0
10
204.8973743
20
-136.214158
40
0.5
50
40.0000012
51
54.5215594
0
ARC
8
0
10
189.4559311
20
-125.2086473
40
0.5
50
54.5215594
51
69.5215596
0
ARC
8
0
10
171.6941956
20
-118.5754227
40
0.5
50
69.5215596
51
84.5215592
0
ARC
8
0
10
153.1489565
20
-115.7921728
40
0.5
50
202.6769963
51
264.5215592
0
ARC
8
0
10
146.5258528
20
-102.5350563
40
0.5
50
22.6769963
51
97.4083894
0
ARC
8
0
10
91.5819798
20
-108.6707806
40
0.5
50
180.0020398
51
277.4083894
0
LINE
8
0
10
93
20
-107
11
107
21
-107
0
LINE
8
0
10
107
20
-107
11
107
21
-93
0
LINE
8
0
10
107
20
-93
11
93
21
-93
0
LINE
8
0
10
93
20
-93
11
93
21
-107
0
LINE
8
0
10
93
20
-88
11
107
21
-88
0
LINE
8
0
10
107
20
-88
11
107
21
-74
0
LINE
8
0
10
107
20
-74
11
93
21
-74
0
LINE
8
0
10
93
20
-74
11
93
21
-88
0
LINE
8
0
10
93
20
-69
11
107
21
-69
0
LINE
8
0
10
107
20
-69
11
107
21
-55
0
LINE
8
0
10
107
20
-55
11
93
21
-55
0
LINE
8
0
10
93
20
-55
11
93
21
-69
0
LINE
8
0
10
126
20
-104.6997457
11
126
21
-93
0
LINE
8
0
10
126
20
-93
11
112
21
-93
0
LINE
8
0
10
112
20
-93
11
112
21
-106.5201123
0
LINE
8
0
10
112
20
-88
11
126
21
-88
0
LINE
8
0
10
126
20
-88
11
126
21
-74
0
LINE
8
0
10
126
20
-74
11
112
21
-74
0
LINE
8
0
10
112
20
-74
11
112
21
-88
0
LINE
8
0
10
112
20
-69
11
126
21
-69
0
LINE
8
0
10
126
20
-69
11
126
21
-55
0
LINE
8
0
10
126
20
-55
11
112
21
-55
0
LINE
8
0
10
112
20
-55
11
112
21
-69
0
LINE
8
0
10
131
20
-95
11
145
21
-95
0
LINE
8
0
10
145
20
-95
11
145
21
-81
0
LINE
8
0
10
145
20
-81
11
131
21
-81
0
LINE
8
0
10
131
20
-81
11
131
21
-95
0
LINE
8
0
10
131
20
-76
11
145
21
-76
0
LINE
8
0
10
145
20
-76
11
145
21
-62
0
LINE
8
0
10
145
20
-62
11
131
21
-62
0
LINE
8
0
10
131
20
-62
11
131
21
-76
0
LINE
8
0
10
131
20
-57
11
145
21
-57
0
LINE
8
0
10
145
20
-57
11
145
21
-43
0
LINE
8
0
10
145
20
-43
11
131
21
-43
0
LINE
8
0
10
131
20
-43
11
131
21
-57
0
LINE
8
0
10
150
20
-90
11
164
21
-90
0
LINE
8
0
10
164
20
-90
11
164
21
-76
0
LINE
8
0
10
164
20
-76
11
150
21
-76
0
LINE
8
0
10
150
20
-76
11
150
21
-90
0
LINE
8
0
10
150
20
-71
11
164
21
-71
0
LINE
8
0
10
164
20
-71
11
164
21
-57
0
LINE
8
0
10
164
20
-57
11
150
21
-57
0
LINE
8
0
10
150
20
-57
11
150
21
-71
0
LINE
8
0
10
150
20
-52
11
164
21
-52
0
LINE
8
0
10
164
20
-52
11
164
21
-38
0
LINE
8
0
10
164
20
-38
11
150
21
-38
0
LINE
8
0
10
150
20
-38
11
150
21
-52
0
LINE
8
0
10
169
20
-96
11
183
21
-96
0
LINE
8
0
10
183
20
-96
11
183
21
-82
0
LINE
8
0
10
183
20
-82
11
169
21
-82
0
LINE
8
0
10
169
20
-82
11
169
21
-96
0
LINE
8
0
10
169
20
-77
11
183
21
-77
0
LINE
8
0
10
183
20
-77
11
183
21
-63
0
LINE
8
0
10
183
20
-63
11
169
21
-63
0
LINE
8
0
10
169
20
-63
11
169
21
-77
0
LINE
8
0
10
169
20
-58
11
183
21
-58
0
LINE
8
0
10
183
20
-58
11
183
21
-44
0
LINE
8
0
10
183
20
-44
11
169
21
-44
0
LINE
8
0
10
169
20
-44
11
169
21
-58
0
LINE
8
0
10
188
20
-98
11
202
21
-98
0
LINE
8
0
10
202
20
-98
11
202
21
-84
0
LINE
8
0
10
202
20
-84
11
188
21
-84
0
LINE
8
0
10
188
20
-84
11
188
21
-98
0
LINE
8
0
10
188
20
-79
11
202
21
-79
0
LINE
8
0
10
202
20
-79
11
202
21
-65
0
LINE
8
0
10
202
20
-65
11
188
21
-65
0
LINE
8
0
10
188
20
-65
11
188
21
-79
0
LINE
8
0
10
188
20
-60
11
202
21
-60
0
LINE
8
0
10
202
20
-60
11
202
21
-46
0
LINE
8
0
10
202
20
-46
11
188
21
-46
0
LINE
8
0
10
188
20
-46
11
188
21
-60
0
LINE
8
0
10
154.9165469
20
-114.3632727
11
168.8632727
21
-115.5834531
0
LINE
8
0
10
168.8632727
20
-115.5834531
11
170.0834531
21
-101.6367273
0
LINE
8
0
10
170.0834531
20
-101.6367273
11
156.1367273
21
-100.4165469
0
LINE
8
0
10
156.1367273
20
-100.4165469
11
154.9165469
21
-114.3632727
0
LINE
8
0
10
174.3401521
20
-116.7976479
11
187.4958487
21
-121.5859299
0
LINE
8
0
10
187.4958487
20
-121.5859299
11
192.2841307
21
-108.4302333
0
LINE
8
0
10
192.2841307
20
-108.4302333
11
179.1284341
21
-103.6419513
0
LINE
8
0
10
179.1284341
20
-103.6419513
11
174.3401521
21
-116.7976479
0
LINE
8
0
10
192.471851
20
-124.1762729
11
203.9399797
21
-132.206343
0
LINE
8
0
10
203.9399797
20
-132.206343
11
211.9700498
21
-120.7382143
0
LINE
8
0
10
211.9700498
20
-120.7382143
11
200.5019211
21
-112.7081442
0
LINE
8
0
10
200.5019211
20
-112.7081442
11
192.471851
21
-124.1762729
0
LINE
8
0
10
208.0759987
20
-135.9963063
11
217.0750253
21
-146.7209285
0
LINE
8
0
10
217.0750253
20
-146.7209285
11
227.7996475
21
-137.7219019
0
LINE
8
0
10
227.7996475
20
-137.7219019
11
218.8006209
21
-126.9972797
0
LINE
8
0
10
218.8006209
20
-126.9972797
11
208.0759987
21
-135.9963063
0
CIRCLE
8
0
10
109.5
20
-71.5
40
1.1
0
CIRCLE
8
0
10
109.5
20
-90.5
40
1.1
0
CIRCLE
8
0
10
185.468
20
-61.361
40
1.1
0
CIRCLE
8
0
10
172.7442902
20
-101.1746489
40
1.1
0
CIRCLE
8
0
10
227.2307082
20
-129.0614476
40
1.1
0
ENDSEC
0
EOF