0
SECTION
2
HEADER
9
$INSUNITS
70
4
0
ENDSEC
0
SECTION
2
TABLES
0
TABLE
2
LTYPE
0
LTYPE
72
65
70
64
2
CONTINUOUS
3
______
73
0
40
0
0
ENDTAB
0
TABLE
2
LAYER
0
ENDTAB
0
ENDSEC
0
SECTION
2
ENTITIES
0
LINE
8
0
10
91.0819822
20
-108.7400178
11
91.0800178
21
-53.4899915
0
LINE
8
0
10
91.5799915
20
-52.9899737
11
109.5800263
21
-52.9890263
0
LINE
8
0
10
110.08
20
-52.4890263
11
110.08
21
-48.74
0
LINE
8
0
10
110.58
20
-48.24
11
128.58
21
-48.24
0
LINE
8
0
10
129.08
20
-47.74
11
129.08
21
-46.488
0
LINE
8
0
10
129.58
20
-45.988
11
146.582
21
-45.988
0
LINE
8
0
10
147.082
20
-46.488
11
147.082
21
-47.74
0
LINE
8
0
10
147.582
20
-48.24
11
165.582
21
-48.24
0
LINE
8
0
10
166.082
20
-48.74
11
166.082
21
-50.238
0
LINE
8
0
10
166.582
20
-50.738
11
184.5822219
21
-50.738
0
LINE
8
0
10
185.0822219
20
-51.237778
11
185.083
21
-52.99
0
LINE
8
0
10
185.083
20
-52.990222
11
185.083
21
-101.9097681
0
LINE
8
0
10
185.333
20
-102.3427808
11
205.0850038
21
-113.7466055
0
LINE
8
0
10
205.268026
20
-114.4296017
11
191.9735319
21
-137.4583675
0
LINE
8
0
10
191.2905097
20
-137.6413967
11
176.1236421
21
-128.8848015
0
LINE
8
0
10
175.9382671
20
-128.8220082
11
138.7729681
21
-123.977759
0
LINE
8
0
10
138.4335103
20
-123.7764307
11
127.9897756
21
-109.4455223
0
LINE
8
0
10
127.5856928
20
-109.24
11
91.5819822
21
-109.24
0
ARC
8
0
10
91.5800178
20
-53.4899737
40
0.5
50
90.0030138
51
180.0020398
0
ARC
8
0
10
109.58
20
-52.4890263
40
0.5
50
270.0030138
51
0
0
ARC
8
0
10
110.58
20
-48.74
40
0.5
50
90
51
180
0
ARC
8
0
10
128.58
20
-47.74
40
0.5
50
270
51
0
0
ARC
8
0
10
129.58
20
-46.488
40
0.5
50
90
51
180
0
ARC
8
0
10
146.582
20
-46.488
40
0.5
50
0
51
90
0
ARC
8
0
10
147.582
20
-47.74
40
0.5
50
180
51
270
0
ARC
8
0
10
165.582
20
-48.74
40
0.5
50
0
51
90
0
ARC
8
0
10
166.582
20
-50.238
40
0.5
50
180
51
270
0
ARC
8
0
10
184.5822219
20
-51.238
40
0.5
50
0.0254393
51
90
0
ARC
8
0
10
184.583
20
-52.990222
40
0.5
50
0
51
0.0254393
0
ARC
8
0
10
185.583
20
-101.9097681
40
0.5
50
180
51
239.9999999
0
ARC
8
0
10
204.8350038
20
-114.1796182
40
0.5
50
330.0021845
51
59.9999999
0
ARC
8
0
10
191.5405097
20
-137.208384
40
0.5
50
239.9999999
51
330.0021845
0
ARC
8
0
10
175.8736421
20
-129.3178142
40
0.5
50
59.9999999
51
82.5737449
0
ARC
8
0
10
138.8375931
20
-123.481953
40
0.5
50
216.0829165
51
262.5737449
0
ARC
8
0
10
127.5856928
20
-109.74
40
0.5
50
36.0829165
51
90
0
ARC
8
0
10
91.5819822
20
-108.74
40
0.5
50
180.0020397
51
270
0
LINE
8
0
10
93
20
-107
11
107
21
-107
0
LINE
8
0
10
107
20
-107
11
107
21
-93
0
LINE
8
0
10
107
20
-93
11
93
21
-93
0
LINE
8
0
10
93
20
-93
11
93
21
-107
0
LINE
8
0
10
93
20
-88
11
107
21
-88
0
LINE
8
0
10
107
20
-88
11
107
21
-74
0
LINE
8
0
10
107
20
-74
11
93
21
-74
0
LINE
8
0
10
93
20
-74
11
93
21
-88
0
LINE
8
0
10
93
20
-69
11
107
21
-69
0
LINE
8
0
10
107
20
-69
11
107
21
-55
0
LINE
8
0
10
107
20
-55
11
93
21
-55
0
LINE
8
0
10
93
20
-55
11
93
21
-69
0
LINE
8
0
10
112
20
-102.25
11
126
21
-102.25
0
LINE
8
0
10
126
20
-102.25
11
126
21
-88.25
0
LINE
8
0
10
126
20
-88.25
11
112
21
-88.25
0
LINE
8
0
10
112
20
-88.25
11
112
21
-102.25
0
LINE
8
0
10
112
20
-83.25
11
126
21
-83.25
0
LINE
8
0
10
126
20
-83.25
11
126
21
-69.25
0
LINE
8
0
10
126
20
-69.25
11
112
21
-69.25
0
LINE
8
0
10
112
20
-69.25
11
112
21
-83.25
0
LINE
8
0
10
112
20
-64.25
11
126
21
-64.25
0
LINE
8
0
10
126
20
-64.25
11
126
21
-50.25
0
LINE
8
0
10
126
20
-50.25
11
112
21
-50.25
0
LINE
8
0
10
112
20
-50.25
11
112
21
-64.25
0
LINE
8
0
10
131
20
-99.875
11
145
21
-99.875
0
LINE
8
0
10
145
20
-99.875
11
145
21
-85.875
0
LINE
8
0
10
145
20
-85.875
11
131
21
-85.875
0
LINE
8
0
10
131
20
-85.875
11
131
21
-99.875
0
LINE
8
0
10
131
20
-80.875
11
145
21
-80.875
0
LINE
8
0
10
145
20
-80.875
11
145
21
-66.875
0
LINE
8
0
10
145
20
-66.875
11
131
21
-66.875
0
LINE
8
0
10
131
20
-66.875
11
131
21
-80.875
0
LINE
8
0
10
131
20
-61.875
11
145
21
-61.875
0
LINE
8
0
10
145
20
-61.875
11
145
21
-47.875
0
LINE
8
0
10
145
20
-47.875
11
131
21
-47.875
0
LINE
8
0
10
131
20
-47.875
11
131
21
-61.875
0
LINE
8
0
10
150
20
-102.25
11
164
21
-102.25
0
LINE
8
0
10
164
20
-102.25
11
164
21
-88.25
0
LINE
8
0
10
164
20
-88.25
11
150
21
-88.25
0
LINE
8
0
10
150
20
-88.25
11
150
21
-102.25
0
LINE
8
0
10
150
20
-83.25
11
164
21
-83.25
0
LINE
8
0
10
164
20
-83.25
11
164
21
-69.25
0
LINE
8
0
10
164
20
-69.25
11
150
21
-69.25
0
LINE
8
0
10
150
20
-69.25
11
150
21
-83.25
0
LINE
8
0
10
150
20
-64.25
11
164
21
-64.25
0
LINE
8
0
10
164
20
-64.25
11
164
21
-50.25
0
LINE
8
0
10
164
20
-50.25
11
150
21
-50.25
0
LINE
8
0
10
150
20
-50.25
11
150
21
-64.25
0
LINE
8
0
10
169
20
-104.625
11
183
21
-104.625
0
LINE
8
0
10
183
20
-104.625
11
183
21
-90.625
0
LINE
8
0
10
183
20
-90.625
11
169
21
-90.625
0
LINE
8
0
10
169
20
-90.625
11
169
21
-104.625
0
LINE
8
0
10
169
20
-85.625
11
183
21
-85.625
0
LINE
8
0
10
183
20
-85.625
11
183
21
-71.625
0
LINE
8
0
10
183
20
-71.625
11
169
21
-71.625
0
LINE
8
0
10
169
20
-71.625
11
169
21
-85.625
0
LINE
8
0
10
169
20
-66.625
11
183
21
-66.625
0
LINE
8
0
10
183
20
-66.625
11
183
21
-52.625
0
LINE
8
0
10
183
20
-52.625
11
169
21
-52.625
0
LINE
8
0
10
169
20
-52.625
11
169
21
-66.625
0
LINE
8
0
10
140.5
20
-121.875
11
154.5
21
-121.875
0
LINE
8
0
10
154.5
20
-121.875
11
154.5
21
-107.875
0
LINE
8
0
10
154.5
20
-107.875
11
140.5
21
-107.875
0
LINE
8
0
10
140.5
20
-107.875
11
140.5
21
-121.875
0
LINE
8
0
10
159.9267859
20
-122.5747475
11
173.4497475
21
-126.1982141
0
LINE
8
0
10
173.4497475
20
-126.1982141
11
177.0732141
21
-112.6752525
0
LINE
8
0
10
177.0732141
20
-112.6752525
11
163.5502525
21
-109.0517859
0
LINE
8
0
10
163.5502525
20
-109.0517859
11
159.9267859
21
-122.5747475
0
LINE
8
0
10
193.3089836
20
-130.9513354
11
200.3089836
21
-118.8269798
0
LINE
8
0
10
200.3089836
20
-118.8269798
11
188.184628
21
-111.8269798
0
LINE
8
0
10
188.184628
20
-111.8269798
11
181.184628
21
-123.9513354
0
LINE
8
0
10
181.184628
20
-123.9513354
11
193.3089836
21
-130.9513354
0
CIRCLE
8
0
10
166.468
20
-67.986
40
1.1
0
CIRCLE
8
0
10
133.657
20
-107.74
40
1.1
0
CIRCLE
8
0
10
180.2410516
20
-115.3236576
40
1.1
0
ENDSEC
0
EOF