0
SECTION
2
HEADER
9
$INSUNITS
70
4
0
ENDSEC
0
SECTION
2
TABLES
0
TABLE
2
LTYPE
0
LTYPE
72
65
70
64
2
CONTINUOUS
3
______
73
0
40
0
0
ENDTAB
0
TABLE
2
LAYER
0
ENDTAB
0
ENDSEC
0
SECTION
2
ENTITIES
0
LINE
8
0
10
91.8782446
20
-109.4906875
11
90.3687129
21
-92.2437231
0
LINE
8
0
10
88.5491996
20
-71.4551034
11
87.060611
21
-54.4474236
0
LINE
8
0
10
90.2058682
20
-90.3831624
11
88.7121175
21
-73.3165013
0
LINE
8
0
10
87.5181143
20
-53.9054785
11
108.5050375
21
-52.1960109
0
LINE
8
0
10
108.964445
20
-51.6976614
11
108.964445
21
-39.9078828
0
LINE
8
0
10
109.4627345
20
-39.4078857
11
127.4661555
21
-39.346295
0
LINE
8
0
10
127.964445
20
-38.8462979
11
127.964445
21
-35.0925903
0
LINE
8
0
10
128.464445
20
-34.5925903
11
145.466445
21
-34.5925903
0
LINE
8
0
10
145.966445
20
-35.0925903
11
145.966445
21
-39.8499559
0
LINE
8
0
10
146.4610506
20
-40.3499268
11
164.4718394
21
-40.5442539
0
LINE
8
0
10
164.966445
20
-41.0442248
11
164.966445
21
-42.5400341
0
LINE
8
0
10
165.4739442
20
-43.0399779
11
183.4591712
21
-42.7701995
0
LINE
8
0
10
183.9666704
20
-43.2699213
11
183.9674451
21
-45.0145904
0
LINE
8
0
10
183.9674451
20
-45.0148124
11
183.9674451
21
-93.9343585
0
LINE
8
0
10
184.2174451
20
-94.3673712
11
203.9383454
21
-105.7532383
0
LINE
8
0
10
204.1030141
20
-106.4656251
11
190.8686445
21
-126.1091037
0
LINE
8
0
10
190.2039758
20
-126.2627423
11
175.0080871
21
-117.4893918
0
LINE
8
0
10
174.8227121
20
-117.4265985
11
137.5239143
21
-112.5649486
0
LINE
8
0
10
137.3721942
20
-112.519914
11
126.8446631
21
-107.4672883
0
LINE
8
0
10
126.5914607
20
-107.41942
11
92.4131977
21
-109.9457316
0
ARC
8
0
10
87.5587068
20
-54.403828
40
0.5
50
94.6566888
51
185.0020393
0
ARC
8
0
10
108.464445
20
-51.6976614
40
0.5
50
274.6566888
51
0
0
ARC
8
0
10
109.464445
20
-39.9078828
40
0.5
50
90.1960093
51
180
0
ARC
8
0
10
127.464445
20
-38.8462979
40
0.5
50
270.1960093
51
0
0
ARC
8
0
10
128.464445
20
-35.0925903
40
0.5
50
90
51
180
0
ARC
8
0
10
145.466445
20
-35.0925903
40
0.5
50
0
51
90
0
ARC
8
0
10
146.466445
20
-39.8499559
40
0.5
50
180
51
269.3818296
0
ARC
8
0
10
164.466445
20
-41.0442248
40
0.5
50
0
51
89.3818296
0
ARC
8
0
10
165.466445
20
-42.5400341
40
0.5
50
180
51
270.8593715
0
ARC
8
0
10
183.4666704
20
-43.2701433
40
0.5
50
0.0254393
51
90.8593715
0
ARC
8
0
10
183.4674451
20
-45.0148124
40
0.5
50
0
51
0.0254393
0
ARC
8
0
10
184.4674451
20
-93.9343585
40
0.5
50
180
51
239.9999999
0
ARC
8
0
10
203.6883454
20
-106.186251
40
0.5
50
326.0307299
51
59.9999999
0
ARC
8
0
10
190.4539758
20
-125.8297296
40
0.5
50
239.9999999
51
326.0307299
0
ARC
8
0
10
174.7580871
20
-117.9224045
40
0.5
50
59.9999999
51
82.5737449
0
ARC
8
0
10
137.5885393
20
-112.0691426
40
0.5
50
244.3616025
51
262.5737449
0
ARC
8
0
10
126.628318
20
-107.9180597
40
0.5
50
64.3616025
51
94.2273698
0
ARC
8
0
10
92.3763404
20
-109.4470919
40
0.5
50
185.0020393
51
274.2273698
0
LINE
8
0
10
93.6367273
20
-107.5834531
11
107.5834531
21
-106.3632727
0
LINE
8
0
10
107.5834531
20
-106.3632727
11
106.3632727
21
-92.4165469
0
LINE
8
0
10
106.3632727
20
-92.4165469
11
92.4165469
21
-93.6367273
0
LINE
8
0
10
92.4165469
20
-93.6367273
11
93.6367273
21
-107.5834531
0
LINE
8
0
10
91.9807682
20
-88.6557538
11
105.927494
21
-87.4355734
0
LINE
8
0
10
105.927494
20
-87.4355734
11
104.7073136
21
-73.4888476
0
LINE
8
0
10
104.7073136
20
-73.4888476
11
90.7605878
21
-74.709028
0
LINE
8
0
10
90.7605878
20
-74.709028
11
91.9807682
21
-88.6557538
0
LINE
8
0
10
90.3248091
20
-69.7280545
11
104.2715349
21
-68.5078741
0
LINE
8
0
10
104.2715349
20
-68.5078741
11
103.0513545
21
-54.5611483
0
LINE
8
0
10
103.0513545
20
-54.5611483
11
89.1046287
21
-55.7813287
0
LINE
8
0
10
89.1046287
20
-55.7813287
11
90.3248091
21
-69.7280545
0
LINE
8
0
10
110.884445
20
-93.4195904
11
124.884445
21
-93.4195904
0
LINE
8
0
10
124.884445
20
-93.4195904
11
124.884445
21
-79.4195904
0
LINE
8
0
10
124.884445
20
-79.4195904
11
110.884445
21
-79.4195904
0
LINE
8
0
10
110.884445
20
-79.4195904
11
110.884445
21
-93.4195904
0
LINE
8
0
10
110.884445
20
-74.4195904
11
124.884445
21
-74.4195904
0
LINE
8
0
10
124.884445
20
-74.4195904
11
124.884445
21
-60.4195904
0
LINE
8
0
10
124.884445
20
-60.4195904
11
110.884445
21
-60.4195904
0
LINE
8
0
10
110.884445
20
-60.4195904
11
110.884445
21
-74.4195904
0
LINE
8
0
10
110.884445
20
-55.4195904
11
124.884445
21
-55.4195904
0
LINE
8
0
10
124.884445
20
-55.4195904
11
124.884445
21
-41.4195904
0
LINE
8
0
10
124.884445
20
-41.4195904
11
110.884445
21
-41.4195904
0
LINE
8
0
10
110.884445
20
-41.4195904
11
110.884445
21
-55.4195904
0
LINE
8
0
10
129.884445
20
-88.4795903
11
143.884445
21
-88.4795903
0
LINE
8
0
10
143.884445
20
-88.4795903
11
143.884445
21
-74.4795903
0
LINE
8
0
10
143.884445
20
-74.4795903
11
129.884445
21
-74.4795903
0
LINE
8
0
10
129.884445
20
-74.4795903
11
129.884445
21
-88.4795903
0
LINE
8
0
10
129.884445
20
-69.4795903
11
143.884445
21
-69.4795903
0
LINE
8
0
10
143.884445
20
-69.4795903
11
143.884445
21
-55.4795903
0
LINE
8
0
10
143.884445
20
-55.4795903
11
129.884445
21
-55.4795903
0
LINE
8
0
10
129.884445
20
-55.4795903
11
129.884445
21
-69.4795903
0
LINE
8
0
10
129.884445
20
-50.4795903
11
143.884445
21
-50.4795903
0
LINE
8
0
10
143.884445
20
-50.4795903
11
143.884445
21
-36.4795903
0
LINE
8
0
10
143.884445
20
-36.4795903
11
129.884445
21
-36.4795903
0
LINE
8
0
10
129.884445
20
-36.4795903
11
129.884445
21
-50.4795903
0
LINE
8
0
10
148.884445
20
-94.5595904
11
162.884445
21
-94.5595904
0
LINE
8
0
10
162.884445
20
-94.5595904
11
162.884445
21
-80.5595904
0
LINE
8
0
10
162.884445
20
-80.5595904
11
148.884445
21
-80.5595904
0
LINE
8
0
10
148.884445
20
-80.5595904
11
148.884445
21
-94.5595904
0
LINE
8
0
10
148.884445
20
-75.5595904
11
162.884445
21
-75.5595904
0
LINE
8
0
10
162.884445
20
-75.5595904
11
162.884445
21
-61.5595904
0
LINE
8
0
10
162.884445
20
-61.5595904
11
148.884445
21
-61.5595904
0
LINE
8
0
10
148.884445
20
-61.5595904
11
148.884445
21
-75.5595904
0
LINE
8
0
10
148.884445
20
-56.5595904
11
162.884445
21
-56.5595904
0
LINE
8
0
10
162.884445
20
-56.5595904
11
162.884445
21
-42.5595904
0
LINE
8
0
10
162.884445
20
-42.5595904
11
148.884445
21
-42.5595904
0
LINE
8
0
10
148.884445
20
-42.5595904
11
148.884445
21
-56.5595904
0
LINE
8
0
10
167.8844451
20
-96.6495904
11
181.8844451
21
-96.6495904
0
LINE
8
0
10
181.8844451
20
-96.6495904
11
181.8844451
21
-82.6495904
0
LINE
8
0
10
181.8844451
20
-82.6495904
11
167.8844451
21
-82.6495904
0
LINE
8
0
10
167.8844451
20
-82.6495904
11
167.8844451
21
-96.6495904
0
LINE
8
0
10
167.8844451
20
-77.6495904
11
181.8844451
21
-77.6495904
0
LINE
8
0
10
181.8844451
20
-77.6495904
11
181.8844451
21
-63.6495904
0
LINE
8
0
10
181.8844451
20
-63.6495904
11
167.8844451
21
-63.6495904
0
LINE
8
0
10
167.8844451
20
-63.6495904
11
167.8844451
21
-77.6495904
0
LINE
8
0
10
167.8844451
20
-58.6495904
11
181.8844451
21
-58.6495904
0
LINE
8
0
10
181.8844451
20
-58.6495904
11
181.8844451
21
-44.6495904
0
LINE
8
0
10
181.8844451
20
-44.6495904
11
167.8844451
21
-44.6495904
0
LINE
8
0
10
167.8844451
20
-44.6495904
11
167.8844451
21
-58.6495904
0
LINE
8
0
10
139.384445
20
-110.4795903
11
153.384445
21
-110.4795903
0
LINE
8
0
10
153.384445
20
-110.4795903
11
153.384445
21
-96.4795903
0
LINE
8
0
10
153.384445
20
-96.4795903
11
139.384445
21
-96.4795903
0
LINE
8
0
10
139.384445
20
-96.4795903
11
139.384445
21
-110.4795903
0
LINE
8
0
10
158.8112309
20
-111.1793378
11
172.3341925
21
-114.8028044
0
LINE
8
0
10
172.3341925
20
-114.8028044
11
175.9576591
21
-101.2798428
0
LINE
8
0
10
175.9576591
20
-101.2798428
11
162.4346975
21
-97.6563762
0
LINE
8
0
10
162.4346975
20
-97.6563762
11
158.8112309
21
-111.1793378
0
LINE
8
0
10
192.1934286
20
-119.5559257
11
199.1934286
21
-107.4315701
0
LINE
8
0
10
199.1934286
20
-107.4315701
11
187.069073
21
-100.4315701
0
LINE
8
0
10
187.069073
20
-100.4315701
11
180.069073
21
-112.5559257
0
LINE
8
0
10
180.069073
20
-112.5559257
11
192.1934286
21
-119.5559257
0
ARC
8
0
10
88.0522117
20
-72.4364306
40
1.1
50
306.8637628
51
423.1403104
0
ARC
8
0
10
89.7081708
20
-91.3641299
40
1.1
50
306.9052002
51
423.0988767
0
CIRCLE
8
0
10
165.3524451
20
-60.0105904
40
1.1
0
CIRCLE
8
0
10
132.541445
20
-96.3445903
40
1.1
0
CIRCLE
8
0
10
179.1254966
20
-103.9282479
40
1.1
0
ENDSEC
0
EOF