0
SECTION
2
HEADER
9
$INSUNITS
70
4
0
ENDSEC
0
SECTION
2
TABLES
0
TABLE
2
LTYPE
0
LTYPE
72
65
70
64
2
CONTINUOUS
3
______
73
0
40
0
0
ENDTAB
0
TABLE
2
LAYER
0
ENDTAB
0
ENDSEC
0
SECTION
2
ENTITIES
0
LINE
8
0
10
91.8782446
20
-109.4906875
11
87.060611
21
-54.4474236
0
LINE
8
0
10
87.5181143
20
-53.9054785
11
108.5050375
21
-52.1960109
0
LINE
8
0
10
108.964445
20
-51.6976614
11
108.964445
21
-39.9078828
0
LINE
8
0
10
109.4627345
20
-39.4078857
11
127.4661555
21
-39.346295
0
LINE
8
0
10
127.964445
20
-38.8462979
11
127.964445
21
-35.0925903
0
LINE
8
0
10
128.464445
20
-34.5925903
11
145.466445
21
-34.5925903
0
LINE
8
0
10
145.966445
20
-35.0925903
11
145.966445
21
-39.8499559
0
LINE
8
0
10
146.4610506
20
-40.3499268
11
164.4718394
21
-40.5442539
0
LINE
8
0
10
164.966445
20
-41.0442248
11
164.966445
21
-42.5400341
0
LINE
8
0
10
165.4739442
20
-43.0399779
11
183.4591712
21
-42.7701995
0
LINE
8
0
10
183.9666704
20
-43.2699213
11
183.9674451
21
-45.0145904
0
LINE
8
0
10
183.9674451
20
-45.0148124
11
183.9674451
21
-93.9343585
0
LINE
8
0
10
184.2174451
20
-94.3673712
11
204.2242115
21
-105.9182832
0
LINE
8
0
10
204.4565946
20
-106.2197415
11
211.2693492
21
-131.2007277
0
LINE
8
0
10
211.1405195
20
-131.6858355
11
198.2724595
21
-144.5538955
0
LINE
8
0
10
197.5573001
20
-144.5456552
11
185.2184018
21
-131.6245719
0
LINE
8
0
10
185.1147454
20
-131.5415604
11
167.7363224
21
-121.075771
0
LINE
8
0
10
167.6110135
20
-121.0220102
11
149.4229791
21
-116.017769
0
LINE
8
0
10
149.378279
20
-116.0031771
11
126.8280914
21
-107.448908
0
LINE
8
0
10
126.6138934
20
-107.4177619
11
92.4131977
21
-109.9457316
0
ARC
8
0
10
87.5587068
20
-54.403828
40
0.5
50
94.6566888
51
185.0020393
0
ARC
8
0
10
108.464445
20
-51.6976614
40
0.5
50
274.6566888
51
0
0
ARC
8
0
10
109.464445
20
-39.9078828
40
0.5
50
90.1960093
51
180
0
ARC
8
0
10
127.464445
20
-38.8462979
40
0.5
50
270.1960093
51
0
0
ARC
8
0
10
128.464445
20
-35.0925903
40
0.5
50
90
51
180
0
ARC
8
0
10
145.466445
20
-35.0925903
40
0.5
50
0
51
90
0
ARC
8
0
10
146.466445
20
-39.8499559
40
0.5
50
180
51
269.3818296
0
ARC
8
0
10
164.466445
20
-41.0442248
40
0.5
50
0
51
89.3818296
0
ARC
8
0
10
165.466445
20
-42.5400341
40
0.5
50
180
51
270.8593715
0
ARC
8
0
10
183.4666704
20
-43.2701433
40
0.5
50
0.0254393
51
90.8593715
0
ARC
8
0
10
183.4674451
20
-45.0148124
40
0.5
50
0
51
0.0254393
0
ARC
8
0
10
184.4674451
20
-93.9343585
40
0.5
50
180
51
239.9999999
0
ARC
8
0
10
203.9742115
20
-106.3512959
40
0.5
50
15.2546016
51
59.9999999
0
ARC
8
0
10
210.7869661
20
-131.3322821
40
0.5
50
315
51
15.2546016
0
ARC
8
0
10
197.9189061
20
-144.2003421
40
0.5
50
223.6796985
51
315
0
ARC
8
0
10
184.8567958
20
-131.969885
40
0.5
50
43.6796985
51
58.9424303
0
ARC
8
0
10
167.4783729
20
-121.5040957
40
0.5
50
58.9424303
51
74.6163323
0
ARC
8
0
10
149.5556197
20
-115.5356835
40
0.5
50
249.2260802
51
254.6163323
0
ARC
8
0
10
126.6507507
20
-107.9164016
40
0.5
50
69.2260802
51
94.2273698
0
ARC
8
0
10
92.3763404
20
-109.4470919
40
0.5
50
185.0020393
51
274.2273698
0
LINE
8
0
10
93.6367273
20
-107.5834531
11
107.5834531
21
-106.3632727
0
LINE
8
0
10
107.5834531
20
-106.3632727
11
106.3632727
21
-92.4165469
0
LINE
8
0
10
106.3632727
20
-92.4165469
11
92.4165469
21
-93.6367273
0
LINE
8
0
10
92.4165469
20
-93.6367273
11
93.6367273
21
-107.5834531
0
LINE
8
0
10
91.9807682
20
-88.6557538
11
105.927494
21
-87.4355734
0
LINE
8
0
10
105.927494
20
-87.4355734
11
104.7073136
21
-73.4888476
0
LINE
8
0
10
104.7073136
20
-73.4888476
11
90.7605878
21
-74.709028
0
LINE
8
0
10
90.7605878
20
-74.709028
11
91.9807682
21
-88.6557538
0
LINE
8
0
10
90.3248091
20
-69.7280545
11
104.2715349
21
-68.5078741
0
LINE
8
0
10
104.2715349
20
-68.5078741
11
103.0513545
21
-54.5611483
0
LINE
8
0
10
103.0513545
20
-54.5611483
11
89.1046287
21
-55.7813287
0
LINE
8
0
10
89.1046287
20
-55.7813287
11
90.3248091
21
-69.7280545
0
LINE
8
0
10
110.884445
20
-93.4195904
11
124.884445
21
-93.4195904
0
LINE
8
0
10
124.884445
20
-93.4195904
11
124.884445
21
-79.4195904
0
LINE
8
0
10
124.884445
20
-79.4195904
11
110.884445
21
-79.4195904
0
LINE
8
0
10
110.884445
20
-79.4195904
11
110.884445
21
-93.4195904
0
LINE
8
0
10
110.884445
20
-74.4195904
11
124.884445
21
-74.4195904
0
LINE
8
0
10
124.884445
20
-74.4195904
11
124.884445
21
-60.4195904
0
LINE
8
0
10
124.884445
20
-60.4195904
11
110.884445
21
-60.4195904
0
LINE
8
0
10
110.884445
20
-60.4195904
11
110.884445
21
-74.4195904
0
LINE
8
0
10
110.884445
20
-55.4195904
11
124.884445
21
-55.4195904
0
LINE
8
0
10
124.884445
20
-55.4195904
11
124.884445
21
-41.4195904
0
LINE
8
0
10
124.884445
20
-41.4195904
11
110.884445
21
-41.4195904
0
LINE
8
0
10
110.884445
20
-41.4195904
11
110.884445
21
-55.4195904
0
LINE
8
0
10
129.884445
20
-88.4795903
11
143.884445
21
-88.4795903
0
LINE
8
0
10
143.884445
20
-88.4795903
11
143.884445
21
-74.4795903
0
LINE
8
0
10
143.884445
20
-74.4795903
11
129.884445
21
-74.4795903
0
LINE
8
0
10
129.884445
20
-74.4795903
11
129.884445
21
-88.4795903
0
LINE
8
0
10
129.884445
20
-69.4795903
11
143.884445
21
-69.4795903
0
LINE
8
0
10
143.884445
20
-69.4795903
11
143.884445
21
-55.4795903
0
LINE
8
0
10
143.884445
20
-55.4795903
11
129.884445
21
-55.4795903
0
LINE
8
0
10
129.884445
20
-55.4795903
11
129.884445
21
-69.4795903
0
LINE
8
0
10
129.884445
20
-50.4795903
11
143.884445
21
-50.4795903
0
LINE
8
0
10
143.884445
20
-50.4795903
11
143.884445
21
-36.4795903
0
LINE
8
0
10
143.884445
20
-36.4795903
11
129.884445
21
-36.4795903
0
LINE
8
0
10
129.884445
20
-36.4795903
11
129.884445
21
-50.4795903
0
LINE
8
0
10
148.884445
20
-94.5595904
11
162.884445
21
-94.5595904
0
LINE
8
0
10
162.884445
20
-94.5595904
11
162.884445
21
-80.5595904
0
LINE
8
0
10
162.884445
20
-80.5595904
11
148.884445
21
-80.5595904
0
LINE
8
0
10
148.884445
20
-80.5595904
11
148.884445
21
-94.5595904
0
LINE
8
0
10
148.884445
20
-75.5595904
11
162.884445
21
-75.5595904
0
LINE
8
0
10
162.884445
20
-75.5595904
11
162.884445
21
-61.5595904
0
LINE
8
0
10
162.884445
20
-61.5595904
11
148.884445
21
-61.5595904
0
LINE
8
0
10
148.884445
20
-61.5595904
11
148.884445
21
-75.5595904
0
LINE
8
0
10
148.884445
20
-56.5595904
11
162.884445
21
-56.5595904
0
LINE
8
0
10
162.884445
20
-56.5595904
11
162.884445
21
-42.5595904
0
LINE
8
0
10
162.884445
20
-42.5595904
11
148.884445
21
-42.5595904
0
LINE
8
0
10
148.884445
20
-42.5595904
11
148.884445
21
-56.5595904
0
LINE
8
0
10
167.8844451
20
-96.6495904
11
181.8844451
21
-96.6495904
0
LINE
8
0
10
181.8844451
20
-96.6495904
11
181.8844451
21
-82.6495904
0
LINE
8
0
10
181.8844451
20
-82.6495904
11
167.8844451
21
-82.6495904
0
LINE
8
0
10
167.8844451
20
-82.6495904
11
167.8844451
21
-96.6495904
0
LINE
8
0
10
167.8844451
20
-77.6495904
11
181.8844451
21
-77.6495904
0
LINE
8
0
10
181.8844451
20
-77.6495904
11
181.8844451
21
-63.6495904
0
LINE
8
0
10
181.8844451
20
-63.6495904
11
167.8844451
21
-63.6495904
0
LINE
8
0
10
167.8844451
20
-63.6495904
11
167.8844451
21
-77.6495904
0
LINE
8
0
10
167.8844451
20
-58.6495904
11
181.8844451
21
-58.6495904
0
LINE
8
0
10
181.8844451
20
-58.6495904
11
181.8844451
21
-44.6495904
0
LINE
8
0
10
181.8844451
20
-44.6495904
11
167.8844451
21
-44.6495904
0
LINE
8
0
10
167.8844451
20
-44.6495904
11
167.8844451
21
-58.6495904
0
LINE
8
0
10
151.8112309
20
-114.5093379
11
165.3341925
21
-118.1328045
0
LINE
8
0
10
165.3341925
20
-118.1328045
11
168.9576591
21
-104.6098429
0
LINE
8
0
10
168.9576591
20
-104.6098429
11
155.4346975
21
-100.9863763
0
LINE
8
0
10
155.4346975
20
-100.9863763
11
151.8112309
21
-114.5093379
0
LINE
8
0
10
170.3949572
20
-120.2132642
11
182.5193128
21
-127.2132642
0
LINE
8
0
10
182.5193128
20
-127.2132642
11
189.5193128
21
-115.0889086
0
LINE
8
0
10
189.5193128
20
-115.0889086
11
177.3949572
21
-108.0889086
0
LINE
8
0
10
177.3949572
20
-108.0889086
11
170.3949572
21
-120.2132642
0
LINE
8
0
10
188.0111687
20
-131.4806626
11
197.9106636
21
-141.3801575
0
LINE
8
0
10
197.9106636
20
-141.3801575
11
207.8101585
21
-131.4806626
0
LINE
8
0
10
207.8101585
20
-131.4806626
11
197.9106636
21
-121.5811677
0
LINE
8
0
10
197.9106636
20
-121.5811677
11
188.0111687
21
-131.4806626
0
CIRCLE
8
0
10
107.384445
20
-57.9195904
40
1.1
0
CIRCLE
8
0
10
108.384445
20
-76.9195904
40
1.1
0
CIRCLE
8
0
10
165.3524451
20
-60.0105904
40
1.1
0
CIRCLE
8
0
10
148.8598077
20
-99.0848776
40
1.1
0
CIRCLE
8
0
10
206.488576
20
-122.9027502
40
1.1
0
ENDSEC
0
EOF