0
SECTION
2
HEADER
9
$INSUNITS
70
4
0
ENDSEC
0
SECTION
2
TABLES
0
TABLE
2
LTYPE
0
LTYPE
72
65
70
64
2
CONTINUOUS
3
______
73
0
40
0
0
ENDTAB
0
TABLE
2
LAYER
0
ENDTAB
0
ENDSEC
0
SECTION
2
ENTITIES
0
LINE
8
0
10
91.0819821
20
-108.7370165
11
91.0800176
21
-53.4842356
0
LINE
8
0
10
91.5742022
20
-52.9842516
11
109.5858154
21
-52.7747481
0
LINE
8
0
10
110.08
20
-52.2747819
11
110.08
21
-41.5182924
0
LINE
8
0
10
110.5782895
20
-41.0182953
11
128.5817105
21
-40.9567047
0
LINE
8
0
10
129.08
20
-40.4567076
11
129.08
21
-36.703
0
LINE
8
0
10
129.58
20
-36.203
11
146.582
21
-36.203
0
LINE
8
0
10
147.082
20
-36.703
11
147.082
21
-41.4603656
0
LINE
8
0
10
147.5766056
20
-41.9603365
11
165.5873944
21
-42.1546635
0
LINE
8
0
10
166.082
20
-42.6546344
11
166.082
21
-44.1504437
0
LINE
8
0
10
166.5894992
20
-44.6503875
11
184.5747261
21
-44.3806091
0
LINE
8
0
10
185.0822253
20
-44.8803309
11
185.0827781
21
-46.125222
0
LINE
8
0
10
205.518
20
-107.631596
11
191.9841995
21
-127.7195134
0
LINE
8
0
10
191.3195308
20
-127.873152
11
176.1236421
21
-119.0998015
0
LINE
8
0
10
175.9382671
20
-119.0370082
11
138.6394693
21
-114.1753583
0
LINE
8
0
10
138.4877492
20
-114.1303237
11
127.9439913
21
-109.06991
0
LINE
8
0
10
127.7246537
20
-109.0206904
11
91.5849746
21
-109.2369897
0
LINE
8
0
10
185.5827781
20
-46.625
11
205.333
21
-46.625
0
LINE
8
0
10
205.833
20
-47.125
11
205.833
21
-106.9520254
0
LINE
8
0
10
205.7660127
20
-107.2020254
11
205.518
21
-107.631596
0
ARC
8
0
10
91.5800176
20
-53.4842178
40
0.5
50
90.6664108
51
180.0020398
0
ARC
8
0
10
109.58
20
-52.2747819
40
0.5
50
270.6664108
51
0
0
ARC
8
0
10
110.58
20
-41.5182924
40
0.5
50
90.1960093
51
180
0
ARC
8
0
10
128.58
20
-40.4567076
40
0.5
50
270.1960093
51
0
0
ARC
8
0
10
129.58
20
-36.703
40
0.5
50
90
51
180
0
ARC
8
0
10
146.582
20
-36.703
40
0.5
50
0
51
90
0
ARC
8
0
10
147.582
20
-41.4603656
40
0.5
50
180
51
269.3818353
0
ARC
8
0
10
165.582
20
-42.6546344
40
0.5
50
0
51
89.3818353
0
ARC
8
0
10
166.582
20
-44.1504437
40
0.5
50
180
51
270.8593715
0
ARC
8
0
10
184.5822253
20
-44.8805529
40
0.5
50
0.0254393
51
90.8593715
0
ARC
8
0
10
185.5827781
20
-46.125
40
0.5
50
180.0254393
51
270
0
ARC
8
0
10
205.333
20
-47.125
40
0.5
50
0
51
90
0
ARC
8
0
10
205.333
20
-106.9520254
40
0.5
50
329.9999999
51
0
0
ARC
8
0
10
191.5695308
20
-127.4401393
40
0.5
50
239.9999999
51
326.0307299
0
ARC
8
0
10
175.8736421
20
-119.5328142
40
0.5
50
59.9999999
51
82.5737449
0
ARC
8
0
10
138.7040943
20
-113.6795523
40
0.5
50
244.3615973
51
262.5737449
0
ARC
8
0
10
127.7276462
20
-109.5206814
40
0.5
50
64.3615973
51
90.3429173
0
ARC
8
0
10
91.5819821
20
-108.7369987
40
0.5
50
180.0020397
51
270.3429173
0
CIRCLE
8
0
10
166.468
20
-61.621
40
2.15
0
CIRCLE
8
0
10
133.657
20
-97.955
40
2.15
0
CIRCLE
8
0
10
180.2410516
20
-105.5386576
40
2.15
0
CIRCLE
8
0
10
188.762
20
-94.111
40
1.1
0
CIRCLE
8
0
10
203.194
20
-102.63
40
1.1
0
ENDSEC
0
EOF