0
SECTION
2
HEADER
9
$INSUNITS
70
4
0
ENDSEC
0
SECTION
2
TABLES
0
TABLE
2
LTYPE
0
LTYPE
72
65
70
64
2
CONTINUOUS
3
______
73
0
40
0
0
ENDTAB
0
TABLE
2
LAYER
0
ENDTAB
0
ENDSEC
0
SECTION
2
ENTITIES
0
LINE
8
0
10
91.0819798
20
-108.6707984
11
91.0800177
21
-53.4883757
0
LINE
8
0
10
91.578373
20
-52.9883606
11
128.5816447
21
-52.8666393
0
LINE
8
0
10
129.08
20
-52.366642
11
129.08
21
-41.4909219
0
LINE
8
0
10
129.5809211
20
-40.9909227
11
147.5790789
21
-41.0240773
0
LINE
8
0
10
148.08
20
-40.5240781
11
148.08
21
-36.613
0
LINE
8
0
10
148.58
20
-36.113
11
165.582
21
-36.113
0
LINE
8
0
10
166.082
20
-36.613
11
166.082
21
-41.4753946
0
LINE
8
0
10
166.5816053
20
-41.9753944
11
184.5823947
21
-41.9896056
0
LINE
8
0
10
185.082
20
-42.4896054
11
185.082
21
-43.6081315
0
LINE
8
0
10
185.5818684
20
-44.1081315
11
203.5823535
21
-44.1128685
0
LINE
8
0
10
204.0822219
20
-44.6126465
11
204.0827781
21
-45.865222
0
LINE
8
0
10
224.518
20
-107.371596
11
228.5240397
21
-127.3439513
0
LINE
8
0
10
229.0863388
20
-130.1473275
11
230.5778805
21
-137.5834997
0
LINE
8
0
10
230.4090386
20
-138.064853
11
217.1155132
21
-149.2194452
0
LINE
8
0
10
216.4110972
20
-149.1578168
11
205.2803965
21
-135.8927642
0
LINE
8
0
10
205.1875726
20
-135.806991
11
189.7461294
21
-124.8014803
0
LINE
8
0
10
189.6308585
20
-124.7402454
11
171.869123
21
-118.1070208
0
LINE
8
0
10
171.7419312
20
-118.0777066
11
153.1012209
21
-116.2898889
0
LINE
8
0
10
152.68761
20
-115.9849406
11
146.9871993
21
-102.3422885
0
LINE
8
0
10
146.4613824
20
-102.0392302
11
91.6464502
21
-109.1666067
0
LINE
8
0
10
204.5827781
20
-46.365
11
224.333
21
-46.365
0
LINE
8
0
10
224.833
20
-46.865
11
224.833
21
-106.6920254
0
LINE
8
0
10
224.7660127
20
-106.9420254
11
224.518
21
-107.371596
0
ARC
8
0
10
91.5800177
20
-53.4883579
40
0.5
50
90.1884748
51
180.0020398
0
ARC
8
0
10
128.58
20
-52.366642
40
0.5
50
270.1884748
51
0
0
ARC
8
0
10
129.58
20
-41.4909219
40
0.5
50
89.8944554
51
180
0
ARC
8
0
10
147.58
20
-40.5240781
40
0.5
50
269.8944554
51
0
0
ARC
8
0
10
148.58
20
-36.613
40
0.5
50
90
51
180
0
ARC
8
0
10
165.582
20
-36.613
40
0.5
50
0
51
90
0
ARC
8
0
10
166.582
20
-41.4753946
40
0.5
50
180
51
269.954765
0
ARC
8
0
10
184.582
20
-42.4896054
40
0.5
50
0
51
89.954765
0
ARC
8
0
10
185.582
20
-43.6081315
40
0.5
50
180
51
269.9849198
0
ARC
8
0
10
203.5822219
20
-44.6128685
40
0.5
50
0.0254393
51
89.9849198
0
ARC
8
0
10
204.5827781
20
-45.865
40
0.5
50
180.0254393
51
270
0
ARC
8
0
10
224.333
20
-46.865
40
0.5
50
0
51
90
0
ARC
8
0
10
224.333
20
-106.6920254
40
0.5
50
329.9999999
51
0
0
ARC
8
0
10
230.0876448
20
-137.6818308
40
0.5
50
310.0000012
51
11.3418411
0
ARC
8
0
10
216.7941194
20
-148.836423
40
0.5
50
220.0000012
51
310.0000012
0
ARC
8
0
10
204.8973743
20
-136.214158
40
0.5
50
40.0000012
51
54.5215594
0
ARC
8
0
10
189.4559311
20
-125.2086473
40
0.5
50
54.5215594
51
69.5215596
0
ARC
8
0
10
171.6941956
20
-118.5754227
40
0.5
50
69.5215596
51
84.5215592
0
ARC
8
0
10
153.1489565
20
-115.7921728
40
0.5
50
202.6769963
51
264.5215592
0
ARC
8
0
10
146.5258528
20
-102.5350563
40
0.5
50
22.6769963
51
97.4083894
0
ARC
8
0
10
91.5819798
20
-108.6707806
40
0.5
50
180.0020398
51
277.4083894
0
CIRCLE
8
0
10
109.5
20
-71.5
40
2.15
0
CIRCLE
8
0
10
109.5
20
-90.5
40
2.15
0
CIRCLE
8
0
10
185.468
20
-61.361
40
2.15
0
CIRCLE
8
0
10
172.7442902
20
-101.1746489
40
2.15
0
ARC
8
0
10
227.2307082
20
-129.0614476
40
2.15
50
53.0190439
51
329.6646371
0
CIRCLE
8
0
10
207.762
20
-93.851
40
1.1
0
CIRCLE
8
0
10
222.194
20
-102.37
40
1.1
0
ENDSEC
0
EOF