0
SECTION
2
HEADER
9
$INSUNITS
70
4
0
ENDSEC
0
SECTION
2
TABLES
0
TABLE
2
LTYPE
0
LTYPE
72
65
70
64
2
CONTINUOUS
3
______
73
0
40
0
0
ENDTAB
0
TABLE
2
LAYER
0
ENDTAB
0
ENDSEC
0
SECTION
2
ENTITIES
0
LINE
8
0
10
91.8782717
20
-109.4909974
11
87.060611
21
-54.4474236
0
LINE
8
0
10
87.5181143
20
-53.9054785
11
108.5050375
21
-52.1960109
0
LINE
8
0
10
108.964445
20
-51.6976614
11
108.964445
21
-39.9078828
0
LINE
8
0
10
109.4627345
20
-39.4078857
11
127.4661555
21
-39.346295
0
LINE
8
0
10
127.964445
20
-38.8462979
11
127.964445
21
-35.0925903
0
LINE
8
0
10
128.464445
20
-34.5925903
11
145.466445
21
-34.5925903
0
LINE
8
0
10
145.966445
20
-35.0925903
11
145.966445
21
-39.8499559
0
LINE
8
0
10
146.4610506
20
-40.3499268
11
164.4718394
21
-40.5442539
0
LINE
8
0
10
164.966445
20
-41.0442248
11
164.966445
21
-42.5400341
0
LINE
8
0
10
165.4739442
20
-43.0399779
11
183.4591712
21
-42.7701995
0
LINE
8
0
10
183.9666704
20
-43.2699213
11
183.9672232
21
-44.5148124
0
LINE
8
0
10
204.4024451
20
-100.5601864
11
185.5553609
21
-99.2321006
0
LINE
8
0
10
185.1362133
20
-100.051087
11
211.0531598
21
-131.1298667
0
LINE
8
0
10
211.0227117
20
-131.8036433
11
198.2724595
21
-144.5538955
0
LINE
8
0
10
197.5573001
20
-144.5456552
11
185.2184018
21
-131.6245719
0
LINE
8
0
10
185.1147454
20
-131.5415604
11
167.7363224
21
-121.075771
0
LINE
8
0
10
167.6110135
20
-121.0220102
11
149.7108171
21
-116.0969645
0
LINE
8
0
10
149.3496706
20
-115.6934558
11
146.4494955
21
-97.4683765
0
LINE
8
0
10
145.9707017
20
-97.0471781
11
108.9826876
21
-95.9375377
0
LINE
8
0
10
108.4732259
20
-96.5114809
11
110.2118201
21
-108.1024599
0
LINE
8
0
10
109.7538944
20
-108.6752908
11
92.4129103
21
-109.9460646
0
LINE
8
0
10
184.4672232
20
-45.0145904
11
204.2174451
21
-45.0145904
0
LINE
8
0
10
204.7174451
20
-45.5145904
11
204.7174451
21
-99.8806158
0
LINE
8
0
10
204.6504578
20
-100.1306158
11
204.4024451
21
-100.5601864
0
ARC
8
0
10
87.5587068
20
-54.403828
40
0.5
50
94.6566888
51
185.0020393
0
ARC
8
0
10
108.464445
20
-51.6976614
40
0.5
50
274.6566888
51
0
0
ARC
8
0
10
109.464445
20
-39.9078828
40
0.5
50
90.1960093
51
180
0
ARC
8
0
10
127.464445
20
-38.8462979
40
0.5
50
270.1960093
51
0
0
ARC
8
0
10
128.464445
20
-35.0925903
40
0.5
50
90
51
180
0
ARC
8
0
10
145.466445
20
-35.0925903
40
0.5
50
0
51
90
0
ARC
8
0
10
146.466445
20
-39.8499559
40
0.5
50
180
51
269.3818296
0
ARC
8
0
10
164.466445
20
-41.0442248
40
0.5
50
0
51
89.3818296
0
ARC
8
0
10
165.466445
20
-42.5400341
40
0.5
50
180
51
270.8593715
0
ARC
8
0
10
183.4666704
20
-43.2701433
40
0.5
50
0.0254393
51
90.8593715
0
ARC
8
0
10
184.4672232
20
-44.5145904
40
0.5
50
180.0254393
51
270
0
ARC
8
0
10
204.2174451
20
-45.5145904
40
0.5
50
0
51
90
0
ARC
8
0
10
204.2174451
20
-99.8806158
40
0.5
50
329.9999999
51
0
0
ARC
8
0
10
185.5202148
20
-99.7308638
40
0.5
50
85.9692356
51
219.825109
0
ARC
8
0
10
210.6691583
20
-131.4500899
40
0.5
50
315
51
39.825109
0
ARC
8
0
10
197.9189061
20
-144.2003421
40
0.5
50
223.6796985
51
315
0
ARC
8
0
10
184.8567958
20
-131.969885
40
0.5
50
43.6796985
51
58.9424303
0
ARC
8
0
10
167.4783729
20
-121.5040957
40
0.5
50
58.9424303
51
74.6163323
0
ARC
8
0
10
149.8434577
20
-115.614879
40
0.5
50
189.0417248
51
254.6163323
0
ARC
8
0
10
145.9557084
20
-97.5469533
40
0.5
50
9.0417248
51
88.2816425
0
ARC
8
0
10
108.9676944
20
-96.4373129
40
0.5
50
88.2816425
51
188.5305135
0
ARC
8
0
10
109.7173516
20
-108.176628
40
0.5
50
274.1912332
51
8.5305135
0
ARC
8
0
10
92.3763675
20
-109.4474018
40
0.5
50
185.0020393
51
274.1912332
0
CIRCLE
8
0
10
107.384445
20
-57.9195904
40
2.15
0
CIRCLE
8
0
10
108.384445
20
-76.9195904
40
2.15
0
CIRCLE
8
0
10
165.3524451
20
-60.0105904
40
2.15
0
CIRCLE
8
0
10
150.1570461
20
-99.4324716
40
2.15
0
CIRCLE
8
0
10
189.8298246
20
-123.3510864
40
2.15
0
ENDSEC
0
EOF