0
SECTION
2
HEADER
9
$INSUNITS
70
4
0
ENDSEC
0
SECTION
2
TABLES
0
TABLE
2
LTYPE
0
LTYPE
72
65
70
64
2
CONTINUOUS
3
______
73
0
40
0
0
ENDTAB
0
TABLE
2
LAYER
0
ENDTAB
0
ENDSEC
0
SECTION
2
ENTITIES
0
LINE
8
0
10
91.8782446
20
-109.4906875
11
90.4677689
21
-93.3754754
0
LINE
8
0
10
88.4501636
20
-70.3235808
11
87.060611
21
-54.4474236
0
LINE
8
0
10
90.1068122
20
-89.2514101
11
88.8111534
21
-74.4480239
0
LINE
8
0
10
87.5181143
20
-53.9054785
11
108.5050375
21
-52.1960109
0
LINE
8
0
10
108.964445
20
-51.6976614
11
108.964445
21
-39.9078828
0
LINE
8
0
10
109.4627345
20
-39.4078857
11
127.4661555
21
-39.346295
0
LINE
8
0
10
127.964445
20
-38.8462979
11
127.964445
21
-35.0925903
0
LINE
8
0
10
128.464445
20
-34.5925903
11
145.466445
21
-34.5925903
0
LINE
8
0
10
145.966445
20
-35.0925903
11
145.966445
21
-39.8499559
0
LINE
8
0
10
146.4610506
20
-40.3499268
11
164.4718394
21
-40.5442539
0
LINE
8
0
10
164.966445
20
-41.0442248
11
164.966445
21
-42.5400341
0
LINE
8
0
10
165.4739442
20
-43.0399779
11
183.4591712
21
-42.7701995
0
LINE
8
0
10
183.9666704
20
-43.2699213
11
183.9672232
21
-44.5148124
0
LINE
8
0
10
204.4024451
20
-106.0211864
11
189.534612
21
-131.0192645
0
LINE
8
0
10
188.8548751
20
-131.1966873
11
173.6521752
21
-122.4194044
0
LINE
8
0
10
173.5333968
20
-122.3699434
11
137.4884527
21
-112.5665594
0
LINE
8
0
10
137.4033293
20
-112.5348571
11
126.8446631
21
-107.4672883
0
LINE
8
0
10
126.5914607
20
-107.41942
11
92.4131977
21
-109.9457316
0
LINE
8
0
10
184.4672232
20
-45.0145904
11
204.2174451
21
-45.0145904
0
LINE
8
0
10
204.7174451
20
-45.5145904
11
204.7174451
21
-105.3416158
0
LINE
8
0
10
204.6504578
20
-105.5916158
11
204.4024451
21
-106.0211864
0
ARC
8
0
10
87.5587068
20
-54.403828
40
0.5
50
94.6566888
51
185.0020393
0
ARC
8
0
10
108.464445
20
-51.6976614
40
0.5
50
274.6566888
51
0
0
ARC
8
0
10
109.464445
20
-39.9078828
40
0.5
50
90.1960093
51
180
0
ARC
8
0
10
127.464445
20
-38.8462979
40
0.5
50
270.1960093
51
0
0
ARC
8
0
10
128.464445
20
-35.0925903
40
0.5
50
90
51
180
0
ARC
8
0
10
145.466445
20
-35.0925903
40
0.5
50
0
51
90
0
ARC
8
0
10
146.466445
20
-39.8499559
40
0.5
50
180
51
269.3818296
0
ARC
8
0
10
164.466445
20
-41.0442248
40
0.5
50
0
51
89.3818296
0
ARC
8
0
10
165.466445
20
-42.5400341
40
0.5
50
180
51
270.8593715
0
ARC
8
0
10
183.4666704
20
-43.2701433
40
0.5
50
0.0254393
51
90.8593715
0
ARC
8
0
10
184.4672232
20
-44.5145904
40
0.5
50
180.0254393
51
270
0
ARC
8
0
10
204.2174451
20
-45.5145904
40
0.5
50
0
51
90
0
ARC
8
0
10
204.2174451
20
-105.3416158
40
0.5
50
329.9999999
51
0
0
ARC
8
0
10
189.1048751
20
-130.7636746
40
0.5
50
239.9999999
51
329.2575524
0
ARC
8
0
10
173.4021752
20
-122.8524171
40
0.5
50
59.9999999
51
74.7849168
0
ARC
8
0
10
137.6196743
20
-112.0840857
40
0.5
50
244.3616025
51
254.7849168
0
ARC
8
0
10
126.628318
20
-107.9180597
40
0.5
50
64.3616025
51
94.2273698
0
ARC
8
0
10
92.3763404
20
-109.4470919
40
0.5
50
185.0020393
51
274.2273698
0
ARC
8
0
10
88.0522117
20
-72.4364306
40
2.15
50
290.670682
51
439.3333926
0
ARC
8
0
10
89.7081708
20
-91.3641299
40
2.15
50
290.6893795
51
439.3146942
0
CIRCLE
8
0
10
165.3524451
20
-60.0105904
40
2.15
0
CIRCLE
8
0
10
132.541445
20
-96.3445903
40
2.15
0
CIRCLE
8
0
10
177.7998255
20
-108.87572
40
2.15
0
CIRCLE
8
0
10
187.6464451
20
-92.5005904
40
1.1
0
CIRCLE
8
0
10
202.0784451
20
-101.0195904
40
1.1
0
ENDSEC
0
EOF