0
SECTION
2
HEADER
9
$INSUNITS
70
4
0
ENDSEC
0
SECTION
2
TABLES
0
TABLE
2
LTYPE
0
LTYPE
72
65
70
64
2
CONTINUOUS
3
______
73
0
40
0
0
ENDTAB
0
TABLE
2
LAYER
0
ENDTAB
0
ENDSEC
0
SECTION
2
ENTITIES
0
LINE
8
0
10
91.0800176
20
-53.4842356
11
91.0819821
21
-108.7370165
0
LINE
8
0
10
91.5742022
20
-52.9842516
11
109.5858154
21
-52.7747481
0
LINE
8
0
10
110.08
20
-52.2747819
11
110.08
21
-41.5182924
0
LINE
8
0
10
110.5782895
20
-41.0182953
11
128.5817105
21
-40.9567047
0
LINE
8
0
10
129.08
20
-40.4567076
11
129.08
21
-36.703
0
LINE
8
0
10
129.58
20
-36.203
11
146.582
21
-36.203
0
LINE
8
0
10
147.082
20
-41.4603656
11
147.082
21
-36.703
0
LINE
8
0
10
147.5766056
20
-41.9603365
11
165.5873944
21
-42.1546635
0
LINE
8
0
10
166.082
20
-44.1504437
11
166.082
21
-42.6546344
0
LINE
8
0
10
166.5894992
20
-44.6503875
11
184.5747261
21
-44.3806091
0
LINE
8
0
10
185.0822253
20
-44.8803309
11
185.083
21
-46.625
0
LINE
8
0
10
191.9841995
20
-127.7195134
11
205.518
21
-107.631596
0
LINE
8
0
10
176.1236421
20
-119.0998015
11
191.3195308
21
-127.873152
0
LINE
8
0
10
138.6394693
20
-114.1753583
11
175.9382671
21
-119.0370082
0
LINE
8
0
10
127.9439913
20
-109.06991
11
138.4877492
21
-114.1303237
0
LINE
8
0
10
91.5849746
20
-109.2369897
11
127.7246537
21
-109.0206904
0
LINE
8
0
10
185.5827781
20
-46.625
11
205.333
21
-46.625
0
LINE
8
0
10
205.833
20
-106.9520254
11
205.833
21
-47.125
0
LINE
8
0
10
205.518
20
-107.631596
11
205.7660127
21
-107.2020254
0
ARC
8
0
10
91.5800176
20
-53.4842178
40
0.5
50
90.6664108
51
450.6664108
0
ARC
8
0
10
109.58
20
-52.2747819
40
0.5
50
270.6664108
51
630.6664108
0
ARC
8
0
10
110.58
20
-41.5182924
40
0.5
50
90.1960093
51
450.1960093
0
ARC
8
0
10
128.58
20
-40.4567076
40
0.5
50
270.1960093
51
630.1960093
0
ARC
8
0
10
129.58
20
-36.703
40
0.5
50
90
51
450
0
ARC
8
0
10
146.582
20
-36.703
40
0.5
50
0
51
360
0
ARC
8
0
10
147.582
20
-41.4603656
40
0.5
50
180
51
540
0
ARC
8
0
10
165.582
20
-42.6546344
40
0.5
50
0
51
360
0
ARC
8
0
10
166.582
20
-44.1504437
40
0.5
50
180
51
540
0
ARC
8
0
10
184.5822253
20
-44.8805529
40
0.5
50
0.0254393
51
360.0254393
0
ARC
8
0
10
185.5827781
20
-46.125
40
0.5
50
180.0254393
51
540.0254393
0
ARC
8
0
10
205.333
20
-47.125
40
0.5
50
0
51
360
0
ARC
8
0
10
205.333
20
-106.9520254
40
0.5
50
329.9999999
51
689.9999999
0
ARC
8
0
10
191.5695308
20
-127.4401393
40
0.5
50
239.9999999
51
599.9999999
0
ARC
8
0
10
175.8736421
20
-119.5328142
40
0.5
50
59.9999999
51
419.9999999
0
ARC
8
0
10
138.7040943
20
-113.6795523
40
0.5
50
244.3615973
51
604.3615973
0
ARC
8
0
10
127.7276462
20
-109.5206814
40
0.5
50
64.3615973
51
424.3615973
0
ARC
8
0
10
91.5819821
20
-108.7369987
40
0.5
50
180.0020397
51
540.0020397
0
CIRCLE
8
0
10
166.468
20
-61.621
40
1.1
0
CIRCLE
8
0
10
133.657
20
-97.955
40
1.1
0
CIRCLE
8
0
10
180.2410516
20
-105.5386576
40
1.1
0
CIRCLE
8
0
10
166.468
20
-61.621
40
2.15
0
CIRCLE
8
0
10
133.657
20
-97.955
40
2.15
0
CIRCLE
8
0
10
180.2410516
20
-105.5386576
40
2.15
0
CIRCLE
8
0
10
188.762
20
-94.111
40
1.1
0
CIRCLE
8
0
10
203.194
20
-102.63
40
1.1
0
LINE
8
0
10
185.083
20
-46.625222
11
185.083
21
-95.5447681
0
LINE
8
0
10
185.333
20
-95.9777808
11
205.0539003
21
-107.3636479
0
ARC
8
0
10
184.583
20
-46.625222
40
0.5
50
0
51
0.0254393
0
ARC
8
0
10
185.583
20
-95.5447681
40
0.5
50
180
51
239.9999999
0
ARC
8
0
10
204.8039003
20
-107.7966606
40
0.5
50
326.0307299
51
59.9999999
0
LINE
8
0
10
93
20
-107
11
107
21
-107
0
LINE
8
0
10
107
20
-107
11
107
21
-93
0
LINE
8
0
10
107
20
-93
11
93
21
-93
0
LINE
8
0
10
93
20
-93
11
93
21
-107
0
LINE
8
0
10
93
20
-88
11
107
21
-88
0
LINE
8
0
10
107
20
-88
11
107
21
-74
0
LINE
8
0
10
107
20
-74
11
93
21
-74
0
LINE
8
0
10
93
20
-74
11
93
21
-88
0
LINE
8
0
10
93
20
-69
11
107
21
-69
0
LINE
8
0
10
107
20
-69
11
107
21
-55
0
LINE
8
0
10
107
20
-55
11
93
21
-55
0
LINE
8
0
10
93
20
-55
11
93
21
-69
0
LINE
8
0
10
112
20
-95.03
11
126
21
-95.03
0
LINE
8
0
10
126
20
-95.03
11
126
21
-81.03
0
LINE
8
0
10
126
20
-81.03
11
112
21
-81.03
0
LINE
8
0
10
112
20
-81.03
11
112
21
-95.03
0
LINE
8
0
10
112
20
-76.03
11
126
21
-76.03
0
LINE
8
0
10
126
20
-76.03
11
126
21
-62.03
0
LINE
8
0
10
126
20
-62.03
11
112
21
-62.03
0
LINE
8
0
10
112
20
-62.03
11
112
21
-76.03
0
LINE
8
0
10
112
20
-57.03
11
126
21
-57.03
0
LINE
8
0
10
126
20
-57.03
11
126
21
-43.03
0
LINE
8
0
10
126
20
-43.03
11
112
21
-43.03
0
LINE
8
0
10
112
20
-43.03
11
112
21
-57.03
0
LINE
8
0
10
131
20
-90.09
11
145
21
-90.09
0
LINE
8
0
10
145
20
-90.09
11
145
21
-76.09
0
LINE
8
0
10
145
20
-76.09
11
131
21
-76.09
0
LINE
8
0
10
131
20
-76.09
11
131
21
-90.09
0
LINE
8
0
10
131
20
-71.09
11
145
21
-71.09
0
LINE
8
0
10
145
20
-71.09
11
145
21
-57.09
0
LINE
8
0
10
145
20
-57.09
11
131
21
-57.09
0
LINE
8
0
10
131
20
-57.09
11
131
21
-71.09
0
LINE
8
0
10
131
20
-52.09
11
145
21
-52.09
0
LINE
8
0
10
145
20
-52.09
11
145
21
-38.09
0
LINE
8
0
10
145
20
-38.09
11
131
21
-38.09
0
LINE
8
0
10
131
20
-38.09
11
131
21
-52.09
0
LINE
8
0
10
150
20
-96.17
11
164
21
-96.17
0
LINE
8
0
10
164
20
-96.17
11
164
21
-82.17
0
LINE
8
0
10
164
20
-82.17
11
150
21
-82.17
0
LINE
8
0
10
150
20
-82.17
11
150
21
-96.17
0
LINE
8
0
10
150
20
-77.17
11
164
21
-77.17
0
LINE
8
0
10
164
20
-77.17
11
164
21
-63.17
0
LINE
8
0
10
164
20
-63.17
11
150
21
-63.17
0
LINE
8
0
10
150
20
-63.17
11
150
21
-77.17
0
LINE
8
0
10
150
20
-58.17
11
164
21
-58.17
0
LINE
8
0
10
164
20
-58.17
11
164
21
-44.17
0
LINE
8
0
10
164
20
-44.17
11
150
21
-44.17
0
LINE
8
0
10
150
20
-44.17
11
150
21
-58.17
0
LINE
8
0
10
169
20
-98.26
11
183
21
-98.26
0
LINE
8
0
10
183
20
-98.26
11
183
21
-84.26
0
LINE
8
0
10
183
20
-84.26
11
169
21
-84.26
0
LINE
8
0
10
169
20
-84.26
11
169
21
-98.26
0
LINE
8
0
10
169
20
-79.26
11
183
21
-79.26
0
LINE
8
0
10
183
20
-79.26
11
183
21
-65.26
0
LINE
8
0
10
183
20
-65.26
11
169
21
-65.26
0
LINE
8
0
10
169
20
-65.26
11
169
21
-79.26
0
LINE
8
0
10
169
20
-60.26
11
183
21
-60.26
0
LINE
8
0
10
183
20
-60.26
11
183
21
-46.26
0
LINE
8
0
10
183
20
-46.26
11
169
21
-46.26
0
LINE
8
0
10
169
20
-46.26
11
169
21
-60.26
0
LINE
8
0
10
140.5
20
-112.09
11
154.5
21
-112.09
0
LINE
8
0
10
154.5
20
-112.09
11
154.5
21
-98.09
0
LINE
8
0
10
154.5
20
-98.09
11
140.5
21
-98.09
0
LINE
8
0
10
140.5
20
-98.09
11
140.5
21
-112.09
0
LINE
8
0
10
159.9267859
20
-112.7897475
11
173.4497475
21
-116.4132141
0
LINE
8
0
10
173.4497475
20
-116.4132141
11
177.0732141
21
-102.8902525
0
LINE
8
0
10
177.0732141
20
-102.8902525
11
163.5502525
21
-99.2667859
0
LINE
8
0
10
163.5502525
20
-99.2667859
11
159.9267859
21
-112.7897475
0
LINE
8
0
10
193.3089836
20
-121.1663354
11
200.3089836
21
-109.0419798
0
LINE
8
0
10
200.3089836
20
-109.0419798
11
188.184628
21
-102.0419798
0
LINE
8
0
10
188.184628
20
-102.0419798
11
181.184628
21
-114.1663354
0
LINE
8
0
10
181.184628
20
-114.1663354
11
193.3089836
21
-121.1663354
0
LINE
8
0
10
186.113
20
-95.4119776
11
186.113
21
-47.125
0
LINE
8
0
10
205.083
20
-106.6529873
11
186.363
21
-95.8449903
0
ARC
8
0
10
186.613
20
-47.125
40
0.5
50
90
51
180
0
ARC
8
0
10
205.333
20
-106.2199746
40
0.5
50
239.9999999
51
0
0
ARC
8
0
10
186.613
20
-95.4119776
40
0.5
50
180
51
239.9999999
0
LINE
8
0
10
93
20
-109
11
107
21
-109
0
LINE
8
0
10
109
20
-107
11
109
21
-93
0
LINE
8
0
10
107
20
-91
11
93
21
-91
0
LINE
8
0
10
91
20
-93
11
91
21
-107
0
LINE
8
0
10
93
20
-90
11
107
21
-90
0
LINE
8
0
10
109
20
-88
11
109
21
-74
0
LINE
8
0
10
107
20
-72
11
93
21
-72
0
LINE
8
0
10
91
20
-74
11
91
21
-88
0
LINE
8
0
10
93
20
-71
11
107
21
-71
0
LINE
8
0
10
109
20
-69
11
109
21
-55
0
LINE
8
0
10
107
20
-53
11
93
21
-53
0
LINE
8
0
10
91
20
-55
11
91
21
-69
0
LINE
8
0
10
112
20
-97.03
11
126
21
-97.03
0
LINE
8
0
10
128
20
-95.03
11
128
21
-81.03
0
LINE
8
0
10
126
20
-79.03
11
112
21
-79.03
0
LINE
8
0
10
110
20
-81.03
11
110
21
-95.03
0
LINE
8
0
10
112
20
-78.03
11
126
21
-78.03
0
LINE
8
0
10
128
20
-76.03
11
128
21
-62.03
0
LINE
8
0
10
126
20
-60.03
11
112
21
-60.03
0
LINE
8
0
10
110
20
-62.03
11
110
21
-76.03
0
LINE
8
0
10
112
20
-59.03
11
126
21
-59.03
0
LINE
8
0
10
128
20
-57.03
11
128
21
-43.03
0
LINE
8
0
10
126
20
-41.03
11
112
21
-41.03
0
LINE
8
0
10
110
20
-43.03
11
110
21
-57.03
0
LINE
8
0
10
131
20
-92.09
11
145
21
-92.09
0
LINE
8
0
10
147
20
-90.09
11
147
21
-76.09
0
LINE
8
0
10
145
20
-74.09
11
131
21
-74.09
0
LINE
8
0
10
129
20
-76.09
11
129
21
-90.09
0
LINE
8
0
10
131
20
-73.09
11
145
21
-73.09
0
LINE
8
0
10
147
20
-71.09
11
147
21
-57.09
0
LINE
8
0
10
145
20
-55.09
11
131
21
-55.09
0
LINE
8
0
10
129
20
-57.09
11
129
21
-71.09
0
LINE
8
0
10
131
20
-54.09
11
145
21
-54.09
0
LINE
8
0
10
147
20
-52.09
11
147
21
-38.09
0
LINE
8
0
10
145
20
-36.09
11
131
21
-36.09
0
LINE
8
0
10
129
20
-38.09
11
129
21
-52.09
0
LINE
8
0
10
158.5
20
-98.17
11
159.1671323
21
-98.17
0
LINE
8
0
10
166
20
-97.8526414
11
166
21
-82.17
0
LINE
8
0
10
164
20
-80.17
11
150
21
-80.17
0
LINE
8
0
10
148
20
-82.17
11
148
21
-94.09
0
LINE
8
0
10
150
20
-79.17
11
164
21
-79.17
0
LINE
8
0
10
166
20
-77.17
11
166
21
-63.17
0
LINE
8
0
10
164
20
-61.17
11
150
21
-61.17
0
LINE
8
0
10
148
20
-63.17
11
148
21
-77.17
0
LINE
8
0
10
150
20
-60.17
11
164
21
-60.17
0
LINE
8
0
10
166
20
-58.17
11
166
21
-44.17
0
LINE
8
0
10
164
20
-42.17
11
150
21
-42.17
0
LINE
8
0
10
148
20
-44.17
11
148
21
-58.17
0
LINE
8
0
10
174.9843845
20
-100.26
11
183
21
-100.26
0
LINE
8
0
10
185
20
-98.26
11
185
21
-84.26
0
LINE
8
0
10
183
20
-82.26
11
169
21
-82.26
0
LINE
8
0
10
167
20
-84.26
11
167
21
-98.1205906
0
LINE
8
0
10
169
20
-81.26
11
183
21
-81.26
0
LINE
8
0
10
185
20
-79.26
11
185
21
-65.26
0
LINE
8
0
10
183
20
-63.26
11
169
21
-63.26
0
LINE
8
0
10
167
20
-65.26
11
167
21
-79.26
0
LINE
8
0
10
169
20
-62.26
11
183
21
-62.26
0
LINE
8
0
10
185
20
-60.26
11
185
21
-46.26
0
LINE
8
0
10
183
20
-44.26
11
169
21
-44.26
0
LINE
8
0
10
167
20
-46.26
11
167
21
-60.26
0
LINE
8
0
10
140.5
20
-114.09
11
154.5
21
-114.09
0
LINE
8
0
10
156.5
20
-112.09
11
156.5
21
-100.17
0
LINE
8
0
10
146
20
-96.09
11
140.5
21
-96.09
0
LINE
8
0
10
138.5
20
-98.09
11
138.5
21
-112.09
0
LINE
8
0
10
159.409148
20
-114.7215991
11
172.9321094
21
-118.3450657
0
LINE
8
0
10
175.3815991
20
-116.930852
11
179.0050657
21
-103.4078906
0
LINE
8
0
10
177.590852
20
-100.9584009
11
174.9843845
21
-100.26
0
LINE
8
0
10
167
20
-98.1205906
11
166
21
-97.8526414
0
LINE
8
0
10
161.098984
20
-100.687638
11
157.9949343
21
-112.2721094
0
LINE
8
0
10
192.7910344
20
-126.0634498
11
204.2910344
21
-106.1448654
0
LINE
8
0
10
177.2025772
20
-117.0634498
11
188.7025772
21
-97.1448654
0
ARC
8
0
10
159.1671323
20
-100.17
40
2
50
345.0000021
51
90
0
ARC
8
0
10
159.926786
20
-112.7897474
40
2
50
165.0000021
51
255.0000021
0
ARC
8
0
10
173.4497474
20
-116.413214
40
2
50
255.0000021
51
345.0000021
0
ARC
8
0
10
177.073214
20
-102.8902526
40
2
50
345.0000021
51
75.0000021
0
ARC
8
0
10
183
20
-98.26
40
2
50
270
51
0
0
ARC
8
0
10
183
20
-84.26
40
2
50
0
51
90
0
ARC
8
0
10
169
20
-84.26
40
2
50
90
51
180
0
ARC
8
0
10
164
20
-82.17
40
2
50
0
51
90
0
ARC
8
0
10
150
20
-82.17
40
2
50
90
51
180
0
ARC
8
0
10
146
20
-94.09
40
2
50
270
51
0
0
ARC
8
0
10
140.5
20
-98.09
40
2
50
90
51
180
0
ARC
8
0
10
140.5
20
-112.09
40
2
50
180
51
270
0
ARC
8
0
10
154.5
20
-112.09
40
2
50
270
51
0
0
ARC
8
0
10
158.5
20
-100.17
40
2
50
90
51
180
0
ARC
8
0
10
107
20
-107
40
2
50
270
51
0
0
ARC
8
0
10
107
20
-93
40
2
50
0
51
90
0
ARC
8
0
10
93
20
-93
40
2
50
90
51
180
0
ARC
8
0
10
93
20
-107
40
2
50
180
51
270
0
ARC
8
0
10
107
20
-88
40
2
50
270
51
0
0
ARC
8
0
10
107
20
-74
40
2
50
0
51
90
0
ARC
8
0
10
93
20
-74
40
2
50
90
51
180
0
ARC
8
0
10
93
20
-88
40
2
50
180
51
270
0
ARC
8
0
10
107
20
-69
40
2
50
270
51
0
0
ARC
8
0
10
107
20
-55
40
2
50
0
51
90
0
ARC
8
0
10
93
20
-55
40
2
50
90
51
180
0
ARC
8
0
10
93
20
-69
40
2
50
180
51
270
0
ARC
8
0
10
126
20
-95.03
40
2
50
270
51
0
0
ARC
8
0
10
126
20
-81.03
40
2
50
0
51
90
0
ARC
8
0
10
112
20
-81.03
40
2
50
90
51
180
0
ARC
8
0
10
112
20
-95.03
40
2
50
180
51
270
0
ARC
8
0
10
126
20
-76.03
40
2
50
270
51
0
0
ARC
8
0
10
126
20
-62.03
40
2
50
0
51
90
0
ARC
8
0
10
112
20
-62.03
40
2
50
90
51
180
0
ARC
8
0
10
112
20
-76.03
40
2
50
180
51
270
0
ARC
8
0
10
126
20
-57.03
40
2
50
270
51
0
0
ARC
8
0
10
126
20
-43.03
40
2
50
0
51
90
0
ARC
8
0
10
112
20
-43.03
40
2
50
90
51
180
0
ARC
8
0
10
112
20
-57.03
40
2
50
180
51
270
0
ARC
8
0
10
145
20
-90.09
40
2
50
270
51
0
0
ARC
8
0
10
145
20
-76.09
40
2
50
0
51
90
0
ARC
8
0
10
131
20
-76.09
40
2
50
90
51
180
0
ARC
8
0
10
131
20
-90.09
40
2
50
180
51
270
0
ARC
8
0
10
145
20
-71.09
40
2
50
270
51
0
0
ARC
8
0
10
145
20
-57.09
40
2
50
0
51
90
0
ARC
8
0
10
131
20
-57.09
40
2
50
90
51
180
0
ARC
8
0
10
131
20
-71.09
40
2
50
180
51
270
0
ARC
8
0
10
145
20
-52.09
40
2
50
270
51
0
0
ARC
8
0
10
145
20
-38.09
40
2
50
0
51
90
0
ARC
8
0
10
131
20
-38.09
40
2
50
90
51
180
0
ARC
8
0
10
131
20
-52.09
40
2
50
180
51
270
0
ARC
8
0
10
164
20
-77.17
40
2
50
270
51
0
0
ARC
8
0
10
164
20
-63.17
40
2
50
0
51
90
0
ARC
8
0
10
150
20
-63.17
40
2
50
90
51
180
0
ARC
8
0
10
150
20
-77.17
40
2
50
180
51
270
0
ARC
8
0
10
164
20
-58.17
40
2
50
270
51
0
0
ARC
8
0
10
164
20
-44.17
40
2
50
0
51
90
0
ARC
8
0
10
150
20
-44.17
40
2
50
90
51
180
0
ARC
8
0
10
150
20
-58.17
40
2
50
180
51
270
0
ARC
8
0
10
183
20
-79.26
40
2
50
270
51
0
0
ARC
8
0
10
183
20
-65.26
40
2
50
0
51
90
0
ARC
8
0
10
169
20
-65.26
40
2
50
90
51
180
0
ARC
8
0
10
169
20
-79.26
40
2
50
180
51
270
0
ARC
8
0
10
183
20
-60.26
40
2
50
270
51
0
0
ARC
8
0
10
183
20
-46.26
40
2
50
0
51
90
0
ARC
8
0
10
169
20
-46.26
40
2
50
90
51
180
0
ARC
8
0
10
169
20
-60.26
40
2
50
180
51
270
0
LINE
8
0
10
203.5589836
20
-103.4128146
11
191.434628
21
-96.4128146
0
LINE
8
0
10
177.934628
20
-119.7955006
11
190.0589836
21
-126.7955006
0
ARC
8
0
10
202.5589836
20
-105.1448654
40
2
50
329.9999999
51
59.9999999
0
ARC
8
0
10
190.434628
20
-98.1448654
40
2
50
59.9999999
51
149.9999999
0
ARC
8
0
10
178.934628
20
-118.0634498
40
2
50
149.9999999
51
239.9999999
0
ARC
8
0
10
191.0589836
20
-125.0634498
40
2
50
239.9999999
51
329.9999999
0
LINE
8
0
10
89.63
20
-52.9900516
11
89.632
21
-109.2400516
0
LINE
8
0
10
89.6299666
20
-52.0510039
11
89.63
21
-52.9900516
0
LINE
8
0
10
90.1241512
20
-51.5510199
11
108.1358154
21
-51.3415159
0
LINE
8
0
10
108.63
20
-50.8415497
11
108.63
21
-40.0732444
0
LINE
8
0
10
109.1282895
20
-39.5732473
11
127.1317105
21
-39.5116567
0
LINE
8
0
10
127.63
20
-39.0116596
11
127.63
21
-35.253
0
LINE
8
0
10
128.13
20
-34.753
11
148.032
21
-34.753
0
LINE
8
0
10
148.532
20
-40.025926
11
148.532
21
-35.253
0
LINE
8
0
10
149.0266056
20
-40.5258969
11
167.0373944
21
-40.7202238
0
LINE
8
0
10
167.532
20
-42.6785306
11
167.532
21
-41.2201947
0
LINE
8
0
10
168.0394992
20
-43.1784744
11
186.0240727
21
-42.9087058
0
LINE
8
0
10
186.5315718
20
-43.4084276
11
186.5319999
21
-44.3723561
0
LINE
8
0
10
186.5319999
20
-44.3723561
11
186.5321344
21
-44.675222
0
LINE
8
0
10
187.0321344
20
-45.175
11
206.783
21
-45.175
0
LINE
8
0
10
207.283
20
-107.4745263
11
207.283
21
-45.675
0
LINE
8
0
10
206.7486139
20
-108.4001101
11
207.283
21
-107.4745263
0
LINE
8
0
10
192.4308229
20
-129.6516873
11
206.7486139
21
-108.4001101
0
LINE
8
0
10
175.649264
20
-120.500235
11
191.7661541
21
-129.8053259
0
LINE
8
0
10
138.1421269
20
-115.5727985
11
175.463889
21
-120.4374417
0
LINE
8
0
10
127.6181655
20
-110.521886
11
138.1421269
21
-115.5727985
0
LINE
8
0
10
90.1350265
20
-110.6956937
11
127.3988279
21
-110.4726664
0
LINE
8
0
10
89.632
20
-109.2400516
11
89.632034
21
-110.1957205
0
ARC
8
0
10
90.1299666
20
-52.0509861
40
0.5
50
90.666405
51
450.666405
0
ARC
8
0
10
108.13
20
-50.8415497
40
0.5
50
270.6664108
51
630.6664108
0
ARC
8
0
10
109.13
20
-40.0732444
40
0.5
50
90.1960093
51
450.1960093
0
ARC
8
0
10
127.13
20
-39.0116596
40
0.5
50
270.1960093
51
630.1960093
0
ARC
8
0
10
128.13
20
-35.253
40
0.5
50
90
51
450
0
ARC
8
0
10
148.032
20
-35.253
40
0.5
50
0
51
360
0
ARC
8
0
10
149.032
20
-40.025926
40
0.5
50
180
51
540
0
ARC
8
0
10
167.032
20
-41.2201947
40
0.5
50
0
51
360
0
ARC
8
0
10
168.032
20
-42.6785306
40
0.5
50
180
51
540
0
ARC
8
0
10
186.0315718
20
-43.4086496
40
0.5
50
0.025445
51
360.025445
0
ARC
8
0
10
187.0321344
20
-44.675
40
0.5
50
180.0254393
51
540.0254393
0
ARC
8
0
10
206.783
20
-45.675
40
0.5
50
0
51
360
0
ARC
8
0
10
192.0161541
20
-129.3723132
40
0.5
50
239.9999999
51
599.9999999
0
ARC
8
0
10
175.399264
20
-120.9332477
40
0.5
50
59.9999999
51
419.9999999
0
ARC
8
0
10
127.4018204
20
-110.9726574
40
0.5
50
64.3615973
51
424.3615973
0
ARC
8
0
10
90.132034
20
-110.1957027
40
0.5
50
180.0020397
51
540.0020397
0
LINE
8
0
10
90.832
20
-109.2400089
11
90.83
21
-52.9900089
0
LINE
8
0
10
90.8299912
20
-52.7428911
11
90.83
21
-52.9900089
0
LINE
8
0
10
90.8299912
20
-52.7428911
11
109.3358154
21
-52.5276391
0
LINE
8
0
10
109.83
20
-52.0276729
11
109.83
21
-40.7708538
0
LINE
8
0
10
109.83
20
-40.7708538
11
128.3317105
21
-40.7075585
0
LINE
8
0
10
128.83
20
-40.2075614
11
128.83
21
-35.953
0
LINE
8
0
10
128.83
20
-35.953
11
147.332
21
-35.953
0
LINE
8
0
10
147.332
20
-41.2130485
11
147.332
21
-35.953
0
LINE
8
0
10
147.8266056
20
-41.7130194
11
166.332
21
-41.9126828
0
LINE
8
0
10
166.332
20
-43.8966656
11
166.332
21
-41.9126828
0
LINE
8
0
10
166.8394992
20
-44.3966094
11
185.3318873
21
-44.1192236
0
LINE
8
0
10
185.332
20
-44.372889
11
185.3318873
21
-44.1192236
0
LINE
8
0
10
185.332
20
-44.372889
11
185.3326671
21
-45.875222
0
LINE
8
0
10
185.8326671
20
-46.375
11
206.083
21
-46.375
0
LINE
8
0
10
206.083
20
-107.1529873
11
206.083
21
-46.375
0
LINE
8
0
10
205.7301189
20
-107.7641954
11
206.083
21
-107.1529873
0
LINE
8
0
10
205.7252093
20
-107.7714684
11
205.7301189
21
-107.7641954
0
LINE
8
0
10
205.7252093
20
-107.7714684
11
191.9309981
21
-128.2459077
0
LINE
8
0
10
191.8005429
20
-128.4395396
11
191.9307482
21
-128.2462786
0
LINE
8
0
10
176.0418526
20
-119.3412555
11
191.8005429
21
-128.4395396
0
LINE
8
0
10
138.4879529
20
-114.4077239
11
175.8564776
21
-119.2784622
0
LINE
8
0
10
127.8878144
20
-109.3202507
11
138.4879529
21
-114.4077239
0
LINE
8
0
10
90.8320089
20
-109.4915007
11
127.6684768
21
-109.271031
0
LINE
8
0
10
90.832
20
-109.2400089
11
90.8320089
21
-109.4915007
0
ARC
8
0
10
109.33
20
-52.0276729
40
0.5
50
270.6664108
51
0
0
ARC
8
0
10
128.33
20
-40.2075614
40
0.5
50
270.1960093
51
0
0
ARC
8
0
10
147.832
20
-41.2130485
40
0.5
50
180
51
269.3818353
0
ARC
8
0
10
166.832
20
-43.8966656
40
0.5
50
180
51
270.8593715
0
ARC
8
0
10
185.8326671
20
-45.875
40
0.5
50
180.0254393
51
270
0
ARC
8
0
10
175.7918526
20
-119.7742682
40
0.5
50
59.9999999
51
82.5737449
0
ARC
8
0
10
127.6714693
20
-109.771022
40
0.5
50
64.3615973
51
90.3429173
0
LINE
8
0
10
93.4818963
20
-106.3226098
11
93.4801019
21
-55.8564813
0
LINE
8
0
10
93.9742865
20
-55.3564973
11
111.9858154
21
-55.1469947
0
LINE
8
0
10
112.48
20
-54.6470285
11
112.48
21
-43.910096
0
LINE
8
0
10
112.9782895
20
-43.4100989
11
130.9817106
21
-43.3485082
0
LINE
8
0
10
131.48
20
-42.8485111
11
131.48
21
-39.103
0
LINE
8
0
10
131.98
20
-38.603
11
144.182
21
-38.603
0
LINE
8
0
10
144.682
20
-43.8346106
11
144.682
21
-39.103
0
LINE
8
0
10
145.1766056
20
-44.3345815
11
163.682
21
-44.5342449
0
LINE
8
0
10
163.682
20
-46.5867137
11
163.682
21
-44.5342449
0
LINE
8
0
10
164.1894992
20
-47.0866575
11
182.2201136
21
-46.8161982
0
LINE
8
0
10
182.7261388
20
-47.2777777
11
182.8250718
21
-48.5633643
0
LINE
8
0
10
183.3235978
20
-49.025
11
202.933
21
-49.025
0
LINE
8
0
10
203.433
20
-49.525
11
203.433
21
-106.2782799
0
LINE
8
0
10
203.3476687
20
-106.557654
11
191.244961
21
-124.5214325
0
LINE
8
0
10
176.8223986
20
-116.7319475
11
190.5802923
21
-124.6750711
0
LINE
8
0
10
139.3311212
20
-111.8452091
11
176.8223986
21
-116.7319475
0
LINE
8
0
10
128.4832888
20
-106.6666393
11
139.1794011
21
-111.8001745
0
LINE
8
0
10
93.9848888
20
-106.822583
11
128.2639513
21
-106.6174197
0
ARC
8
0
10
93.9801019
20
-55.8564635
40
0.5
50
90.6664108
51
180.0020397
0
ARC
8
0
10
111.98
20
-54.6470285
40
0.5
50
270.6664108
51
0
0
ARC
8
0
10
112.98
20
-43.910096
40
0.5
50
90.1960093
51
180
0
ARC
8
0
10
130.98
20
-42.8485111
40
0.5
50
270.196015
51
0
0
ARC
8
0
10
131.98
20
-39.103
40
0.5
50
90
51
180
0
ARC
8
0
10
144.182
20
-39.103
40
0.5
50
0
51
90
0
ARC
8
0
10
145.182
20
-43.8346106
40
0.5
50
180
51
269.3818353
0
ARC
8
0
10
164.182
20
-46.5867137
40
0.5
50
180
51
270.8593715
0
ARC
8
0
10
182.2276128
20
-47.316142
40
0.5
50
4.4005558
51
90.8593715
0
ARC
8
0
10
183.3235978
20
-48.525
40
0.5
50
184.4005558
51
270
0
ARC
8
0
10
202.933
20
-49.525
40
0.5
50
0
51
90
0
ARC
8
0
10
202.933
20
-106.2782799
40
0.5
50
326.0307299
51
0
0
ARC
8
0
10
190.8302923
20
-124.2420584
40
0.5
50
239.9999999
51
326.0307299
0
ARC
8
0
10
139.3957462
20
-111.3494031
40
0.5
50
244.3615973
51
262.5737449
0
ARC
8
0
10
128.2669438
20
-107.1174107
40
0.5
50
64.3616049
51
90.3429173
0
ARC
8
0
10
93.9818963
20
-106.322592
40
0.5
50
180.0020397
51
270.3429173
0
ENDSEC
0
EOF