<?xml version="1.0" encoding="utf-8" ?>
<svg baseProfile="full" height="242.45229756242801" version="1.1" viewBox="194.1316423966745 92.2213794587714 300.0 242.45229756242801" width="300" xmlns="http://www.w3.org/2000/svg" xmlns:ev="http://www.w3.org/2001/xml-events" xmlns:xlink="http://www.w3.org/1999/xlink"><defs /><line stroke="black" stroke-width="0.4313944572666666" transform="scale(2.3180640899654623,-2.3180640899654623)" x1="91.0800178" x2="91.0819822" y1="-53.4899915" y2="-108.7400178" /><line stroke="black" stroke-width="0.4313944572666666" transform="scale(2.3180640899654623,-2.3180640899654623)" x1="91.5799915" x2="109.5800263" y1="-52.9899737" y2="-52.9890263" /><line stroke="black" stroke-width="0.4313944572666666" transform="scale(2.3180640899654623,-2.3180640899654623)" x1="110.08" x2="110.08" y1="-52.4890263" y2="-48.74" /><line stroke="black" stroke-width="0.4313944572666666" transform="scale(2.3180640899654623,-2.3180640899654623)" x1="110.58" x2="128.58" y1="-48.24" y2="-48.24" /><line stroke="black" stroke-width="0.4313944572666666" transform="scale(2.3180640899654623,-2.3180640899654623)" x1="129.08" x2="129.08" y1="-47.74" y2="-46.488" /><line stroke="black" stroke-width="0.4313944572666666" transform="scale(2.3180640899654623,-2.3180640899654623)" x1="129.58" x2="146.582" y1="-45.988" y2="-45.988" /><line stroke="black" stroke-width="0.4313944572666666" transform="scale(2.3180640899654623,-2.3180640899654623)" x1="147.082" x2="147.082" y1="-47.74" y2="-46.488" /><line stroke="black" stroke-width="0.4313944572666666" transform="scale(2.3180640899654623,-2.3180640899654623)" x1="147.582" x2="165.582" y1="-48.24" y2="-48.24" /><line stroke="black" stroke-width="0.4313944572666666" transform="scale(2.3180640899654623,-2.3180640899654623)" x1="166.082" x2="166.082" y1="-50.238" y2="-48.74" /><line stroke="black" stroke-width="0.4313944572666666" transform="scale(2.3180640899654623,-2.3180640899654623)" x1="166.582" x2="184.5822219" y1="-50.738" y2="-50.738" /><line stroke="black" stroke-width="0.4313944572666666" transform="scale(2.3180640899654623,-2.3180640899654623)" x1="185.0822219" x2="185.083" y1="-51.237778" y2="-52.99" /><line stroke="black" stroke-width="0.4313944572666666" transform="scale(2.3180640899654623,-2.3180640899654623)" x1="191.9735319" x2="205.518" y1="-137.4583675" y2="-113.996596" /><line stroke="black" stroke-width="0.4313944572666666" transform="scale(2.3180640899654623,-2.3180640899654623)" x1="176.1236421" x2="191.2905097" y1="-128.8848015" y2="-137.6413967" /><line stroke="black" stroke-width="0.4313944572666666" transform="scale(2.3180640899654623,-2.3180640899654623)" x1="138.7729681" x2="175.9382671" y1="-123.977759" y2="-128.8220082" /><line stroke="black" stroke-width="0.4313944572666666" transform="scale(2.3180640899654623,-2.3180640899654623)" x1="127.9897756" x2="138.4335103" y1="-109.4455223" y2="-123.7764307" /><line stroke="black" stroke-width="0.4313944572666666" transform="scale(2.3180640899654623,-2.3180640899654623)" x1="91.5819822" x2="127.5856928" y1="-109.24" y2="-109.24" /><line stroke="black" stroke-width="0.4313944572666666" transform="scale(2.3180640899654623,-2.3180640899654623)" x1="185.5827781" x2="205.333" y1="-52.99" y2="-52.99" /><line stroke="black" stroke-width="0.4313944572666666" transform="scale(2.3180640899654623,-2.3180640899654623)" x1="205.833" x2="205.833" y1="-113.3170254" y2="-53.49" /><line stroke="black" stroke-width="0.4313944572666666" transform="scale(2.3180640899654623,-2.3180640899654623)" x1="205.518" x2="205.7660127" y1="-113.996596" y2="-113.5670254" /><circle cx="91.5800178" cy="-53.4899737" fill="none" r="0.5" stroke="black" stroke-width="0.4313944572666666" transform="scale(2.3180640899654623,-2.3180640899654623)" /><circle cx="109.58" cy="-52.4890263" fill="none" r="0.5" stroke="black" stroke-width="0.4313944572666666" transform="scale(2.3180640899654623,-2.3180640899654623)" /><circle cx="110.58" cy="-48.74" fill="none" r="0.5" stroke="black" stroke-width="0.4313944572666666" transform="scale(2.3180640899654623,-2.3180640899654623)" /><circle cx="128.58" cy="-47.74" fill="none" r="0.5" stroke="black" stroke-width="0.4313944572666666" transform="scale(2.3180640899654623,-2.3180640899654623)" /><circle cx="129.58" cy="-46.488" fill="none" r="0.5" stroke="black" stroke-width="0.4313944572666666" transform="scale(2.3180640899654623,-2.3180640899654623)" /><circle cx="146.582" cy="-46.488" fill="none" r="0.5" stroke="black" stroke-width="0.4313944572666666" transform="scale(2.3180640899654623,-2.3180640899654623)" /><circle cx="147.582" cy="-47.74" fill="none" r="0.5" stroke="black" stroke-width="0.4313944572666666" transform="scale(2.3180640899654623,-2.3180640899654623)" /><circle cx="165.582" cy="-48.74" fill="none" r="0.5" stroke="black" stroke-width="0.4313944572666666" transform="scale(2.3180640899654623,-2.3180640899654623)" /><circle cx="166.582" cy="-50.238" fill="none" r="0.5" stroke="black" stroke-width="0.4313944572666666" transform="scale(2.3180640899654623,-2.3180640899654623)" /><circle cx="184.5822219" cy="-51.238" fill="none" r="0.5" stroke="black" stroke-width="0.4313944572666666" transform="scale(2.3180640899654623,-2.3180640899654623)" /><circle cx="185.5827781" cy="-52.49" fill="none" r="0.5" stroke="black" stroke-width="0.4313944572666666" transform="scale(2.3180640899654623,-2.3180640899654623)" /><circle cx="205.333" cy="-53.49" fill="none" r="0.5" stroke="black" stroke-width="0.4313944572666666" transform="scale(2.3180640899654623,-2.3180640899654623)" /><circle cx="205.333" cy="-113.3170254" fill="none" r="0.5" stroke="black" stroke-width="0.4313944572666666" transform="scale(2.3180640899654623,-2.3180640899654623)" /><circle cx="191.5405097" cy="-137.208384" fill="none" r="0.5" stroke="black" stroke-width="0.4313944572666666" transform="scale(2.3180640899654623,-2.3180640899654623)" /><circle cx="175.8736421" cy="-129.3178142" fill="none" r="0.5" stroke="black" stroke-width="0.4313944572666666" transform="scale(2.3180640899654623,-2.3180640899654623)" /><circle cx="138.8375931" cy="-123.481953" fill="none" r="0.5" stroke="black" stroke-width="0.4313944572666666" transform="scale(2.3180640899654623,-2.3180640899654623)" /><circle cx="127.5856928" cy="-109.74" fill="none" r="0.5" stroke="black" stroke-width="0.4313944572666666" transform="scale(2.3180640899654623,-2.3180640899654623)" /><circle cx="91.5819822" cy="-108.74" fill="none" r="0.5" stroke="black" stroke-width="0.4313944572666666" transform="scale(2.3180640899654623,-2.3180640899654623)" /><circle cx="166.468" cy="-67.986" fill="none" r="1.1" stroke="black" stroke-width="0.4313944572666666" transform="scale(2.3180640899654623,-2.3180640899654623)" /><circle cx="133.657" cy="-107.74" fill="none" r="1.1" stroke="black" stroke-width="0.4313944572666666" transform="scale(2.3180640899654623,-2.3180640899654623)" /><circle cx="180.2410516" cy="-115.3236576" fill="none" r="1.1" stroke="black" stroke-width="0.4313944572666666" transform="scale(2.3180640899654623,-2.3180640899654623)" /><circle cx="166.468" cy="-67.986" fill="none" r="2.15" stroke="black" stroke-width="0.4313944572666666" transform="scale(2.3180640899654623,-2.3180640899654623)" /><circle cx="133.657" cy="-107.74" fill="none" r="2.15" stroke="black" stroke-width="0.4313944572666666" transform="scale(2.3180640899654623,-2.3180640899654623)" /><circle cx="180.2410516" cy="-115.3236576" fill="none" r="2.15" stroke="black" stroke-width="0.4313944572666666" transform="scale(2.3180640899654623,-2.3180640899654623)" /><circle cx="188.762" cy="-100.476" fill="none" r="1.1" stroke="black" stroke-width="0.4313944572666666" transform="scale(2.3180640899654623,-2.3180640899654623)" /><circle cx="203.194" cy="-108.995" fill="none" r="1.1" stroke="black" stroke-width="0.4313944572666666" transform="scale(2.3180640899654623,-2.3180640899654623)" /><line stroke="black" stroke-width="0.4313944572666666" transform="scale(2.3180640899654623,-2.3180640899654623)" x1="185.083" x2="185.083" y1="-52.990222" y2="-101.9097681" /><line stroke="black" stroke-width="0.4313944572666666" transform="scale(2.3180640899654623,-2.3180640899654623)" x1="185.333" x2="205.0850038" y1="-102.3427808" y2="-113.7466055" /><circle cx="184.583" cy="-52.990222" fill="none" r="0.5" stroke="black" stroke-width="0.4313944572666666" transform="scale(2.3180640899654623,-2.3180640899654623)" /><circle cx="185.583" cy="-101.9097681" fill="none" r="0.5" stroke="black" stroke-width="0.4313944572666666" transform="scale(2.3180640899654623,-2.3180640899654623)" /><circle cx="204.8350038" cy="-114.1796182" fill="none" r="0.5" stroke="black" stroke-width="0.4313944572666666" transform="scale(2.3180640899654623,-2.3180640899654623)" /><line stroke="black" stroke-width="0.4313944572666666" transform="scale(2.3180640899654623,-2.3180640899654623)" x1="93.0" x2="107.0" y1="-107.0" y2="-107.0" /><line stroke="black" stroke-width="0.4313944572666666" transform="scale(2.3180640899654623,-2.3180640899654623)" x1="107.0" x2="107.0" y1="-107.0" y2="-93.0" /><line stroke="black" stroke-width="0.4313944572666666" transform="scale(2.3180640899654623,-2.3180640899654623)" x1="107.0" x2="93.0" y1="-93.0" y2="-93.0" /><line stroke="black" stroke-width="0.4313944572666666" transform="scale(2.3180640899654623,-2.3180640899654623)" x1="93.0" x2="93.0" y1="-93.0" y2="-107.0" /><line stroke="black" stroke-width="0.4313944572666666" transform="scale(2.3180640899654623,-2.3180640899654623)" x1="93.0" x2="107.0" y1="-88.0" y2="-88.0" /><line stroke="black" stroke-width="0.4313944572666666" transform="scale(2.3180640899654623,-2.3180640899654623)" x1="107.0" x2="107.0" y1="-88.0" y2="-74.0" /><line stroke="black" stroke-width="0.4313944572666666" transform="scale(2.3180640899654623,-2.3180640899654623)" x1="107.0" x2="93.0" y1="-74.0" y2="-74.0" /><line stroke="black" stroke-width="0.4313944572666666" transform="scale(2.3180640899654623,-2.3180640899654623)" x1="93.0" x2="93.0" y1="-74.0" y2="-88.0" /><line stroke="black" stroke-width="0.4313944572666666" transform="scale(2.3180640899654623,-2.3180640899654623)" x1="93.0" x2="107.0" y1="-69.0" y2="-69.0" /><line stroke="black" stroke-width="0.4313944572666666" transform="scale(2.3180640899654623,-2.3180640899654623)" x1="107.0" x2="107.0" y1="-69.0" y2="-55.0" /><line stroke="black" stroke-width="0.4313944572666666" transform="scale(2.3180640899654623,-2.3180640899654623)" x1="107.0" x2="93.0" y1="-55.0" y2="-55.0" /><line stroke="black" stroke-width="0.4313944572666666" transform="scale(2.3180640899654623,-2.3180640899654623)" x1="93.0" x2="93.0" y1="-55.0" y2="-69.0" /><line stroke="black" stroke-width="0.4313944572666666" transform="scale(2.3180640899654623,-2.3180640899654623)" x1="112.0" x2="126.0" y1="-102.25" y2="-102.25" /><line stroke="black" stroke-width="0.4313944572666666" transform="scale(2.3180640899654623,-2.3180640899654623)" x1="126.0" x2="126.0" y1="-102.25" y2="-88.25" /><line stroke="black" stroke-width="0.4313944572666666" transform="scale(2.3180640899654623,-2.3180640899654623)" x1="126.0" x2="112.0" y1="-88.25" y2="-88.25" /><line stroke="black" stroke-width="0.4313944572666666" transform="scale(2.3180640899654623,-2.3180640899654623)" x1="112.0" x2="112.0" y1="-88.25" y2="-102.25" /><line stroke="black" stroke-width="0.4313944572666666" transform="scale(2.3180640899654623,-2.3180640899654623)" x1="112.0" x2="126.0" y1="-83.25" y2="-83.25" /><line stroke="black" stroke-width="0.4313944572666666" transform="scale(2.3180640899654623,-2.3180640899654623)" x1="126.0" x2="126.0" y1="-83.25" y2="-69.25" /><line stroke="black" stroke-width="0.4313944572666666" transform="scale(2.3180640899654623,-2.3180640899654623)" x1="126.0" x2="112.0" y1="-69.25" y2="-69.25" /><line stroke="black" stroke-width="0.4313944572666666" transform="scale(2.3180640899654623,-2.3180640899654623)" x1="112.0" x2="112.0" y1="-69.25" y2="-83.25" /><line stroke="black" stroke-width="0.4313944572666666" transform="scale(2.3180640899654623,-2.3180640899654623)" x1="112.0" x2="126.0" y1="-64.25" y2="-64.25" /><line stroke="black" stroke-width="0.4313944572666666" transform="scale(2.3180640899654623,-2.3180640899654623)" x1="126.0" x2="126.0" y1="-64.25" y2="-50.25" /><line stroke="black" stroke-width="0.4313944572666666" transform="scale(2.3180640899654623,-2.3180640899654623)" x1="126.0" x2="112.0" y1="-50.25" y2="-50.25" /><line stroke="black" stroke-width="0.4313944572666666" transform="scale(2.3180640899654623,-2.3180640899654623)" x1="112.0" x2="112.0" y1="-50.25" y2="-64.25" /><line stroke="black" stroke-width="0.4313944572666666" transform="scale(2.3180640899654623,-2.3180640899654623)" x1="131.0" x2="145.0" y1="-99.875" y2="-99.875" /><line stroke="black" stroke-width="0.4313944572666666" transform="scale(2.3180640899654623,-2.3180640899654623)" x1="145.0" x2="145.0" y1="-99.875" y2="-85.875" /><line stroke="black" stroke-width="0.4313944572666666" transform="scale(2.3180640899654623,-2.3180640899654623)" x1="145.0" x2="131.0" y1="-85.875" y2="-85.875" /><line stroke="black" stroke-width="0.4313944572666666" transform="scale(2.3180640899654623,-2.3180640899654623)" x1="131.0" x2="131.0" y1="-85.875" y2="-99.875" /><line stroke="black" stroke-width="0.4313944572666666" transform="scale(2.3180640899654623,-2.3180640899654623)" x1="131.0" x2="145.0" y1="-80.875" y2="-80.875" /><line stroke="black" stroke-width="0.4313944572666666" transform="scale(2.3180640899654623,-2.3180640899654623)" x1="145.0" x2="145.0" y1="-80.875" y2="-66.875" /><line stroke="black" stroke-width="0.4313944572666666" transform="scale(2.3180640899654623,-2.3180640899654623)" x1="145.0" x2="131.0" y1="-66.875" y2="-66.875" /><line stroke="black" stroke-width="0.4313944572666666" transform="scale(2.3180640899654623,-2.3180640899654623)" x1="131.0" x2="131.0" y1="-66.875" y2="-80.875" /><line stroke="black" stroke-width="0.4313944572666666" transform="scale(2.3180640899654623,-2.3180640899654623)" x1="131.0" x2="145.0" y1="-61.875" y2="-61.875" /><line stroke="black" stroke-width="0.4313944572666666" transform="scale(2.3180640899654623,-2.3180640899654623)" x1="145.0" x2="145.0" y1="-61.875" y2="-47.875" /><line stroke="black" stroke-width="0.4313944572666666" transform="scale(2.3180640899654623,-2.3180640899654623)" x1="145.0" x2="131.0" y1="-47.875" y2="-47.875" /><line stroke="black" stroke-width="0.4313944572666666" transform="scale(2.3180640899654623,-2.3180640899654623)" x1="131.0" x2="131.0" y1="-47.875" y2="-61.875" /><line stroke="black" stroke-width="0.4313944572666666" transform="scale(2.3180640899654623,-2.3180640899654623)" x1="150.0" x2="164.0" y1="-102.25" y2="-102.25" /><line stroke="black" stroke-width="0.4313944572666666" transform="scale(2.3180640899654623,-2.3180640899654623)" x1="164.0" x2="164.0" y1="-102.25" y2="-88.25" /><line stroke="black" stroke-width="0.4313944572666666" transform="scale(2.3180640899654623,-2.3180640899654623)" x1="164.0" x2="150.0" y1="-88.25" y2="-88.25" /><line stroke="black" stroke-width="0.4313944572666666" transform="scale(2.3180640899654623,-2.3180640899654623)" x1="150.0" x2="150.0" y1="-88.25" y2="-102.25" /><line stroke="black" stroke-width="0.4313944572666666" transform="scale(2.3180640899654623,-2.3180640899654623)" x1="150.0" x2="164.0" y1="-83.25" y2="-83.25" /><line stroke="black" stroke-width="0.4313944572666666" transform="scale(2.3180640899654623,-2.3180640899654623)" x1="164.0" x2="164.0" y1="-83.25" y2="-69.25" /><line stroke="black" stroke-width="0.4313944572666666" transform="scale(2.3180640899654623,-2.3180640899654623)" x1="164.0" x2="150.0" y1="-69.25" y2="-69.25" /><line stroke="black" stroke-width="0.4313944572666666" transform="scale(2.3180640899654623,-2.3180640899654623)" x1="150.0" x2="150.0" y1="-69.25" y2="-83.25" /><line stroke="black" stroke-width="0.4313944572666666" transform="scale(2.3180640899654623,-2.3180640899654623)" x1="150.0" x2="164.0" y1="-64.25" y2="-64.25" /><line stroke="black" stroke-width="0.4313944572666666" transform="scale(2.3180640899654623,-2.3180640899654623)" x1="164.0" x2="164.0" y1="-64.25" y2="-50.25" /><line stroke="black" stroke-width="0.4313944572666666" transform="scale(2.3180640899654623,-2.3180640899654623)" x1="164.0" x2="150.0" y1="-50.25" y2="-50.25" /><line stroke="black" stroke-width="0.4313944572666666" transform="scale(2.3180640899654623,-2.3180640899654623)" x1="150.0" x2="150.0" y1="-50.25" y2="-64.25" /><line stroke="black" stroke-width="0.4313944572666666" transform="scale(2.3180640899654623,-2.3180640899654623)" x1="169.0" x2="183.0" y1="-104.625" y2="-104.625" /><line stroke="black" stroke-width="0.4313944572666666" transform="scale(2.3180640899654623,-2.3180640899654623)" x1="183.0" x2="183.0" y1="-104.625" y2="-90.625" /><line stroke="black" stroke-width="0.4313944572666666" transform="scale(2.3180640899654623,-2.3180640899654623)" x1="183.0" x2="169.0" y1="-90.625" y2="-90.625" /><line stroke="black" stroke-width="0.4313944572666666" transform="scale(2.3180640899654623,-2.3180640899654623)" x1="169.0" x2="169.0" y1="-90.625" y2="-104.625" /><line stroke="black" stroke-width="0.4313944572666666" transform="scale(2.3180640899654623,-2.3180640899654623)" x1="169.0" x2="183.0" y1="-85.625" y2="-85.625" /><line stroke="black" stroke-width="0.4313944572666666" transform="scale(2.3180640899654623,-2.3180640899654623)" x1="183.0" x2="183.0" y1="-85.625" y2="-71.625" /><line stroke="black" stroke-width="0.4313944572666666" transform="scale(2.3180640899654623,-2.3180640899654623)" x1="183.0" x2="169.0" y1="-71.625" y2="-71.625" /><line stroke="black" stroke-width="0.4313944572666666" transform="scale(2.3180640899654623,-2.3180640899654623)" x1="169.0" x2="169.0" y1="-71.625" y2="-85.625" /><line stroke="black" stroke-width="0.4313944572666666" transform="scale(2.3180640899654623,-2.3180640899654623)" x1="169.0" x2="183.0" y1="-66.625" y2="-66.625" /><line stroke="black" stroke-width="0.4313944572666666" transform="scale(2.3180640899654623,-2.3180640899654623)" x1="183.0" x2="183.0" y1="-66.625" y2="-52.625" /><line stroke="black" stroke-width="0.4313944572666666" transform="scale(2.3180640899654623,-2.3180640899654623)" x1="183.0" x2="169.0" y1="-52.625" y2="-52.625" /><line stroke="black" stroke-width="0.4313944572666666" transform="scale(2.3180640899654623,-2.3180640899654623)" x1="169.0" x2="169.0" y1="-52.625" y2="-66.625" /><line stroke="black" stroke-width="0.4313944572666666" transform="scale(2.3180640899654623,-2.3180640899654623)" x1="140.5" x2="154.5" y1="-121.875" y2="-121.875" /><line stroke="black" stroke-width="0.4313944572666666" transform="scale(2.3180640899654623,-2.3180640899654623)" x1="154.5" x2="154.5" y1="-121.875" y2="-107.875" /><line stroke="black" stroke-width="0.4313944572666666" transform="scale(2.3180640899654623,-2.3180640899654623)" x1="154.5" x2="140.5" y1="-107.875" y2="-107.875" /><line stroke="black" stroke-width="0.4313944572666666" transform="scale(2.3180640899654623,-2.3180640899654623)" x1="140.5" x2="140.5" y1="-107.875" y2="-121.875" /><line stroke="black" stroke-width="0.4313944572666666" transform="scale(2.3180640899654623,-2.3180640899654623)" x1="159.9267859" x2="173.4497475" y1="-122.5747475" y2="-126.1982141" /><line stroke="black" stroke-width="0.4313944572666666" transform="scale(2.3180640899654623,-2.3180640899654623)" x1="173.4497475" x2="177.0732141" y1="-126.1982141" y2="-112.6752525" /><line stroke="black" stroke-width="0.4313944572666666" transform="scale(2.3180640899654623,-2.3180640899654623)" x1="177.0732141" x2="163.5502525" y1="-112.6752525" y2="-109.0517859" /><line stroke="black" stroke-width="0.4313944572666666" transform="scale(2.3180640899654623,-2.3180640899654623)" x1="163.5502525" x2="159.9267859" y1="-109.0517859" y2="-122.5747475" /><line stroke="black" stroke-width="0.4313944572666666" transform="scale(2.3180640899654623,-2.3180640899654623)" x1="193.3089836" x2="200.3089836" y1="-130.9513354" y2="-118.8269798" /><line stroke="black" stroke-width="0.4313944572666666" transform="scale(2.3180640899654623,-2.3180640899654623)" x1="200.3089836" x2="188.184628" y1="-118.8269798" y2="-111.8269798" /><line stroke="black" stroke-width="0.4313944572666666" transform="scale(2.3180640899654623,-2.3180640899654623)" x1="188.184628" x2="181.184628" y1="-111.8269798" y2="-123.9513354" /><line stroke="black" stroke-width="0.4313944572666666" transform="scale(2.3180640899654623,-2.3180640899654623)" x1="181.184628" x2="193.3089836" y1="-123.9513354" y2="-130.9513354" /><line stroke="black" stroke-width="0.4313944572666666" transform="scale(2.3180640899654623,-2.3180640899654623)" x1="186.113" x2="186.113" y1="-101.7769776" y2="-53.49" /><line stroke="black" stroke-width="0.4313944572666666" transform="scale(2.3180640899654623,-2.3180640899654623)" x1="205.083" x2="186.363" y1="-113.0179873" y2="-102.2099903" /><circle cx="186.613" cy="-53.49" fill="none" r="0.5" stroke="black" stroke-width="0.4313944572666666" transform="scale(2.3180640899654623,-2.3180640899654623)" /><circle cx="205.333" cy="-112.5849746" fill="none" r="0.5" stroke="black" stroke-width="0.4313944572666666" transform="scale(2.3180640899654623,-2.3180640899654623)" /><circle cx="186.613" cy="-101.7769776" fill="none" r="0.5" stroke="black" stroke-width="0.4313944572666666" transform="scale(2.3180640899654623,-2.3180640899654623)" /><line stroke="black" stroke-width="0.4313944572666666" transform="scale(2.3180640899654623,-2.3180640899654623)" x1="93.0" x2="107.0" y1="-109.0" y2="-109.0" /><line stroke="black" stroke-width="0.4313944572666666" transform="scale(2.3180640899654623,-2.3180640899654623)" x1="109.0" x2="109.0" y1="-107.0" y2="-93.0" /><line stroke="black" stroke-width="0.4313944572666666" transform="scale(2.3180640899654623,-2.3180640899654623)" x1="107.0" x2="93.0" y1="-91.0" y2="-91.0" /><line stroke="black" stroke-width="0.4313944572666666" transform="scale(2.3180640899654623,-2.3180640899654623)" x1="91.0" x2="91.0" y1="-93.0" y2="-107.0" /><line stroke="black" stroke-width="0.4313944572666666" transform="scale(2.3180640899654623,-2.3180640899654623)" x1="93.0" x2="107.0" y1="-90.0" y2="-90.0" /><line stroke="black" stroke-width="0.4313944572666666" transform="scale(2.3180640899654623,-2.3180640899654623)" x1="109.0" x2="109.0" y1="-88.0" y2="-74.0" /><line stroke="black" stroke-width="0.4313944572666666" transform="scale(2.3180640899654623,-2.3180640899654623)" x1="107.0" x2="93.0" y1="-72.0" y2="-72.0" /><line stroke="black" stroke-width="0.4313944572666666" transform="scale(2.3180640899654623,-2.3180640899654623)" x1="91.0" x2="91.0" y1="-74.0" y2="-88.0" /><line stroke="black" stroke-width="0.4313944572666666" transform="scale(2.3180640899654623,-2.3180640899654623)" x1="93.0" x2="107.0" y1="-71.0" y2="-71.0" /><line stroke="black" stroke-width="0.4313944572666666" transform="scale(2.3180640899654623,-2.3180640899654623)" x1="109.0" x2="109.0" y1="-69.0" y2="-55.0" /><line stroke="black" stroke-width="0.4313944572666666" transform="scale(2.3180640899654623,-2.3180640899654623)" x1="107.0" x2="93.0" y1="-53.0" y2="-53.0" /><line stroke="black" stroke-width="0.4313944572666666" transform="scale(2.3180640899654623,-2.3180640899654623)" x1="91.0" x2="91.0" y1="-55.0" y2="-69.0" /><line stroke="black" stroke-width="0.4313944572666666" transform="scale(2.3180640899654623,-2.3180640899654623)" x1="112.0" x2="126.0" y1="-104.25" y2="-104.25" /><line stroke="black" stroke-width="0.4313944572666666" transform="scale(2.3180640899654623,-2.3180640899654623)" x1="128.0" x2="128.0" y1="-102.25" y2="-88.25" /><line stroke="black" stroke-width="0.4313944572666666" transform="scale(2.3180640899654623,-2.3180640899654623)" x1="126.0" x2="112.0" y1="-86.25" y2="-86.25" /><line stroke="black" stroke-width="0.4313944572666666" transform="scale(2.3180640899654623,-2.3180640899654623)" x1="110.0" x2="110.0" y1="-88.25" y2="-102.25" /><line stroke="black" stroke-width="0.4313944572666666" transform="scale(2.3180640899654623,-2.3180640899654623)" x1="112.0" x2="126.0" y1="-85.25" y2="-85.25" /><line stroke="black" stroke-width="0.4313944572666666" transform="scale(2.3180640899654623,-2.3180640899654623)" x1="128.0" x2="128.0" y1="-83.25" y2="-69.25" /><line stroke="black" stroke-width="0.4313944572666666" transform="scale(2.3180640899654623,-2.3180640899654623)" x1="126.0" x2="112.0" y1="-67.25" y2="-67.25" /><line stroke="black" stroke-width="0.4313944572666666" transform="scale(2.3180640899654623,-2.3180640899654623)" x1="110.0" x2="110.0" y1="-69.25" y2="-83.25" /><line stroke="black" stroke-width="0.4313944572666666" transform="scale(2.3180640899654623,-2.3180640899654623)" x1="112.0" x2="126.0" y1="-66.25" y2="-66.25" /><line stroke="black" stroke-width="0.4313944572666666" transform="scale(2.3180640899654623,-2.3180640899654623)" x1="128.0" x2="128.0" y1="-64.25" y2="-50.25" /><line stroke="black" stroke-width="0.4313944572666666" transform="scale(2.3180640899654623,-2.3180640899654623)" x1="126.0" x2="112.0" y1="-48.25" y2="-48.25" /><line stroke="black" stroke-width="0.4313944572666666" transform="scale(2.3180640899654623,-2.3180640899654623)" x1="110.0" x2="110.0" y1="-50.25" y2="-64.25" /><line stroke="black" stroke-width="0.4313944572666666" transform="scale(2.3180640899654623,-2.3180640899654623)" x1="131.0" x2="145.0" y1="-101.875" y2="-101.875" /><line stroke="black" stroke-width="0.4313944572666666" transform="scale(2.3180640899654623,-2.3180640899654623)" x1="147.0" x2="147.0" y1="-99.875" y2="-85.875" /><line stroke="black" stroke-width="0.4313944572666666" transform="scale(2.3180640899654623,-2.3180640899654623)" x1="145.0" x2="131.0" y1="-83.875" y2="-83.875" /><line stroke="black" stroke-width="0.4313944572666666" transform="scale(2.3180640899654623,-2.3180640899654623)" x1="129.0" x2="129.0" y1="-85.875" y2="-99.875" /><line stroke="black" stroke-width="0.4313944572666666" transform="scale(2.3180640899654623,-2.3180640899654623)" x1="131.0" x2="145.0" y1="-82.875" y2="-82.875" /><line stroke="black" stroke-width="0.4313944572666666" transform="scale(2.3180640899654623,-2.3180640899654623)" x1="147.0" x2="147.0" y1="-80.875" y2="-66.875" /><line stroke="black" stroke-width="0.4313944572666666" transform="scale(2.3180640899654623,-2.3180640899654623)" x1="145.0" x2="131.0" y1="-64.875" y2="-64.875" /><line stroke="black" stroke-width="0.4313944572666666" transform="scale(2.3180640899654623,-2.3180640899654623)" x1="129.0" x2="129.0" y1="-66.875" y2="-80.875" /><line stroke="black" stroke-width="0.4313944572666666" transform="scale(2.3180640899654623,-2.3180640899654623)" x1="131.0" x2="145.0" y1="-63.875" y2="-63.875" /><line stroke="black" stroke-width="0.4313944572666666" transform="scale(2.3180640899654623,-2.3180640899654623)" x1="147.0" x2="147.0" y1="-61.875" y2="-47.875" /><line stroke="black" stroke-width="0.4313944572666666" transform="scale(2.3180640899654623,-2.3180640899654623)" x1="145.0" x2="131.0" y1="-45.875" y2="-45.875" /><line stroke="black" stroke-width="0.4313944572666666" transform="scale(2.3180640899654623,-2.3180640899654623)" x1="129.0" x2="129.0" y1="-47.875" y2="-61.875" /><line stroke="black" stroke-width="0.4313944572666666" transform="scale(2.3180640899654623,-2.3180640899654623)" x1="150.0" x2="164.0" y1="-104.25" y2="-104.25" /><line stroke="black" stroke-width="0.4313944572666666" transform="scale(2.3180640899654623,-2.3180640899654623)" x1="166.0" x2="166.0" y1="-102.25" y2="-88.25" /><line stroke="black" stroke-width="0.4313944572666666" transform="scale(2.3180640899654623,-2.3180640899654623)" x1="164.0" x2="150.0" y1="-86.25" y2="-86.25" /><line stroke="black" stroke-width="0.4313944572666666" transform="scale(2.3180640899654623,-2.3180640899654623)" x1="148.0" x2="148.0" y1="-88.25" y2="-102.25" /><line stroke="black" stroke-width="0.4313944572666666" transform="scale(2.3180640899654623,-2.3180640899654623)" x1="150.0" x2="164.0" y1="-85.25" y2="-85.25" /><line stroke="black" stroke-width="0.4313944572666666" transform="scale(2.3180640899654623,-2.3180640899654623)" x1="166.0" x2="166.0" y1="-83.25" y2="-69.25" /><line stroke="black" stroke-width="0.4313944572666666" transform="scale(2.3180640899654623,-2.3180640899654623)" x1="164.0" x2="150.0" y1="-67.25" y2="-67.25" /><line stroke="black" stroke-width="0.4313944572666666" transform="scale(2.3180640899654623,-2.3180640899654623)" x1="148.0" x2="148.0" y1="-69.25" y2="-83.25" /><line stroke="black" stroke-width="0.4313944572666666" transform="scale(2.3180640899654623,-2.3180640899654623)" x1="150.0" x2="164.0" y1="-66.25" y2="-66.25" /><line stroke="black" stroke-width="0.4313944572666666" transform="scale(2.3180640899654623,-2.3180640899654623)" x1="166.0" x2="166.0" y1="-64.25" y2="-50.25" /><line stroke="black" stroke-width="0.4313944572666666" transform="scale(2.3180640899654623,-2.3180640899654623)" x1="164.0" x2="150.0" y1="-48.25" y2="-48.25" /><line stroke="black" stroke-width="0.4313944572666666" transform="scale(2.3180640899654623,-2.3180640899654623)" x1="148.0" x2="148.0" y1="-50.25" y2="-64.25" /><line stroke="black" stroke-width="0.4313944572666666" transform="scale(2.3180640899654623,-2.3180640899654623)" x1="169.0" x2="183.0" y1="-106.625" y2="-106.625" /><line stroke="black" stroke-width="0.4313944572666666" transform="scale(2.3180640899654623,-2.3180640899654623)" x1="185.0" x2="185.0" y1="-104.625" y2="-90.625" /><line stroke="black" stroke-width="0.4313944572666666" transform="scale(2.3180640899654623,-2.3180640899654623)" x1="183.0" x2="169.0" y1="-88.625" y2="-88.625" /><line stroke="black" stroke-width="0.4313944572666666" transform="scale(2.3180640899654623,-2.3180640899654623)" x1="167.0" x2="167.0" y1="-90.625" y2="-104.625" /><line stroke="black" stroke-width="0.4313944572666666" transform="scale(2.3180640899654623,-2.3180640899654623)" x1="169.0" x2="183.0" y1="-87.625" y2="-87.625" /><line stroke="black" stroke-width="0.4313944572666666" transform="scale(2.3180640899654623,-2.3180640899654623)" x1="185.0" x2="185.0" y1="-85.625" y2="-71.625" /><line stroke="black" stroke-width="0.4313944572666666" transform="scale(2.3180640899654623,-2.3180640899654623)" x1="183.0" x2="169.0" y1="-69.625" y2="-69.625" /><line stroke="black" stroke-width="0.4313944572666666" transform="scale(2.3180640899654623,-2.3180640899654623)" x1="167.0" x2="167.0" y1="-71.625" y2="-85.625" /><line stroke="black" stroke-width="0.4313944572666666" transform="scale(2.3180640899654623,-2.3180640899654623)" x1="169.0" x2="183.0" y1="-68.625" y2="-68.625" /><line stroke="black" stroke-width="0.4313944572666666" transform="scale(2.3180640899654623,-2.3180640899654623)" x1="185.0" x2="185.0" y1="-66.625" y2="-52.625" /><line stroke="black" stroke-width="0.4313944572666666" transform="scale(2.3180640899654623,-2.3180640899654623)" x1="183.0" x2="169.0" y1="-50.625" y2="-50.625" /><line stroke="black" stroke-width="0.4313944572666666" transform="scale(2.3180640899654623,-2.3180640899654623)" x1="167.0" x2="167.0" y1="-52.625" y2="-66.625" /><line stroke="black" stroke-width="0.4313944572666666" transform="scale(2.3180640899654623,-2.3180640899654623)" x1="140.5" x2="154.5" y1="-123.875" y2="-123.875" /><line stroke="black" stroke-width="0.4313944572666666" transform="scale(2.3180640899654623,-2.3180640899654623)" x1="156.5" x2="156.5" y1="-121.875" y2="-107.875" /><line stroke="black" stroke-width="0.4313944572666666" transform="scale(2.3180640899654623,-2.3180640899654623)" x1="154.5" x2="140.5" y1="-105.875" y2="-105.875" /><line stroke="black" stroke-width="0.4313944572666666" transform="scale(2.3180640899654623,-2.3180640899654623)" x1="138.5" x2="138.5" y1="-107.875" y2="-121.875" /><line stroke="black" stroke-width="0.4313944572666666" transform="scale(2.3180640899654623,-2.3180640899654623)" x1="159.409148" x2="172.9321094" y1="-124.5065991" y2="-128.1300657" /><line stroke="black" stroke-width="0.4313944572666666" transform="scale(2.3180640899654623,-2.3180640899654623)" x1="175.3815991" x2="179.0050657" y1="-126.715852" y2="-113.1928906" /><line stroke="black" stroke-width="0.4313944572666666" transform="scale(2.3180640899654623,-2.3180640899654623)" x1="177.590852" x2="164.0678906" y1="-110.7434009" y2="-107.1199343" /><line stroke="black" stroke-width="0.4313944572666666" transform="scale(2.3180640899654623,-2.3180640899654623)" x1="161.6184009" x2="157.9949343" y1="-108.534148" y2="-122.0571094" /><line stroke="black" stroke-width="0.4313944572666666" transform="scale(2.3180640899654623,-2.3180640899654623)" x1="192.7910344" x2="204.2910344" y1="-135.8484498" y2="-115.9298654" /><line stroke="black" stroke-width="0.4313944572666666" transform="scale(2.3180640899654623,-2.3180640899654623)" x1="177.2025772" x2="188.7025772" y1="-126.8484498" y2="-106.9298654" /><circle cx="107.0" cy="-107.0" fill="none" r="2.0" stroke="black" stroke-width="0.4313944572666666" transform="scale(2.3180640899654623,-2.3180640899654623)" /><circle cx="107.0" cy="-93.0" fill="none" r="2.0" stroke="black" stroke-width="0.4313944572666666" transform="scale(2.3180640899654623,-2.3180640899654623)" /><circle cx="93.0" cy="-93.0" fill="none" r="2.0" stroke="black" stroke-width="0.4313944572666666" transform="scale(2.3180640899654623,-2.3180640899654623)" /><circle cx="93.0" cy="-107.0" fill="none" r="2.0" stroke="black" stroke-width="0.4313944572666666" transform="scale(2.3180640899654623,-2.3180640899654623)" /><circle cx="107.0" cy="-88.0" fill="none" r="2.0" stroke="black" stroke-width="0.4313944572666666" transform="scale(2.3180640899654623,-2.3180640899654623)" /><circle cx="107.0" cy="-74.0" fill="none" r="2.0" stroke="black" stroke-width="0.4313944572666666" transform="scale(2.3180640899654623,-2.3180640899654623)" /><circle cx="93.0" cy="-74.0" fill="none" r="2.0" stroke="black" stroke-width="0.4313944572666666" transform="scale(2.3180640899654623,-2.3180640899654623)" /><circle cx="93.0" cy="-88.0" fill="none" r="2.0" stroke="black" stroke-width="0.4313944572666666" transform="scale(2.3180640899654623,-2.3180640899654623)" /><circle cx="107.0" cy="-69.0" fill="none" r="2.0" stroke="black" stroke-width="0.4313944572666666" transform="scale(2.3180640899654623,-2.3180640899654623)" /><circle cx="107.0" cy="-55.0" fill="none" r="2.0" stroke="black" stroke-width="0.4313944572666666" transform="scale(2.3180640899654623,-2.3180640899654623)" /><circle cx="93.0" cy="-55.0" fill="none" r="2.0" stroke="black" stroke-width="0.4313944572666666" transform="scale(2.3180640899654623,-2.3180640899654623)" /><circle cx="93.0" cy="-69.0" fill="none" r="2.0" stroke="black" stroke-width="0.4313944572666666" transform="scale(2.3180640899654623,-2.3180640899654623)" /><circle cx="126.0" cy="-102.25" fill="none" r="2.0" stroke="black" stroke-width="0.4313944572666666" transform="scale(2.3180640899654623,-2.3180640899654623)" /><circle cx="126.0" cy="-88.25" fill="none" r="2.0" stroke="black" stroke-width="0.4313944572666666" transform="scale(2.3180640899654623,-2.3180640899654623)" /><circle cx="112.0" cy="-88.25" fill="none" r="2.0" stroke="black" stroke-width="0.4313944572666666" transform="scale(2.3180640899654623,-2.3180640899654623)" /><circle cx="112.0" cy="-102.25" fill="none" r="2.0" stroke="black" stroke-width="0.4313944572666666" transform="scale(2.3180640899654623,-2.3180640899654623)" /><circle cx="126.0" cy="-83.25" fill="none" r="2.0" stroke="black" stroke-width="0.4313944572666666" transform="scale(2.3180640899654623,-2.3180640899654623)" /><circle cx="126.0" cy="-69.25" fill="none" r="2.0" stroke="black" stroke-width="0.4313944572666666" transform="scale(2.3180640899654623,-2.3180640899654623)" /><circle cx="112.0" cy="-69.25" fill="none" r="2.0" stroke="black" stroke-width="0.4313944572666666" transform="scale(2.3180640899654623,-2.3180640899654623)" /><circle cx="112.0" cy="-83.25" fill="none" r="2.0" stroke="black" stroke-width="0.4313944572666666" transform="scale(2.3180640899654623,-2.3180640899654623)" /><circle cx="126.0" cy="-64.25" fill="none" r="2.0" stroke="black" stroke-width="0.4313944572666666" transform="scale(2.3180640899654623,-2.3180640899654623)" /><circle cx="126.0" cy="-50.25" fill="none" r="2.0" stroke="black" stroke-width="0.4313944572666666" transform="scale(2.3180640899654623,-2.3180640899654623)" /><circle cx="112.0" cy="-50.25" fill="none" r="2.0" stroke="black" stroke-width="0.4313944572666666" transform="scale(2.3180640899654623,-2.3180640899654623)" /><circle cx="112.0" cy="-64.25" fill="none" r="2.0" stroke="black" stroke-width="0.4313944572666666" transform="scale(2.3180640899654623,-2.3180640899654623)" /><circle cx="145.0" cy="-99.875" fill="none" r="2.0" stroke="black" stroke-width="0.4313944572666666" transform="scale(2.3180640899654623,-2.3180640899654623)" /><circle cx="145.0" cy="-85.875" fill="none" r="2.0" stroke="black" stroke-width="0.4313944572666666" transform="scale(2.3180640899654623,-2.3180640899654623)" /><circle cx="131.0" cy="-85.875" fill="none" r="2.0" stroke="black" stroke-width="0.4313944572666666" transform="scale(2.3180640899654623,-2.3180640899654623)" /><circle cx="131.0" cy="-99.875" fill="none" r="2.0" stroke="black" stroke-width="0.4313944572666666" transform="scale(2.3180640899654623,-2.3180640899654623)" /><circle cx="145.0" cy="-80.875" fill="none" r="2.0" stroke="black" stroke-width="0.4313944572666666" transform="scale(2.3180640899654623,-2.3180640899654623)" /><circle cx="145.0" cy="-66.875" fill="none" r="2.0" stroke="black" stroke-width="0.4313944572666666" transform="scale(2.3180640899654623,-2.3180640899654623)" /><circle cx="131.0" cy="-66.875" fill="none" r="2.0" stroke="black" stroke-width="0.4313944572666666" transform="scale(2.3180640899654623,-2.3180640899654623)" /><circle cx="131.0" cy="-80.875" fill="none" r="2.0" stroke="black" stroke-width="0.4313944572666666" transform="scale(2.3180640899654623,-2.3180640899654623)" /><circle cx="145.0" cy="-61.875" fill="none" r="2.0" stroke="black" stroke-width="0.4313944572666666" transform="scale(2.3180640899654623,-2.3180640899654623)" /><circle cx="145.0" cy="-47.875" fill="none" r="2.0" stroke="black" stroke-width="0.4313944572666666" transform="scale(2.3180640899654623,-2.3180640899654623)" /><circle cx="131.0" cy="-47.875" fill="none" r="2.0" stroke="black" stroke-width="0.4313944572666666" transform="scale(2.3180640899654623,-2.3180640899654623)" /><circle cx="131.0" cy="-61.875" fill="none" r="2.0" stroke="black" stroke-width="0.4313944572666666" transform="scale(2.3180640899654623,-2.3180640899654623)" /><circle cx="164.0" cy="-102.25" fill="none" r="2.0" stroke="black" stroke-width="0.4313944572666666" transform="scale(2.3180640899654623,-2.3180640899654623)" /><circle cx="164.0" cy="-88.25" fill="none" r="2.0" stroke="black" stroke-width="0.4313944572666666" transform="scale(2.3180640899654623,-2.3180640899654623)" /><circle cx="150.0" cy="-88.25" fill="none" r="2.0" stroke="black" stroke-width="0.4313944572666666" transform="scale(2.3180640899654623,-2.3180640899654623)" /><circle cx="150.0" cy="-102.25" fill="none" r="2.0" stroke="black" stroke-width="0.4313944572666666" transform="scale(2.3180640899654623,-2.3180640899654623)" /><circle cx="164.0" cy="-83.25" fill="none" r="2.0" stroke="black" stroke-width="0.4313944572666666" transform="scale(2.3180640899654623,-2.3180640899654623)" /><circle cx="164.0" cy="-69.25" fill="none" r="2.0" stroke="black" stroke-width="0.4313944572666666" transform="scale(2.3180640899654623,-2.3180640899654623)" /><circle cx="150.0" cy="-69.25" fill="none" r="2.0" stroke="black" stroke-width="0.4313944572666666" transform="scale(2.3180640899654623,-2.3180640899654623)" /><circle cx="150.0" cy="-83.25" fill="none" r="2.0" stroke="black" stroke-width="0.4313944572666666" transform="scale(2.3180640899654623,-2.3180640899654623)" /><circle cx="164.0" cy="-64.25" fill="none" r="2.0" stroke="black" stroke-width="0.4313944572666666" transform="scale(2.3180640899654623,-2.3180640899654623)" /><circle cx="164.0" cy="-50.25" fill="none" r="2.0" stroke="black" stroke-width="0.4313944572666666" transform="scale(2.3180640899654623,-2.3180640899654623)" /><circle cx="150.0" cy="-50.25" fill="none" r="2.0" stroke="black" stroke-width="0.4313944572666666" transform="scale(2.3180640899654623,-2.3180640899654623)" /><circle cx="150.0" cy="-64.25" fill="none" r="2.0" stroke="black" stroke-width="0.4313944572666666" transform="scale(2.3180640899654623,-2.3180640899654623)" /><circle cx="183.0" cy="-104.625" fill="none" r="2.0" stroke="black" stroke-width="0.4313944572666666" transform="scale(2.3180640899654623,-2.3180640899654623)" /><circle cx="183.0" cy="-90.625" fill="none" r="2.0" stroke="black" stroke-width="0.4313944572666666" transform="scale(2.3180640899654623,-2.3180640899654623)" /><circle cx="169.0" cy="-90.625" fill="none" r="2.0" stroke="black" stroke-width="0.4313944572666666" transform="scale(2.3180640899654623,-2.3180640899654623)" /><circle cx="169.0" cy="-104.625" fill="none" r="2.0" stroke="black" stroke-width="0.4313944572666666" transform="scale(2.3180640899654623,-2.3180640899654623)" /><circle cx="183.0" cy="-85.625" fill="none" r="2.0" stroke="black" stroke-width="0.4313944572666666" transform="scale(2.3180640899654623,-2.3180640899654623)" /><circle cx="183.0" cy="-71.625" fill="none" r="2.0" stroke="black" stroke-width="0.4313944572666666" transform="scale(2.3180640899654623,-2.3180640899654623)" /><circle cx="169.0" cy="-71.625" fill="none" r="2.0" stroke="black" stroke-width="0.4313944572666666" transform="scale(2.3180640899654623,-2.3180640899654623)" /><circle cx="169.0" cy="-85.625" fill="none" r="2.0" stroke="black" stroke-width="0.4313944572666666" transform="scale(2.3180640899654623,-2.3180640899654623)" /><circle cx="183.0" cy="-66.625" fill="none" r="2.0" stroke="black" stroke-width="0.4313944572666666" transform="scale(2.3180640899654623,-2.3180640899654623)" /><circle cx="183.0" cy="-52.625" fill="none" r="2.0" stroke="black" stroke-width="0.4313944572666666" transform="scale(2.3180640899654623,-2.3180640899654623)" /><circle cx="169.0" cy="-52.625" fill="none" r="2.0" stroke="black" stroke-width="0.4313944572666666" transform="scale(2.3180640899654623,-2.3180640899654623)" /><circle cx="169.0" cy="-66.625" fill="none" r="2.0" stroke="black" stroke-width="0.4313944572666666" transform="scale(2.3180640899654623,-2.3180640899654623)" /><circle cx="154.5" cy="-121.875" fill="none" r="2.0" stroke="black" stroke-width="0.4313944572666666" transform="scale(2.3180640899654623,-2.3180640899654623)" /><circle cx="154.5" cy="-107.875" fill="none" r="2.0" stroke="black" stroke-width="0.4313944572666666" transform="scale(2.3180640899654623,-2.3180640899654623)" /><circle cx="140.5" cy="-107.875" fill="none" r="2.0" stroke="black" stroke-width="0.4313944572666666" transform="scale(2.3180640899654623,-2.3180640899654623)" /><circle cx="140.5" cy="-121.875" fill="none" r="2.0" stroke="black" stroke-width="0.4313944572666666" transform="scale(2.3180640899654623,-2.3180640899654623)" /><circle cx="173.4497474" cy="-126.198214" fill="none" r="2.0" stroke="black" stroke-width="0.4313944572666666" transform="scale(2.3180640899654623,-2.3180640899654623)" /><circle cx="177.073214" cy="-112.6752526" fill="none" r="2.0" stroke="black" stroke-width="0.4313944572666666" transform="scale(2.3180640899654623,-2.3180640899654623)" /><circle cx="163.5502526" cy="-109.051786" fill="none" r="2.0" stroke="black" stroke-width="0.4313944572666666" transform="scale(2.3180640899654623,-2.3180640899654623)" /><circle cx="159.926786" cy="-122.5747474" fill="none" r="2.0" stroke="black" stroke-width="0.4313944572666666" transform="scale(2.3180640899654623,-2.3180640899654623)" /><line stroke="black" stroke-width="0.4313944572666666" transform="scale(2.3180640899654623,-2.3180640899654623)" x1="203.5589836" x2="191.434628" y1="-113.1978146" y2="-106.1978146" /><line stroke="black" stroke-width="0.4313944572666666" transform="scale(2.3180640899654623,-2.3180640899654623)" x1="177.934628" x2="190.0589836" y1="-129.5805006" y2="-136.5805006" /><circle cx="202.5589836" cy="-114.9298654" fill="none" r="2.0" stroke="black" stroke-width="0.4313944572666666" transform="scale(2.3180640899654623,-2.3180640899654623)" /><circle cx="190.434628" cy="-107.9298654" fill="none" r="2.0" stroke="black" stroke-width="0.4313944572666666" transform="scale(2.3180640899654623,-2.3180640899654623)" /><circle cx="178.934628" cy="-127.8484498" fill="none" r="2.0" stroke="black" stroke-width="0.4313944572666666" transform="scale(2.3180640899654623,-2.3180640899654623)" /><circle cx="191.0589836" cy="-134.8484498" fill="none" r="2.0" stroke="black" stroke-width="0.4313944572666666" transform="scale(2.3180640899654623,-2.3180640899654623)" /><line stroke="black" stroke-width="0.4313944572666666" transform="scale(2.3180640899654623,-2.3180640899654623)" x1="89.63" x2="89.632" y1="-52.9900516" y2="-109.2400516" /><line stroke="black" stroke-width="0.4313944572666666" transform="scale(2.3180640899654623,-2.3180640899654623)" x1="89.6299662" x2="89.63" y1="-52.0400678" y2="-52.9900516" /><line stroke="black" stroke-width="0.4313944572666666" transform="scale(2.3180640899654623,-2.3180640899654623)" x1="90.1299399" x2="108.1300263" y1="-51.54005" y2="-51.5391026" /><line stroke="black" stroke-width="0.4313944572666666" transform="scale(2.3180640899654623,-2.3180640899654623)" x1="108.63" x2="108.63" y1="-51.0391026" y2="-47.29" /><line stroke="black" stroke-width="0.4313944572666666" transform="scale(2.3180640899654623,-2.3180640899654623)" x1="109.13" x2="127.13" y1="-46.79" y2="-46.79" /><line stroke="black" stroke-width="0.4313944572666666" transform="scale(2.3180640899654623,-2.3180640899654623)" x1="127.63" x2="127.63" y1="-46.29" y2="-45.038" /><line stroke="black" stroke-width="0.4313944572666666" transform="scale(2.3180640899654623,-2.3180640899654623)" x1="128.13" x2="148.032" y1="-44.538" y2="-44.538" /><line stroke="black" stroke-width="0.4313944572666666" transform="scale(2.3180640899654623,-2.3180640899654623)" x1="148.532" x2="148.532" y1="-46.29" y2="-45.038" /><line stroke="black" stroke-width="0.4313944572666666" transform="scale(2.3180640899654623,-2.3180640899654623)" x1="149.032" x2="167.032" y1="-46.79" y2="-46.79" /><line stroke="black" stroke-width="0.4313944572666666" transform="scale(2.3180640899654623,-2.3180640899654623)" x1="167.532" x2="167.532" y1="-48.788" y2="-47.29" /><line stroke="black" stroke-width="0.4313944572666666" transform="scale(2.3180640899654623,-2.3180640899654623)" x1="168.032" x2="186.0315782" y1="-49.288" y2="-49.288" /><line stroke="black" stroke-width="0.4313944572666666" transform="scale(2.3180640899654623,-2.3180640899654623)" x1="186.5315782" x2="186.5319999" y1="-49.7877779" y2="-50.7373561" /><line stroke="black" stroke-width="0.4313944572666666" transform="scale(2.3180640899654623,-2.3180640899654623)" x1="186.5319999" x2="186.5321344" y1="-50.7373561" y2="-51.040222" /><line stroke="black" stroke-width="0.4313944572666666" transform="scale(2.3180640899654623,-2.3180640899654623)" x1="187.0321344" x2="206.783" y1="-51.54" y2="-51.54" /><line stroke="black" stroke-width="0.4313944572666666" transform="scale(2.3180640899654623,-2.3180640899654623)" x1="207.283" x2="207.283" y1="-113.8395263" y2="-52.04" /><line stroke="black" stroke-width="0.4313944572666666" transform="scale(2.3180640899654623,-2.3180640899654623)" x1="206.7737645" x2="207.283" y1="-114.7215481" y2="-113.8395263" /><line stroke="black" stroke-width="0.4313944572666666" transform="scale(2.3180640899654623,-2.3180640899654623)" x1="192.5043166" x2="206.7737368" y1="-139.4391319" y2="-114.721596" /><line stroke="black" stroke-width="0.4313944572666666" transform="scale(2.3180640899654623,-2.3180640899654623)" x1="175.649264" x2="191.8212944" y1="-130.285235" y2="-139.6221612" /><line stroke="black" stroke-width="0.4313944572666666" transform="scale(2.3180640899654623,-2.3180640899654623)" x1="137.967948" x2="175.463889" y1="-125.3350954" y2="-130.2224417" /><line stroke="black" stroke-width="0.4313944572666666" transform="scale(2.3180640899654623,-2.3180640899654623)" x1="127.2522848" x2="137.6284904" y1="-110.8955223" y2="-125.1337671" /><line stroke="black" stroke-width="0.4313944572666666" transform="scale(2.3180640899654623,-2.3180640899654623)" x1="90.1320338" x2="126.848202" y1="-110.69" y2="-110.69" /><line stroke="black" stroke-width="0.4313944572666666" transform="scale(2.3180640899654623,-2.3180640899654623)" x1="89.632" x2="89.6320338" y1="-109.2400516" y2="-110.1900178" /><circle cx="90.1299662" cy="-52.04005" fill="none" r="0.5" stroke="black" stroke-width="0.4313944572666666" transform="scale(2.3180640899654623,-2.3180640899654623)" /><circle cx="108.13" cy="-51.0391026" fill="none" r="0.5" stroke="black" stroke-width="0.4313944572666666" transform="scale(2.3180640899654623,-2.3180640899654623)" /><circle cx="109.13" cy="-47.29" fill="none" r="0.5" stroke="black" stroke-width="0.4313944572666666" transform="scale(2.3180640899654623,-2.3180640899654623)" /><circle cx="127.13" cy="-46.29" fill="none" r="0.5" stroke="black" stroke-width="0.4313944572666666" transform="scale(2.3180640899654623,-2.3180640899654623)" /><circle cx="128.13" cy="-45.038" fill="none" r="0.5" stroke="black" stroke-width="0.4313944572666666" transform="scale(2.3180640899654623,-2.3180640899654623)" /><circle cx="148.032" cy="-45.038" fill="none" r="0.5" stroke="black" stroke-width="0.4313944572666666" transform="scale(2.3180640899654623,-2.3180640899654623)" /><circle cx="149.032" cy="-46.29" fill="none" r="0.5" stroke="black" stroke-width="0.4313944572666666" transform="scale(2.3180640899654623,-2.3180640899654623)" /><circle cx="167.032" cy="-47.29" fill="none" r="0.5" stroke="black" stroke-width="0.4313944572666666" transform="scale(2.3180640899654623,-2.3180640899654623)" /><circle cx="168.032" cy="-48.788" fill="none" r="0.5" stroke="black" stroke-width="0.4313944572666666" transform="scale(2.3180640899654623,-2.3180640899654623)" /><circle cx="186.0315782" cy="-49.788" fill="none" r="0.5" stroke="black" stroke-width="0.4313944572666666" transform="scale(2.3180640899654623,-2.3180640899654623)" /><circle cx="187.0321344" cy="-51.04" fill="none" r="0.5" stroke="black" stroke-width="0.4313944572666666" transform="scale(2.3180640899654623,-2.3180640899654623)" /><circle cx="206.783" cy="-52.04" fill="none" r="0.5" stroke="black" stroke-width="0.4313944572666666" transform="scale(2.3180640899654623,-2.3180640899654623)" /><circle cx="192.0712944" cy="-139.1891485" fill="none" r="0.5" stroke="black" stroke-width="0.4313944572666666" transform="scale(2.3180640899654623,-2.3180640899654623)" /><circle cx="175.399264" cy="-130.7182477" fill="none" r="0.5" stroke="black" stroke-width="0.4313944572666666" transform="scale(2.3180640899654623,-2.3180640899654623)" /><circle cx="138.0325731" cy="-124.8392894" fill="none" r="0.5" stroke="black" stroke-width="0.4313944572666666" transform="scale(2.3180640899654623,-2.3180640899654623)" /><circle cx="126.848202" cy="-111.19" fill="none" r="0.5" stroke="black" stroke-width="0.4313944572666666" transform="scale(2.3180640899654623,-2.3180640899654623)" /><circle cx="90.1320338" cy="-110.19" fill="none" r="0.5" stroke="black" stroke-width="0.4313944572666666" transform="scale(2.3180640899654623,-2.3180640899654623)" /><line stroke="black" stroke-width="0.4313944572666666" transform="scale(2.3180640899654623,-2.3180640899654623)" x1="90.832" x2="90.83" y1="-109.2400089" y2="-52.9900089" /><line stroke="black" stroke-width="0.4313944572666666" transform="scale(2.3180640899654623,-2.3180640899654623)" x1="90.8299911" x2="90.83" y1="-52.7400132" y2="-52.9900089" /><line stroke="black" stroke-width="0.4313944572666666" transform="scale(2.3180640899654623,-2.3180640899654623)" x1="90.8299911" x2="109.3300263" y1="-52.7400132" y2="-52.7390395" /><line stroke="black" stroke-width="0.4313944572666666" transform="scale(2.3180640899654623,-2.3180640899654623)" x1="109.83" x2="109.83" y1="-52.2390395" y2="-47.99" /><line stroke="black" stroke-width="0.4313944572666666" transform="scale(2.3180640899654623,-2.3180640899654623)" x1="109.83" x2="128.33" y1="-47.99" y2="-47.99" /><line stroke="black" stroke-width="0.4313944572666666" transform="scale(2.3180640899654623,-2.3180640899654623)" x1="128.83" x2="128.83" y1="-47.49" y2="-45.738" /><line stroke="black" stroke-width="0.4313944572666666" transform="scale(2.3180640899654623,-2.3180640899654623)" x1="128.83" x2="147.332" y1="-45.738" y2="-45.738" /><line stroke="black" stroke-width="0.4313944572666666" transform="scale(2.3180640899654623,-2.3180640899654623)" x1="147.332" x2="147.332" y1="-47.49" y2="-45.738" /><line stroke="black" stroke-width="0.4313944572666666" transform="scale(2.3180640899654623,-2.3180640899654623)" x1="147.832" x2="166.332" y1="-47.99" y2="-47.99" /><line stroke="black" stroke-width="0.4313944572666666" transform="scale(2.3180640899654623,-2.3180640899654623)" x1="166.332" x2="166.332" y1="-49.988" y2="-47.99" /><line stroke="black" stroke-width="0.4313944572666666" transform="scale(2.3180640899654623,-2.3180640899654623)" x1="166.832" x2="185.331889" y1="-50.488" y2="-50.488" /><line stroke="black" stroke-width="0.4313944572666666" transform="scale(2.3180640899654623,-2.3180640899654623)" x1="185.332" x2="185.331889" y1="-50.737889" y2="-50.488" /><line stroke="black" stroke-width="0.4313944572666666" transform="scale(2.3180640899654623,-2.3180640899654623)" x1="185.332" x2="185.3326671" y1="-50.737889" y2="-52.240222" /><line stroke="black" stroke-width="0.4313944572666666" transform="scale(2.3180640899654623,-2.3180640899654623)" x1="185.8326671" x2="206.083" y1="-52.74" y2="-52.74" /><line stroke="black" stroke-width="0.4313944572666666" transform="scale(2.3180640899654623,-2.3180640899654623)" x1="206.083" x2="206.083" y1="-113.5179873" y2="-52.74" /><line stroke="black" stroke-width="0.4313944572666666" transform="scale(2.3180640899654623,-2.3180640899654623)" x1="205.7345064" x2="206.083" y1="-114.121596" y2="-113.5179873" /><line stroke="black" stroke-width="0.4313944572666666" transform="scale(2.3180640899654623,-2.3180640899654623)" x1="191.8150535" x2="205.7345111" y1="-138.2329173" y2="-114.1215877" /><line stroke="black" stroke-width="0.4313944572666666" transform="scale(2.3180640899654623,-2.3180640899654623)" x1="176.0418526" x2="191.8150535" y1="-129.1262555" y2="-138.2329173" /><line stroke="black" stroke-width="0.4313944572666666" transform="scale(2.3180640899654623,-2.3180640899654623)" x1="138.4212035" x2="175.8564776" y1="-124.1840235" y2="-129.0634622" /><line stroke="black" stroke-width="0.4313944572666666" transform="scale(2.3180640899654623,-2.3180640899654623)" x1="127.8626219" x2="138.4212035" y1="-109.6955223" y2="-124.1840235" /><line stroke="black" stroke-width="0.4313944572666666" transform="scale(2.3180640899654623,-2.3180640899654623)" x1="90.8320089" x2="127.4585392" y1="-109.49" y2="-109.49" /><line stroke="black" stroke-width="0.4313944572666666" transform="scale(2.3180640899654623,-2.3180640899654623)" x1="90.832" x2="90.8320089" y1="-109.2400089" y2="-109.49" /><circle cx="109.33" cy="-52.2390395" fill="none" r="0.5" stroke="black" stroke-width="0.4313944572666666" transform="scale(2.3180640899654623,-2.3180640899654623)" /><circle cx="128.33" cy="-47.49" fill="none" r="0.5" stroke="black" stroke-width="0.4313944572666666" transform="scale(2.3180640899654623,-2.3180640899654623)" /><circle cx="147.832" cy="-47.49" fill="none" r="0.5" stroke="black" stroke-width="0.4313944572666666" transform="scale(2.3180640899654623,-2.3180640899654623)" /><circle cx="166.832" cy="-49.988" fill="none" r="0.5" stroke="black" stroke-width="0.4313944572666666" transform="scale(2.3180640899654623,-2.3180640899654623)" /><circle cx="185.8326671" cy="-52.24" fill="none" r="0.5" stroke="black" stroke-width="0.4313944572666666" transform="scale(2.3180640899654623,-2.3180640899654623)" /><circle cx="175.7918526" cy="-129.5592682" fill="none" r="0.5" stroke="black" stroke-width="0.4313944572666666" transform="scale(2.3180640899654623,-2.3180640899654623)" /><circle cx="127.4585392" cy="-109.99" fill="none" r="0.5" stroke="black" stroke-width="0.4313944572666666" transform="scale(2.3180640899654623,-2.3180640899654623)" /><line stroke="black" stroke-width="0.4313944572666666" transform="scale(2.3180640899654623,-2.3180640899654623)" x1="93.4818969" x2="93.4801031" y1="-106.3400178" y2="-55.8898652" /><line stroke="black" stroke-width="0.4313944572666666" transform="scale(2.3180640899654623,-2.3180640899654623)" x1="93.9800768" x2="111.9800263" y1="-55.3898474" y2="-55.3889" /><line stroke="black" stroke-width="0.4313944572666666" transform="scale(2.3180640899654623,-2.3180640899654623)" x1="112.48" x2="112.48" y1="-54.8889" y2="-51.14" /><line stroke="black" stroke-width="0.4313944572666666" transform="scale(2.3180640899654623,-2.3180640899654623)" x1="112.98" x2="130.8662329" y1="-50.64" y2="-50.64" /><line stroke="black" stroke-width="0.4313944572666666" transform="scale(2.3180640899654623,-2.3180640899654623)" x1="131.3652813" x2="131.4464452" y1="-50.1708333" y2="-48.8571667" /><line stroke="black" stroke-width="0.4313944572666666" transform="scale(2.3180640899654623,-2.3180640899654623)" x1="131.9454936" x2="144.2165064" y1="-48.388" y2="-48.388" /><line stroke="black" stroke-width="0.4313944572666666" transform="scale(2.3180640899654623,-2.3180640899654623)" x1="144.7155548" x2="144.7967187" y1="-48.8571667" y2="-50.1708333" /><line stroke="black" stroke-width="0.4313944572666666" transform="scale(2.3180640899654623,-2.3180640899654623)" x1="145.2957671" x2="163.682" y1="-50.64" y2="-50.64" /><line stroke="black" stroke-width="0.4313944572666666" transform="scale(2.3180640899654623,-2.3180640899654623)" x1="163.682" x2="163.682" y1="-52.638" y2="-50.64" /><line stroke="black" stroke-width="0.4313944572666666" transform="scale(2.3180640899654623,-2.3180640899654623)" x1="164.182" x2="182.2175064" y1="-53.138" y2="-53.138" /><line stroke="black" stroke-width="0.4313944572666666" transform="scale(2.3180640899654623,-2.3180640899654623)" x1="182.7165548" x2="182.7977187" y1="-53.6071667" y2="-54.9208333" /><line stroke="black" stroke-width="0.4313944572666666" transform="scale(2.3180640899654623,-2.3180640899654623)" x1="183.2967671" x2="202.933" y1="-55.39" y2="-55.39" /><line stroke="black" stroke-width="0.4313944572666666" transform="scale(2.3180640899654623,-2.3180640899654623)" x1="203.433" x2="203.433" y1="-55.89" y2="-112.6739586" /><line stroke="black" stroke-width="0.4313944572666666" transform="scale(2.3180640899654623,-2.3180640899654623)" x1="203.3660222" x2="191.0949918" y1="-112.9239421" y2="-134.1798607" /><line stroke="black" stroke-width="0.4313944572666666" transform="scale(2.3180640899654623,-2.3180640899654623)" x1="176.8223986" x2="190.4119696" y1="-126.5169475" y2="-134.36289" /><line stroke="black" stroke-width="0.4313944572666666" transform="scale(2.3180640899654623,-2.3180640899654623)" x1="140.1054148" x2="176.8223986" y1="-121.7311331" y2="-126.5169475" /><line stroke="black" stroke-width="0.4313944572666666" transform="scale(2.3180640899654623,-2.3180640899654623)" x1="139.765957" x2="129.7800052" y1="-121.5298048" y2="-107.8270669" /><line stroke="black" stroke-width="0.4313944572666666" transform="scale(2.3180640899654623,-2.3180640899654623)" x1="129.7791892" x2="129.21045" y1="-107.8259472" y2="-107.0455223" /><line stroke="black" stroke-width="0.4313944572666666" transform="scale(2.3180640899654623,-2.3180640899654623)" x1="93.9818969" x2="128.8063672" y1="-106.84" y2="-106.84" /><circle cx="93.9801031" cy="-55.8898474" fill="none" r="0.5" stroke="black" stroke-width="0.4313944572666666" transform="scale(2.3180640899654623,-2.3180640899654623)" /><circle cx="111.98" cy="-54.8889" fill="none" r="0.5" stroke="black" stroke-width="0.4313944572666666" transform="scale(2.3180640899654623,-2.3180640899654623)" /><circle cx="112.98" cy="-51.14" fill="none" r="0.5" stroke="black" stroke-width="0.4313944572666666" transform="scale(2.3180640899654623,-2.3180640899654623)" /><circle cx="130.8662329" cy="-50.14" fill="none" r="0.5" stroke="black" stroke-width="0.4313944572666666" transform="scale(2.3180640899654623,-2.3180640899654623)" /><circle cx="131.9454936" cy="-48.888" fill="none" r="0.5" stroke="black" stroke-width="0.4313944572666666" transform="scale(2.3180640899654623,-2.3180640899654623)" /><circle cx="144.2165064" cy="-48.888" fill="none" r="0.5" stroke="black" stroke-width="0.4313944572666666" transform="scale(2.3180640899654623,-2.3180640899654623)" /><circle cx="145.2957671" cy="-50.14" fill="none" r="0.5" stroke="black" stroke-width="0.4313944572666666" transform="scale(2.3180640899654623,-2.3180640899654623)" /><circle cx="164.182" cy="-52.638" fill="none" r="0.5" stroke="black" stroke-width="0.4313944572666666" transform="scale(2.3180640899654623,-2.3180640899654623)" /><circle cx="182.2175064" cy="-53.638" fill="none" r="0.5" stroke="black" stroke-width="0.4313944572666666" transform="scale(2.3180640899654623,-2.3180640899654623)" /><circle cx="183.2967671" cy="-54.89" fill="none" r="0.5" stroke="black" stroke-width="0.4313944572666666" transform="scale(2.3180640899654623,-2.3180640899654623)" /><circle cx="202.933" cy="-55.89" fill="none" r="0.5" stroke="black" stroke-width="0.4313944572666666" transform="scale(2.3180640899654623,-2.3180640899654623)" /><circle cx="202.933" cy="-112.6739586" fill="none" r="0.5" stroke="black" stroke-width="0.4313944572666666" transform="scale(2.3180640899654623,-2.3180640899654623)" /><circle cx="190.6619696" cy="-133.9298773" fill="none" r="0.5" stroke="black" stroke-width="0.4313944572666666" transform="scale(2.3180640899654623,-2.3180640899654623)" /><circle cx="140.1700398" cy="-121.2353271" fill="none" r="0.5" stroke="black" stroke-width="0.4313944572666666" transform="scale(2.3180640899654623,-2.3180640899654623)" /><circle cx="128.8063672" cy="-107.34" fill="none" r="0.5" stroke="black" stroke-width="0.4313944572666666" transform="scale(2.3180640899654623,-2.3180640899654623)" /><circle cx="93.9818969" cy="-106.34" fill="none" r="0.5" stroke="black" stroke-width="0.4313944572666666" transform="scale(2.3180640899654623,-2.3180640899654623)" /></svg>