0
SECTION
2
HEADER
9
$INSUNITS
70
4
0
ENDSEC
0
SECTION
2
TABLES
0
TABLE
2
LTYPE
0
LTYPE
72
65
70
64
2
CONTINUOUS
3
______
73
0
40
0
0
ENDTAB
0
TABLE
2
LAYER
0
ENDTAB
0
ENDSEC
0
SECTION
2
ENTITIES
0
LINE
8
0
10
90.3687129
20
-92.2437231
11
91.8782446
21
-109.4906875
0
LINE
8
0
10
87.060611
20
-54.4474236
11
88.5491996
21
-71.4551034
0
LINE
8
0
10
88.7121175
20
-73.3165013
11
90.2058682
21
-90.3831624
0
LINE
8
0
10
87.5181143
20
-53.9054785
11
108.5050375
21
-52.1960109
0
LINE
8
0
10
108.964445
20
-51.6976614
11
108.964445
21
-39.9078828
0
LINE
8
0
10
109.4627345
20
-39.4078857
11
127.4661555
21
-39.346295
0
LINE
8
0
10
127.964445
20
-38.8462979
11
127.964445
21
-35.0925903
0
LINE
8
0
10
128.464445
20
-34.5925903
11
145.466445
21
-34.5925903
0
LINE
8
0
10
145.966445
20
-39.8499559
11
145.966445
21
-35.0925903
0
LINE
8
0
10
146.4610506
20
-40.3499268
11
164.4718394
21
-40.5442539
0
LINE
8
0
10
164.966445
20
-42.5400341
11
164.966445
21
-41.0442248
0
LINE
8
0
10
165.4739442
20
-43.0399779
11
183.4591712
21
-42.7701995
0
LINE
8
0
10
183.9666704
20
-43.2699213
11
183.9674451
21
-45.0145904
0
LINE
8
0
10
190.8686445
20
-126.1091037
11
204.4024451
21
-106.0211864
0
LINE
8
0
10
175.0080871
20
-117.4893918
11
190.2039758
21
-126.2627423
0
LINE
8
0
10
137.5239143
20
-112.5649486
11
174.8227121
21
-117.4265985
0
LINE
8
0
10
126.8446631
20
-107.4672883
11
137.3721942
21
-112.519914
0
LINE
8
0
10
92.4131977
20
-109.9457316
11
126.5914607
21
-107.41942
0
LINE
8
0
10
184.4672232
20
-45.0145904
11
204.2174451
21
-45.0145904
0
LINE
8
0
10
204.7174451
20
-105.3416158
11
204.7174451
21
-45.5145904
0
LINE
8
0
10
204.4024451
20
-106.0211864
11
204.6504578
21
-105.5916158
0
ARC
8
0
10
87.5587068
20
-54.403828
40
0.5
50
94.6566888
51
454.6566888
0
ARC
8
0
10
108.464445
20
-51.6976614
40
0.5
50
274.6566888
51
634.6566888
0
ARC
8
0
10
109.464445
20
-39.9078828
40
0.5
50
90.1960093
51
450.1960093
0
ARC
8
0
10
127.464445
20
-38.8462979
40
0.5
50
270.1960093
51
630.1960093
0
ARC
8
0
10
128.464445
20
-35.0925903
40
0.5
50
90
51
450
0
ARC
8
0
10
145.466445
20
-35.0925903
40
0.5
50
0
51
360
0
ARC
8
0
10
146.466445
20
-39.8499559
40
0.5
50
180
51
540
0
ARC
8
0
10
164.466445
20
-41.0442248
40
0.5
50
0
51
360
0
ARC
8
0
10
165.466445
20
-42.5400341
40
0.5
50
180
51
540
0
ARC
8
0
10
183.4666704
20
-43.2701433
40
0.5
50
0.0254393
51
360.0254393
0
ARC
8
0
10
184.4672232
20
-44.5145904
40
0.5
50
180.0254393
51
540.0254393
0
ARC
8
0
10
204.2174451
20
-45.5145904
40
0.5
50
0
51
360
0
ARC
8
0
10
204.2174451
20
-105.3416158
40
0.5
50
329.9999999
51
689.9999999
0
ARC
8
0
10
190.4539758
20
-125.8297296
40
0.5
50
239.9999999
51
599.9999999
0
ARC
8
0
10
174.7580871
20
-117.9224045
40
0.5
50
59.9999999
51
419.9999999
0
ARC
8
0
10
137.5885393
20
-112.0691426
40
0.5
50
244.3616025
51
604.3616025
0
ARC
8
0
10
126.628318
20
-107.9180597
40
0.5
50
64.3616025
51
424.3616025
0
ARC
8
0
10
92.3763404
20
-109.4470919
40
0.5
50
185.0020393
51
545.0020393
0
ARC
8
0
10
88.0522117
20
-72.4364306
40
1.1
50
306.8637628
51
666.8637628
0
ARC
8
0
10
89.7081708
20
-91.3641299
40
1.1
50
306.9052002
51
666.9052002
0
CIRCLE
8
0
10
165.3524451
20
-60.0105904
40
1.1
0
CIRCLE
8
0
10
132.541445
20
-96.3445903
40
1.1
0
CIRCLE
8
0
10
179.1254966
20
-103.9282479
40
1.1
0
ARC
8
0
10
88.0522117
20
-72.4364306
40
2.15
50
290.670682
51
439.3333926
0
ARC
8
0
10
89.7081708
20
-91.3641299
40
2.15
50
290.6893795
51
439.3146942
0
CIRCLE
8
0
10
165.3524451
20
-60.0105904
40
2.15
0
CIRCLE
8
0
10
132.541445
20
-96.3445903
40
2.15
0
CIRCLE
8
0
10
179.1254966
20
-103.9282479
40
2.15
0
CIRCLE
8
0
10
187.6464451
20
-92.5005904
40
1.1
0
CIRCLE
8
0
10
202.0784451
20
-101.0195904
40
1.1
0
LINE
8
0
10
183.9674451
20
-45.0148124
11
183.9674451
21
-93.9343585
0
LINE
8
0
10
184.2174451
20
-94.3673712
11
203.9383454
21
-105.7532383
0
ARC
8
0
10
183.4674451
20
-45.0148124
40
0.5
50
0
51
0.0254393
0
ARC
8
0
10
184.4674451
20
-93.9343585
40
0.5
50
180
51
239.9999999
0
ARC
8
0
10
203.6883454
20
-106.186251
40
0.5
50
326.0307299
51
59.9999999
0
LINE
8
0
10
93.6367273
20
-107.5834531
11
107.5834531
21
-106.3632727
0
LINE
8
0
10
107.5834531
20
-106.3632727
11
106.3632727
21
-92.4165469
0
LINE
8
0
10
106.3632727
20
-92.4165469
11
92.4165469
21
-93.6367273
0
LINE
8
0
10
92.4165469
20
-93.6367273
11
93.6367273
21
-107.5834531
0
LINE
8
0
10
91.9807682
20
-88.6557538
11
105.927494
21
-87.4355734
0
LINE
8
0
10
105.927494
20
-87.4355734
11
104.7073136
21
-73.4888476
0
LINE
8
0
10
104.7073136
20
-73.4888476
11
90.7605878
21
-74.709028
0
LINE
8
0
10
90.7605878
20
-74.709028
11
91.9807682
21
-88.6557538
0
LINE
8
0
10
90.3248091
20
-69.7280545
11
104.2715349
21
-68.5078741
0
LINE
8
0
10
104.2715349
20
-68.5078741
11
103.0513545
21
-54.5611483
0
LINE
8
0
10
103.0513545
20
-54.5611483
11
89.1046287
21
-55.7813287
0
LINE
8
0
10
89.1046287
20
-55.7813287
11
90.3248091
21
-69.7280545
0
LINE
8
0
10
110.884445
20
-93.4195904
11
124.884445
21
-93.4195904
0
LINE
8
0
10
124.884445
20
-93.4195904
11
124.884445
21
-79.4195904
0
LINE
8
0
10
124.884445
20
-79.4195904
11
110.884445
21
-79.4195904
0
LINE
8
0
10
110.884445
20
-79.4195904
11
110.884445
21
-93.4195904
0
LINE
8
0
10
110.884445
20
-74.4195904
11
124.884445
21
-74.4195904
0
LINE
8
0
10
124.884445
20
-74.4195904
11
124.884445
21
-60.4195904
0
LINE
8
0
10
124.884445
20
-60.4195904
11
110.884445
21
-60.4195904
0
LINE
8
0
10
110.884445
20
-60.4195904
11
110.884445
21
-74.4195904
0
LINE
8
0
10
110.884445
20
-55.4195904
11
124.884445
21
-55.4195904
0
LINE
8
0
10
124.884445
20
-55.4195904
11
124.884445
21
-41.4195904
0
LINE
8
0
10
124.884445
20
-41.4195904
11
110.884445
21
-41.4195904
0
LINE
8
0
10
110.884445
20
-41.4195904
11
110.884445
21
-55.4195904
0
LINE
8
0
10
129.884445
20
-88.4795903
11
143.884445
21
-88.4795903
0
LINE
8
0
10
143.884445
20
-88.4795903
11
143.884445
21
-74.4795903
0
LINE
8
0
10
143.884445
20
-74.4795903
11
129.884445
21
-74.4795903
0
LINE
8
0
10
129.884445
20
-74.4795903
11
129.884445
21
-88.4795903
0
LINE
8
0
10
129.884445
20
-69.4795903
11
143.884445
21
-69.4795903
0
LINE
8
0
10
143.884445
20
-69.4795903
11
143.884445
21
-55.4795903
0
LINE
8
0
10
143.884445
20
-55.4795903
11
129.884445
21
-55.4795903
0
LINE
8
0
10
129.884445
20
-55.4795903
11
129.884445
21
-69.4795903
0
LINE
8
0
10
129.884445
20
-50.4795903
11
143.884445
21
-50.4795903
0
LINE
8
0
10
143.884445
20
-50.4795903
11
143.884445
21
-36.4795903
0
LINE
8
0
10
143.884445
20
-36.4795903
11
129.884445
21
-36.4795903
0
LINE
8
0
10
129.884445
20
-36.4795903
11
129.884445
21
-50.4795903
0
LINE
8
0
10
148.884445
20
-94.5595904
11
162.884445
21
-94.5595904
0
LINE
8
0
10
162.884445
20
-94.5595904
11
162.884445
21
-80.5595904
0
LINE
8
0
10
162.884445
20
-80.5595904
11
148.884445
21
-80.5595904
0
LINE
8
0
10
148.884445
20
-80.5595904
11
148.884445
21
-94.5595904
0
LINE
8
0
10
148.884445
20
-75.5595904
11
162.884445
21
-75.5595904
0
LINE
8
0
10
162.884445
20
-75.5595904
11
162.884445
21
-61.5595904
0
LINE
8
0
10
162.884445
20
-61.5595904
11
148.884445
21
-61.5595904
0
LINE
8
0
10
148.884445
20
-61.5595904
11
148.884445
21
-75.5595904
0
LINE
8
0
10
148.884445
20
-56.5595904
11
162.884445
21
-56.5595904
0
LINE
8
0
10
162.884445
20
-56.5595904
11
162.884445
21
-42.5595904
0
LINE
8
0
10
162.884445
20
-42.5595904
11
148.884445
21
-42.5595904
0
LINE
8
0
10
148.884445
20
-42.5595904
11
148.884445
21
-56.5595904
0
LINE
8
0
10
167.8844451
20
-96.6495904
11
181.8844451
21
-96.6495904
0
LINE
8
0
10
181.8844451
20
-96.6495904
11
181.8844451
21
-82.6495904
0
LINE
8
0
10
181.8844451
20
-82.6495904
11
167.8844451
21
-82.6495904
0
LINE
8
0
10
167.8844451
20
-82.6495904
11
167.8844451
21
-96.6495904
0
LINE
8
0
10
167.8844451
20
-77.6495904
11
181.8844451
21
-77.6495904
0
LINE
8
0
10
181.8844451
20
-77.6495904
11
181.8844451
21
-63.6495904
0
LINE
8
0
10
181.8844451
20
-63.6495904
11
167.8844451
21
-63.6495904
0
LINE
8
0
10
167.8844451
20
-63.6495904
11
167.8844451
21
-77.6495904
0
LINE
8
0
10
167.8844451
20
-58.6495904
11
181.8844451
21
-58.6495904
0
LINE
8
0
10
181.8844451
20
-58.6495904
11
181.8844451
21
-44.6495904
0
LINE
8
0
10
181.8844451
20
-44.6495904
11
167.8844451
21
-44.6495904
0
LINE
8
0
10
167.8844451
20
-44.6495904
11
167.8844451
21
-58.6495904
0
LINE
8
0
10
139.384445
20
-110.4795903
11
153.384445
21
-110.4795903
0
LINE
8
0
10
153.384445
20
-110.4795903
11
153.384445
21
-96.4795903
0
LINE
8
0
10
153.384445
20
-96.4795903
11
139.384445
21
-96.4795903
0
LINE
8
0
10
139.384445
20
-96.4795903
11
139.384445
21
-110.4795903
0
LINE
8
0
10
158.8112309
20
-111.1793378
11
172.3341925
21
-114.8028044
0
LINE
8
0
10
172.3341925
20
-114.8028044
11
175.9576591
21
-101.2798428
0
LINE
8
0
10
175.9576591
20
-101.2798428
11
162.4346975
21
-97.6563762
0
LINE
8
0
10
162.4346975
20
-97.6563762
11
158.8112309
21
-111.1793378
0
LINE
8
0
10
192.1934286
20
-119.5559257
11
199.1934286
21
-107.4315701
0
LINE
8
0
10
199.1934286
20
-107.4315701
11
187.069073
21
-100.4315701
0
LINE
8
0
10
187.069073
20
-100.4315701
11
180.069073
21
-112.5559257
0
LINE
8
0
10
180.069073
20
-112.5559257
11
192.1934286
21
-119.5559257
0
LINE
8
0
10
184.9974451
20
-93.801568
11
184.9974451
21
-45.5145904
0
LINE
8
0
10
203.9674451
20
-105.0425777
11
185.2474451
21
-94.2345807
0
ARC
8
0
10
185.4974451
20
-45.5145904
40
0.5
50
90
51
180
0
ARC
8
0
10
204.2174451
20
-104.609565
40
0.5
50
239.9999999
51
0
0
ARC
8
0
10
185.4974451
20
-93.801568
40
0.5
50
180
51
239.9999999
0
LINE
8
0
10
93.8110387
20
-109.5758425
11
107.7577645
21
-108.3556621
0
LINE
8
0
10
109.5758425
20
-106.1889613
11
108.3556621
21
-92.2422355
0
LINE
8
0
10
106.1889613
20
-90.4241575
11
92.2422355
21
-91.6443379
0
LINE
8
0
10
90.4241575
20
-93.8110387
11
91.6443379
21
-107.7577645
0
LINE
8
0
10
92.1550796
20
-90.6481432
11
106.1018054
21
-89.4279628
0
LINE
8
0
10
107.9198834
20
-87.261262
11
106.699703
21
-73.3145362
0
LINE
8
0
10
104.5330022
20
-71.4964582
11
90.5862764
21
-72.7166386
0
LINE
8
0
10
88.7681984
20
-74.8833394
11
89.9883788
21
-88.8300652
0
LINE
8
0
10
90.4991205
20
-71.7204439
11
104.4458463
21
-70.5002635
0
LINE
8
0
10
106.2639243
20
-68.3335627
11
105.0437439
21
-54.3868369
0
LINE
8
0
10
102.8770431
20
-52.5687589
11
88.9303173
21
-53.7889393
0
LINE
8
0
10
87.1122393
20
-55.9556401
11
88.3324197
21
-69.9023659
0
LINE
8
0
10
110.884445
20
-95.4195904
11
124.884445
21
-95.4195904
0
LINE
8
0
10
126.884445
20
-93.4195904
11
126.884445
21
-79.4195904
0
LINE
8
0
10
124.884445
20
-77.4195904
11
110.884445
21
-77.4195904
0
LINE
8
0
10
108.884445
20
-79.4195904
11
108.884445
21
-93.4195904
0
LINE
8
0
10
110.884445
20
-76.4195904
11
124.884445
21
-76.4195904
0
LINE
8
0
10
126.884445
20
-74.4195904
11
126.884445
21
-60.4195904
0
LINE
8
0
10
124.884445
20
-58.4195904
11
110.884445
21
-58.4195904
0
LINE
8
0
10
108.884445
20
-60.4195904
11
108.884445
21
-74.4195904
0
LINE
8
0
10
110.884445
20
-57.4195904
11
124.884445
21
-57.4195904
0
LINE
8
0
10
126.884445
20
-55.4195904
11
126.884445
21
-41.4195904
0
LINE
8
0
10
124.884445
20
-39.4195904
11
110.884445
21
-39.4195904
0
LINE
8
0
10
108.884445
20
-41.4195904
11
108.884445
21
-55.4195904
0
LINE
8
0
10
129.884445
20
-90.4795903
11
143.884445
21
-90.4795903
0
LINE
8
0
10
145.884445
20
-88.4795903
11
145.884445
21
-74.4795903
0
LINE
8
0
10
143.884445
20
-72.4795903
11
129.884445
21
-72.4795903
0
LINE
8
0
10
127.884445
20
-74.4795903
11
127.884445
21
-88.4795903
0
LINE
8
0
10
129.884445
20
-71.4795903
11
143.884445
21
-71.4795903
0
LINE
8
0
10
145.884445
20
-69.4795903
11
145.884445
21
-55.4795903
0
LINE
8
0
10
143.884445
20
-53.4795903
11
129.884445
21
-53.4795903
0
LINE
8
0
10
127.884445
20
-55.4795903
11
127.884445
21
-69.4795903
0
LINE
8
0
10
129.884445
20
-52.4795903
11
143.884445
21
-52.4795903
0
LINE
8
0
10
145.884445
20
-50.4795903
11
145.884445
21
-36.4795903
0
LINE
8
0
10
143.884445
20
-34.4795903
11
129.884445
21
-34.4795903
0
LINE
8
0
10
127.884445
20
-36.4795903
11
127.884445
21
-50.4795903
0
LINE
8
0
10
157.384445
20
-96.5595904
11
158.0515773
21
-96.5595904
0
LINE
8
0
10
164.884445
20
-96.2422317
11
164.884445
21
-80.5595904
0
LINE
8
0
10
162.884445
20
-78.5595904
11
148.884445
21
-78.5595904
0
LINE
8
0
10
146.884445
20
-80.5595904
11
146.884445
21
-92.4795903
0
LINE
8
0
10
148.884445
20
-77.5595904
11
162.884445
21
-77.5595904
0
LINE
8
0
10
164.884445
20
-75.5595904
11
164.884445
21
-61.5595904
0
LINE
8
0
10
162.884445
20
-59.5595904
11
148.884445
21
-59.5595904
0
LINE
8
0
10
146.884445
20
-61.5595904
11
146.884445
21
-75.5595904
0
LINE
8
0
10
148.884445
20
-58.5595904
11
162.884445
21
-58.5595904
0
LINE
8
0
10
164.884445
20
-56.5595904
11
164.884445
21
-42.5595904
0
LINE
8
0
10
162.884445
20
-40.5595904
11
148.884445
21
-40.5595904
0
LINE
8
0
10
146.884445
20
-42.5595904
11
146.884445
21
-56.5595904
0
LINE
8
0
10
173.8688298
20
-98.6495904
11
181.8844451
21
-98.6495904
0
LINE
8
0
10
183.8844451
20
-96.6495904
11
183.8844451
21
-82.6495904
0
LINE
8
0
10
181.8844451
20
-80.6495904
11
167.8844451
21
-80.6495904
0
LINE
8
0
10
165.8844451
20
-82.6495904
11
165.8844451
21
-96.510181
0
LINE
8
0
10
167.8844451
20
-79.6495904
11
181.8844451
21
-79.6495904
0
LINE
8
0
10
183.8844451
20
-77.6495904
11
183.8844451
21
-63.6495904
0
LINE
8
0
10
181.8844451
20
-61.6495904
11
167.8844451
21
-61.6495904
0
LINE
8
0
10
165.8844451
20
-63.6495904
11
165.8844451
21
-77.6495904
0
LINE
8
0
10
167.8844451
20
-60.6495904
11
181.8844451
21
-60.6495904
0
LINE
8
0
10
183.8844451
20
-58.6495904
11
183.8844451
21
-44.6495904
0
LINE
8
0
10
181.8844451
20
-42.6495904
11
167.8844451
21
-42.6495904
0
LINE
8
0
10
165.8844451
20
-44.6495904
11
165.8844451
21
-58.6495904
0
LINE
8
0
10
139.384445
20
-112.4795903
11
153.384445
21
-112.4795903
0
LINE
8
0
10
155.384445
20
-110.4795903
11
155.384445
21
-98.5595904
0
LINE
8
0
10
144.884445
20
-94.4795903
11
139.384445
21
-94.4795903
0
LINE
8
0
10
137.384445
20
-96.4795903
11
137.384445
21
-110.4795903
0
LINE
8
0
10
158.293593
20
-113.1111894
11
171.8165544
21
-116.734656
0
LINE
8
0
10
174.2660441
20
-115.3204423
11
177.8895107
21
-101.7974809
0
LINE
8
0
10
176.475297
20
-99.3479912
11
173.8688298
21
-98.6495904
0
LINE
8
0
10
165.8844451
20
-96.510181
11
164.884445
21
-96.2422317
0
LINE
8
0
10
159.983429
20
-99.0772284
11
156.8793793
21
-110.6616997
0
LINE
8
0
10
191.6754794
20
-124.4530401
11
203.1754794
21
-104.5344557
0
LINE
8
0
10
176.0870222
20
-115.4530401
11
187.5870222
21
-95.5344557
0
ARC
8
0
10
158.0515773
20
-98.5595904
40
2
50
345.0000021
51
90
0
ARC
8
0
10
158.811231
20
-111.1793377
40
2
50
165.0000021
51
255.0000021
0
ARC
8
0
10
172.3341924
20
-114.8028043
40
2
50
255.0000021
51
345.0000021
0
ARC
8
0
10
175.957659
20
-101.2798429
40
2
50
345.0000021
51
75.0000021
0
ARC
8
0
10
181.8844451
20
-96.6495904
40
2
50
270
51
0
0
ARC
8
0
10
181.8844451
20
-82.6495904
40
2
50
0
51
90
0
ARC
8
0
10
167.8844451
20
-82.6495904
40
2
50
90
51
180
0
ARC
8
0
10
162.884445
20
-80.5595904
40
2
50
0
51
90
0
ARC
8
0
10
148.884445
20
-80.5595904
40
2
50
90
51
180
0
ARC
8
0
10
144.884445
20
-92.4795903
40
2
50
270
51
0
0
ARC
8
0
10
139.384445
20
-96.4795903
40
2
50
90
51
180
0
ARC
8
0
10
139.384445
20
-110.4795903
40
2
50
180
51
270
0
ARC
8
0
10
153.384445
20
-110.4795903
40
2
50
270
51
0
0
ARC
8
0
10
157.384445
20
-98.5595904
40
2
50
90
51
180
0
ARC
8
0
10
107.5834531
20
-106.3632727
40
2
50
274.9999976
51
4.9999976
0
ARC
8
0
10
106.3632727
20
-92.4165469
40
2
50
4.9999976
51
94.9999976
0
ARC
8
0
10
92.4165469
20
-93.6367273
40
2
50
94.9999976
51
184.9999976
0
ARC
8
0
10
93.6367273
20
-107.5834531
40
2
50
184.9999976
51
274.9999976
0
ARC
8
0
10
105.927494
20
-87.4355734
40
2
50
274.9999976
51
4.9999976
0
ARC
8
0
10
104.7073136
20
-73.4888476
40
2
50
4.9999976
51
94.9999976
0
ARC
8
0
10
90.7605878
20
-74.709028
40
2
50
94.9999976
51
184.9999976
0
ARC
8
0
10
91.9807682
20
-88.6557538
40
2
50
184.9999976
51
274.9999976
0
ARC
8
0
10
104.2715349
20
-68.5078741
40
2
50
274.9999976
51
4.9999976
0
ARC
8
0
10
103.0513545
20
-54.5611483
40
2
50
4.9999976
51
94.9999976
0
ARC
8
0
10
89.1046287
20
-55.7813287
40
2
50
94.9999976
51
184.9999976
0
ARC
8
0
10
90.3248091
20
-69.7280545
40
2
50
184.9999976
51
274.9999976
0
ARC
8
0
10
124.884445
20
-93.4195904
40
2
50
270
51
0
0
ARC
8
0
10
124.884445
20
-79.4195904
40
2
50
0
51
90
0
ARC
8
0
10
110.884445
20
-79.4195904
40
2
50
90
51
180
0
ARC
8
0
10
110.884445
20
-93.4195904
40
2
50
180
51
270
0
ARC
8
0
10
124.884445
20
-74.4195904
40
2
50
270
51
0
0
ARC
8
0
10
124.884445
20
-60.4195904
40
2
50
0
51
90
0
ARC
8
0
10
110.884445
20
-60.4195904
40
2
50
90
51
180
0
ARC
8
0
10
110.884445
20
-74.4195904
40
2
50
180
51
270
0
ARC
8
0
10
124.884445
20
-55.4195904
40
2
50
270
51
0
0
ARC
8
0
10
124.884445
20
-41.4195904
40
2
50
0
51
90
0
ARC
8
0
10
110.884445
20
-41.4195904
40
2
50
90
51
180
0
ARC
8
0
10
110.884445
20
-55.4195904
40
2
50
180
51
270
0
ARC
8
0
10
143.884445
20
-88.4795903
40
2
50
270
51
0
0
ARC
8
0
10
143.884445
20
-74.4795903
40
2
50
0
51
90
0
ARC
8
0
10
129.884445
20
-74.4795903
40
2
50
90
51
180
0
ARC
8
0
10
129.884445
20
-88.4795903
40
2
50
180
51
270
0
ARC
8
0
10
143.884445
20
-69.4795903
40
2
50
270
51
0
0
ARC
8
0
10
143.884445
20
-55.4795903
40
2
50
0
51
90
0
ARC
8
0
10
129.884445
20
-55.4795903
40
2
50
90
51
180
0
ARC
8
0
10
129.884445
20
-69.4795903
40
2
50
180
51
270
0
ARC
8
0
10
143.884445
20
-50.4795903
40
2
50
270
51
0
0
ARC
8
0
10
143.884445
20
-36.4795903
40
2
50
0
51
90
0
ARC
8
0
10
129.884445
20
-36.4795903
40
2
50
90
51
180
0
ARC
8
0
10
129.884445
20
-50.4795903
40
2
50
180
51
270
0
ARC
8
0
10
162.884445
20
-75.5595904
40
2
50
270
51
0
0
ARC
8
0
10
162.884445
20
-61.5595904
40
2
50
0
51
90
0
ARC
8
0
10
148.884445
20
-61.5595904
40
2
50
90
51
180
0
ARC
8
0
10
148.884445
20
-75.5595904
40
2
50
180
51
270
0
ARC
8
0
10
162.884445
20
-56.5595904
40
2
50
270
51
0
0
ARC
8
0
10
162.884445
20
-42.5595904
40
2
50
0
51
90
0
ARC
8
0
10
148.884445
20
-42.5595904
40
2
50
90
51
180
0
ARC
8
0
10
148.884445
20
-56.5595904
40
2
50
180
51
270
0
ARC
8
0
10
181.8844451
20
-77.6495904
40
2
50
270
51
0
0
ARC
8
0
10
181.8844451
20
-63.6495904
40
2
50
0
51
90
0
ARC
8
0
10
167.8844451
20
-63.6495904
40
2
50
90
51
180
0
ARC
8
0
10
167.8844451
20
-77.6495904
40
2
50
180
51
270
0
ARC
8
0
10
181.8844451
20
-58.6495904
40
2
50
270
51
0
0
ARC
8
0
10
181.8844451
20
-44.6495904
40
2
50
0
51
90
0
ARC
8
0
10
167.8844451
20
-44.6495904
40
2
50
90
51
180
0
ARC
8
0
10
167.8844451
20
-58.6495904
40
2
50
180
51
270
0
LINE
8
0
10
202.4434286
20
-101.8024049
11
190.319073
21
-94.8024049
0
LINE
8
0
10
176.819073
20
-118.1850909
11
188.9434286
21
-125.1850909
0
ARC
8
0
10
201.4434286
20
-103.5344557
40
2
50
329.9999999
51
59.9999999
0
ARC
8
0
10
189.319073
20
-96.5344557
40
2
50
59.9999999
51
149.9999999
0
ARC
8
0
10
177.819073
20
-116.4530401
40
2
50
149.9999999
51
239.9999999
0
ARC
8
0
10
189.9434286
20
-123.4530401
40
2
50
239.9999999
51
329.9999999
0
LINE
8
0
10
85.5722741
20
-54.0727436
11
90.5584961
21
-111.0421933
0
LINE
8
0
10
85.4889417
20
-53.12064
11
85.5722741
21
-54.0727436
0
LINE
8
0
10
85.946445
20
-52.5786949
11
107.0550375
21
-50.8593169
0
LINE
8
0
10
107.514445
20
-50.3609674
11
107.514445
21
-38.4628348
0
LINE
8
0
10
108.0127345
20
-37.9628377
11
126.0161555
21
-37.901247
0
LINE
8
0
10
126.514445
20
-37.4012499
11
126.514445
21
-33.6425903
0
LINE
8
0
10
127.014445
20
-33.1425903
11
146.916445
21
-33.1425903
0
LINE
8
0
10
147.416445
20
-38.4155163
11
147.416445
21
-33.6425903
0
LINE
8
0
10
147.9110506
20
-38.9154872
11
165.9218394
21
-39.1098142
0
LINE
8
0
10
166.416445
20
-41.068121
11
166.416445
21
-39.6097851
0
LINE
8
0
10
166.9239442
20
-41.5680648
11
184.9085178
21
-41.2982962
0
LINE
8
0
10
185.4160169
20
-41.798018
11
185.416445
21
-42.7619465
0
LINE
8
0
10
185.416445
20
-42.7619465
11
185.4165795
21
-43.0648124
0
LINE
8
0
10
185.9165795
20
-43.5645904
11
205.6674451
21
-43.5645904
0
LINE
8
0
10
206.1674451
20
-105.8641167
11
206.1674451
21
-44.0645904
0
LINE
8
0
10
205.633059
20
-106.7897005
11
206.1674451
21
-105.8641167
0
LINE
8
0
10
191.3152679
20
-128.0412776
11
205.633059
21
-106.7897005
0
LINE
8
0
10
174.533709
20
-118.8898253
11
190.6505991
21
-128.1949162
0
LINE
8
0
10
137.0265719
20
-113.9623888
11
174.348334
21
-118.827032
0
LINE
8
0
10
126.5658948
20
-108.9418494
11
137.0265719
21
-113.9623888
0
LINE
8
0
10
91.0934492
20
-111.4972374
11
126.3126925
21
-108.8939811
0
ARC
8
0
10
85.9870375
20
-53.0770444
40
0.5
50
94.656683
51
454.656683
0
ARC
8
0
10
107.014445
20
-50.3609674
40
0.5
50
274.6566888
51
634.6566888
0
ARC
8
0
10
108.014445
20
-38.4628348
40
0.5
50
90.1960093
51
450.1960093
0
ARC
8
0
10
126.014445
20
-37.4012499
40
0.5
50
270.1960093
51
630.1960093
0
ARC
8
0
10
127.014445
20
-33.6425903
40
0.5
50
90
51
450
0
ARC
8
0
10
146.916445
20
-33.6425903
40
0.5
50
0
51
360
0
ARC
8
0
10
147.916445
20
-38.4155163
40
0.5
50
180
51
540
0
ARC
8
0
10
165.916445
20
-39.6097851
40
0.5
50
0
51
360
0
ARC
8
0
10
166.916445
20
-41.068121
40
0.5
50
180
51
540
0
ARC
8
0
10
184.9160169
20
-41.79824
40
0.5
50
0.0254451
51
360.0254451
0
ARC
8
0
10
185.9165795
20
-43.0645904
40
0.5
50
180.0254393
51
540.0254393
0
ARC
8
0
10
205.6674451
20
-44.0645904
40
0.5
50
0
51
360
0
ARC
8
0
10
190.9005991
20
-127.7619035
40
0.5
50
239.9999999
51
599.9999999
0
ARC
8
0
10
174.283709
20
-119.322838
40
0.5
50
59.9999999
51
419.9999999
0
ARC
8
0
10
126.3495498
20
-109.3926208
40
0.5
50
64.3616025
51
424.3616025
0
ARC
8
0
10
91.0565919
20
-110.9985977
40
0.5
50
185.0020393
51
545.0020393
0
LINE
8
0
10
91.6722068
20
-110.0038917
11
86.767704
21
-53.9681142
0
LINE
8
0
10
86.7457744
20
-53.7175606
11
86.767704
21
-53.9681142
0
LINE
8
0
10
86.7457744
20
-53.7175606
11
108.2550375
21
-51.9655464
0
LINE
8
0
10
108.714445
20
-51.4671969
11
108.714445
21
-39.1604442
0
LINE
8
0
10
108.714445
20
-39.1604442
11
127.2161555
21
-39.0971488
0
LINE
8
0
10
127.714445
20
-38.5971517
11
127.714445
21
-34.3425903
0
LINE
8
0
10
127.714445
20
-34.3425903
11
146.216445
21
-34.3425903
0
LINE
8
0
10
146.216445
20
-39.6026388
11
146.216445
21
-34.3425903
0
LINE
8
0
10
146.7110506
20
-40.1026097
11
165.216445
21
-40.3022732
0
LINE
8
0
10
165.216445
20
-42.286256
11
165.216445
21
-40.3022732
0
LINE
8
0
10
165.7239442
20
-42.7861998
11
184.2163324
21
-42.508814
0
LINE
8
0
10
184.2164451
20
-42.7624794
11
184.2163324
21
-42.508814
0
LINE
8
0
10
184.2164451
20
-42.7624794
11
184.2171122
21
-44.2648124
0
LINE
8
0
10
184.7171122
20
-44.7645904
11
204.9674451
21
-44.7645904
0
LINE
8
0
10
204.9674451
20
-105.5425777
11
204.9674451
21
-44.7645904
0
LINE
8
0
10
204.614564
20
-106.1537858
11
204.9674451
21
-105.5425777
0
LINE
8
0
10
204.6096544
20
-106.1610588
11
204.614564
21
-106.1537858
0
LINE
8
0
10
204.6096544
20
-106.1610588
11
190.8154431
21
-126.635498
0
LINE
8
0
10
190.6849879
20
-126.8291299
11
190.8151932
21
-126.6358689
0
LINE
8
0
10
174.9262976
20
-117.7308458
11
190.6849879
21
-126.8291299
0
LINE
8
0
10
137.3723979
20
-112.7973142
11
174.7409226
21
-117.6680525
0
LINE
8
0
10
126.7965995
20
-107.721523
11
137.3723979
21
-112.7973142
0
LINE
8
0
10
91.6937119
20
-110.249595
11
126.5433972
21
-107.6736547
0
LINE
8
0
10
91.6722068
20
-110.0038917
11
91.6937119
21
-110.249595
0
ARC
8
0
10
108.214445
20
-51.4671969
40
0.5
50
274.6566888
51
0
0
ARC
8
0
10
127.214445
20
-38.5971517
40
0.5
50
270.1960093
51
0
0
ARC
8
0
10
146.716445
20
-39.6026388
40
0.5
50
180
51
269.3818296
0
ARC
8
0
10
165.716445
20
-42.286256
40
0.5
50
180
51
270.8593715
0
ARC
8
0
10
184.7171122
20
-44.2645904
40
0.5
50
180.0254393
51
270
0
ARC
8
0
10
174.6762976
20
-118.1638585
40
0.5
50
59.9999999
51
82.5737449
0
ARC
8
0
10
126.5802545
20
-108.1722944
40
0.5
50
64.3616025
51
94.2273698
0
LINE
8
0
10
94.0626559
20
-106.9226778
11
89.6619948
21
-56.6434791
0
LINE
8
0
10
90.119498
20
-56.101534
11
110.9050375
21
-54.40847
0
LINE
8
0
10
111.364445
20
-53.9101205
11
111.364445
21
-42.2996864
0
LINE
8
0
10
111.8627345
20
-41.7996893
11
129.8661556
21
-41.7380985
0
LINE
8
0
10
130.364445
20
-41.2381014
11
130.364445
21
-37.4925903
0
LINE
8
0
10
130.864445
20
-36.9925903
11
143.066445
21
-36.9925903
0
LINE
8
0
10
143.566445
20
-42.2242009
11
143.566445
21
-37.4925903
0
LINE
8
0
10
144.0610506
20
-42.7241718
11
162.566445
21
-42.9238353
0
LINE
8
0
10
162.566445
20
-44.9763041
11
162.566445
21
-42.9238353
0
LINE
8
0
10
163.0739442
20
-45.4762479
11
181.1045587
21
-45.2057886
0
LINE
8
0
10
181.6105839
20
-45.6673681
11
181.7095169
21
-46.9529547
0
LINE
8
0
10
182.2080429
20
-47.4145904
11
201.8174451
21
-47.4145904
0
LINE
8
0
10
202.3174451
20
-47.9145904
11
202.3174451
21
-104.6678703
0
LINE
8
0
10
202.2321138
20
-104.9472444
11
190.129406
21
-122.9110228
0
LINE
8
0
10
175.7068436
20
-115.1215378
11
189.4647373
21
-123.0646614
0
LINE
8
0
10
138.2155662
20
-110.2347994
11
175.7068436
21
-115.1215378
0
LINE
8
0
10
127.3060724
20
-105.0266356
11
138.0638462
21
-110.1897648
0
LINE
8
0
10
94.597609
20
-107.3777219
11
127.0528701
21
-104.9787673
0
ARC
8
0
10
90.1600906
20
-56.5998835
40
0.5
50
94.6566888
51
185.0020393
0
ARC
8
0
10
110.864445
20
-53.9101205
40
0.5
50
274.656683
51
0
0
ARC
8
0
10
111.864445
20
-42.2996864
40
0.5
50
90.1960093
51
180
0
ARC
8
0
10
129.864445
20
-41.2381014
40
0.5
50
270.196015
51
0
0
ARC
8
0
10
130.864445
20
-37.4925903
40
0.5
50
90
51
180
0
ARC
8
0
10
143.066445
20
-37.4925903
40
0.5
50
0
51
90
0
ARC
8
0
10
144.066445
20
-42.2242009
40
0.5
50
180
51
269.3818353
0
ARC
8
0
10
163.066445
20
-44.9763041
40
0.5
50
180
51
270.8593715
0
ARC
8
0
10
181.1120579
20
-45.7057324
40
0.5
50
4.4005558
51
90.8593715
0
ARC
8
0
10
182.2080429
20
-46.9145904
40
0.5
50
184.4005558
51
270
0
ARC
8
0
10
201.8174451
20
-47.9145904
40
0.5
50
0
51
90
0
ARC
8
0
10
201.8174451
20
-104.6678703
40
0.5
50
326.0307299
51
0
0
ARC
8
0
10
189.7147373
20
-122.6316487
40
0.5
50
239.9999999
51
326.0307299
0
ARC
8
0
10
138.2801912
20
-109.7389934
40
0.5
50
244.3616025
51
262.5737449
0
ARC
8
0
10
127.0897274
20
-105.477407
40
0.5
50
64.3616049
51
94.2273698
0
ARC
8
0
10
94.5607517
20
-106.8790822
40
0.5
50
185.0020393
51
274.2273698
0
ENDSEC
0
EOF