<?xml version="1.0" encoding="utf-8" ?>
<svg baseProfile="full" height="800.9119914196998" version="1.1" viewBox="507.57048355654337 176.23099390250425 900.0 800.9119914196998" width="900" xmlns="http://www.w3.org/2000/svg" xmlns:ev="http://www.w3.org/2001/xml-events" xmlns:xlink="http://www.w3.org/1999/xlink"><defs /><line stroke="black" stroke-width="0.15586531509999998" transform="scale(6.415795581963957,-6.415795581963957)" x1="87.060611" x2="91.8782717" y1="-54.4474236" y2="-109.4909974" /><line stroke="black" stroke-width="0.15586531509999998" transform="scale(6.415795581963957,-6.415795581963957)" x1="87.5181143" x2="108.5050375" y1="-53.9054785" y2="-52.1960109" /><line stroke="black" stroke-width="0.15586531509999998" transform="scale(6.415795581963957,-6.415795581963957)" x1="108.964445" x2="108.964445" y1="-51.6976614" y2="-39.9078828" /><line stroke="black" stroke-width="0.15586531509999998" transform="scale(6.415795581963957,-6.415795581963957)" x1="109.4627345" x2="127.4661555" y1="-39.4078857" y2="-39.346295" /><line stroke="black" stroke-width="0.15586531509999998" transform="scale(6.415795581963957,-6.415795581963957)" x1="127.964445" x2="127.964445" y1="-38.8462979" y2="-35.0925903" /><line stroke="black" stroke-width="0.15586531509999998" transform="scale(6.415795581963957,-6.415795581963957)" x1="128.464445" x2="145.466445" y1="-34.5925903" y2="-34.5925903" /><line stroke="black" stroke-width="0.15586531509999998" transform="scale(6.415795581963957,-6.415795581963957)" x1="145.966445" x2="145.966445" y1="-39.8499559" y2="-35.0925903" /><line stroke="black" stroke-width="0.15586531509999998" transform="scale(6.415795581963957,-6.415795581963957)" x1="146.4610506" x2="164.4718394" y1="-40.3499268" y2="-40.5442539" /><line stroke="black" stroke-width="0.15586531509999998" transform="scale(6.415795581963957,-6.415795581963957)" x1="164.966445" x2="164.966445" y1="-42.5400341" y2="-41.0442248" /><line stroke="black" stroke-width="0.15586531509999998" transform="scale(6.415795581963957,-6.415795581963957)" x1="165.4739442" x2="183.4591712" y1="-43.0399779" y2="-42.7701995" /><line stroke="black" stroke-width="0.15586531509999998" transform="scale(6.415795581963957,-6.415795581963957)" x1="183.9666704" x2="183.9674451" y1="-43.2699213" y2="-45.0145904" /><line stroke="black" stroke-width="0.15586531509999998" transform="scale(6.415795581963957,-6.415795581963957)" x1="185.5553609" x2="204.4024451" y1="-99.2321006" y2="-100.5601864" /><line stroke="black" stroke-width="0.15586531509999998" transform="scale(6.415795581963957,-6.415795581963957)" x1="185.1362133" x2="211.0531598" y1="-100.051087" y2="-131.1298667" /><line stroke="black" stroke-width="0.15586531509999998" transform="scale(6.415795581963957,-6.415795581963957)" x1="198.2724595" x2="211.0227117" y1="-144.5538955" y2="-131.8036433" /><line stroke="black" stroke-width="0.15586531509999998" transform="scale(6.415795581963957,-6.415795581963957)" x1="185.2184018" x2="197.5573001" y1="-131.6245719" y2="-144.5456552" /><line stroke="black" stroke-width="0.15586531509999998" transform="scale(6.415795581963957,-6.415795581963957)" x1="167.7363224" x2="185.1147454" y1="-121.075771" y2="-131.5415604" /><line stroke="black" stroke-width="0.15586531509999998" transform="scale(6.415795581963957,-6.415795581963957)" x1="149.7108171" x2="167.6110135" y1="-116.0969645" y2="-121.0220102" /><line stroke="black" stroke-width="0.15586531509999998" transform="scale(6.415795581963957,-6.415795581963957)" x1="146.4494955" x2="149.3496706" y1="-97.4683765" y2="-115.6934558" /><line stroke="black" stroke-width="0.15586531509999998" transform="scale(6.415795581963957,-6.415795581963957)" x1="108.9826876" x2="145.9707017" y1="-95.9375377" y2="-97.0471781" /><line stroke="black" stroke-width="0.15586531509999998" transform="scale(6.415795581963957,-6.415795581963957)" x1="108.4732259" x2="110.2118201" y1="-96.5114809" y2="-108.1024599" /><line stroke="black" stroke-width="0.15586531509999998" transform="scale(6.415795581963957,-6.415795581963957)" x1="92.4129103" x2="109.7538944" y1="-109.9460646" y2="-108.6752908" /><line stroke="black" stroke-width="0.15586531509999998" transform="scale(6.415795581963957,-6.415795581963957)" x1="184.4672232" x2="204.2174451" y1="-45.0145904" y2="-45.0145904" /><line stroke="black" stroke-width="0.15586531509999998" transform="scale(6.415795581963957,-6.415795581963957)" x1="204.7174451" x2="204.7174451" y1="-99.8806158" y2="-45.5145904" /><line stroke="black" stroke-width="0.15586531509999998" transform="scale(6.415795581963957,-6.415795581963957)" x1="204.4024451" x2="204.6504578" y1="-100.5601864" y2="-100.1306158" /><circle cx="87.5587068" cy="-54.403828" fill="none" r="0.5" stroke="black" stroke-width="0.15586531509999998" transform="scale(6.415795581963957,-6.415795581963957)" /><circle cx="108.464445" cy="-51.6976614" fill="none" r="0.5" stroke="black" stroke-width="0.15586531509999998" transform="scale(6.415795581963957,-6.415795581963957)" /><circle cx="109.464445" cy="-39.9078828" fill="none" r="0.5" stroke="black" stroke-width="0.15586531509999998" transform="scale(6.415795581963957,-6.415795581963957)" /><circle cx="127.464445" cy="-38.8462979" fill="none" r="0.5" stroke="black" stroke-width="0.15586531509999998" transform="scale(6.415795581963957,-6.415795581963957)" /><circle cx="128.464445" cy="-35.0925903" fill="none" r="0.5" stroke="black" stroke-width="0.15586531509999998" transform="scale(6.415795581963957,-6.415795581963957)" /><circle cx="145.466445" cy="-35.0925903" fill="none" r="0.5" stroke="black" stroke-width="0.15586531509999998" transform="scale(6.415795581963957,-6.415795581963957)" /><circle cx="146.466445" cy="-39.8499559" fill="none" r="0.5" stroke="black" stroke-width="0.15586531509999998" transform="scale(6.415795581963957,-6.415795581963957)" /><circle cx="164.466445" cy="-41.0442248" fill="none" r="0.5" stroke="black" stroke-width="0.15586531509999998" transform="scale(6.415795581963957,-6.415795581963957)" /><circle cx="165.466445" cy="-42.5400341" fill="none" r="0.5" stroke="black" stroke-width="0.15586531509999998" transform="scale(6.415795581963957,-6.415795581963957)" /><circle cx="183.4666704" cy="-43.2701433" fill="none" r="0.5" stroke="black" stroke-width="0.15586531509999998" transform="scale(6.415795581963957,-6.415795581963957)" /><circle cx="184.4672232" cy="-44.5145904" fill="none" r="0.5" stroke="black" stroke-width="0.15586531509999998" transform="scale(6.415795581963957,-6.415795581963957)" /><circle cx="204.2174451" cy="-45.5145904" fill="none" r="0.5" stroke="black" stroke-width="0.15586531509999998" transform="scale(6.415795581963957,-6.415795581963957)" /><circle cx="204.2174451" cy="-99.8806158" fill="none" r="0.5" stroke="black" stroke-width="0.15586531509999998" transform="scale(6.415795581963957,-6.415795581963957)" /><circle cx="185.5202148" cy="-99.7308638" fill="none" r="0.5" stroke="black" stroke-width="0.15586531509999998" transform="scale(6.415795581963957,-6.415795581963957)" /><circle cx="210.6691583" cy="-131.4500899" fill="none" r="0.5" stroke="black" stroke-width="0.15586531509999998" transform="scale(6.415795581963957,-6.415795581963957)" /><circle cx="197.9189061" cy="-144.2003421" fill="none" r="0.5" stroke="black" stroke-width="0.15586531509999998" transform="scale(6.415795581963957,-6.415795581963957)" /><circle cx="184.8567958" cy="-131.969885" fill="none" r="0.5" stroke="black" stroke-width="0.15586531509999998" transform="scale(6.415795581963957,-6.415795581963957)" /><circle cx="167.4783729" cy="-121.5040957" fill="none" r="0.5" stroke="black" stroke-width="0.15586531509999998" transform="scale(6.415795581963957,-6.415795581963957)" /><circle cx="149.8434577" cy="-115.614879" fill="none" r="0.5" stroke="black" stroke-width="0.15586531509999998" transform="scale(6.415795581963957,-6.415795581963957)" /><circle cx="145.9557084" cy="-97.5469533" fill="none" r="0.5" stroke="black" stroke-width="0.15586531509999998" transform="scale(6.415795581963957,-6.415795581963957)" /><circle cx="108.9676944" cy="-96.4373129" fill="none" r="0.5" stroke="black" stroke-width="0.15586531509999998" transform="scale(6.415795581963957,-6.415795581963957)" /><circle cx="109.7173516" cy="-108.176628" fill="none" r="0.5" stroke="black" stroke-width="0.15586531509999998" transform="scale(6.415795581963957,-6.415795581963957)" /><circle cx="92.3763675" cy="-109.4474018" fill="none" r="0.5" stroke="black" stroke-width="0.15586531509999998" transform="scale(6.415795581963957,-6.415795581963957)" /><circle cx="107.384445" cy="-57.9195904" fill="none" r="1.1" stroke="black" stroke-width="0.15586531509999998" transform="scale(6.415795581963957,-6.415795581963957)" /><circle cx="108.384445" cy="-76.9195904" fill="none" r="1.1" stroke="black" stroke-width="0.15586531509999998" transform="scale(6.415795581963957,-6.415795581963957)" /><circle cx="165.3524451" cy="-60.0105904" fill="none" r="1.1" stroke="black" stroke-width="0.15586531509999998" transform="scale(6.415795581963957,-6.415795581963957)" /><circle cx="150.1570461" cy="-99.4324716" fill="none" r="1.1" stroke="black" stroke-width="0.15586531509999998" transform="scale(6.415795581963957,-6.415795581963957)" /><circle cx="189.8298246" cy="-123.3510864" fill="none" r="1.1" stroke="black" stroke-width="0.15586531509999998" transform="scale(6.415795581963957,-6.415795581963957)" /><circle cx="107.384445" cy="-57.9195904" fill="none" r="2.15" stroke="black" stroke-width="0.15586531509999998" transform="scale(6.415795581963957,-6.415795581963957)" /><circle cx="108.384445" cy="-76.9195904" fill="none" r="2.15" stroke="black" stroke-width="0.15586531509999998" transform="scale(6.415795581963957,-6.415795581963957)" /><circle cx="165.3524451" cy="-60.0105904" fill="none" r="2.15" stroke="black" stroke-width="0.15586531509999998" transform="scale(6.415795581963957,-6.415795581963957)" /><circle cx="150.1570461" cy="-99.4324716" fill="none" r="2.15" stroke="black" stroke-width="0.15586531509999998" transform="scale(6.415795581963957,-6.415795581963957)" /><circle cx="189.8298246" cy="-123.3510864" fill="none" r="2.15" stroke="black" stroke-width="0.15586531509999998" transform="scale(6.415795581963957,-6.415795581963957)" /><line stroke="black" stroke-width="0.15586531509999998" transform="scale(6.415795581963957,-6.415795581963957)" x1="183.9674451" x2="183.9674451" y1="-45.0148124" y2="-88.4733585" /><line stroke="black" stroke-width="0.15586531509999998" transform="scale(6.415795581963957,-6.415795581963957)" x1="184.2174451" x2="202.5245612" y1="-88.9063712" y2="-99.4759896" /><circle cx="183.4674451" cy="-45.0148124" fill="none" r="0.5" stroke="black" stroke-width="0.15586531509999998" transform="scale(6.415795581963957,-6.415795581963957)" /><circle cx="184.4674451" cy="-88.4733585" fill="none" r="0.5" stroke="black" stroke-width="0.15586531509999998" transform="scale(6.415795581963957,-6.415795581963957)" /><circle cx="202.2745612" cy="-99.9090023" fill="none" r="0.5" stroke="black" stroke-width="0.15586531509999998" transform="scale(6.415795581963957,-6.415795581963957)" /><line stroke="black" stroke-width="0.15586531509999998" transform="scale(6.415795581963957,-6.415795581963957)" x1="93.6367273" x2="107.5834531" y1="-107.5834531" y2="-106.3632727" /><line stroke="black" stroke-width="0.15586531509999998" transform="scale(6.415795581963957,-6.415795581963957)" x1="107.5834531" x2="106.3632727" y1="-106.3632727" y2="-92.4165469" /><line stroke="black" stroke-width="0.15586531509999998" transform="scale(6.415795581963957,-6.415795581963957)" x1="106.3632727" x2="92.4165469" y1="-92.4165469" y2="-93.6367273" /><line stroke="black" stroke-width="0.15586531509999998" transform="scale(6.415795581963957,-6.415795581963957)" x1="92.4165469" x2="93.6367273" y1="-93.6367273" y2="-107.5834531" /><line stroke="black" stroke-width="0.15586531509999998" transform="scale(6.415795581963957,-6.415795581963957)" x1="91.9807682" x2="105.927494" y1="-88.6557538" y2="-87.4355734" /><line stroke="black" stroke-width="0.15586531509999998" transform="scale(6.415795581963957,-6.415795581963957)" x1="105.927494" x2="104.7073136" y1="-87.4355734" y2="-73.4888476" /><line stroke="black" stroke-width="0.15586531509999998" transform="scale(6.415795581963957,-6.415795581963957)" x1="104.7073136" x2="90.7605878" y1="-73.4888476" y2="-74.709028" /><line stroke="black" stroke-width="0.15586531509999998" transform="scale(6.415795581963957,-6.415795581963957)" x1="90.7605878" x2="91.9807682" y1="-74.709028" y2="-88.6557538" /><line stroke="black" stroke-width="0.15586531509999998" transform="scale(6.415795581963957,-6.415795581963957)" x1="90.3248091" x2="104.2715349" y1="-69.7280545" y2="-68.5078741" /><line stroke="black" stroke-width="0.15586531509999998" transform="scale(6.415795581963957,-6.415795581963957)" x1="104.2715349" x2="103.0513545" y1="-68.5078741" y2="-54.5611483" /><line stroke="black" stroke-width="0.15586531509999998" transform="scale(6.415795581963957,-6.415795581963957)" x1="103.0513545" x2="89.1046287" y1="-54.5611483" y2="-55.7813287" /><line stroke="black" stroke-width="0.15586531509999998" transform="scale(6.415795581963957,-6.415795581963957)" x1="89.1046287" x2="90.3248091" y1="-55.7813287" y2="-69.7280545" /><line stroke="black" stroke-width="0.15586531509999998" transform="scale(6.415795581963957,-6.415795581963957)" x1="110.884445" x2="124.884445" y1="-93.4195904" y2="-93.4195904" /><line stroke="black" stroke-width="0.15586531509999998" transform="scale(6.415795581963957,-6.415795581963957)" x1="124.884445" x2="124.884445" y1="-93.4195904" y2="-79.4195904" /><line stroke="black" stroke-width="0.15586531509999998" transform="scale(6.415795581963957,-6.415795581963957)" x1="124.884445" x2="110.884445" y1="-79.4195904" y2="-79.4195904" /><line stroke="black" stroke-width="0.15586531509999998" transform="scale(6.415795581963957,-6.415795581963957)" x1="110.884445" x2="110.884445" y1="-79.4195904" y2="-93.4195904" /><line stroke="black" stroke-width="0.15586531509999998" transform="scale(6.415795581963957,-6.415795581963957)" x1="110.884445" x2="124.884445" y1="-74.4195904" y2="-74.4195904" /><line stroke="black" stroke-width="0.15586531509999998" transform="scale(6.415795581963957,-6.415795581963957)" x1="124.884445" x2="124.884445" y1="-74.4195904" y2="-60.4195904" /><line stroke="black" stroke-width="0.15586531509999998" transform="scale(6.415795581963957,-6.415795581963957)" x1="124.884445" x2="110.884445" y1="-60.4195904" y2="-60.4195904" /><line stroke="black" stroke-width="0.15586531509999998" transform="scale(6.415795581963957,-6.415795581963957)" x1="110.884445" x2="110.884445" y1="-60.4195904" y2="-74.4195904" /><line stroke="black" stroke-width="0.15586531509999998" transform="scale(6.415795581963957,-6.415795581963957)" x1="110.884445" x2="124.884445" y1="-55.4195904" y2="-55.4195904" /><line stroke="black" stroke-width="0.15586531509999998" transform="scale(6.415795581963957,-6.415795581963957)" x1="124.884445" x2="124.884445" y1="-55.4195904" y2="-41.4195904" /><line stroke="black" stroke-width="0.15586531509999998" transform="scale(6.415795581963957,-6.415795581963957)" x1="124.884445" x2="110.884445" y1="-41.4195904" y2="-41.4195904" /><line stroke="black" stroke-width="0.15586531509999998" transform="scale(6.415795581963957,-6.415795581963957)" x1="110.884445" x2="110.884445" y1="-41.4195904" y2="-55.4195904" /><line stroke="black" stroke-width="0.15586531509999998" transform="scale(6.415795581963957,-6.415795581963957)" x1="129.884445" x2="143.884445" y1="-88.4795903" y2="-88.4795903" /><line stroke="black" stroke-width="0.15586531509999998" transform="scale(6.415795581963957,-6.415795581963957)" x1="143.884445" x2="143.884445" y1="-88.4795903" y2="-74.4795903" /><line stroke="black" stroke-width="0.15586531509999998" transform="scale(6.415795581963957,-6.415795581963957)" x1="143.884445" x2="129.884445" y1="-74.4795903" y2="-74.4795903" /><line stroke="black" stroke-width="0.15586531509999998" transform="scale(6.415795581963957,-6.415795581963957)" x1="129.884445" x2="129.884445" y1="-74.4795903" y2="-88.4795903" /><line stroke="black" stroke-width="0.15586531509999998" transform="scale(6.415795581963957,-6.415795581963957)" x1="129.884445" x2="143.884445" y1="-69.4795903" y2="-69.4795903" /><line stroke="black" stroke-width="0.15586531509999998" transform="scale(6.415795581963957,-6.415795581963957)" x1="143.884445" x2="143.884445" y1="-69.4795903" y2="-55.4795903" /><line stroke="black" stroke-width="0.15586531509999998" transform="scale(6.415795581963957,-6.415795581963957)" x1="143.884445" x2="129.884445" y1="-55.4795903" y2="-55.4795903" /><line stroke="black" stroke-width="0.15586531509999998" transform="scale(6.415795581963957,-6.415795581963957)" x1="129.884445" x2="129.884445" y1="-55.4795903" y2="-69.4795903" /><line stroke="black" stroke-width="0.15586531509999998" transform="scale(6.415795581963957,-6.415795581963957)" x1="129.884445" x2="143.884445" y1="-50.4795903" y2="-50.4795903" /><line stroke="black" stroke-width="0.15586531509999998" transform="scale(6.415795581963957,-6.415795581963957)" x1="143.884445" x2="143.884445" y1="-50.4795903" y2="-36.4795903" /><line stroke="black" stroke-width="0.15586531509999998" transform="scale(6.415795581963957,-6.415795581963957)" x1="143.884445" x2="129.884445" y1="-36.4795903" y2="-36.4795903" /><line stroke="black" stroke-width="0.15586531509999998" transform="scale(6.415795581963957,-6.415795581963957)" x1="129.884445" x2="129.884445" y1="-36.4795903" y2="-50.4795903" /><line stroke="black" stroke-width="0.15586531509999998" transform="scale(6.415795581963957,-6.415795581963957)" x1="148.884445" x2="162.884445" y1="-94.5595904" y2="-94.5595904" /><line stroke="black" stroke-width="0.15586531509999998" transform="scale(6.415795581963957,-6.415795581963957)" x1="162.884445" x2="162.884445" y1="-94.5595904" y2="-80.5595904" /><line stroke="black" stroke-width="0.15586531509999998" transform="scale(6.415795581963957,-6.415795581963957)" x1="162.884445" x2="148.884445" y1="-80.5595904" y2="-80.5595904" /><line stroke="black" stroke-width="0.15586531509999998" transform="scale(6.415795581963957,-6.415795581963957)" x1="148.884445" x2="148.884445" y1="-80.5595904" y2="-94.5595904" /><line stroke="black" stroke-width="0.15586531509999998" transform="scale(6.415795581963957,-6.415795581963957)" x1="148.884445" x2="162.884445" y1="-75.5595904" y2="-75.5595904" /><line stroke="black" stroke-width="0.15586531509999998" transform="scale(6.415795581963957,-6.415795581963957)" x1="162.884445" x2="162.884445" y1="-75.5595904" y2="-61.5595904" /><line stroke="black" stroke-width="0.15586531509999998" transform="scale(6.415795581963957,-6.415795581963957)" x1="162.884445" x2="148.884445" y1="-61.5595904" y2="-61.5595904" /><line stroke="black" stroke-width="0.15586531509999998" transform="scale(6.415795581963957,-6.415795581963957)" x1="148.884445" x2="148.884445" y1="-61.5595904" y2="-75.5595904" /><line stroke="black" stroke-width="0.15586531509999998" transform="scale(6.415795581963957,-6.415795581963957)" x1="148.884445" x2="162.884445" y1="-56.5595904" y2="-56.5595904" /><line stroke="black" stroke-width="0.15586531509999998" transform="scale(6.415795581963957,-6.415795581963957)" x1="162.884445" x2="162.884445" y1="-56.5595904" y2="-42.5595904" /><line stroke="black" stroke-width="0.15586531509999998" transform="scale(6.415795581963957,-6.415795581963957)" x1="162.884445" x2="148.884445" y1="-42.5595904" y2="-42.5595904" /><line stroke="black" stroke-width="0.15586531509999998" transform="scale(6.415795581963957,-6.415795581963957)" x1="148.884445" x2="148.884445" y1="-42.5595904" y2="-56.5595904" /><line stroke="black" stroke-width="0.15586531509999998" transform="scale(6.415795581963957,-6.415795581963957)" x1="167.8844451" x2="181.8844451" y1="-96.6495904" y2="-96.6495904" /><line stroke="black" stroke-width="0.15586531509999998" transform="scale(6.415795581963957,-6.415795581963957)" x1="181.8844451" x2="181.8844451" y1="-96.6495904" y2="-82.6495904" /><line stroke="black" stroke-width="0.15586531509999998" transform="scale(6.415795581963957,-6.415795581963957)" x1="181.8844451" x2="167.8844451" y1="-82.6495904" y2="-82.6495904" /><line stroke="black" stroke-width="0.15586531509999998" transform="scale(6.415795581963957,-6.415795581963957)" x1="167.8844451" x2="167.8844451" y1="-82.6495904" y2="-96.6495904" /><line stroke="black" stroke-width="0.15586531509999998" transform="scale(6.415795581963957,-6.415795581963957)" x1="167.8844451" x2="181.8844451" y1="-77.6495904" y2="-77.6495904" /><line stroke="black" stroke-width="0.15586531509999998" transform="scale(6.415795581963957,-6.415795581963957)" x1="181.8844451" x2="181.8844451" y1="-77.6495904" y2="-63.6495904" /><line stroke="black" stroke-width="0.15586531509999998" transform="scale(6.415795581963957,-6.415795581963957)" x1="181.8844451" x2="167.8844451" y1="-63.6495904" y2="-63.6495904" /><line stroke="black" stroke-width="0.15586531509999998" transform="scale(6.415795581963957,-6.415795581963957)" x1="167.8844451" x2="167.8844451" y1="-63.6495904" y2="-77.6495904" /><line stroke="black" stroke-width="0.15586531509999998" transform="scale(6.415795581963957,-6.415795581963957)" x1="167.8844451" x2="181.8844451" y1="-58.6495904" y2="-58.6495904" /><line stroke="black" stroke-width="0.15586531509999998" transform="scale(6.415795581963957,-6.415795581963957)" x1="181.8844451" x2="181.8844451" y1="-58.6495904" y2="-44.6495904" /><line stroke="black" stroke-width="0.15586531509999998" transform="scale(6.415795581963957,-6.415795581963957)" x1="181.8844451" x2="167.8844451" y1="-44.6495904" y2="-44.6495904" /><line stroke="black" stroke-width="0.15586531509999998" transform="scale(6.415795581963957,-6.415795581963957)" x1="167.8844451" x2="167.8844451" y1="-44.6495904" y2="-58.6495904" /><line stroke="black" stroke-width="0.15586531509999998" transform="scale(6.415795581963957,-6.415795581963957)" x1="151.8112309" x2="165.3341925" y1="-114.5093379" y2="-118.1328045" /><line stroke="black" stroke-width="0.15586531509999998" transform="scale(6.415795581963957,-6.415795581963957)" x1="165.3341925" x2="168.9576591" y1="-118.1328045" y2="-104.6098429" /><line stroke="black" stroke-width="0.15586531509999998" transform="scale(6.415795581963957,-6.415795581963957)" x1="168.9576591" x2="155.4346975" y1="-104.6098429" y2="-100.9863763" /><line stroke="black" stroke-width="0.15586531509999998" transform="scale(6.415795581963957,-6.415795581963957)" x1="155.4346975" x2="151.8112309" y1="-100.9863763" y2="-114.5093379" /><line stroke="black" stroke-width="0.15586531509999998" transform="scale(6.415795581963957,-6.415795581963957)" x1="170.3949572" x2="182.5193128" y1="-120.2132642" y2="-127.2132642" /><line stroke="black" stroke-width="0.15586531509999998" transform="scale(6.415795581963957,-6.415795581963957)" x1="182.5193128" x2="189.5193128" y1="-127.2132642" y2="-115.0889086" /><line stroke="black" stroke-width="0.15586531509999998" transform="scale(6.415795581963957,-6.415795581963957)" x1="189.5193128" x2="177.3949572" y1="-115.0889086" y2="-108.0889086" /><line stroke="black" stroke-width="0.15586531509999998" transform="scale(6.415795581963957,-6.415795581963957)" x1="177.3949572" x2="170.3949572" y1="-108.0889086" y2="-120.2132642" /><line stroke="black" stroke-width="0.15586531509999998" transform="scale(6.415795581963957,-6.415795581963957)" x1="188.0111687" x2="197.9106636" y1="-131.4806626" y2="-141.3801575" /><line stroke="black" stroke-width="0.15586531509999998" transform="scale(6.415795581963957,-6.415795581963957)" x1="197.9106636" x2="207.8101585" y1="-141.3801575" y2="-131.4806626" /><line stroke="black" stroke-width="0.15586531509999998" transform="scale(6.415795581963957,-6.415795581963957)" x1="207.8101585" x2="197.9106636" y1="-131.4806626" y2="-121.5811677" /><line stroke="black" stroke-width="0.15586531509999998" transform="scale(6.415795581963957,-6.415795581963957)" x1="197.9106636" x2="188.0111687" y1="-121.5811677" y2="-131.4806626" /><line stroke="black" stroke-width="0.15586531509999998" transform="scale(6.415795581963957,-6.415795581963957)" x1="184.9974451" x2="184.9974451" y1="-88.340568" y2="-45.5145904" /><line stroke="black" stroke-width="0.15586531509999998" transform="scale(6.415795581963957,-6.415795581963957)" x1="203.9674451" x2="185.2474451" y1="-99.5815777" y2="-88.7735807" /><circle cx="185.4974451" cy="-45.5145904" fill="none" r="0.5" stroke="black" stroke-width="0.15586531509999998" transform="scale(6.415795581963957,-6.415795581963957)" /><circle cx="204.2174451" cy="-99.148565" fill="none" r="0.5" stroke="black" stroke-width="0.15586531509999998" transform="scale(6.415795581963957,-6.415795581963957)" /><circle cx="185.4974451" cy="-88.340568" fill="none" r="0.5" stroke="black" stroke-width="0.15586531509999998" transform="scale(6.415795581963957,-6.415795581963957)" /><line stroke="black" stroke-width="0.15586531509999998" transform="scale(6.415795581963957,-6.415795581963957)" x1="93.8110387" x2="107.7577645" y1="-109.5758425" y2="-108.3556621" /><line stroke="black" stroke-width="0.15586531509999998" transform="scale(6.415795581963957,-6.415795581963957)" x1="109.5758425" x2="108.3556621" y1="-106.1889613" y2="-92.2422355" /><line stroke="black" stroke-width="0.15586531509999998" transform="scale(6.415795581963957,-6.415795581963957)" x1="106.1889613" x2="92.2422355" y1="-90.4241575" y2="-91.6443379" /><line stroke="black" stroke-width="0.15586531509999998" transform="scale(6.415795581963957,-6.415795581963957)" x1="90.4241575" x2="91.6443379" y1="-93.8110387" y2="-107.7577645" /><line stroke="black" stroke-width="0.15586531509999998" transform="scale(6.415795581963957,-6.415795581963957)" x1="92.1550796" x2="106.1018054" y1="-90.6481432" y2="-89.4279628" /><line stroke="black" stroke-width="0.15586531509999998" transform="scale(6.415795581963957,-6.415795581963957)" x1="107.9198834" x2="106.699703" y1="-87.261262" y2="-73.3145362" /><line stroke="black" stroke-width="0.15586531509999998" transform="scale(6.415795581963957,-6.415795581963957)" x1="104.5330022" x2="90.5862764" y1="-71.4964582" y2="-72.7166386" /><line stroke="black" stroke-width="0.15586531509999998" transform="scale(6.415795581963957,-6.415795581963957)" x1="88.7681984" x2="89.9883788" y1="-74.8833394" y2="-88.8300652" /><line stroke="black" stroke-width="0.15586531509999998" transform="scale(6.415795581963957,-6.415795581963957)" x1="90.4991205" x2="104.4458463" y1="-71.7204439" y2="-70.5002635" /><line stroke="black" stroke-width="0.15586531509999998" transform="scale(6.415795581963957,-6.415795581963957)" x1="106.2639243" x2="105.0437439" y1="-68.3335627" y2="-54.3868369" /><line stroke="black" stroke-width="0.15586531509999998" transform="scale(6.415795581963957,-6.415795581963957)" x1="102.8770431" x2="88.9303173" y1="-52.5687589" y2="-53.7889393" /><line stroke="black" stroke-width="0.15586531509999998" transform="scale(6.415795581963957,-6.415795581963957)" x1="87.1122393" x2="88.3324197" y1="-55.9556401" y2="-69.9023659" /><line stroke="black" stroke-width="0.15586531509999998" transform="scale(6.415795581963957,-6.415795581963957)" x1="110.884445" x2="124.884445" y1="-95.4195904" y2="-95.4195904" /><line stroke="black" stroke-width="0.15586531509999998" transform="scale(6.415795581963957,-6.415795581963957)" x1="126.884445" x2="126.884445" y1="-93.4195904" y2="-79.4195904" /><line stroke="black" stroke-width="0.15586531509999998" transform="scale(6.415795581963957,-6.415795581963957)" x1="124.884445" x2="110.884445" y1="-77.4195904" y2="-77.4195904" /><line stroke="black" stroke-width="0.15586531509999998" transform="scale(6.415795581963957,-6.415795581963957)" x1="108.884445" x2="108.884445" y1="-79.4195904" y2="-93.4195904" /><line stroke="black" stroke-width="0.15586531509999998" transform="scale(6.415795581963957,-6.415795581963957)" x1="110.884445" x2="124.884445" y1="-76.4195904" y2="-76.4195904" /><line stroke="black" stroke-width="0.15586531509999998" transform="scale(6.415795581963957,-6.415795581963957)" x1="126.884445" x2="126.884445" y1="-74.4195904" y2="-60.4195904" /><line stroke="black" stroke-width="0.15586531509999998" transform="scale(6.415795581963957,-6.415795581963957)" x1="124.884445" x2="110.884445" y1="-58.4195904" y2="-58.4195904" /><line stroke="black" stroke-width="0.15586531509999998" transform="scale(6.415795581963957,-6.415795581963957)" x1="108.884445" x2="108.884445" y1="-60.4195904" y2="-74.4195904" /><line stroke="black" stroke-width="0.15586531509999998" transform="scale(6.415795581963957,-6.415795581963957)" x1="110.884445" x2="124.884445" y1="-57.4195904" y2="-57.4195904" /><line stroke="black" stroke-width="0.15586531509999998" transform="scale(6.415795581963957,-6.415795581963957)" x1="126.884445" x2="126.884445" y1="-55.4195904" y2="-41.4195904" /><line stroke="black" stroke-width="0.15586531509999998" transform="scale(6.415795581963957,-6.415795581963957)" x1="124.884445" x2="110.884445" y1="-39.4195904" y2="-39.4195904" /><line stroke="black" stroke-width="0.15586531509999998" transform="scale(6.415795581963957,-6.415795581963957)" x1="108.884445" x2="108.884445" y1="-41.4195904" y2="-55.4195904" /><line stroke="black" stroke-width="0.15586531509999998" transform="scale(6.415795581963957,-6.415795581963957)" x1="129.884445" x2="143.884445" y1="-90.4795903" y2="-90.4795903" /><line stroke="black" stroke-width="0.15586531509999998" transform="scale(6.415795581963957,-6.415795581963957)" x1="145.884445" x2="145.884445" y1="-88.4795903" y2="-74.4795903" /><line stroke="black" stroke-width="0.15586531509999998" transform="scale(6.415795581963957,-6.415795581963957)" x1="143.884445" x2="129.884445" y1="-72.4795903" y2="-72.4795903" /><line stroke="black" stroke-width="0.15586531509999998" transform="scale(6.415795581963957,-6.415795581963957)" x1="127.884445" x2="127.884445" y1="-74.4795903" y2="-88.4795903" /><line stroke="black" stroke-width="0.15586531509999998" transform="scale(6.415795581963957,-6.415795581963957)" x1="129.884445" x2="143.884445" y1="-71.4795903" y2="-71.4795903" /><line stroke="black" stroke-width="0.15586531509999998" transform="scale(6.415795581963957,-6.415795581963957)" x1="145.884445" x2="145.884445" y1="-69.4795903" y2="-55.4795903" /><line stroke="black" stroke-width="0.15586531509999998" transform="scale(6.415795581963957,-6.415795581963957)" x1="143.884445" x2="129.884445" y1="-53.4795903" y2="-53.4795903" /><line stroke="black" stroke-width="0.15586531509999998" transform="scale(6.415795581963957,-6.415795581963957)" x1="127.884445" x2="127.884445" y1="-55.4795903" y2="-69.4795903" /><line stroke="black" stroke-width="0.15586531509999998" transform="scale(6.415795581963957,-6.415795581963957)" x1="129.884445" x2="143.884445" y1="-52.4795903" y2="-52.4795903" /><line stroke="black" stroke-width="0.15586531509999998" transform="scale(6.415795581963957,-6.415795581963957)" x1="145.884445" x2="145.884445" y1="-50.4795903" y2="-36.4795903" /><line stroke="black" stroke-width="0.15586531509999998" transform="scale(6.415795581963957,-6.415795581963957)" x1="143.884445" x2="129.884445" y1="-34.4795903" y2="-34.4795903" /><line stroke="black" stroke-width="0.15586531509999998" transform="scale(6.415795581963957,-6.415795581963957)" x1="127.884445" x2="127.884445" y1="-36.4795903" y2="-50.4795903" /><line stroke="black" stroke-width="0.15586531509999998" transform="scale(6.415795581963957,-6.415795581963957)" x1="148.884445" x2="162.884445" y1="-96.5595904" y2="-96.5595904" /><line stroke="black" stroke-width="0.15586531509999998" transform="scale(6.415795581963957,-6.415795581963957)" x1="164.884445" x2="164.884445" y1="-94.5595904" y2="-80.5595904" /><line stroke="black" stroke-width="0.15586531509999998" transform="scale(6.415795581963957,-6.415795581963957)" x1="162.884445" x2="148.884445" y1="-78.5595904" y2="-78.5595904" /><line stroke="black" stroke-width="0.15586531509999998" transform="scale(6.415795581963957,-6.415795581963957)" x1="146.884445" x2="146.884445" y1="-80.5595904" y2="-94.5595904" /><line stroke="black" stroke-width="0.15586531509999998" transform="scale(6.415795581963957,-6.415795581963957)" x1="148.884445" x2="162.884445" y1="-77.5595904" y2="-77.5595904" /><line stroke="black" stroke-width="0.15586531509999998" transform="scale(6.415795581963957,-6.415795581963957)" x1="164.884445" x2="164.884445" y1="-75.5595904" y2="-61.5595904" /><line stroke="black" stroke-width="0.15586531509999998" transform="scale(6.415795581963957,-6.415795581963957)" x1="162.884445" x2="148.884445" y1="-59.5595904" y2="-59.5595904" /><line stroke="black" stroke-width="0.15586531509999998" transform="scale(6.415795581963957,-6.415795581963957)" x1="146.884445" x2="146.884445" y1="-61.5595904" y2="-75.5595904" /><line stroke="black" stroke-width="0.15586531509999998" transform="scale(6.415795581963957,-6.415795581963957)" x1="148.884445" x2="162.884445" y1="-58.5595904" y2="-58.5595904" /><line stroke="black" stroke-width="0.15586531509999998" transform="scale(6.415795581963957,-6.415795581963957)" x1="164.884445" x2="164.884445" y1="-56.5595904" y2="-42.5595904" /><line stroke="black" stroke-width="0.15586531509999998" transform="scale(6.415795581963957,-6.415795581963957)" x1="162.884445" x2="148.884445" y1="-40.5595904" y2="-40.5595904" /><line stroke="black" stroke-width="0.15586531509999998" transform="scale(6.415795581963957,-6.415795581963957)" x1="146.884445" x2="146.884445" y1="-42.5595904" y2="-56.5595904" /><line stroke="black" stroke-width="0.15586531509999998" transform="scale(6.415795581963957,-6.415795581963957)" x1="167.8844451" x2="181.8844451" y1="-98.6495904" y2="-98.6495904" /><line stroke="black" stroke-width="0.15586531509999998" transform="scale(6.415795581963957,-6.415795581963957)" x1="183.8844451" x2="183.8844451" y1="-96.6495904" y2="-82.6495904" /><line stroke="black" stroke-width="0.15586531509999998" transform="scale(6.415795581963957,-6.415795581963957)" x1="181.8844451" x2="167.8844451" y1="-80.6495904" y2="-80.6495904" /><line stroke="black" stroke-width="0.15586531509999998" transform="scale(6.415795581963957,-6.415795581963957)" x1="165.8844451" x2="165.8844451" y1="-82.6495904" y2="-96.6495904" /><line stroke="black" stroke-width="0.15586531509999998" transform="scale(6.415795581963957,-6.415795581963957)" x1="167.8844451" x2="181.8844451" y1="-79.6495904" y2="-79.6495904" /><line stroke="black" stroke-width="0.15586531509999998" transform="scale(6.415795581963957,-6.415795581963957)" x1="183.8844451" x2="183.8844451" y1="-77.6495904" y2="-63.6495904" /><line stroke="black" stroke-width="0.15586531509999998" transform="scale(6.415795581963957,-6.415795581963957)" x1="181.8844451" x2="167.8844451" y1="-61.6495904" y2="-61.6495904" /><line stroke="black" stroke-width="0.15586531509999998" transform="scale(6.415795581963957,-6.415795581963957)" x1="165.8844451" x2="165.8844451" y1="-63.6495904" y2="-77.6495904" /><line stroke="black" stroke-width="0.15586531509999998" transform="scale(6.415795581963957,-6.415795581963957)" x1="167.8844451" x2="181.8844451" y1="-60.6495904" y2="-60.6495904" /><line stroke="black" stroke-width="0.15586531509999998" transform="scale(6.415795581963957,-6.415795581963957)" x1="183.8844451" x2="183.8844451" y1="-58.6495904" y2="-44.6495904" /><line stroke="black" stroke-width="0.15586531509999998" transform="scale(6.415795581963957,-6.415795581963957)" x1="181.8844451" x2="167.8844451" y1="-42.6495904" y2="-42.6495904" /><line stroke="black" stroke-width="0.15586531509999998" transform="scale(6.415795581963957,-6.415795581963957)" x1="165.8844451" x2="165.8844451" y1="-44.6495904" y2="-58.6495904" /><line stroke="black" stroke-width="0.15586531509999998" transform="scale(6.415795581963957,-6.415795581963957)" x1="151.293593" x2="164.8165544" y1="-116.4411895" y2="-120.0646561" /><line stroke="black" stroke-width="0.15586531509999998" transform="scale(6.415795581963957,-6.415795581963957)" x1="167.2660441" x2="170.8895107" y1="-118.6504424" y2="-105.127481" /><line stroke="black" stroke-width="0.15586531509999998" transform="scale(6.415795581963957,-6.415795581963957)" x1="169.475297" x2="155.9523356" y1="-102.6779913" y2="-99.0545247" /><line stroke="black" stroke-width="0.15586531509999998" transform="scale(6.415795581963957,-6.415795581963957)" x1="153.5028459" x2="149.8793793" y1="-100.4687384" y2="-113.9916998" /><line stroke="black" stroke-width="0.15586531509999998" transform="scale(6.415795581963957,-6.415795581963957)" x1="169.3949572" x2="181.5193128" y1="-121.945315" y2="-128.945315" /><line stroke="black" stroke-width="0.15586531509999998" transform="scale(6.415795581963957,-6.415795581963957)" x1="184.2513636" x2="191.2513636" y1="-128.2132642" y2="-116.0889086" /><line stroke="black" stroke-width="0.15586531509999998" transform="scale(6.415795581963957,-6.415795581963957)" x1="190.5193128" x2="178.3949572" y1="-113.3568578" y2="-106.3568578" /><line stroke="black" stroke-width="0.15586531509999998" transform="scale(6.415795581963957,-6.415795581963957)" x1="175.6629064" x2="168.6629064" y1="-107.0889086" y2="-119.2132642" /><line stroke="black" stroke-width="0.15586531509999998" transform="scale(6.415795581963957,-6.415795581963957)" x1="186.5969551" x2="196.49645" y1="-132.8948762" y2="-142.7943711" /><line stroke="black" stroke-width="0.15586531509999998" transform="scale(6.415795581963957,-6.415795581963957)" x1="199.3248772" x2="209.2243721" y1="-142.7943711" y2="-132.8948762" /><line stroke="black" stroke-width="0.15586531509999998" transform="scale(6.415795581963957,-6.415795581963957)" x1="209.2243721" x2="199.3248772" y1="-130.066449" y2="-120.1669541" /><line stroke="black" stroke-width="0.15586531509999998" transform="scale(6.415795581963957,-6.415795581963957)" x1="196.49645" x2="186.5969551" y1="-120.1669541" y2="-130.066449" /><circle cx="197.9106636" cy="-141.3801575" fill="none" r="2.0" stroke="black" stroke-width="0.15586531509999998" transform="scale(6.415795581963957,-6.415795581963957)" /><circle cx="207.8101585" cy="-131.4806626" fill="none" r="2.0" stroke="black" stroke-width="0.15586531509999998" transform="scale(6.415795581963957,-6.415795581963957)" /><circle cx="197.9106636" cy="-121.5811677" fill="none" r="2.0" stroke="black" stroke-width="0.15586531509999998" transform="scale(6.415795581963957,-6.415795581963957)" /><circle cx="188.0111687" cy="-131.4806626" fill="none" r="2.0" stroke="black" stroke-width="0.15586531509999998" transform="scale(6.415795581963957,-6.415795581963957)" /><circle cx="107.5834531" cy="-106.3632727" fill="none" r="2.0" stroke="black" stroke-width="0.15586531509999998" transform="scale(6.415795581963957,-6.415795581963957)" /><circle cx="106.3632727" cy="-92.4165469" fill="none" r="2.0" stroke="black" stroke-width="0.15586531509999998" transform="scale(6.415795581963957,-6.415795581963957)" /><circle cx="92.4165469" cy="-93.6367273" fill="none" r="2.0" stroke="black" stroke-width="0.15586531509999998" transform="scale(6.415795581963957,-6.415795581963957)" /><circle cx="93.6367273" cy="-107.5834531" fill="none" r="2.0" stroke="black" stroke-width="0.15586531509999998" transform="scale(6.415795581963957,-6.415795581963957)" /><circle cx="105.927494" cy="-87.4355734" fill="none" r="2.0" stroke="black" stroke-width="0.15586531509999998" transform="scale(6.415795581963957,-6.415795581963957)" /><circle cx="104.7073136" cy="-73.4888476" fill="none" r="2.0" stroke="black" stroke-width="0.15586531509999998" transform="scale(6.415795581963957,-6.415795581963957)" /><circle cx="90.7605878" cy="-74.709028" fill="none" r="2.0" stroke="black" stroke-width="0.15586531509999998" transform="scale(6.415795581963957,-6.415795581963957)" /><circle cx="91.9807682" cy="-88.6557538" fill="none" r="2.0" stroke="black" stroke-width="0.15586531509999998" transform="scale(6.415795581963957,-6.415795581963957)" /><circle cx="104.2715349" cy="-68.5078741" fill="none" r="2.0" stroke="black" stroke-width="0.15586531509999998" transform="scale(6.415795581963957,-6.415795581963957)" /><circle cx="103.0513545" cy="-54.5611483" fill="none" r="2.0" stroke="black" stroke-width="0.15586531509999998" transform="scale(6.415795581963957,-6.415795581963957)" /><circle cx="89.1046287" cy="-55.7813287" fill="none" r="2.0" stroke="black" stroke-width="0.15586531509999998" transform="scale(6.415795581963957,-6.415795581963957)" /><circle cx="90.3248091" cy="-69.7280545" fill="none" r="2.0" stroke="black" stroke-width="0.15586531509999998" transform="scale(6.415795581963957,-6.415795581963957)" /><circle cx="124.884445" cy="-93.4195904" fill="none" r="2.0" stroke="black" stroke-width="0.15586531509999998" transform="scale(6.415795581963957,-6.415795581963957)" /><circle cx="124.884445" cy="-79.4195904" fill="none" r="2.0" stroke="black" stroke-width="0.15586531509999998" transform="scale(6.415795581963957,-6.415795581963957)" /><circle cx="110.884445" cy="-79.4195904" fill="none" r="2.0" stroke="black" stroke-width="0.15586531509999998" transform="scale(6.415795581963957,-6.415795581963957)" /><circle cx="110.884445" cy="-93.4195904" fill="none" r="2.0" stroke="black" stroke-width="0.15586531509999998" transform="scale(6.415795581963957,-6.415795581963957)" /><circle cx="124.884445" cy="-74.4195904" fill="none" r="2.0" stroke="black" stroke-width="0.15586531509999998" transform="scale(6.415795581963957,-6.415795581963957)" /><circle cx="124.884445" cy="-60.4195904" fill="none" r="2.0" stroke="black" stroke-width="0.15586531509999998" transform="scale(6.415795581963957,-6.415795581963957)" /><circle cx="110.884445" cy="-60.4195904" fill="none" r="2.0" stroke="black" stroke-width="0.15586531509999998" transform="scale(6.415795581963957,-6.415795581963957)" /><circle cx="110.884445" cy="-74.4195904" fill="none" r="2.0" stroke="black" stroke-width="0.15586531509999998" transform="scale(6.415795581963957,-6.415795581963957)" /><circle cx="124.884445" cy="-55.4195904" fill="none" r="2.0" stroke="black" stroke-width="0.15586531509999998" transform="scale(6.415795581963957,-6.415795581963957)" /><circle cx="124.884445" cy="-41.4195904" fill="none" r="2.0" stroke="black" stroke-width="0.15586531509999998" transform="scale(6.415795581963957,-6.415795581963957)" /><circle cx="110.884445" cy="-41.4195904" fill="none" r="2.0" stroke="black" stroke-width="0.15586531509999998" transform="scale(6.415795581963957,-6.415795581963957)" /><circle cx="110.884445" cy="-55.4195904" fill="none" r="2.0" stroke="black" stroke-width="0.15586531509999998" transform="scale(6.415795581963957,-6.415795581963957)" /><circle cx="143.884445" cy="-88.4795903" fill="none" r="2.0" stroke="black" stroke-width="0.15586531509999998" transform="scale(6.415795581963957,-6.415795581963957)" /><circle cx="143.884445" cy="-74.4795903" fill="none" r="2.0" stroke="black" stroke-width="0.15586531509999998" transform="scale(6.415795581963957,-6.415795581963957)" /><circle cx="129.884445" cy="-74.4795903" fill="none" r="2.0" stroke="black" stroke-width="0.15586531509999998" transform="scale(6.415795581963957,-6.415795581963957)" /><circle cx="129.884445" cy="-88.4795903" fill="none" r="2.0" stroke="black" stroke-width="0.15586531509999998" transform="scale(6.415795581963957,-6.415795581963957)" /><circle cx="143.884445" cy="-69.4795903" fill="none" r="2.0" stroke="black" stroke-width="0.15586531509999998" transform="scale(6.415795581963957,-6.415795581963957)" /><circle cx="143.884445" cy="-55.4795903" fill="none" r="2.0" stroke="black" stroke-width="0.15586531509999998" transform="scale(6.415795581963957,-6.415795581963957)" /><circle cx="129.884445" cy="-55.4795903" fill="none" r="2.0" stroke="black" stroke-width="0.15586531509999998" transform="scale(6.415795581963957,-6.415795581963957)" /><circle cx="129.884445" cy="-69.4795903" fill="none" r="2.0" stroke="black" stroke-width="0.15586531509999998" transform="scale(6.415795581963957,-6.415795581963957)" /><circle cx="143.884445" cy="-50.4795903" fill="none" r="2.0" stroke="black" stroke-width="0.15586531509999998" transform="scale(6.415795581963957,-6.415795581963957)" /><circle cx="143.884445" cy="-36.4795903" fill="none" r="2.0" stroke="black" stroke-width="0.15586531509999998" transform="scale(6.415795581963957,-6.415795581963957)" /><circle cx="129.884445" cy="-36.4795903" fill="none" r="2.0" stroke="black" stroke-width="0.15586531509999998" transform="scale(6.415795581963957,-6.415795581963957)" /><circle cx="129.884445" cy="-50.4795903" fill="none" r="2.0" stroke="black" stroke-width="0.15586531509999998" transform="scale(6.415795581963957,-6.415795581963957)" /><circle cx="162.884445" cy="-94.5595904" fill="none" r="2.0" stroke="black" stroke-width="0.15586531509999998" transform="scale(6.415795581963957,-6.415795581963957)" /><circle cx="162.884445" cy="-80.5595904" fill="none" r="2.0" stroke="black" stroke-width="0.15586531509999998" transform="scale(6.415795581963957,-6.415795581963957)" /><circle cx="148.884445" cy="-80.5595904" fill="none" r="2.0" stroke="black" stroke-width="0.15586531509999998" transform="scale(6.415795581963957,-6.415795581963957)" /><circle cx="148.884445" cy="-94.5595904" fill="none" r="2.0" stroke="black" stroke-width="0.15586531509999998" transform="scale(6.415795581963957,-6.415795581963957)" /><circle cx="162.884445" cy="-75.5595904" fill="none" r="2.0" stroke="black" stroke-width="0.15586531509999998" transform="scale(6.415795581963957,-6.415795581963957)" /><circle cx="162.884445" cy="-61.5595904" fill="none" r="2.0" stroke="black" stroke-width="0.15586531509999998" transform="scale(6.415795581963957,-6.415795581963957)" /><circle cx="148.884445" cy="-61.5595904" fill="none" r="2.0" stroke="black" stroke-width="0.15586531509999998" transform="scale(6.415795581963957,-6.415795581963957)" /><circle cx="148.884445" cy="-75.5595904" fill="none" r="2.0" stroke="black" stroke-width="0.15586531509999998" transform="scale(6.415795581963957,-6.415795581963957)" /><circle cx="162.884445" cy="-56.5595904" fill="none" r="2.0" stroke="black" stroke-width="0.15586531509999998" transform="scale(6.415795581963957,-6.415795581963957)" /><circle cx="162.884445" cy="-42.5595904" fill="none" r="2.0" stroke="black" stroke-width="0.15586531509999998" transform="scale(6.415795581963957,-6.415795581963957)" /><circle cx="148.884445" cy="-42.5595904" fill="none" r="2.0" stroke="black" stroke-width="0.15586531509999998" transform="scale(6.415795581963957,-6.415795581963957)" /><circle cx="148.884445" cy="-56.5595904" fill="none" r="2.0" stroke="black" stroke-width="0.15586531509999998" transform="scale(6.415795581963957,-6.415795581963957)" /><circle cx="181.8844451" cy="-96.6495904" fill="none" r="2.0" stroke="black" stroke-width="0.15586531509999998" transform="scale(6.415795581963957,-6.415795581963957)" /><circle cx="181.8844451" cy="-82.6495904" fill="none" r="2.0" stroke="black" stroke-width="0.15586531509999998" transform="scale(6.415795581963957,-6.415795581963957)" /><circle cx="167.8844451" cy="-82.6495904" fill="none" r="2.0" stroke="black" stroke-width="0.15586531509999998" transform="scale(6.415795581963957,-6.415795581963957)" /><circle cx="167.8844451" cy="-96.6495904" fill="none" r="2.0" stroke="black" stroke-width="0.15586531509999998" transform="scale(6.415795581963957,-6.415795581963957)" /><circle cx="181.8844451" cy="-77.6495904" fill="none" r="2.0" stroke="black" stroke-width="0.15586531509999998" transform="scale(6.415795581963957,-6.415795581963957)" /><circle cx="181.8844451" cy="-63.6495904" fill="none" r="2.0" stroke="black" stroke-width="0.15586531509999998" transform="scale(6.415795581963957,-6.415795581963957)" /><circle cx="167.8844451" cy="-63.6495904" fill="none" r="2.0" stroke="black" stroke-width="0.15586531509999998" transform="scale(6.415795581963957,-6.415795581963957)" /><circle cx="167.8844451" cy="-77.6495904" fill="none" r="2.0" stroke="black" stroke-width="0.15586531509999998" transform="scale(6.415795581963957,-6.415795581963957)" /><circle cx="181.8844451" cy="-58.6495904" fill="none" r="2.0" stroke="black" stroke-width="0.15586531509999998" transform="scale(6.415795581963957,-6.415795581963957)" /><circle cx="181.8844451" cy="-44.6495904" fill="none" r="2.0" stroke="black" stroke-width="0.15586531509999998" transform="scale(6.415795581963957,-6.415795581963957)" /><circle cx="167.8844451" cy="-44.6495904" fill="none" r="2.0" stroke="black" stroke-width="0.15586531509999998" transform="scale(6.415795581963957,-6.415795581963957)" /><circle cx="167.8844451" cy="-58.6495904" fill="none" r="2.0" stroke="black" stroke-width="0.15586531509999998" transform="scale(6.415795581963957,-6.415795581963957)" /><circle cx="182.5193128" cy="-127.2132642" fill="none" r="2.0" stroke="black" stroke-width="0.15586531509999998" transform="scale(6.415795581963957,-6.415795581963957)" /><circle cx="189.5193128" cy="-115.0889086" fill="none" r="2.0" stroke="black" stroke-width="0.15586531509999998" transform="scale(6.415795581963957,-6.415795581963957)" /><circle cx="177.3949572" cy="-108.0889086" fill="none" r="2.0" stroke="black" stroke-width="0.15586531509999998" transform="scale(6.415795581963957,-6.415795581963957)" /><circle cx="170.3949572" cy="-120.2132642" fill="none" r="2.0" stroke="black" stroke-width="0.15586531509999998" transform="scale(6.415795581963957,-6.415795581963957)" /><circle cx="165.3341924" cy="-118.1328044" fill="none" r="2.0" stroke="black" stroke-width="0.15586531509999998" transform="scale(6.415795581963957,-6.415795581963957)" /><circle cx="168.957659" cy="-104.609843" fill="none" r="2.0" stroke="black" stroke-width="0.15586531509999998" transform="scale(6.415795581963957,-6.415795581963957)" /><circle cx="155.4346976" cy="-100.9863764" fill="none" r="2.0" stroke="black" stroke-width="0.15586531509999998" transform="scale(6.415795581963957,-6.415795581963957)" /><circle cx="151.811231" cy="-114.5093378" fill="none" r="2.0" stroke="black" stroke-width="0.15586531509999998" transform="scale(6.415795581963957,-6.415795581963957)" /><line stroke="black" stroke-width="0.15586531509999998" transform="scale(6.415795581963957,-6.415795581963957)" x1="85.5722741" x2="90.5584445" y1="-54.0727436" y2="-111.0416045" /><line stroke="black" stroke-width="0.15586531509999998" transform="scale(6.415795581963957,-6.415795581963957)" x1="85.4889417" x2="85.5722741" y1="-53.12064" y2="-54.0727436" /><line stroke="black" stroke-width="0.15586531509999998" transform="scale(6.415795581963957,-6.415795581963957)" x1="85.946445" x2="107.0550375" y1="-52.5786949" y2="-50.8593169" /><line stroke="black" stroke-width="0.15586531509999998" transform="scale(6.415795581963957,-6.415795581963957)" x1="107.514445" x2="107.514445" y1="-50.3609674" y2="-38.4628348" /><line stroke="black" stroke-width="0.15586531509999998" transform="scale(6.415795581963957,-6.415795581963957)" x1="108.0127345" x2="126.0161555" y1="-37.9628377" y2="-37.901247" /><line stroke="black" stroke-width="0.15586531509999998" transform="scale(6.415795581963957,-6.415795581963957)" x1="126.514445" x2="126.514445" y1="-37.4012499" y2="-33.6425903" /><line stroke="black" stroke-width="0.15586531509999998" transform="scale(6.415795581963957,-6.415795581963957)" x1="127.014445" x2="146.916445" y1="-33.1425903" y2="-33.1425903" /><line stroke="black" stroke-width="0.15586531509999998" transform="scale(6.415795581963957,-6.415795581963957)" x1="147.416445" x2="147.416445" y1="-38.4155163" y2="-33.6425903" /><line stroke="black" stroke-width="0.15586531509999998" transform="scale(6.415795581963957,-6.415795581963957)" x1="147.9110506" x2="165.9218394" y1="-38.9154872" y2="-39.1098142" /><line stroke="black" stroke-width="0.15586531509999998" transform="scale(6.415795581963957,-6.415795581963957)" x1="166.416445" x2="166.416445" y1="-41.068121" y2="-39.6097851" /><line stroke="black" stroke-width="0.15586531509999998" transform="scale(6.415795581963957,-6.415795581963957)" x1="166.9239442" x2="184.9085178" y1="-41.5680648" y2="-41.2982962" /><line stroke="black" stroke-width="0.15586531509999998" transform="scale(6.415795581963957,-6.415795581963957)" x1="185.4160169" x2="185.416445" y1="-41.798018" y2="-42.7619465" /><line stroke="black" stroke-width="0.15586531509999998" transform="scale(6.415795581963957,-6.415795581963957)" x1="185.416445" x2="185.4165795" y1="-42.7619465" y2="-43.0648124" /><line stroke="black" stroke-width="0.15586531509999998" transform="scale(6.415795581963957,-6.415795581963957)" x1="185.9165795" x2="205.6674451" y1="-43.5645904" y2="-43.5645904" /><line stroke="black" stroke-width="0.15586531509999998" transform="scale(6.415795581963957,-6.415795581963957)" x1="206.1674451" x2="206.1674451" y1="-100.4031167" y2="-44.0645904" /><line stroke="black" stroke-width="0.15586531509999998" transform="scale(6.415795581963957,-6.415795581963957)" x1="205.3611917" x2="206.1674451" y1="-101.7995887" y2="-100.4031167" /><line stroke="black" stroke-width="0.15586531509999998" transform="scale(6.415795581963957,-6.415795581963957)" x1="188.8490929" x2="204.8930329" y1="-100.9177936" y2="-102.0483519" /><line stroke="black" stroke-width="0.15586531509999998" transform="scale(6.415795581963957,-6.415795581963957)" x1="188.4299454" x2="213.0151086" y1="-101.7367799" y2="-131.2185275" /><line stroke="black" stroke-width="0.15586531509999998" transform="scale(6.415795581963957,-6.415795581963957)" x1="198.2485563" x2="212.9846605" y1="-146.6284084" y2="-131.8923042" /><line stroke="black" stroke-width="0.15586531509999998" transform="scale(6.415795581963957,-6.415795581963957)" x1="184.3039187" x2="197.5333969" y1="-132.7664849" y2="-146.6201681" /><line stroke="black" stroke-width="0.15586531509999998" transform="scale(6.415795581963957,-6.415795581963957)" x1="167.1592374" x2="184.2002623" y1="-122.4208749" y2="-132.6834733" /><line stroke="black" stroke-width="0.15586531509999998" transform="scale(6.415795581963957,-6.415795581963957)" x1="148.4256171" x2="167.0339285" y1="-117.2472381" y2="-122.367114" /><line stroke="black" stroke-width="0.15586531509999998" transform="scale(6.415795581963957,-6.415795581963957)" x1="145.2061596" x2="148.0644707" y1="-98.8817287" y2="-116.8437294" /><line stroke="black" stroke-width="0.15586531509999998" transform="scale(6.415795581963957,-6.415795581963957)" x1="110.6741109" x2="144.7273657" y1="-97.4389327" y2="-98.4605303" /><line stroke="black" stroke-width="0.15586531509999998" transform="scale(6.415795581963957,-6.415795581963957)" x1="110.1646491" x2="111.8778052" y1="-98.0128759" y2="-109.4342622" /><line stroke="black" stroke-width="0.15586531509999998" transform="scale(6.415795581963957,-6.415795581963957)" x1="91.0930831" x2="111.4198795" y1="-111.4966717" y2="-110.0070931" /><circle cx="85.9870375" cy="-53.0770444" fill="none" r="0.5" stroke="black" stroke-width="0.15586531509999998" transform="scale(6.415795581963957,-6.415795581963957)" /><circle cx="107.014445" cy="-50.3609674" fill="none" r="0.5" stroke="black" stroke-width="0.15586531509999998" transform="scale(6.415795581963957,-6.415795581963957)" /><circle cx="108.014445" cy="-38.4628348" fill="none" r="0.5" stroke="black" stroke-width="0.15586531509999998" transform="scale(6.415795581963957,-6.415795581963957)" /><circle cx="126.014445" cy="-37.4012499" fill="none" r="0.5" stroke="black" stroke-width="0.15586531509999998" transform="scale(6.415795581963957,-6.415795581963957)" /><circle cx="127.014445" cy="-33.6425903" fill="none" r="0.5" stroke="black" stroke-width="0.15586531509999998" transform="scale(6.415795581963957,-6.415795581963957)" /><circle cx="146.916445" cy="-33.6425903" fill="none" r="0.5" stroke="black" stroke-width="0.15586531509999998" transform="scale(6.415795581963957,-6.415795581963957)" /><circle cx="147.916445" cy="-38.4155163" fill="none" r="0.5" stroke="black" stroke-width="0.15586531509999998" transform="scale(6.415795581963957,-6.415795581963957)" /><circle cx="165.916445" cy="-39.6097851" fill="none" r="0.5" stroke="black" stroke-width="0.15586531509999998" transform="scale(6.415795581963957,-6.415795581963957)" /><circle cx="166.916445" cy="-41.068121" fill="none" r="0.5" stroke="black" stroke-width="0.15586531509999998" transform="scale(6.415795581963957,-6.415795581963957)" /><circle cx="184.9160169" cy="-41.79824" fill="none" r="0.5" stroke="black" stroke-width="0.15586531509999998" transform="scale(6.415795581963957,-6.415795581963957)" /><circle cx="185.9165795" cy="-43.0645904" fill="none" r="0.5" stroke="black" stroke-width="0.15586531509999998" transform="scale(6.415795581963957,-6.415795581963957)" /><circle cx="205.6674451" cy="-44.0645904" fill="none" r="0.5" stroke="black" stroke-width="0.15586531509999998" transform="scale(6.415795581963957,-6.415795581963957)" /><circle cx="204.9281789" cy="-101.5495887" fill="none" r="0.5" stroke="black" stroke-width="0.15586531509999998" transform="scale(6.415795581963957,-6.415795581963957)" /><circle cx="188.8139469" cy="-101.4165567" fill="none" r="0.5" stroke="black" stroke-width="0.15586531509999998" transform="scale(6.415795581963957,-6.415795581963957)" /><circle cx="212.6311071" cy="-131.5387507" fill="none" r="0.5" stroke="black" stroke-width="0.15586531509999998" transform="scale(6.415795581963957,-6.415795581963957)" /><circle cx="197.8950028" cy="-146.274855" fill="none" r="0.5" stroke="black" stroke-width="0.15586531509999998" transform="scale(6.415795581963957,-6.415795581963957)" /><circle cx="183.9423128" cy="-133.111798" fill="none" r="0.5" stroke="black" stroke-width="0.15586531509999998" transform="scale(6.415795581963957,-6.415795581963957)" /><circle cx="166.9012879" cy="-122.8491995" fill="none" r="0.5" stroke="black" stroke-width="0.15586531509999998" transform="scale(6.415795581963957,-6.415795581963957)" /><circle cx="148.5582578" cy="-116.7651526" fill="none" r="0.5" stroke="black" stroke-width="0.15586531509999998" transform="scale(6.415795581963957,-6.415795581963957)" /><circle cx="144.7123725" cy="-98.9603055" fill="none" r="0.5" stroke="black" stroke-width="0.15586531509999998" transform="scale(6.415795581963957,-6.415795581963957)" /><circle cx="110.6591176" cy="-97.9387079" fill="none" r="0.5" stroke="black" stroke-width="0.15586531509999998" transform="scale(6.415795581963957,-6.415795581963957)" /><circle cx="111.3833367" cy="-109.5084303" fill="none" r="0.5" stroke="black" stroke-width="0.15586531509999998" transform="scale(6.415795581963957,-6.415795581963957)" /><circle cx="91.0565403" cy="-110.9980089" fill="none" r="0.5" stroke="black" stroke-width="0.15586531509999998" transform="scale(6.415795581963957,-6.415795581963957)" /><line stroke="black" stroke-width="0.15586531509999998" transform="scale(6.415795581963957,-6.415795581963957)" x1="91.6722068" x2="86.767704" y1="-110.0038917" y2="-53.9681142" /><line stroke="black" stroke-width="0.15586531509999998" transform="scale(6.415795581963957,-6.415795581963957)" x1="86.7457744" x2="86.767704" y1="-53.7175606" y2="-53.9681142" /><line stroke="black" stroke-width="0.15586531509999998" transform="scale(6.415795581963957,-6.415795581963957)" x1="86.7457744" x2="108.2550375" y1="-53.7175606" y2="-51.9655464" /><line stroke="black" stroke-width="0.15586531509999998" transform="scale(6.415795581963957,-6.415795581963957)" x1="108.714445" x2="108.714445" y1="-51.4671969" y2="-39.1604442" /><line stroke="black" stroke-width="0.15586531509999998" transform="scale(6.415795581963957,-6.415795581963957)" x1="108.714445" x2="127.2161555" y1="-39.1604442" y2="-39.0971488" /><line stroke="black" stroke-width="0.15586531509999998" transform="scale(6.415795581963957,-6.415795581963957)" x1="127.714445" x2="127.714445" y1="-38.5971517" y2="-34.3425903" /><line stroke="black" stroke-width="0.15586531509999998" transform="scale(6.415795581963957,-6.415795581963957)" x1="127.714445" x2="146.216445" y1="-34.3425903" y2="-34.3425903" /><line stroke="black" stroke-width="0.15586531509999998" transform="scale(6.415795581963957,-6.415795581963957)" x1="146.216445" x2="146.216445" y1="-39.6026388" y2="-34.3425903" /><line stroke="black" stroke-width="0.15586531509999998" transform="scale(6.415795581963957,-6.415795581963957)" x1="146.7110506" x2="165.216445" y1="-40.1026097" y2="-40.3022732" /><line stroke="black" stroke-width="0.15586531509999998" transform="scale(6.415795581963957,-6.415795581963957)" x1="165.216445" x2="165.216445" y1="-42.286256" y2="-40.3022732" /><line stroke="black" stroke-width="0.15586531509999998" transform="scale(6.415795581963957,-6.415795581963957)" x1="165.7239442" x2="184.2163324" y1="-42.7861998" y2="-42.508814" /><line stroke="black" stroke-width="0.15586531509999998" transform="scale(6.415795581963957,-6.415795581963957)" x1="184.2164451" x2="184.2163324" y1="-42.7624794" y2="-42.508814" /><line stroke="black" stroke-width="0.15586531509999998" transform="scale(6.415795581963957,-6.415795581963957)" x1="184.2164451" x2="184.2171122" y1="-42.7624794" y2="-44.2648124" /><line stroke="black" stroke-width="0.15586531509999998" transform="scale(6.415795581963957,-6.415795581963957)" x1="184.7171122" x2="204.9674451" y1="-44.7645904" y2="-44.7645904" /><line stroke="black" stroke-width="0.15586531509999998" transform="scale(6.415795581963957,-6.415795581963957)" x1="204.9674451" x2="204.9674451" y1="-100.0815777" y2="-44.7645904" /><line stroke="black" stroke-width="0.15586531509999998" transform="scale(6.415795581963957,-6.415795581963957)" x1="204.5407961" x2="204.9674451" y1="-100.8205554" y2="-100.0815777" /><line stroke="black" stroke-width="0.15586531509999998" transform="scale(6.415795581963957,-6.415795581963957)" x1="186.1232457" x2="204.5407961" y1="-99.5227373" y2="-100.8205554" /><line stroke="black" stroke-width="0.15586531509999998" transform="scale(6.415795581963957,-6.415795581963957)" x1="185.7040981" x2="211.6839594" y1="-100.3417237" y2="-131.4959489" /><line stroke="black" stroke-width="0.15586531509999998" transform="scale(6.415795581963957,-6.415795581963957)" x1="197.9065423" x2="211.6839594" y1="-145.2733661" y2="-131.4959489" /><line stroke="black" stroke-width="0.15586531509999998" transform="scale(6.415795581963957,-6.415795581963957)" x1="185.0607323" x2="197.9065423" y1="-131.8214535" y2="-145.2733661" /><line stroke="black" stroke-width="0.15586531509999998" transform="scale(6.415795581963957,-6.415795581963957)" x1="184.9570759" x2="167.6368251" y1="-131.7384419" y2="-121.3076855" /><line stroke="black" stroke-width="0.15586531509999998" transform="scale(6.415795581963957,-6.415795581963957)" x1="149.1786991" x2="167.5115162" y1="-116.209848" y2="-121.2539247" /><line stroke="black" stroke-width="0.15586531509999998" transform="scale(6.415795581963957,-6.415795581963957)" x1="149.1533918" x2="149.1786991" y1="-116.0508134" y2="-116.209848" /><line stroke="black" stroke-width="0.15586531509999998" transform="scale(6.415795581963957,-6.415795581963957)" x1="149.1533918" x2="146.2351273" y1="-116.0508134" y2="-97.7120579" /><line stroke="black" stroke-width="0.15586531509999998" transform="scale(6.415795581963957,-6.415795581963957)" x1="145.7563335" x2="109.2743124" y1="-97.2908596" y2="-96.1963989" /><line stroke="black" stroke-width="0.15586531509999998" transform="scale(6.415795581963957,-6.415795581963957)" x1="108.7648506" x2="110.5390635" y1="-96.7703422" y2="-108.5987861" /><line stroke="black" stroke-width="0.15586531509999998" transform="scale(6.415795581963957,-6.415795581963957)" x1="110.579068" x2="110.5390635" y1="-108.8654912" y2="-108.5987861" /><line stroke="black" stroke-width="0.15586531509999998" transform="scale(6.415795581963957,-6.415795581963957)" x1="91.6936983" x2="110.579068" y1="-110.24944" y2="-108.8654912" /><line stroke="black" stroke-width="0.15586531509999998" transform="scale(6.415795581963957,-6.415795581963957)" x1="91.6722068" x2="91.6936983" y1="-110.0038917" y2="-110.24944" /><circle cx="108.214445" cy="-51.4671969" fill="none" r="0.5" stroke="black" stroke-width="0.15586531509999998" transform="scale(6.415795581963957,-6.415795581963957)" /><circle cx="127.214445" cy="-38.5971517" fill="none" r="0.5" stroke="black" stroke-width="0.15586531509999998" transform="scale(6.415795581963957,-6.415795581963957)" /><circle cx="146.716445" cy="-39.6026388" fill="none" r="0.5" stroke="black" stroke-width="0.15586531509999998" transform="scale(6.415795581963957,-6.415795581963957)" /><circle cx="165.716445" cy="-42.286256" fill="none" r="0.5" stroke="black" stroke-width="0.15586531509999998" transform="scale(6.415795581963957,-6.415795581963957)" /><circle cx="184.7171122" cy="-44.2645904" fill="none" r="0.5" stroke="black" stroke-width="0.15586531509999998" transform="scale(6.415795581963957,-6.415795581963957)" /><circle cx="186.0880996" cy="-100.0215005" fill="none" r="0.5" stroke="black" stroke-width="0.15586531509999998" transform="scale(6.415795581963957,-6.415795581963957)" /><circle cx="184.6991264" cy="-132.1667666" fill="none" r="0.5" stroke="black" stroke-width="0.15586531509999998" transform="scale(6.415795581963957,-6.415795581963957)" /><circle cx="167.3788756" cy="-121.7360102" fill="none" r="0.5" stroke="black" stroke-width="0.15586531509999998" transform="scale(6.415795581963957,-6.415795581963957)" /><circle cx="145.7413402" cy="-97.7906348" fill="none" r="0.5" stroke="black" stroke-width="0.15586531509999998" transform="scale(6.415795581963957,-6.415795581963957)" /><circle cx="109.2593191" cy="-96.6961741" fill="none" r="0.5" stroke="black" stroke-width="0.15586531509999998" transform="scale(6.415795581963957,-6.415795581963957)" /><line stroke="black" stroke-width="0.15586531509999998" transform="scale(6.415795581963957,-6.415795581963957)" x1="94.0628133" x2="89.6619948" y1="-106.9244753" y2="-56.6434791" /><line stroke="black" stroke-width="0.15586531509999998" transform="scale(6.415795581963957,-6.415795581963957)" x1="90.119498" x2="110.9050375" y1="-56.101534" y2="-54.40847" /><line stroke="black" stroke-width="0.15586531509999998" transform="scale(6.415795581963957,-6.415795581963957)" x1="111.364445" x2="111.364445" y1="-53.9101205" y2="-42.2996864" /><line stroke="black" stroke-width="0.15586531509999998" transform="scale(6.415795581963957,-6.415795581963957)" x1="111.8627345" x2="129.8661556" y1="-41.7996893" y2="-41.7380985" /><line stroke="black" stroke-width="0.15586531509999998" transform="scale(6.415795581963957,-6.415795581963957)" x1="130.364445" x2="130.364445" y1="-41.2381014" y2="-37.4925903" /><line stroke="black" stroke-width="0.15586531509999998" transform="scale(6.415795581963957,-6.415795581963957)" x1="130.864445" x2="143.066445" y1="-36.9925903" y2="-36.9925903" /><line stroke="black" stroke-width="0.15586531509999998" transform="scale(6.415795581963957,-6.415795581963957)" x1="143.566445" x2="143.566445" y1="-42.2242009" y2="-37.4925903" /><line stroke="black" stroke-width="0.15586531509999998" transform="scale(6.415795581963957,-6.415795581963957)" x1="144.0610506" x2="162.566445" y1="-42.7241718" y2="-42.9238353" /><line stroke="black" stroke-width="0.15586531509999998" transform="scale(6.415795581963957,-6.415795581963957)" x1="162.566445" x2="162.566445" y1="-44.9763041" y2="-42.9238353" /><line stroke="black" stroke-width="0.15586531509999998" transform="scale(6.415795581963957,-6.415795581963957)" x1="163.0739442" x2="181.1045587" y1="-45.4762479" y2="-45.2057886" /><line stroke="black" stroke-width="0.15586531509999998" transform="scale(6.415795581963957,-6.415795581963957)" x1="181.6105839" x2="181.7095169" y1="-45.6673681" y2="-46.9529547" /><line stroke="black" stroke-width="0.15586531509999998" transform="scale(6.415795581963957,-6.415795581963957)" x1="182.2080429" x2="201.8174451" y1="-47.4145904" y2="-47.4145904" /><line stroke="black" stroke-width="0.15586531509999998" transform="scale(6.415795581963957,-6.415795581963957)" x1="202.3174451" x2="202.3174451" y1="-47.9145904" y2="-97.4708397" /><line stroke="black" stroke-width="0.15586531509999998" transform="scale(6.415795581963957,-6.415795581963957)" x1="180.1036664" x2="201.7822991" y1="-96.4419882" y2="-97.9696029" /><line stroke="black" stroke-width="0.15586531509999998" transform="scale(6.415795581963957,-6.415795581963957)" x1="179.6845188" x2="207.8057961" y1="-97.2609746" y2="-130.9831178" /><line stroke="black" stroke-width="0.15586531509999998" transform="scale(6.415795581963957,-6.415795581963957)" x1="207.775348" x2="198.3120234" y1="-131.6568944" y2="-141.120219" /><line stroke="black" stroke-width="0.15586531509999998" transform="scale(6.415795581963957,-6.415795581963957)" x1="186.6857618" x2="197.596864" y1="-129.686059" y2="-141.1119787" /><line stroke="black" stroke-width="0.15586531509999998" transform="scale(6.415795581963957,-6.415795581963957)" x1="168.6325434" x2="186.6857618" y1="-118.8138883" y2="-129.686059" /><line stroke="black" stroke-width="0.15586531509999998" transform="scale(6.415795581963957,-6.415795581963957)" x1="151.8380446" x2="168.6325434" y1="-114.1930633" y2="-118.8138883" /><line stroke="black" stroke-width="0.15586531509999998" transform="scale(6.415795581963957,-6.415795581963957)" x1="148.507431" x2="151.4768982" y1="-95.1290348" y2="-113.7895547" /><line stroke="black" stroke-width="0.15586531509999998" transform="scale(6.415795581963957,-6.415795581963957)" x1="106.1830906" x2="148.0286372" y1="-93.45247" y2="-94.7078364" /><line stroke="black" stroke-width="0.15586531509999998" transform="scale(6.415795581963957,-6.415795581963957)" x1="105.6736289" x2="107.4543276" y1="-94.0264132" y2="-105.8980976" /><line stroke="black" stroke-width="0.15586531509999998" transform="scale(6.415795581963957,-6.415795581963957)" x1="106.9964019" x2="94.5974519" y1="-106.4709285" y2="-107.3795425" /><circle cx="90.1600906" cy="-56.5998835" fill="none" r="0.5" stroke="black" stroke-width="0.15586531509999998" transform="scale(6.415795581963957,-6.415795581963957)" /><circle cx="110.864445" cy="-53.9101205" fill="none" r="0.5" stroke="black" stroke-width="0.15586531509999998" transform="scale(6.415795581963957,-6.415795581963957)" /><circle cx="111.864445" cy="-42.2996864" fill="none" r="0.5" stroke="black" stroke-width="0.15586531509999998" transform="scale(6.415795581963957,-6.415795581963957)" /><circle cx="129.864445" cy="-41.2381014" fill="none" r="0.5" stroke="black" stroke-width="0.15586531509999998" transform="scale(6.415795581963957,-6.415795581963957)" /><circle cx="130.864445" cy="-37.4925903" fill="none" r="0.5" stroke="black" stroke-width="0.15586531509999998" transform="scale(6.415795581963957,-6.415795581963957)" /><circle cx="143.066445" cy="-37.4925903" fill="none" r="0.5" stroke="black" stroke-width="0.15586531509999998" transform="scale(6.415795581963957,-6.415795581963957)" /><circle cx="144.066445" cy="-42.2242009" fill="none" r="0.5" stroke="black" stroke-width="0.15586531509999998" transform="scale(6.415795581963957,-6.415795581963957)" /><circle cx="163.066445" cy="-44.9763041" fill="none" r="0.5" stroke="black" stroke-width="0.15586531509999998" transform="scale(6.415795581963957,-6.415795581963957)" /><circle cx="181.1120579" cy="-45.7057324" fill="none" r="0.5" stroke="black" stroke-width="0.15586531509999998" transform="scale(6.415795581963957,-6.415795581963957)" /><circle cx="182.2080429" cy="-46.9145904" fill="none" r="0.5" stroke="black" stroke-width="0.15586531509999998" transform="scale(6.415795581963957,-6.415795581963957)" /><circle cx="201.8174451" cy="-47.9145904" fill="none" r="0.5" stroke="black" stroke-width="0.15586531509999998" transform="scale(6.415795581963957,-6.415795581963957)" /><circle cx="201.8174451" cy="-97.4708397" fill="none" r="0.5" stroke="black" stroke-width="0.15586531509999998" transform="scale(6.415795581963957,-6.415795581963957)" /><circle cx="180.0685203" cy="-96.9407514" fill="none" r="0.5" stroke="black" stroke-width="0.15586531509999998" transform="scale(6.415795581963957,-6.415795581963957)" /><circle cx="207.4217946" cy="-131.303341" fill="none" r="0.5" stroke="black" stroke-width="0.15586531509999998" transform="scale(6.415795581963957,-6.415795581963957)" /><circle cx="197.95847" cy="-140.7666656" fill="none" r="0.5" stroke="black" stroke-width="0.15586531509999998" transform="scale(6.415795581963957,-6.415795581963957)" /><circle cx="151.9706853" cy="-113.7109778" fill="none" r="0.5" stroke="black" stroke-width="0.15586531509999998" transform="scale(6.415795581963957,-6.415795581963957)" /><circle cx="148.0136439" cy="-95.2076116" fill="none" r="0.5" stroke="black" stroke-width="0.15586531509999998" transform="scale(6.415795581963957,-6.415795581963957)" /><circle cx="106.1680974" cy="-93.9522452" fill="none" r="0.5" stroke="black" stroke-width="0.15586531509999998" transform="scale(6.415795581963957,-6.415795581963957)" /><circle cx="106.9598591" cy="-105.9722657" fill="none" r="0.5" stroke="black" stroke-width="0.15586531509999998" transform="scale(6.415795581963957,-6.415795581963957)" /><circle cx="94.5609091" cy="-106.8808797" fill="none" r="0.5" stroke="black" stroke-width="0.15586531509999998" transform="scale(6.415795581963957,-6.415795581963957)" /></svg>