0
SECTION
2
HEADER
9
$INSUNITS
70
4
0
ENDSEC
0
SECTION
2
TABLES
0
TABLE
2
LTYPE
0
LTYPE
72
65
70
64
2
CONTINUOUS
3
______
73
0
40
0
0
ENDTAB
0
TABLE
2
LAYER
0
ENDTAB
0
ENDSEC
0
SECTION
2
ENTITIES
0
LINE
8
0
10
91.0800177
20
-53.4883757
11
91.0819822
21
-108.7397487
0
LINE
8
0
10
91.578373
20
-52.9883606
11
128.5816447
21
-52.8666393
0
LINE
8
0
10
129.08
20
-52.366642
11
129.08
21
-41.4909219
0
LINE
8
0
10
129.5809211
20
-40.9909227
11
147.5790789
21
-41.0240773
0
LINE
8
0
10
148.08
20
-40.5240781
11
148.08
21
-36.613
0
LINE
8
0
10
148.58
20
-36.113
11
165.582
21
-36.113
0
LINE
8
0
10
166.082
20
-41.4753946
11
166.082
21
-36.613
0
LINE
8
0
10
166.5816053
20
-41.9753944
11
184.5823947
21
-41.9896056
0
LINE
8
0
10
185.082
20
-43.6081315
11
185.082
21
-42.4896054
0
LINE
8
0
10
185.5818684
20
-44.1081315
11
203.5823535
21
-44.1128685
0
LINE
8
0
10
204.0822219
20
-44.6126465
11
204.083
21
-46.365
0
LINE
8
0
10
224.518
20
-107.371596
11
224.8868869
21
-130.848279
0
LINE
8
0
10
225.003803
20
-131.1618173
11
230.3148039
21
-137.4912217
0
LINE
8
0
10
217.1155132
20
-149.2194452
11
230.2531755
21
-138.1956377
0
LINE
8
0
10
205.2803965
20
-135.8927642
11
216.4110972
21
-149.1578168
0
LINE
8
0
10
189.7461294
20
-124.8014803
11
205.1875726
21
-135.806991
0
LINE
8
0
10
171.869123
20
-118.1070208
11
189.6308585
21
-124.7402454
0
LINE
8
0
10
153.0056953
20
-116.2807271
11
171.7419312
21
-118.0777066
0
LINE
8
0
10
146.9899046
20
-109.3872609
11
152.671647
21
-116.1058749
0
LINE
8
0
10
91.5822512
20
-109.2397308
11
146.6078517
21
-109.2101249
0
LINE
8
0
10
204.5827781
20
-46.365
11
224.333
21
-46.365
0
LINE
8
0
10
224.833
20
-106.6920254
11
224.833
21
-46.865
0
LINE
8
0
10
224.518
20
-107.371596
11
224.7660127
21
-106.9420254
0
ARC
8
0
10
91.5800177
20
-53.4883579
40
0.5
50
90.1884748
51
450.1884748
0
ARC
8
0
10
128.58
20
-52.366642
40
0.5
50
270.1884748
51
630.1884748
0
ARC
8
0
10
129.58
20
-41.4909219
40
0.5
50
89.8944554
51
449.8944554
0
ARC
8
0
10
147.58
20
-40.5240781
40
0.5
50
269.8944554
51
629.8944554
0
ARC
8
0
10
148.58
20
-36.613
40
0.5
50
90
51
450
0
ARC
8
0
10
165.582
20
-36.613
40
0.5
50
0
51
360
0
ARC
8
0
10
166.582
20
-41.4753946
40
0.5
50
180
51
540
0
ARC
8
0
10
184.582
20
-42.4896054
40
0.5
50
0
51
360
0
ARC
8
0
10
185.582
20
-43.6081315
40
0.5
50
180
51
540
0
ARC
8
0
10
203.5822219
20
-44.6128685
40
0.5
50
0.0254393
51
360.0254393
0
ARC
8
0
10
204.5827781
20
-45.865
40
0.5
50
180.0254393
51
540.0254393
0
ARC
8
0
10
224.333
20
-46.865
40
0.5
50
0
51
360
0
ARC
8
0
10
224.333
20
-106.6920254
40
0.5
50
329.9999999
51
689.9999999
0
ARC
8
0
10
225.3868252
20
-130.8404235
40
0.5
50
180.900211
51
540.900211
0
ARC
8
0
10
229.9317817
20
-137.8126155
40
0.5
50
310.0000012
51
40.0000012
0
ARC
8
0
10
216.7941194
20
-148.836423
40
0.5
50
220.0000012
51
580.0000012
0
ARC
8
0
10
204.8973743
20
-136.214158
40
0.5
50
40.0000012
51
400.0000012
0
ARC
8
0
10
189.4559311
20
-125.2086473
40
0.5
50
54.5215594
51
414.5215594
0
ARC
8
0
10
171.6941956
20
-118.5754227
40
0.5
50
69.5215596
51
429.5215596
0
ARC
8
0
10
153.0534309
20
-115.783011
40
0.5
50
220.2202604
51
580.2202604
0
ARC
8
0
10
146.6081207
20
-109.7101248
40
0.5
50
40.2202604
51
400.2202604
0
ARC
8
0
10
91.5819822
20
-108.7397309
40
0.5
50
180.0020397
51
540.0020397
0
CIRCLE
8
0
10
109.5
20
-71.5
40
1.1
0
CIRCLE
8
0
10
109.5
20
-90.5
40
1.1
0
CIRCLE
8
0
10
185.468
20
-61.361
40
1.1
0
CIRCLE
8
0
10
172.7442902
20
-101.1746489
40
1.1
0
CIRCLE
8
0
10
220.8028321
20
-121.4010032
40
1.1
0
CIRCLE
8
0
10
109.5
20
-71.5
40
2.15
0
CIRCLE
8
0
10
109.5
20
-90.5
40
2.15
0
CIRCLE
8
0
10
185.468
20
-61.361
40
2.15
0
CIRCLE
8
0
10
172.7442902
20
-101.1746489
40
2.15
0
CIRCLE
8
0
10
220.8028321
20
-121.4010032
40
2.15
0
CIRCLE
8
0
10
207.762
20
-93.851
40
1.1
0
CIRCLE
8
0
10
222.194
20
-102.37
40
1.1
0
LINE
8
0
10
204.083
20
-46.365222
11
204.083
21
-95.2847681
0
LINE
8
0
10
204.333
20
-95.7177808
11
224.2725152
21
-107.2298653
0
ARC
8
0
10
203.583
20
-46.365222
40
0.5
50
0
51
0.0254393
0
ARC
8
0
10
204.583
20
-95.2847681
40
0.5
50
180
51
239.9999999
0
ARC
8
0
10
224.0225152
20
-107.662878
40
0.5
50
0.900211
51
59.9999999
0
LINE
8
0
10
93
20
-107
11
107
21
-107
0
LINE
8
0
10
107
20
-107
11
107
21
-93
0
LINE
8
0
10
107
20
-93
11
93
21
-93
0
LINE
8
0
10
93
20
-93
11
93
21
-107
0
LINE
8
0
10
93
20
-88
11
107
21
-88
0
LINE
8
0
10
107
20
-88
11
107
21
-74
0
LINE
8
0
10
107
20
-74
11
93
21
-74
0
LINE
8
0
10
93
20
-74
11
93
21
-88
0
LINE
8
0
10
93
20
-69
11
107
21
-69
0
LINE
8
0
10
107
20
-69
11
107
21
-55
0
LINE
8
0
10
107
20
-55
11
93
21
-55
0
LINE
8
0
10
93
20
-55
11
93
21
-69
0
LINE
8
0
10
112
20
-107
11
126
21
-107
0
LINE
8
0
10
126
20
-107
11
126
21
-93
0
LINE
8
0
10
126
20
-93
11
112
21
-93
0
LINE
8
0
10
112
20
-93
11
112
21
-107
0
LINE
8
0
10
112
20
-88
11
126
21
-88
0
LINE
8
0
10
126
20
-88
11
126
21
-74
0
LINE
8
0
10
126
20
-74
11
112
21
-74
0
LINE
8
0
10
112
20
-74
11
112
21
-88
0
LINE
8
0
10
112
20
-69
11
126
21
-69
0
LINE
8
0
10
126
20
-69
11
126
21
-55
0
LINE
8
0
10
126
20
-55
11
112
21
-55
0
LINE
8
0
10
112
20
-55
11
112
21
-69
0
LINE
8
0
10
131
20
-95
11
145
21
-95
0
LINE
8
0
10
145
20
-95
11
145
21
-81
0
LINE
8
0
10
145
20
-81
11
131
21
-81
0
LINE
8
0
10
131
20
-81
11
131
21
-95
0
LINE
8
0
10
131
20
-76
11
145
21
-76
0
LINE
8
0
10
145
20
-76
11
145
21
-62
0
LINE
8
0
10
145
20
-62
11
131
21
-62
0
LINE
8
0
10
131
20
-62
11
131
21
-76
0
LINE
8
0
10
131
20
-57
11
145
21
-57
0
LINE
8
0
10
145
20
-57
11
145
21
-43
0
LINE
8
0
10
145
20
-43
11
131
21
-43
0
LINE
8
0
10
131
20
-43
11
131
21
-57
0
LINE
8
0
10
150
20
-90
11
164
21
-90
0
LINE
8
0
10
164
20
-90
11
164
21
-76
0
LINE
8
0
10
164
20
-76
11
150
21
-76
0
LINE
8
0
10
150
20
-76
11
150
21
-90
0
LINE
8
0
10
150
20
-71
11
164
21
-71
0
LINE
8
0
10
164
20
-71
11
164
21
-57
0
LINE
8
0
10
164
20
-57
11
150
21
-57
0
LINE
8
0
10
150
20
-57
11
150
21
-71
0
LINE
8
0
10
150
20
-52
11
164
21
-52
0
LINE
8
0
10
164
20
-52
11
164
21
-38
0
LINE
8
0
10
164
20
-38
11
150
21
-38
0
LINE
8
0
10
150
20
-38
11
150
21
-52
0
LINE
8
0
10
169
20
-96
11
183
21
-96
0
LINE
8
0
10
183
20
-96
11
183
21
-82
0
LINE
8
0
10
183
20
-82
11
169
21
-82
0
LINE
8
0
10
169
20
-82
11
169
21
-96
0
LINE
8
0
10
169
20
-77
11
183
21
-77
0
LINE
8
0
10
183
20
-77
11
183
21
-63
0
LINE
8
0
10
183
20
-63
11
169
21
-63
0
LINE
8
0
10
169
20
-63
11
169
21
-77
0
LINE
8
0
10
169
20
-58
11
183
21
-58
0
LINE
8
0
10
183
20
-58
11
183
21
-44
0
LINE
8
0
10
183
20
-44
11
169
21
-44
0
LINE
8
0
10
169
20
-44
11
169
21
-58
0
LINE
8
0
10
188
20
-98
11
202
21
-98
0
LINE
8
0
10
202
20
-98
11
202
21
-84
0
LINE
8
0
10
202
20
-84
11
188
21
-84
0
LINE
8
0
10
188
20
-84
11
188
21
-98
0
LINE
8
0
10
188
20
-79
11
202
21
-79
0
LINE
8
0
10
202
20
-79
11
202
21
-65
0
LINE
8
0
10
202
20
-65
11
188
21
-65
0
LINE
8
0
10
188
20
-65
11
188
21
-79
0
LINE
8
0
10
188
20
-60
11
202
21
-60
0
LINE
8
0
10
202
20
-60
11
202
21
-46
0
LINE
8
0
10
202
20
-46
11
188
21
-46
0
LINE
8
0
10
188
20
-46
11
188
21
-60
0
LINE
8
0
10
154.9165469
20
-114.3632727
11
168.8632727
21
-115.5834531
0
LINE
8
0
10
168.8632727
20
-115.5834531
11
170.0834531
21
-101.6367273
0
LINE
8
0
10
170.0834531
20
-101.6367273
11
156.1367273
21
-100.4165469
0
LINE
8
0
10
156.1367273
20
-100.4165469
11
154.9165469
21
-114.3632727
0
LINE
8
0
10
174.3401521
20
-116.7976479
11
187.4958487
21
-121.5859299
0
LINE
8
0
10
187.4958487
20
-121.5859299
11
192.2841307
21
-108.4302333
0
LINE
8
0
10
192.2841307
20
-108.4302333
11
179.1284341
21
-103.6419513
0
LINE
8
0
10
179.1284341
20
-103.6419513
11
174.3401521
21
-116.7976479
0
LINE
8
0
10
192.471851
20
-124.1762729
11
203.9399797
21
-132.206343
0
LINE
8
0
10
203.9399797
20
-132.206343
11
211.9700498
21
-120.7382143
0
LINE
8
0
10
211.9700498
20
-120.7382143
11
200.5019211
21
-112.7081442
0
LINE
8
0
10
200.5019211
20
-112.7081442
11
192.471851
21
-124.1762729
0
LINE
8
0
10
208.0759987
20
-135.9963063
11
217.0750253
21
-146.7209285
0
LINE
8
0
10
217.0750253
20
-146.7209285
11
227.7996475
21
-137.7219019
0
LINE
8
0
10
227.7996475
20
-137.7219019
11
218.8006209
21
-126.9972797
0
LINE
8
0
10
218.8006209
20
-126.9972797
11
208.0759987
21
-135.9963063
0
LINE
8
0
10
205.113
20
-95.1519776
11
205.113
21
-46.865
0
LINE
8
0
10
224.083
20
-106.3929873
11
205.363
21
-95.5849903
0
ARC
8
0
10
205.613
20
-46.865
40
0.5
50
90
51
180
0
ARC
8
0
10
224.333
20
-105.9599746
40
0.5
50
239.9999999
51
0
0
ARC
8
0
10
205.613
20
-95.1519776
40
0.5
50
180
51
239.9999999
0
LINE
8
0
10
93
20
-109
11
107
21
-109
0
LINE
8
0
10
109
20
-107
11
109
21
-93
0
LINE
8
0
10
107
20
-91
11
93
21
-91
0
LINE
8
0
10
91
20
-93
11
91
21
-107
0
LINE
8
0
10
93
20
-90
11
107
21
-90
0
LINE
8
0
10
109
20
-88
11
109
21
-74
0
LINE
8
0
10
107
20
-72
11
93
21
-72
0
LINE
8
0
10
91
20
-74
11
91
21
-88
0
LINE
8
0
10
93
20
-71
11
107
21
-71
0
LINE
8
0
10
109
20
-69
11
109
21
-55
0
LINE
8
0
10
107
20
-53
11
93
21
-53
0
LINE
8
0
10
91
20
-55
11
91
21
-69
0
LINE
8
0
10
112
20
-109
11
126
21
-109
0
LINE
8
0
10
128
20
-107
11
128
21
-93
0
LINE
8
0
10
126
20
-91
11
112
21
-91
0
LINE
8
0
10
110
20
-93
11
110
21
-107
0
LINE
8
0
10
112
20
-90
11
126
21
-90
0
LINE
8
0
10
128
20
-88
11
128
21
-74
0
LINE
8
0
10
126
20
-72
11
112
21
-72
0
LINE
8
0
10
110
20
-74
11
110
21
-88
0
LINE
8
0
10
112
20
-71
11
126
21
-71
0
LINE
8
0
10
128
20
-69
11
128
21
-55
0
LINE
8
0
10
126
20
-53
11
112
21
-53
0
LINE
8
0
10
110
20
-55
11
110
21
-69
0
LINE
8
0
10
131
20
-97
11
145
21
-97
0
LINE
8
0
10
147
20
-95
11
147
21
-81
0
LINE
8
0
10
145
20
-79
11
131
21
-79
0
LINE
8
0
10
129
20
-81
11
129
21
-95
0
LINE
8
0
10
131
20
-78
11
145
21
-78
0
LINE
8
0
10
147
20
-76
11
147
21
-62
0
LINE
8
0
10
145
20
-60
11
131
21
-60
0
LINE
8
0
10
129
20
-62
11
129
21
-76
0
LINE
8
0
10
131
20
-59
11
145
21
-59
0
LINE
8
0
10
147
20
-57
11
147
21
-43
0
LINE
8
0
10
145
20
-41
11
131
21
-41
0
LINE
8
0
10
129
20
-43
11
129
21
-57
0
LINE
8
0
10
150
20
-92
11
164
21
-92
0
LINE
8
0
10
166
20
-90
11
166
21
-76
0
LINE
8
0
10
164
20
-74
11
150
21
-74
0
LINE
8
0
10
148
20
-76
11
148
21
-90
0
LINE
8
0
10
150
20
-73
11
164
21
-73
0
LINE
8
0
10
166
20
-71
11
166
21
-57
0
LINE
8
0
10
164
20
-55
11
150
21
-55
0
LINE
8
0
10
148
20
-57
11
148
21
-71
0
LINE
8
0
10
150
20
-54
11
164
21
-54
0
LINE
8
0
10
166
20
-52
11
166
21
-38
0
LINE
8
0
10
164
20
-36
11
150
21
-36
0
LINE
8
0
10
148
20
-38
11
148
21
-52
0
LINE
8
0
10
169
20
-98
11
183
21
-98
0
LINE
8
0
10
185
20
-96
11
185
21
-82
0
LINE
8
0
10
183
20
-80
11
169
21
-80
0
LINE
8
0
10
167
20
-82
11
167
21
-96
0
LINE
8
0
10
169
20
-79
11
183
21
-79
0
LINE
8
0
10
185
20
-77
11
185
21
-63
0
LINE
8
0
10
183
20
-61
11
169
21
-61
0
LINE
8
0
10
167
20
-63
11
167
21
-77
0
LINE
8
0
10
169
20
-60
11
183
21
-60
0
LINE
8
0
10
185
20
-58
11
185
21
-44
0
LINE
8
0
10
183
20
-42
11
169
21
-42
0
LINE
8
0
10
167
20
-44
11
167
21
-58
0
LINE
8
0
10
188
20
-100
11
202
21
-100
0
LINE
8
0
10
204
20
-98
11
204
21
-84
0
LINE
8
0
10
202
20
-82
11
188
21
-82
0
LINE
8
0
10
186
20
-84
11
186
21
-98
0
LINE
8
0
10
188
20
-81
11
202
21
-81
0
LINE
8
0
10
204
20
-79
11
204
21
-65
0
LINE
8
0
10
202
20
-63
11
188
21
-63
0
LINE
8
0
10
186
20
-65
11
186
21
-79
0
LINE
8
0
10
188
20
-62
11
202
21
-62
0
LINE
8
0
10
204
20
-60
11
204
21
-46
0
LINE
8
0
10
202
20
-44
11
188
21
-44
0
LINE
8
0
10
186
20
-46
11
186
21
-60
0
LINE
8
0
10
154.7422355
20
-116.3556621
11
168.6889613
21
-117.5758425
0
LINE
8
0
10
170.8556621
20
-115.7577645
11
172.0758425
21
-101.8110387
0
LINE
8
0
10
170.2577645
20
-99.6443379
11
156.3110387
21
-98.4241575
0
LINE
8
0
10
154.1443379
20
-100.2422355
11
152.9241575
21
-114.1889613
0
LINE
8
0
10
173.6561118
20
-118.6770332
11
186.8118086
21
-123.4653152
0
LINE
8
0
10
189.375234
20
-122.2699702
11
194.163516
21
-109.1142734
0
LINE
8
0
10
192.968171
20
-106.550848
11
179.8124742
21
-101.762566
0
LINE
8
0
10
177.2490488
20
-102.957911
11
172.4607668
21
-116.1136078
0
LINE
8
0
10
191.3246982
20
-125.814577
11
202.7928268
21
-133.844647
0
LINE
8
0
10
211.9385511
20
-124.2700926
11
213.6083538
21
-121.8853672
0
LINE
8
0
10
213.1172026
20
-119.0999102
11
201.649074
21
-111.0698402
0
LINE
8
0
10
198.863617
20
-111.5609914
11
190.833547
21
-123.02912
0
LINE
8
0
10
203.9631143
20
-134.2062091
11
218.4354806
21
-151.4537037
0
LINE
8
0
10
217.4401656
20
-122.2645045
11
232.2242806
21
-139.8835267
0
ARC
8
0
10
168.8632727
20
-115.5834531
40
2
50
265.0000024
51
355.0000024
0
ARC
8
0
10
170.0834531
20
-101.6367273
40
2
50
355.0000024
51
85.0000024
0
ARC
8
0
10
156.1367273
20
-100.4165469
40
2
50
85.0000024
51
175.0000024
0
ARC
8
0
10
154.9165469
20
-114.3632727
40
2
50
175.0000024
51
265.0000024
0
ARC
8
0
10
187.4958488
20
-121.58593
40
2
50
250.0000019
51
340.0000019
0
ARC
8
0
10
192.2841308
20
-108.4302332
40
2
50
340.0000019
51
70.0000019
0
ARC
8
0
10
179.128434
20
-103.6419512
40
2
50
70.0000019
51
160.0000019
0
ARC
8
0
10
174.340152
20
-116.797648
40
2
50
160.0000019
51
250.0000019
0
ARC
8
0
10
107
20
-107
40
2
50
270
51
0
0
ARC
8
0
10
107
20
-93
40
2
50
0
51
90
0
ARC
8
0
10
93
20
-93
40
2
50
90
51
180
0
ARC
8
0
10
93
20
-107
40
2
50
180
51
270
0
ARC
8
0
10
107
20
-88
40
2
50
270
51
0
0
ARC
8
0
10
107
20
-74
40
2
50
0
51
90
0
ARC
8
0
10
93
20
-74
40
2
50
90
51
180
0
ARC
8
0
10
93
20
-88
40
2
50
180
51
270
0
ARC
8
0
10
107
20
-69
40
2
50
270
51
0
0
ARC
8
0
10
107
20
-55
40
2
50
0
51
90
0
ARC
8
0
10
93
20
-55
40
2
50
90
51
180
0
ARC
8
0
10
93
20
-69
40
2
50
180
51
270
0
ARC
8
0
10
126
20
-107
40
2
50
270
51
0
0
ARC
8
0
10
126
20
-93
40
2
50
0
51
90
0
ARC
8
0
10
112
20
-93
40
2
50
90
51
180
0
ARC
8
0
10
112
20
-107
40
2
50
180
51
270
0
ARC
8
0
10
126
20
-88
40
2
50
270
51
0
0
ARC
8
0
10
126
20
-74
40
2
50
0
51
90
0
ARC
8
0
10
112
20
-74
40
2
50
90
51
180
0
ARC
8
0
10
112
20
-88
40
2
50
180
51
270
0
ARC
8
0
10
126
20
-69
40
2
50
270
51
0
0
ARC
8
0
10
126
20
-55
40
2
50
0
51
90
0
ARC
8
0
10
112
20
-55
40
2
50
90
51
180
0
ARC
8
0
10
112
20
-69
40
2
50
180
51
270
0
ARC
8
0
10
145
20
-95
40
2
50
270
51
0
0
ARC
8
0
10
145
20
-81
40
2
50
0
51
90
0
ARC
8
0
10
131
20
-81
40
2
50
90
51
180
0
ARC
8
0
10
131
20
-95
40
2
50
180
51
270
0
ARC
8
0
10
145
20
-76
40
2
50
270
51
0
0
ARC
8
0
10
145
20
-62
40
2
50
0
51
90
0
ARC
8
0
10
131
20
-62
40
2
50
90
51
180
0
ARC
8
0
10
131
20
-76
40
2
50
180
51
270
0
ARC
8
0
10
145
20
-57
40
2
50
270
51
0
0
ARC
8
0
10
145
20
-43
40
2
50
0
51
90
0
ARC
8
0
10
131
20
-43
40
2
50
90
51
180
0
ARC
8
0
10
131
20
-57
40
2
50
180
51
270
0
ARC
8
0
10
164
20
-90
40
2
50
270
51
0
0
ARC
8
0
10
164
20
-76
40
2
50
0
51
90
0
ARC
8
0
10
150
20
-76
40
2
50
90
51
180
0
ARC
8
0
10
150
20
-90
40
2
50
180
51
270
0
ARC
8
0
10
164
20
-71
40
2
50
270
51
0
0
ARC
8
0
10
164
20
-57
40
2
50
0
51
90
0
ARC
8
0
10
150
20
-57
40
2
50
90
51
180
0
ARC
8
0
10
150
20
-71
40
2
50
180
51
270
0
ARC
8
0
10
164
20
-52
40
2
50
270
51
0
0
ARC
8
0
10
164
20
-38
40
2
50
0
51
90
0
ARC
8
0
10
150
20
-38
40
2
50
90
51
180
0
ARC
8
0
10
150
20
-52
40
2
50
180
51
270
0
ARC
8
0
10
183
20
-96
40
2
50
270
51
0
0
ARC
8
0
10
183
20
-82
40
2
50
0
51
90
0
ARC
8
0
10
169
20
-82
40
2
50
90
51
180
0
ARC
8
0
10
169
20
-96
40
2
50
180
51
270
0
ARC
8
0
10
183
20
-77
40
2
50
270
51
0
0
ARC
8
0
10
183
20
-63
40
2
50
0
51
90
0
ARC
8
0
10
169
20
-63
40
2
50
90
51
180
0
ARC
8
0
10
169
20
-77
40
2
50
180
51
270
0
ARC
8
0
10
183
20
-58
40
2
50
270
51
0
0
ARC
8
0
10
183
20
-44
40
2
50
0
51
90
0
ARC
8
0
10
169
20
-44
40
2
50
90
51
180
0
ARC
8
0
10
169
20
-58
40
2
50
180
51
270
0
ARC
8
0
10
202
20
-98
40
2
50
270
51
0
0
ARC
8
0
10
202
20
-84
40
2
50
0
51
90
0
ARC
8
0
10
188
20
-84
40
2
50
90
51
180
0
ARC
8
0
10
188
20
-98
40
2
50
180
51
270
0
ARC
8
0
10
202
20
-79
40
2
50
270
51
0
0
ARC
8
0
10
202
20
-65
40
2
50
0
51
90
0
ARC
8
0
10
188
20
-65
40
2
50
90
51
180
0
ARC
8
0
10
188
20
-79
40
2
50
180
51
270
0
ARC
8
0
10
202
20
-60
40
2
50
270
51
0
0
ARC
8
0
10
202
20
-46
40
2
50
0
51
90
0
ARC
8
0
10
188
20
-46
40
2
50
90
51
180
0
ARC
8
0
10
188
20
-60
40
2
50
180
51
270
0
ARC
8
0
10
203.9399797
20
-132.2063429
40
2
50
235.0000003
51
270.6627722
0
ARC
8
0
10
211.9700497
20
-120.7382143
40
2
50
325.0000003
51
55.0000003
0
ARC
8
0
10
200.5019211
20
-112.7081443
40
2
50
55.0000003
51
145.0000003
0
ARC
8
0
10
192.4718511
20
-124.1762729
40
2
50
145.0000003
51
235.0000003
0
LINE
8
0
10
221.2531447
20
-151.7002173
11
231.977767
21
-142.7011908
0
LINE
8
0
10
214.6225015
20
-122.0179909
11
211.9385511
21
-124.2700926
0
ARC
8
0
10
219.9675695
20
-150.1681285
40
2
50
220.0000012
51
310.0000012
0
ARC
8
0
10
230.6921917
20
-141.1691019
40
2
50
310.0000012
51
40.0000012
0
ARC
8
0
10
215.9080767
20
-123.5500797
40
2
50
40.0000012
51
130.0000012
0
LINE
8
0
10
89.63
20
-52.9900516
11
89.632
21
-109.2400516
0
LINE
8
0
10
89.6299663
20
-52.0431377
11
89.63
21
-52.9900516
0
LINE
8
0
10
90.1283216
20
-51.5431226
11
127.1316447
21
-51.4214012
0
LINE
8
0
10
127.63
20
-50.9214039
11
127.63
21
-40.0382485
0
LINE
8
0
10
128.1309211
20
-39.5382493
11
146.1290789
21
-39.5714038
0
LINE
8
0
10
146.63
20
-39.0714046
11
146.63
21
-35.163
0
LINE
8
0
10
147.13
20
-34.663
11
167.032
21
-34.663
0
LINE
8
0
10
167.532
20
-40.026539
11
167.532
21
-35.163
0
LINE
8
0
10
168.0316053
20
-40.5265388
11
186.0323947
21
-40.5407499
0
LINE
8
0
10
186.532
20
-42.1585131
11
186.532
21
-41.0407497
0
LINE
8
0
10
187.0318684
20
-42.6585131
11
205.0317099
21
-42.6632499
0
LINE
8
0
10
205.5315783
20
-43.1630279
11
205.5319999
21
-44.1123561
0
LINE
8
0
10
205.5319999
20
-44.1123561
11
205.5321344
21
-44.415222
0
LINE
8
0
10
206.0321344
20
-44.915
11
225.783
21
-44.915
0
LINE
8
0
10
226.283
20
-107.2145263
11
226.283
21
-45.415
0
LINE
8
0
10
225.9741173
20
-107.7495267
11
226.283
21
-107.2145263
0
LINE
8
0
10
225.9741173
20
-107.7495267
11
226.3286185
21
-130.3106683
0
LINE
8
0
10
226.4455346
20
-130.6242066
11
231.7466159
21
-136.9417894
0
LINE
8
0
10
231.7473082
20
-136.9426144
11
232.3578371
21
-137.6702144
0
LINE
8
0
10
231.5678332
20
-138.9853493
11
232.2960665
21
-138.3747498
0
LINE
8
0
10
217.6649455
20
-150.6512572
11
231.5676909
21
-138.9854687
0
LINE
8
0
10
216.9365205
20
-151.2624784
11
217.6641205
21
-150.6519495
0
LINE
8
0
10
215.6213856
20
-150.4724745
11
216.2319851
21
-151.2007078
0
LINE
8
0
10
204.2883811
20
-136.9663258
11
215.6212662
21
-150.4723322
0
LINE
8
0
10
189.0600074
20
-126.0930599
11
204.1955572
21
-136.8805526
0
LINE
8
0
10
171.5406659
20
-119.5321724
11
188.9447365
21
-126.031825
0
LINE
8
0
10
152.2796807
20
-117.6677493
11
171.413474
21
-119.5028582
0
LINE
8
0
10
146.3174547
20
-110.8376229
11
151.9456324
21
-117.492897
0
LINE
8
0
10
90.1323029
20
-110.6905112
11
145.9354018
21
-110.6604869
0
LINE
8
0
10
89.632
20
-109.2400516
11
89.6320338
21
-110.1905291
0
ARC
8
0
10
90.1299663
20
-52.0431199
40
0.5
50
90.1884691
51
450.1884691
0
ARC
8
0
10
127.13
20
-50.9214039
40
0.5
50
270.1884748
51
630.1884748
0
ARC
8
0
10
128.13
20
-40.0382485
40
0.5
50
89.8944554
51
449.8944554
0
ARC
8
0
10
146.13
20
-39.0714046
40
0.5
50
269.8944554
51
629.8944554
0
ARC
8
0
10
147.13
20
-35.163
40
0.5
50
90
51
450
0
ARC
8
0
10
167.032
20
-35.163
40
0.5
50
0
51
360
0
ARC
8
0
10
168.032
20
-40.026539
40
0.5
50
180
51
540
0
ARC
8
0
10
186.032
20
-41.0407497
40
0.5
50
0
51
360
0
ARC
8
0
10
187.032
20
-42.1585131
40
0.5
50
180
51
540
0
ARC
8
0
10
205.0315783
20
-43.1632499
40
0.5
50
0.0254451
51
360.0254451
0
ARC
8
0
10
206.0321344
20
-44.415
40
0.5
50
180.0254393
51
540.0254393
0
ARC
8
0
10
225.783
20
-45.415
40
0.5
50
0
51
360
0
ARC
8
0
10
226.8285568
20
-130.3028128
40
0.5
50
180.900211
51
540.900211
0
ARC
8
0
10
231.974815
20
-137.9916082
40
0.5
50
309.9787187
51
669.9787187
0
ARC
8
0
10
231.8890847
20
-139.3684909
40
0.5
50
129.9787187
51
489.9787187
0
ARC
8
0
10
216.6151267
20
-150.8794563
40
0.5
50
219.9787187
51
579.9787187
0
ARC
8
0
10
215.238244
20
-150.793726
40
0.5
50
39.9787187
51
399.9787187
0
ARC
8
0
10
203.9053589
20
-137.2877196
40
0.5
50
40.0000012
51
400.0000012
0
ARC
8
0
10
188.7698091
20
-126.5002269
40
0.5
50
54.5215594
51
414.5215594
0
ARC
8
0
10
171.3657384
20
-120.0005743
40
0.5
50
69.5215596
51
429.5215596
0
ARC
8
0
10
152.3274163
20
-117.1700332
40
0.5
50
220.2202567
51
580.2202567
0
ARC
8
0
10
145.9356708
20
-111.1604868
40
0.5
50
40.2202604
51
400.2202604
0
ARC
8
0
10
90.1320338
20
-110.1905113
40
0.5
50
180.0020397
51
540.0020397
0
LINE
8
0
10
90.832
20
-109.2400089
11
90.83
21
-52.9900089
0
LINE
8
0
10
90.8299911
20
-52.7408211
11
90.83
21
-52.9900089
0
LINE
8
0
10
90.8299911
20
-52.7408211
11
128.3316447
21
-52.6174604
0
LINE
8
0
10
128.83
20
-52.1174631
11
128.83
21
-40.7395391
0
LINE
8
0
10
128.83
20
-40.7395391
11
147.3290789
21
-40.7736163
0
LINE
8
0
10
147.83
20
-40.2736171
11
147.83
21
-35.863
0
LINE
8
0
10
147.83
20
-35.863
11
166.332
21
-35.863
0
LINE
8
0
10
166.332
20
-41.2255919
11
166.332
21
-35.863
0
LINE
8
0
10
166.8316053
20
-41.7255917
11
185.332
21
-41.7401973
0
LINE
8
0
10
185.332
20
-43.3581973
11
185.332
21
-41.7401973
0
LINE
8
0
10
185.8318684
20
-43.8581973
11
204.3318891
21
-43.8630658
0
LINE
8
0
10
204.332
20
-44.112889
11
204.3318891
21
-43.8630658
0
LINE
8
0
10
204.332
20
-44.112889
11
204.3326671
21
-45.615222
0
LINE
8
0
10
204.8326671
20
-46.115
11
225.083
21
-46.115
0
LINE
8
0
10
225.083
20
-106.8929873
11
225.083
21
-46.115
0
LINE
8
0
10
224.8381514
20
-107.3170775
11
225.083
21
-106.8929873
0
LINE
8
0
10
224.7712258
20
-107.574933
11
225.1354613
21
-130.7555875
0
LINE
8
0
10
225.2523774
20
-131.0691258
11
230.9884057
21
-137.9050581
0
LINE
8
0
10
216.7016768
20
-149.893047
11
230.9884057
21
-137.9050581
0
LINE
8
0
10
205.1093593
20
-136.077861
11
216.7016768
21
-149.893047
0
LINE
8
0
10
205.0165354
20
-135.9920878
11
189.6278326
21
-125.0241665
0
LINE
8
0
10
189.5125618
20
-124.9629316
11
171.8124922
21
-118.3527365
0
LINE
8
0
10
152.6779061
20
-116.5004363
11
171.6853003
21
-118.3234223
0
LINE
8
0
10
146.873965
20
-109.6373234
11
152.6779061
21
-116.5004363
0
LINE
8
0
10
90.8320089
20
-109.4901345
11
146.4919121
21
-109.4601874
0
LINE
8
0
10
90.832
20
-109.2400089
11
90.8320089
21
-109.4901345
0
ARC
8
0
10
128.33
20
-52.1174631
40
0.5
50
270.1884748
51
0
0
ARC
8
0
10
147.33
20
-40.2736171
40
0.5
50
269.8944554
51
0
0
ARC
8
0
10
166.832
20
-41.2255919
40
0.5
50
180
51
269.954765
0
ARC
8
0
10
185.832
20
-43.3581973
40
0.5
50
180
51
269.9849198
0
ARC
8
0
10
204.8326671
20
-45.615
40
0.5
50
180.0254393
51
270
0
ARC
8
0
10
225.2711641
20
-107.5670775
40
0.5
50
149.9999999
51
180.900211
0
ARC
8
0
10
225.6353996
20
-130.747732
40
0.5
50
180.900211
51
220.0000012
0
ARC
8
0
10
204.7263371
20
-136.3992548
40
0.5
50
40.0000012
51
54.5215594
0
ARC
8
0
10
189.3376343
20
-125.4313335
40
0.5
50
54.5215594
51
69.5215596
0
ARC
8
0
10
171.6375647
20
-118.8211384
40
0.5
50
69.5215596
51
84.5215592
0
ARC
8
0
10
146.4921811
20
-109.9601873
40
0.5
50
40.2202604
51
90.0308251
0
LINE
8
0
10
93.4818968
20
-106.3384571
11
93.4801028
21
-55.8804937
0
LINE
8
0
10
93.978458
20
-55.3804786
11
130.9816447
21
-55.2587575
0
LINE
8
0
10
131.48
20
-54.7587602
11
131.48
21
-43.895347
0
LINE
8
0
10
131.9809211
20
-43.3953478
11
149.9790789
21
-43.4285023
0
LINE
8
0
10
150.48
20
-42.9285031
11
150.48
21
-39.013
0
LINE
8
0
10
150.98
20
-38.513
11
163.182
21
-38.513
0
LINE
8
0
10
163.682
20
-43.8735006
11
163.682
21
-39.013
0
LINE
8
0
10
164.1816053
20
-44.3735004
11
182.2540756
21
-44.3877682
0
LINE
8
0
10
182.7502636
20
-44.8294099
11
182.8955767
21
-46.0659134
0
LINE
8
0
10
183.3920278
20
-46.5075553
11
201.2174676
21
-46.5122462
0
LINE
8
0
10
201.7163925
20
-46.9815442
11
201.7972398
21
-48.2957021
0
LINE
8
0
10
202.2962963
20
-48.765
11
221.933
21
-48.765
0
LINE
8
0
10
222.433
20
-49.265
11
222.433
21
-106.0504852
0
LINE
8
0
10
222.367375
20
-106.2981107
11
222.175697
21
-106.6343449
0
LINE
8
0
10
222.1101337
20
-106.8898258
11
222.1182962
21
-107.4093023
0
LINE
8
0
10
222.1182962
20
-107.4093023
11
222.4899726
21
-131.0635128
0
LINE
8
0
10
222.4899726
20
-131.0635128
11
222.5005726
21
-131.7381174
0
LINE
8
0
10
222.6174886
20
-132.0516557
11
226.9336069
21
-137.1954053
0
LINE
8
0
10
226.8719785
20
-137.8998213
11
217.4113296
21
-145.8382482
0
LINE
8
0
10
206.8814052
20
-134.067035
11
216.7069136
21
-145.7766198
0
LINE
8
0
10
190.828175
20
-122.625488
11
206.8814052
21
-134.067035
0
LINE
8
0
10
172.3511102
20
-115.7251195
11
190.828175
21
-122.625488
0
LINE
8
0
10
154.2073746
20
-113.9849662
11
172.3511102
21
-115.7251195
0
LINE
8
0
10
148.1029251
20
-106.9866618
11
153.8733263
21
-113.810114
0
LINE
8
0
10
93.9821658
20
-106.8384392
11
147.7208722
21
-106.8095257
0
ARC
8
0
10
93.9801028
20
-55.8804759
40
0.5
50
90.1884748
51
180.0020397
0
ARC
8
0
10
130.98
20
-54.7587602
40
0.5
50
270.1884748
51
0
0
ARC
8
0
10
131.98
20
-43.895347
40
0.5
50
89.8944554
51
180
0
ARC
8
0
10
149.98
20
-42.9285031
40
0.5
50
269.8944554
51
0
0
ARC
8
0
10
150.98
20
-39.013
40
0.5
50
90
51
180
0
ARC
8
0
10
163.182
20
-39.013
40
0.5
50
0
51
90
0
ARC
8
0
10
164.182
20
-43.8735006
40
0.5
50
180
51
269.954765
0
ARC
8
0
10
182.2536809
20
-44.887768
40
0.5
50
6.7026228
51
89.954765
0
ARC
8
0
10
183.3921594
20
-46.0075553
40
0.5
50
186.7026228
51
269.9849198
0
ARC
8
0
10
201.217336
20
-47.0122462
40
0.5
50
3.5204104
51
89.9849198
0
ARC
8
0
10
202.2962963
20
-48.265
40
0.5
50
183.5204104
51
270
0
ARC
8
0
10
221.933
20
-49.265
40
0.5
50
0
51
90
0
ARC
8
0
10
221.933
20
-106.0504852
40
0.5
50
330.3137039
51
0
0
ARC
8
0
10
222.610072
20
-106.8819703
40
0.5
50
150.3137039
51
180.900211
0
ARC
8
0
10
223.0005109
20
-131.7302619
40
0.5
50
180.900211
51
219.9999931
0
ARC
8
0
10
226.5505847
20
-137.5167991
40
0.5
50
310.0000012
51
40.0000012
0
ARC
8
0
10
217.0899358
20
-145.455226
40
0.5
50
220.0000012
51
310.0000012
0
ARC
8
0
10
154.2551102
20
-113.4872501
40
0.5
50
220.2202604
51
264.5215592
0
ARC
8
0
10
147.7211412
20
-107.3095256
40
0.5
50
40.2202567
51
90.0308251
0
ARC
8
0
10
93.9818968
20
-106.3384393
40
0.5
50
180.0020397
51
270.0308251
0
ENDSEC
0
EOF