<?xml version="1.0" encoding="utf-8" ?>
<svg baseProfile="full" height="807.9037416471749" version="1.1" viewBox="647.1054801009184 231.80937462726354 1000.0 807.9037416471749" width="1000" xmlns="http://www.w3.org/2000/svg" xmlns:ev="http://www.w3.org/2001/xml-events" xmlns:xlink="http://www.w3.org/1999/xlink"><defs /><line stroke="black" stroke-width="0.12941833673999997" transform="scale(7.726880326154934,-7.726880326154934)" x1="91.0800176" x2="91.0819821" y1="-53.4842356" y2="-108.7370165" /><line stroke="black" stroke-width="0.12941833673999997" transform="scale(7.726880326154934,-7.726880326154934)" x1="91.5742022" x2="109.5858154" y1="-52.9842516" y2="-52.7747481" /><line stroke="black" stroke-width="0.12941833673999997" transform="scale(7.726880326154934,-7.726880326154934)" x1="110.08" x2="110.08" y1="-52.2747819" y2="-41.5182924" /><line stroke="black" stroke-width="0.12941833673999997" transform="scale(7.726880326154934,-7.726880326154934)" x1="110.5782895" x2="128.5817105" y1="-41.0182953" y2="-40.9567047" /><line stroke="black" stroke-width="0.12941833673999997" transform="scale(7.726880326154934,-7.726880326154934)" x1="129.08" x2="129.08" y1="-40.4567076" y2="-36.703" /><line stroke="black" stroke-width="0.12941833673999997" transform="scale(7.726880326154934,-7.726880326154934)" x1="129.58" x2="146.582" y1="-36.203" y2="-36.203" /><line stroke="black" stroke-width="0.12941833673999997" transform="scale(7.726880326154934,-7.726880326154934)" x1="147.082" x2="147.082" y1="-41.4603656" y2="-36.703" /><line stroke="black" stroke-width="0.12941833673999997" transform="scale(7.726880326154934,-7.726880326154934)" x1="147.5766056" x2="165.5873944" y1="-41.9603365" y2="-42.1546635" /><line stroke="black" stroke-width="0.12941833673999997" transform="scale(7.726880326154934,-7.726880326154934)" x1="166.082" x2="166.082" y1="-44.1504437" y2="-42.6546344" /><line stroke="black" stroke-width="0.12941833673999997" transform="scale(7.726880326154934,-7.726880326154934)" x1="166.5894992" x2="184.5747261" y1="-44.6503875" y2="-44.3806091" /><line stroke="black" stroke-width="0.12941833673999997" transform="scale(7.726880326154934,-7.726880326154934)" x1="185.0822253" x2="185.083" y1="-44.8803309" y2="-46.625" /><line stroke="black" stroke-width="0.12941833673999997" transform="scale(7.726880326154934,-7.726880326154934)" x1="191.9841995" x2="205.518" y1="-127.7195134" y2="-107.631596" /><line stroke="black" stroke-width="0.12941833673999997" transform="scale(7.726880326154934,-7.726880326154934)" x1="176.1236421" x2="191.3195308" y1="-119.0998015" y2="-127.873152" /><line stroke="black" stroke-width="0.12941833673999997" transform="scale(7.726880326154934,-7.726880326154934)" x1="138.6394693" x2="175.9382671" y1="-114.1753583" y2="-119.0370082" /><line stroke="black" stroke-width="0.12941833673999997" transform="scale(7.726880326154934,-7.726880326154934)" x1="127.9439913" x2="138.4877492" y1="-109.06991" y2="-114.1303237" /><line stroke="black" stroke-width="0.12941833673999997" transform="scale(7.726880326154934,-7.726880326154934)" x1="91.5849746" x2="127.7246537" y1="-109.2369897" y2="-109.0206904" /><line stroke="black" stroke-width="0.12941833673999997" transform="scale(7.726880326154934,-7.726880326154934)" x1="185.5827781" x2="205.333" y1="-46.625" y2="-46.625" /><line stroke="black" stroke-width="0.12941833673999997" transform="scale(7.726880326154934,-7.726880326154934)" x1="205.833" x2="205.833" y1="-106.9520254" y2="-47.125" /><line stroke="black" stroke-width="0.12941833673999997" transform="scale(7.726880326154934,-7.726880326154934)" x1="205.518" x2="205.7660127" y1="-107.631596" y2="-107.2020254" /><circle cx="91.5800176" cy="-53.4842178" fill="none" r="0.5" stroke="black" stroke-width="0.12941833673999997" transform="scale(7.726880326154934,-7.726880326154934)" /><circle cx="109.58" cy="-52.2747819" fill="none" r="0.5" stroke="black" stroke-width="0.12941833673999997" transform="scale(7.726880326154934,-7.726880326154934)" /><circle cx="110.58" cy="-41.5182924" fill="none" r="0.5" stroke="black" stroke-width="0.12941833673999997" transform="scale(7.726880326154934,-7.726880326154934)" /><circle cx="128.58" cy="-40.4567076" fill="none" r="0.5" stroke="black" stroke-width="0.12941833673999997" transform="scale(7.726880326154934,-7.726880326154934)" /><circle cx="129.58" cy="-36.703" fill="none" r="0.5" stroke="black" stroke-width="0.12941833673999997" transform="scale(7.726880326154934,-7.726880326154934)" /><circle cx="146.582" cy="-36.703" fill="none" r="0.5" stroke="black" stroke-width="0.12941833673999997" transform="scale(7.726880326154934,-7.726880326154934)" /><circle cx="147.582" cy="-41.4603656" fill="none" r="0.5" stroke="black" stroke-width="0.12941833673999997" transform="scale(7.726880326154934,-7.726880326154934)" /><circle cx="165.582" cy="-42.6546344" fill="none" r="0.5" stroke="black" stroke-width="0.12941833673999997" transform="scale(7.726880326154934,-7.726880326154934)" /><circle cx="166.582" cy="-44.1504437" fill="none" r="0.5" stroke="black" stroke-width="0.12941833673999997" transform="scale(7.726880326154934,-7.726880326154934)" /><circle cx="184.5822253" cy="-44.8805529" fill="none" r="0.5" stroke="black" stroke-width="0.12941833673999997" transform="scale(7.726880326154934,-7.726880326154934)" /><circle cx="185.5827781" cy="-46.125" fill="none" r="0.5" stroke="black" stroke-width="0.12941833673999997" transform="scale(7.726880326154934,-7.726880326154934)" /><circle cx="205.333" cy="-47.125" fill="none" r="0.5" stroke="black" stroke-width="0.12941833673999997" transform="scale(7.726880326154934,-7.726880326154934)" /><circle cx="205.333" cy="-106.9520254" fill="none" r="0.5" stroke="black" stroke-width="0.12941833673999997" transform="scale(7.726880326154934,-7.726880326154934)" /><circle cx="191.5695308" cy="-127.4401393" fill="none" r="0.5" stroke="black" stroke-width="0.12941833673999997" transform="scale(7.726880326154934,-7.726880326154934)" /><circle cx="175.8736421" cy="-119.5328142" fill="none" r="0.5" stroke="black" stroke-width="0.12941833673999997" transform="scale(7.726880326154934,-7.726880326154934)" /><circle cx="138.7040943" cy="-113.6795523" fill="none" r="0.5" stroke="black" stroke-width="0.12941833673999997" transform="scale(7.726880326154934,-7.726880326154934)" /><circle cx="127.7276462" cy="-109.5206814" fill="none" r="0.5" stroke="black" stroke-width="0.12941833673999997" transform="scale(7.726880326154934,-7.726880326154934)" /><circle cx="91.5819821" cy="-108.7369987" fill="none" r="0.5" stroke="black" stroke-width="0.12941833673999997" transform="scale(7.726880326154934,-7.726880326154934)" /><circle cx="166.468" cy="-61.621" fill="none" r="1.1" stroke="black" stroke-width="0.12941833673999997" transform="scale(7.726880326154934,-7.726880326154934)" /><circle cx="133.657" cy="-97.955" fill="none" r="1.1" stroke="black" stroke-width="0.12941833673999997" transform="scale(7.726880326154934,-7.726880326154934)" /><circle cx="180.2410516" cy="-105.5386576" fill="none" r="1.1" stroke="black" stroke-width="0.12941833673999997" transform="scale(7.726880326154934,-7.726880326154934)" /><circle cx="166.468" cy="-61.621" fill="none" r="2.15" stroke="black" stroke-width="0.12941833673999997" transform="scale(7.726880326154934,-7.726880326154934)" /><circle cx="133.657" cy="-97.955" fill="none" r="2.15" stroke="black" stroke-width="0.12941833673999997" transform="scale(7.726880326154934,-7.726880326154934)" /><circle cx="180.2410516" cy="-105.5386576" fill="none" r="2.15" stroke="black" stroke-width="0.12941833673999997" transform="scale(7.726880326154934,-7.726880326154934)" /><circle cx="188.762" cy="-94.111" fill="none" r="1.1" stroke="black" stroke-width="0.12941833673999997" transform="scale(7.726880326154934,-7.726880326154934)" /><circle cx="203.194" cy="-102.63" fill="none" r="1.1" stroke="black" stroke-width="0.12941833673999997" transform="scale(7.726880326154934,-7.726880326154934)" /><line stroke="black" stroke-width="0.12941833673999997" transform="scale(7.726880326154934,-7.726880326154934)" x1="185.083" x2="185.083" y1="-46.625222" y2="-95.5447681" /><line stroke="black" stroke-width="0.12941833673999997" transform="scale(7.726880326154934,-7.726880326154934)" x1="185.333" x2="205.0539003" y1="-95.9777808" y2="-107.3636479" /><circle cx="184.583" cy="-46.625222" fill="none" r="0.5" stroke="black" stroke-width="0.12941833673999997" transform="scale(7.726880326154934,-7.726880326154934)" /><circle cx="185.583" cy="-95.5447681" fill="none" r="0.5" stroke="black" stroke-width="0.12941833673999997" transform="scale(7.726880326154934,-7.726880326154934)" /><circle cx="204.8039003" cy="-107.7966606" fill="none" r="0.5" stroke="black" stroke-width="0.12941833673999997" transform="scale(7.726880326154934,-7.726880326154934)" /><line stroke="black" stroke-width="0.12941833673999997" transform="scale(7.726880326154934,-7.726880326154934)" x1="93.0" x2="107.0" y1="-107.0" y2="-107.0" /><line stroke="black" stroke-width="0.12941833673999997" transform="scale(7.726880326154934,-7.726880326154934)" x1="107.0" x2="107.0" y1="-107.0" y2="-93.0" /><line stroke="black" stroke-width="0.12941833673999997" transform="scale(7.726880326154934,-7.726880326154934)" x1="107.0" x2="93.0" y1="-93.0" y2="-93.0" /><line stroke="black" stroke-width="0.12941833673999997" transform="scale(7.726880326154934,-7.726880326154934)" x1="93.0" x2="93.0" y1="-93.0" y2="-107.0" /><line stroke="black" stroke-width="0.12941833673999997" transform="scale(7.726880326154934,-7.726880326154934)" x1="93.0" x2="107.0" y1="-88.0" y2="-88.0" /><line stroke="black" stroke-width="0.12941833673999997" transform="scale(7.726880326154934,-7.726880326154934)" x1="107.0" x2="107.0" y1="-88.0" y2="-74.0" /><line stroke="black" stroke-width="0.12941833673999997" transform="scale(7.726880326154934,-7.726880326154934)" x1="107.0" x2="93.0" y1="-74.0" y2="-74.0" /><line stroke="black" stroke-width="0.12941833673999997" transform="scale(7.726880326154934,-7.726880326154934)" x1="93.0" x2="93.0" y1="-74.0" y2="-88.0" /><line stroke="black" stroke-width="0.12941833673999997" transform="scale(7.726880326154934,-7.726880326154934)" x1="93.0" x2="107.0" y1="-69.0" y2="-69.0" /><line stroke="black" stroke-width="0.12941833673999997" transform="scale(7.726880326154934,-7.726880326154934)" x1="107.0" x2="107.0" y1="-69.0" y2="-55.0" /><line stroke="black" stroke-width="0.12941833673999997" transform="scale(7.726880326154934,-7.726880326154934)" x1="107.0" x2="93.0" y1="-55.0" y2="-55.0" /><line stroke="black" stroke-width="0.12941833673999997" transform="scale(7.726880326154934,-7.726880326154934)" x1="93.0" x2="93.0" y1="-55.0" y2="-69.0" /><line stroke="black" stroke-width="0.12941833673999997" transform="scale(7.726880326154934,-7.726880326154934)" x1="112.0" x2="126.0" y1="-95.03" y2="-95.03" /><line stroke="black" stroke-width="0.12941833673999997" transform="scale(7.726880326154934,-7.726880326154934)" x1="126.0" x2="126.0" y1="-95.03" y2="-81.03" /><line stroke="black" stroke-width="0.12941833673999997" transform="scale(7.726880326154934,-7.726880326154934)" x1="126.0" x2="112.0" y1="-81.03" y2="-81.03" /><line stroke="black" stroke-width="0.12941833673999997" transform="scale(7.726880326154934,-7.726880326154934)" x1="112.0" x2="112.0" y1="-81.03" y2="-95.03" /><line stroke="black" stroke-width="0.12941833673999997" transform="scale(7.726880326154934,-7.726880326154934)" x1="112.0" x2="126.0" y1="-76.03" y2="-76.03" /><line stroke="black" stroke-width="0.12941833673999997" transform="scale(7.726880326154934,-7.726880326154934)" x1="126.0" x2="126.0" y1="-76.03" y2="-62.03" /><line stroke="black" stroke-width="0.12941833673999997" transform="scale(7.726880326154934,-7.726880326154934)" x1="126.0" x2="112.0" y1="-62.03" y2="-62.03" /><line stroke="black" stroke-width="0.12941833673999997" transform="scale(7.726880326154934,-7.726880326154934)" x1="112.0" x2="112.0" y1="-62.03" y2="-76.03" /><line stroke="black" stroke-width="0.12941833673999997" transform="scale(7.726880326154934,-7.726880326154934)" x1="112.0" x2="126.0" y1="-57.03" y2="-57.03" /><line stroke="black" stroke-width="0.12941833673999997" transform="scale(7.726880326154934,-7.726880326154934)" x1="126.0" x2="126.0" y1="-57.03" y2="-43.03" /><line stroke="black" stroke-width="0.12941833673999997" transform="scale(7.726880326154934,-7.726880326154934)" x1="126.0" x2="112.0" y1="-43.03" y2="-43.03" /><line stroke="black" stroke-width="0.12941833673999997" transform="scale(7.726880326154934,-7.726880326154934)" x1="112.0" x2="112.0" y1="-43.03" y2="-57.03" /><line stroke="black" stroke-width="0.12941833673999997" transform="scale(7.726880326154934,-7.726880326154934)" x1="131.0" x2="145.0" y1="-90.09" y2="-90.09" /><line stroke="black" stroke-width="0.12941833673999997" transform="scale(7.726880326154934,-7.726880326154934)" x1="145.0" x2="145.0" y1="-90.09" y2="-76.09" /><line stroke="black" stroke-width="0.12941833673999997" transform="scale(7.726880326154934,-7.726880326154934)" x1="145.0" x2="131.0" y1="-76.09" y2="-76.09" /><line stroke="black" stroke-width="0.12941833673999997" transform="scale(7.726880326154934,-7.726880326154934)" x1="131.0" x2="131.0" y1="-76.09" y2="-90.09" /><line stroke="black" stroke-width="0.12941833673999997" transform="scale(7.726880326154934,-7.726880326154934)" x1="131.0" x2="145.0" y1="-71.09" y2="-71.09" /><line stroke="black" stroke-width="0.12941833673999997" transform="scale(7.726880326154934,-7.726880326154934)" x1="145.0" x2="145.0" y1="-71.09" y2="-57.09" /><line stroke="black" stroke-width="0.12941833673999997" transform="scale(7.726880326154934,-7.726880326154934)" x1="145.0" x2="131.0" y1="-57.09" y2="-57.09" /><line stroke="black" stroke-width="0.12941833673999997" transform="scale(7.726880326154934,-7.726880326154934)" x1="131.0" x2="131.0" y1="-57.09" y2="-71.09" /><line stroke="black" stroke-width="0.12941833673999997" transform="scale(7.726880326154934,-7.726880326154934)" x1="131.0" x2="145.0" y1="-52.09" y2="-52.09" /><line stroke="black" stroke-width="0.12941833673999997" transform="scale(7.726880326154934,-7.726880326154934)" x1="145.0" x2="145.0" y1="-52.09" y2="-38.09" /><line stroke="black" stroke-width="0.12941833673999997" transform="scale(7.726880326154934,-7.726880326154934)" x1="145.0" x2="131.0" y1="-38.09" y2="-38.09" /><line stroke="black" stroke-width="0.12941833673999997" transform="scale(7.726880326154934,-7.726880326154934)" x1="131.0" x2="131.0" y1="-38.09" y2="-52.09" /><line stroke="black" stroke-width="0.12941833673999997" transform="scale(7.726880326154934,-7.726880326154934)" x1="150.0" x2="164.0" y1="-96.17" y2="-96.17" /><line stroke="black" stroke-width="0.12941833673999997" transform="scale(7.726880326154934,-7.726880326154934)" x1="164.0" x2="164.0" y1="-96.17" y2="-82.17" /><line stroke="black" stroke-width="0.12941833673999997" transform="scale(7.726880326154934,-7.726880326154934)" x1="164.0" x2="150.0" y1="-82.17" y2="-82.17" /><line stroke="black" stroke-width="0.12941833673999997" transform="scale(7.726880326154934,-7.726880326154934)" x1="150.0" x2="150.0" y1="-82.17" y2="-96.17" /><line stroke="black" stroke-width="0.12941833673999997" transform="scale(7.726880326154934,-7.726880326154934)" x1="150.0" x2="164.0" y1="-77.17" y2="-77.17" /><line stroke="black" stroke-width="0.12941833673999997" transform="scale(7.726880326154934,-7.726880326154934)" x1="164.0" x2="164.0" y1="-77.17" y2="-63.17" /><line stroke="black" stroke-width="0.12941833673999997" transform="scale(7.726880326154934,-7.726880326154934)" x1="164.0" x2="150.0" y1="-63.17" y2="-63.17" /><line stroke="black" stroke-width="0.12941833673999997" transform="scale(7.726880326154934,-7.726880326154934)" x1="150.0" x2="150.0" y1="-63.17" y2="-77.17" /><line stroke="black" stroke-width="0.12941833673999997" transform="scale(7.726880326154934,-7.726880326154934)" x1="150.0" x2="164.0" y1="-58.17" y2="-58.17" /><line stroke="black" stroke-width="0.12941833673999997" transform="scale(7.726880326154934,-7.726880326154934)" x1="164.0" x2="164.0" y1="-58.17" y2="-44.17" /><line stroke="black" stroke-width="0.12941833673999997" transform="scale(7.726880326154934,-7.726880326154934)" x1="164.0" x2="150.0" y1="-44.17" y2="-44.17" /><line stroke="black" stroke-width="0.12941833673999997" transform="scale(7.726880326154934,-7.726880326154934)" x1="150.0" x2="150.0" y1="-44.17" y2="-58.17" /><line stroke="black" stroke-width="0.12941833673999997" transform="scale(7.726880326154934,-7.726880326154934)" x1="169.0" x2="183.0" y1="-98.26" y2="-98.26" /><line stroke="black" stroke-width="0.12941833673999997" transform="scale(7.726880326154934,-7.726880326154934)" x1="183.0" x2="183.0" y1="-98.26" y2="-84.26" /><line stroke="black" stroke-width="0.12941833673999997" transform="scale(7.726880326154934,-7.726880326154934)" x1="183.0" x2="169.0" y1="-84.26" y2="-84.26" /><line stroke="black" stroke-width="0.12941833673999997" transform="scale(7.726880326154934,-7.726880326154934)" x1="169.0" x2="169.0" y1="-84.26" y2="-98.26" /><line stroke="black" stroke-width="0.12941833673999997" transform="scale(7.726880326154934,-7.726880326154934)" x1="169.0" x2="183.0" y1="-79.26" y2="-79.26" /><line stroke="black" stroke-width="0.12941833673999997" transform="scale(7.726880326154934,-7.726880326154934)" x1="183.0" x2="183.0" y1="-79.26" y2="-65.26" /><line stroke="black" stroke-width="0.12941833673999997" transform="scale(7.726880326154934,-7.726880326154934)" x1="183.0" x2="169.0" y1="-65.26" y2="-65.26" /><line stroke="black" stroke-width="0.12941833673999997" transform="scale(7.726880326154934,-7.726880326154934)" x1="169.0" x2="169.0" y1="-65.26" y2="-79.26" /><line stroke="black" stroke-width="0.12941833673999997" transform="scale(7.726880326154934,-7.726880326154934)" x1="169.0" x2="183.0" y1="-60.26" y2="-60.26" /><line stroke="black" stroke-width="0.12941833673999997" transform="scale(7.726880326154934,-7.726880326154934)" x1="183.0" x2="183.0" y1="-60.26" y2="-46.26" /><line stroke="black" stroke-width="0.12941833673999997" transform="scale(7.726880326154934,-7.726880326154934)" x1="183.0" x2="169.0" y1="-46.26" y2="-46.26" /><line stroke="black" stroke-width="0.12941833673999997" transform="scale(7.726880326154934,-7.726880326154934)" x1="169.0" x2="169.0" y1="-46.26" y2="-60.26" /><line stroke="black" stroke-width="0.12941833673999997" transform="scale(7.726880326154934,-7.726880326154934)" x1="140.5" x2="154.5" y1="-112.09" y2="-112.09" /><line stroke="black" stroke-width="0.12941833673999997" transform="scale(7.726880326154934,-7.726880326154934)" x1="154.5" x2="154.5" y1="-112.09" y2="-98.09" /><line stroke="black" stroke-width="0.12941833673999997" transform="scale(7.726880326154934,-7.726880326154934)" x1="154.5" x2="140.5" y1="-98.09" y2="-98.09" /><line stroke="black" stroke-width="0.12941833673999997" transform="scale(7.726880326154934,-7.726880326154934)" x1="140.5" x2="140.5" y1="-98.09" y2="-112.09" /><line stroke="black" stroke-width="0.12941833673999997" transform="scale(7.726880326154934,-7.726880326154934)" x1="159.9267859" x2="173.4497475" y1="-112.7897475" y2="-116.4132141" /><line stroke="black" stroke-width="0.12941833673999997" transform="scale(7.726880326154934,-7.726880326154934)" x1="173.4497475" x2="177.0732141" y1="-116.4132141" y2="-102.8902525" /><line stroke="black" stroke-width="0.12941833673999997" transform="scale(7.726880326154934,-7.726880326154934)" x1="177.0732141" x2="163.5502525" y1="-102.8902525" y2="-99.2667859" /><line stroke="black" stroke-width="0.12941833673999997" transform="scale(7.726880326154934,-7.726880326154934)" x1="163.5502525" x2="159.9267859" y1="-99.2667859" y2="-112.7897475" /><line stroke="black" stroke-width="0.12941833673999997" transform="scale(7.726880326154934,-7.726880326154934)" x1="193.3089836" x2="200.3089836" y1="-121.1663354" y2="-109.0419798" /><line stroke="black" stroke-width="0.12941833673999997" transform="scale(7.726880326154934,-7.726880326154934)" x1="200.3089836" x2="188.184628" y1="-109.0419798" y2="-102.0419798" /><line stroke="black" stroke-width="0.12941833673999997" transform="scale(7.726880326154934,-7.726880326154934)" x1="188.184628" x2="181.184628" y1="-102.0419798" y2="-114.1663354" /><line stroke="black" stroke-width="0.12941833673999997" transform="scale(7.726880326154934,-7.726880326154934)" x1="181.184628" x2="193.3089836" y1="-114.1663354" y2="-121.1663354" /><line stroke="black" stroke-width="0.12941833673999997" transform="scale(7.726880326154934,-7.726880326154934)" x1="186.113" x2="186.113" y1="-95.4119776" y2="-47.125" /><line stroke="black" stroke-width="0.12941833673999997" transform="scale(7.726880326154934,-7.726880326154934)" x1="205.083" x2="186.363" y1="-106.6529873" y2="-95.8449903" /><circle cx="186.613" cy="-47.125" fill="none" r="0.5" stroke="black" stroke-width="0.12941833673999997" transform="scale(7.726880326154934,-7.726880326154934)" /><circle cx="205.333" cy="-106.2199746" fill="none" r="0.5" stroke="black" stroke-width="0.12941833673999997" transform="scale(7.726880326154934,-7.726880326154934)" /><circle cx="186.613" cy="-95.4119776" fill="none" r="0.5" stroke="black" stroke-width="0.12941833673999997" transform="scale(7.726880326154934,-7.726880326154934)" /><line stroke="black" stroke-width="0.12941833673999997" transform="scale(7.726880326154934,-7.726880326154934)" x1="93.0" x2="107.0" y1="-109.0" y2="-109.0" /><line stroke="black" stroke-width="0.12941833673999997" transform="scale(7.726880326154934,-7.726880326154934)" x1="109.0" x2="109.0" y1="-107.0" y2="-93.0" /><line stroke="black" stroke-width="0.12941833673999997" transform="scale(7.726880326154934,-7.726880326154934)" x1="107.0" x2="93.0" y1="-91.0" y2="-91.0" /><line stroke="black" stroke-width="0.12941833673999997" transform="scale(7.726880326154934,-7.726880326154934)" x1="91.0" x2="91.0" y1="-93.0" y2="-107.0" /><line stroke="black" stroke-width="0.12941833673999997" transform="scale(7.726880326154934,-7.726880326154934)" x1="93.0" x2="107.0" y1="-90.0" y2="-90.0" /><line stroke="black" stroke-width="0.12941833673999997" transform="scale(7.726880326154934,-7.726880326154934)" x1="109.0" x2="109.0" y1="-88.0" y2="-74.0" /><line stroke="black" stroke-width="0.12941833673999997" transform="scale(7.726880326154934,-7.726880326154934)" x1="107.0" x2="93.0" y1="-72.0" y2="-72.0" /><line stroke="black" stroke-width="0.12941833673999997" transform="scale(7.726880326154934,-7.726880326154934)" x1="91.0" x2="91.0" y1="-74.0" y2="-88.0" /><line stroke="black" stroke-width="0.12941833673999997" transform="scale(7.726880326154934,-7.726880326154934)" x1="93.0" x2="107.0" y1="-71.0" y2="-71.0" /><line stroke="black" stroke-width="0.12941833673999997" transform="scale(7.726880326154934,-7.726880326154934)" x1="109.0" x2="109.0" y1="-69.0" y2="-55.0" /><line stroke="black" stroke-width="0.12941833673999997" transform="scale(7.726880326154934,-7.726880326154934)" x1="107.0" x2="93.0" y1="-53.0" y2="-53.0" /><line stroke="black" stroke-width="0.12941833673999997" transform="scale(7.726880326154934,-7.726880326154934)" x1="91.0" x2="91.0" y1="-55.0" y2="-69.0" /><line stroke="black" stroke-width="0.12941833673999997" transform="scale(7.726880326154934,-7.726880326154934)" x1="112.0" x2="126.0" y1="-97.03" y2="-97.03" /><line stroke="black" stroke-width="0.12941833673999997" transform="scale(7.726880326154934,-7.726880326154934)" x1="128.0" x2="128.0" y1="-95.03" y2="-81.03" /><line stroke="black" stroke-width="0.12941833673999997" transform="scale(7.726880326154934,-7.726880326154934)" x1="126.0" x2="112.0" y1="-79.03" y2="-79.03" /><line stroke="black" stroke-width="0.12941833673999997" transform="scale(7.726880326154934,-7.726880326154934)" x1="110.0" x2="110.0" y1="-81.03" y2="-95.03" /><line stroke="black" stroke-width="0.12941833673999997" transform="scale(7.726880326154934,-7.726880326154934)" x1="112.0" x2="126.0" y1="-78.03" y2="-78.03" /><line stroke="black" stroke-width="0.12941833673999997" transform="scale(7.726880326154934,-7.726880326154934)" x1="128.0" x2="128.0" y1="-76.03" y2="-62.03" /><line stroke="black" stroke-width="0.12941833673999997" transform="scale(7.726880326154934,-7.726880326154934)" x1="126.0" x2="112.0" y1="-60.03" y2="-60.03" /><line stroke="black" stroke-width="0.12941833673999997" transform="scale(7.726880326154934,-7.726880326154934)" x1="110.0" x2="110.0" y1="-62.03" y2="-76.03" /><line stroke="black" stroke-width="0.12941833673999997" transform="scale(7.726880326154934,-7.726880326154934)" x1="112.0" x2="126.0" y1="-59.03" y2="-59.03" /><line stroke="black" stroke-width="0.12941833673999997" transform="scale(7.726880326154934,-7.726880326154934)" x1="128.0" x2="128.0" y1="-57.03" y2="-43.03" /><line stroke="black" stroke-width="0.12941833673999997" transform="scale(7.726880326154934,-7.726880326154934)" x1="126.0" x2="112.0" y1="-41.03" y2="-41.03" /><line stroke="black" stroke-width="0.12941833673999997" transform="scale(7.726880326154934,-7.726880326154934)" x1="110.0" x2="110.0" y1="-43.03" y2="-57.03" /><line stroke="black" stroke-width="0.12941833673999997" transform="scale(7.726880326154934,-7.726880326154934)" x1="131.0" x2="145.0" y1="-92.09" y2="-92.09" /><line stroke="black" stroke-width="0.12941833673999997" transform="scale(7.726880326154934,-7.726880326154934)" x1="147.0" x2="147.0" y1="-90.09" y2="-76.09" /><line stroke="black" stroke-width="0.12941833673999997" transform="scale(7.726880326154934,-7.726880326154934)" x1="145.0" x2="131.0" y1="-74.09" y2="-74.09" /><line stroke="black" stroke-width="0.12941833673999997" transform="scale(7.726880326154934,-7.726880326154934)" x1="129.0" x2="129.0" y1="-76.09" y2="-90.09" /><line stroke="black" stroke-width="0.12941833673999997" transform="scale(7.726880326154934,-7.726880326154934)" x1="131.0" x2="145.0" y1="-73.09" y2="-73.09" /><line stroke="black" stroke-width="0.12941833673999997" transform="scale(7.726880326154934,-7.726880326154934)" x1="147.0" x2="147.0" y1="-71.09" y2="-57.09" /><line stroke="black" stroke-width="0.12941833673999997" transform="scale(7.726880326154934,-7.726880326154934)" x1="145.0" x2="131.0" y1="-55.09" y2="-55.09" /><line stroke="black" stroke-width="0.12941833673999997" transform="scale(7.726880326154934,-7.726880326154934)" x1="129.0" x2="129.0" y1="-57.09" y2="-71.09" /><line stroke="black" stroke-width="0.12941833673999997" transform="scale(7.726880326154934,-7.726880326154934)" x1="131.0" x2="145.0" y1="-54.09" y2="-54.09" /><line stroke="black" stroke-width="0.12941833673999997" transform="scale(7.726880326154934,-7.726880326154934)" x1="147.0" x2="147.0" y1="-52.09" y2="-38.09" /><line stroke="black" stroke-width="0.12941833673999997" transform="scale(7.726880326154934,-7.726880326154934)" x1="145.0" x2="131.0" y1="-36.09" y2="-36.09" /><line stroke="black" stroke-width="0.12941833673999997" transform="scale(7.726880326154934,-7.726880326154934)" x1="129.0" x2="129.0" y1="-38.09" y2="-52.09" /><line stroke="black" stroke-width="0.12941833673999997" transform="scale(7.726880326154934,-7.726880326154934)" x1="158.5" x2="159.1671323" y1="-98.17" y2="-98.17" /><line stroke="black" stroke-width="0.12941833673999997" transform="scale(7.726880326154934,-7.726880326154934)" x1="166.0" x2="166.0" y1="-97.8526414" y2="-82.17" /><line stroke="black" stroke-width="0.12941833673999997" transform="scale(7.726880326154934,-7.726880326154934)" x1="164.0" x2="150.0" y1="-80.17" y2="-80.17" /><line stroke="black" stroke-width="0.12941833673999997" transform="scale(7.726880326154934,-7.726880326154934)" x1="148.0" x2="148.0" y1="-82.17" y2="-94.09" /><line stroke="black" stroke-width="0.12941833673999997" transform="scale(7.726880326154934,-7.726880326154934)" x1="150.0" x2="164.0" y1="-79.17" y2="-79.17" /><line stroke="black" stroke-width="0.12941833673999997" transform="scale(7.726880326154934,-7.726880326154934)" x1="166.0" x2="166.0" y1="-77.17" y2="-63.17" /><line stroke="black" stroke-width="0.12941833673999997" transform="scale(7.726880326154934,-7.726880326154934)" x1="164.0" x2="150.0" y1="-61.17" y2="-61.17" /><line stroke="black" stroke-width="0.12941833673999997" transform="scale(7.726880326154934,-7.726880326154934)" x1="148.0" x2="148.0" y1="-63.17" y2="-77.17" /><line stroke="black" stroke-width="0.12941833673999997" transform="scale(7.726880326154934,-7.726880326154934)" x1="150.0" x2="164.0" y1="-60.17" y2="-60.17" /><line stroke="black" stroke-width="0.12941833673999997" transform="scale(7.726880326154934,-7.726880326154934)" x1="166.0" x2="166.0" y1="-58.17" y2="-44.17" /><line stroke="black" stroke-width="0.12941833673999997" transform="scale(7.726880326154934,-7.726880326154934)" x1="164.0" x2="150.0" y1="-42.17" y2="-42.17" /><line stroke="black" stroke-width="0.12941833673999997" transform="scale(7.726880326154934,-7.726880326154934)" x1="148.0" x2="148.0" y1="-44.17" y2="-58.17" /><line stroke="black" stroke-width="0.12941833673999997" transform="scale(7.726880326154934,-7.726880326154934)" x1="174.9843845" x2="183.0" y1="-100.26" y2="-100.26" /><line stroke="black" stroke-width="0.12941833673999997" transform="scale(7.726880326154934,-7.726880326154934)" x1="185.0" x2="185.0" y1="-98.26" y2="-84.26" /><line stroke="black" stroke-width="0.12941833673999997" transform="scale(7.726880326154934,-7.726880326154934)" x1="183.0" x2="169.0" y1="-82.26" y2="-82.26" /><line stroke="black" stroke-width="0.12941833673999997" transform="scale(7.726880326154934,-7.726880326154934)" x1="167.0" x2="167.0" y1="-84.26" y2="-98.1205906" /><line stroke="black" stroke-width="0.12941833673999997" transform="scale(7.726880326154934,-7.726880326154934)" x1="169.0" x2="183.0" y1="-81.26" y2="-81.26" /><line stroke="black" stroke-width="0.12941833673999997" transform="scale(7.726880326154934,-7.726880326154934)" x1="185.0" x2="185.0" y1="-79.26" y2="-65.26" /><line stroke="black" stroke-width="0.12941833673999997" transform="scale(7.726880326154934,-7.726880326154934)" x1="183.0" x2="169.0" y1="-63.26" y2="-63.26" /><line stroke="black" stroke-width="0.12941833673999997" transform="scale(7.726880326154934,-7.726880326154934)" x1="167.0" x2="167.0" y1="-65.26" y2="-79.26" /><line stroke="black" stroke-width="0.12941833673999997" transform="scale(7.726880326154934,-7.726880326154934)" x1="169.0" x2="183.0" y1="-62.26" y2="-62.26" /><line stroke="black" stroke-width="0.12941833673999997" transform="scale(7.726880326154934,-7.726880326154934)" x1="185.0" x2="185.0" y1="-60.26" y2="-46.26" /><line stroke="black" stroke-width="0.12941833673999997" transform="scale(7.726880326154934,-7.726880326154934)" x1="183.0" x2="169.0" y1="-44.26" y2="-44.26" /><line stroke="black" stroke-width="0.12941833673999997" transform="scale(7.726880326154934,-7.726880326154934)" x1="167.0" x2="167.0" y1="-46.26" y2="-60.26" /><line stroke="black" stroke-width="0.12941833673999997" transform="scale(7.726880326154934,-7.726880326154934)" x1="140.5" x2="154.5" y1="-114.09" y2="-114.09" /><line stroke="black" stroke-width="0.12941833673999997" transform="scale(7.726880326154934,-7.726880326154934)" x1="156.5" x2="156.5" y1="-112.09" y2="-100.17" /><line stroke="black" stroke-width="0.12941833673999997" transform="scale(7.726880326154934,-7.726880326154934)" x1="146.0" x2="140.5" y1="-96.09" y2="-96.09" /><line stroke="black" stroke-width="0.12941833673999997" transform="scale(7.726880326154934,-7.726880326154934)" x1="138.5" x2="138.5" y1="-98.09" y2="-112.09" /><line stroke="black" stroke-width="0.12941833673999997" transform="scale(7.726880326154934,-7.726880326154934)" x1="159.409148" x2="172.9321094" y1="-114.7215991" y2="-118.3450657" /><line stroke="black" stroke-width="0.12941833673999997" transform="scale(7.726880326154934,-7.726880326154934)" x1="175.3815991" x2="179.0050657" y1="-116.930852" y2="-103.4078906" /><line stroke="black" stroke-width="0.12941833673999997" transform="scale(7.726880326154934,-7.726880326154934)" x1="177.590852" x2="174.9843845" y1="-100.9584009" y2="-100.26" /><line stroke="black" stroke-width="0.12941833673999997" transform="scale(7.726880326154934,-7.726880326154934)" x1="167.0" x2="166.0" y1="-98.1205906" y2="-97.8526414" /><line stroke="black" stroke-width="0.12941833673999997" transform="scale(7.726880326154934,-7.726880326154934)" x1="161.098984" x2="157.9949343" y1="-100.687638" y2="-112.2721094" /><line stroke="black" stroke-width="0.12941833673999997" transform="scale(7.726880326154934,-7.726880326154934)" x1="192.7910344" x2="204.2910344" y1="-126.0634498" y2="-106.1448654" /><line stroke="black" stroke-width="0.12941833673999997" transform="scale(7.726880326154934,-7.726880326154934)" x1="177.2025772" x2="188.7025772" y1="-117.0634498" y2="-97.1448654" /><circle cx="159.1671323" cy="-100.17" fill="none" r="2.0" stroke="black" stroke-width="0.12941833673999997" transform="scale(7.726880326154934,-7.726880326154934)" /><circle cx="159.926786" cy="-112.7897474" fill="none" r="2.0" stroke="black" stroke-width="0.12941833673999997" transform="scale(7.726880326154934,-7.726880326154934)" /><circle cx="173.4497474" cy="-116.413214" fill="none" r="2.0" stroke="black" stroke-width="0.12941833673999997" transform="scale(7.726880326154934,-7.726880326154934)" /><circle cx="177.073214" cy="-102.8902526" fill="none" r="2.0" stroke="black" stroke-width="0.12941833673999997" transform="scale(7.726880326154934,-7.726880326154934)" /><circle cx="183.0" cy="-98.26" fill="none" r="2.0" stroke="black" stroke-width="0.12941833673999997" transform="scale(7.726880326154934,-7.726880326154934)" /><circle cx="183.0" cy="-84.26" fill="none" r="2.0" stroke="black" stroke-width="0.12941833673999997" transform="scale(7.726880326154934,-7.726880326154934)" /><circle cx="169.0" cy="-84.26" fill="none" r="2.0" stroke="black" stroke-width="0.12941833673999997" transform="scale(7.726880326154934,-7.726880326154934)" /><circle cx="164.0" cy="-82.17" fill="none" r="2.0" stroke="black" stroke-width="0.12941833673999997" transform="scale(7.726880326154934,-7.726880326154934)" /><circle cx="150.0" cy="-82.17" fill="none" r="2.0" stroke="black" stroke-width="0.12941833673999997" transform="scale(7.726880326154934,-7.726880326154934)" /><circle cx="146.0" cy="-94.09" fill="none" r="2.0" stroke="black" stroke-width="0.12941833673999997" transform="scale(7.726880326154934,-7.726880326154934)" /><circle cx="140.5" cy="-98.09" fill="none" r="2.0" stroke="black" stroke-width="0.12941833673999997" transform="scale(7.726880326154934,-7.726880326154934)" /><circle cx="140.5" cy="-112.09" fill="none" r="2.0" stroke="black" stroke-width="0.12941833673999997" transform="scale(7.726880326154934,-7.726880326154934)" /><circle cx="154.5" cy="-112.09" fill="none" r="2.0" stroke="black" stroke-width="0.12941833673999997" transform="scale(7.726880326154934,-7.726880326154934)" /><circle cx="158.5" cy="-100.17" fill="none" r="2.0" stroke="black" stroke-width="0.12941833673999997" transform="scale(7.726880326154934,-7.726880326154934)" /><circle cx="107.0" cy="-107.0" fill="none" r="2.0" stroke="black" stroke-width="0.12941833673999997" transform="scale(7.726880326154934,-7.726880326154934)" /><circle cx="107.0" cy="-93.0" fill="none" r="2.0" stroke="black" stroke-width="0.12941833673999997" transform="scale(7.726880326154934,-7.726880326154934)" /><circle cx="93.0" cy="-93.0" fill="none" r="2.0" stroke="black" stroke-width="0.12941833673999997" transform="scale(7.726880326154934,-7.726880326154934)" /><circle cx="93.0" cy="-107.0" fill="none" r="2.0" stroke="black" stroke-width="0.12941833673999997" transform="scale(7.726880326154934,-7.726880326154934)" /><circle cx="107.0" cy="-88.0" fill="none" r="2.0" stroke="black" stroke-width="0.12941833673999997" transform="scale(7.726880326154934,-7.726880326154934)" /><circle cx="107.0" cy="-74.0" fill="none" r="2.0" stroke="black" stroke-width="0.12941833673999997" transform="scale(7.726880326154934,-7.726880326154934)" /><circle cx="93.0" cy="-74.0" fill="none" r="2.0" stroke="black" stroke-width="0.12941833673999997" transform="scale(7.726880326154934,-7.726880326154934)" /><circle cx="93.0" cy="-88.0" fill="none" r="2.0" stroke="black" stroke-width="0.12941833673999997" transform="scale(7.726880326154934,-7.726880326154934)" /><circle cx="107.0" cy="-69.0" fill="none" r="2.0" stroke="black" stroke-width="0.12941833673999997" transform="scale(7.726880326154934,-7.726880326154934)" /><circle cx="107.0" cy="-55.0" fill="none" r="2.0" stroke="black" stroke-width="0.12941833673999997" transform="scale(7.726880326154934,-7.726880326154934)" /><circle cx="93.0" cy="-55.0" fill="none" r="2.0" stroke="black" stroke-width="0.12941833673999997" transform="scale(7.726880326154934,-7.726880326154934)" /><circle cx="93.0" cy="-69.0" fill="none" r="2.0" stroke="black" stroke-width="0.12941833673999997" transform="scale(7.726880326154934,-7.726880326154934)" /><circle cx="126.0" cy="-95.03" fill="none" r="2.0" stroke="black" stroke-width="0.12941833673999997" transform="scale(7.726880326154934,-7.726880326154934)" /><circle cx="126.0" cy="-81.03" fill="none" r="2.0" stroke="black" stroke-width="0.12941833673999997" transform="scale(7.726880326154934,-7.726880326154934)" /><circle cx="112.0" cy="-81.03" fill="none" r="2.0" stroke="black" stroke-width="0.12941833673999997" transform="scale(7.726880326154934,-7.726880326154934)" /><circle cx="112.0" cy="-95.03" fill="none" r="2.0" stroke="black" stroke-width="0.12941833673999997" transform="scale(7.726880326154934,-7.726880326154934)" /><circle cx="126.0" cy="-76.03" fill="none" r="2.0" stroke="black" stroke-width="0.12941833673999997" transform="scale(7.726880326154934,-7.726880326154934)" /><circle cx="126.0" cy="-62.03" fill="none" r="2.0" stroke="black" stroke-width="0.12941833673999997" transform="scale(7.726880326154934,-7.726880326154934)" /><circle cx="112.0" cy="-62.03" fill="none" r="2.0" stroke="black" stroke-width="0.12941833673999997" transform="scale(7.726880326154934,-7.726880326154934)" /><circle cx="112.0" cy="-76.03" fill="none" r="2.0" stroke="black" stroke-width="0.12941833673999997" transform="scale(7.726880326154934,-7.726880326154934)" /><circle cx="126.0" cy="-57.03" fill="none" r="2.0" stroke="black" stroke-width="0.12941833673999997" transform="scale(7.726880326154934,-7.726880326154934)" /><circle cx="126.0" cy="-43.03" fill="none" r="2.0" stroke="black" stroke-width="0.12941833673999997" transform="scale(7.726880326154934,-7.726880326154934)" /><circle cx="112.0" cy="-43.03" fill="none" r="2.0" stroke="black" stroke-width="0.12941833673999997" transform="scale(7.726880326154934,-7.726880326154934)" /><circle cx="112.0" cy="-57.03" fill="none" r="2.0" stroke="black" stroke-width="0.12941833673999997" transform="scale(7.726880326154934,-7.726880326154934)" /><circle cx="145.0" cy="-90.09" fill="none" r="2.0" stroke="black" stroke-width="0.12941833673999997" transform="scale(7.726880326154934,-7.726880326154934)" /><circle cx="145.0" cy="-76.09" fill="none" r="2.0" stroke="black" stroke-width="0.12941833673999997" transform="scale(7.726880326154934,-7.726880326154934)" /><circle cx="131.0" cy="-76.09" fill="none" r="2.0" stroke="black" stroke-width="0.12941833673999997" transform="scale(7.726880326154934,-7.726880326154934)" /><circle cx="131.0" cy="-90.09" fill="none" r="2.0" stroke="black" stroke-width="0.12941833673999997" transform="scale(7.726880326154934,-7.726880326154934)" /><circle cx="145.0" cy="-71.09" fill="none" r="2.0" stroke="black" stroke-width="0.12941833673999997" transform="scale(7.726880326154934,-7.726880326154934)" /><circle cx="145.0" cy="-57.09" fill="none" r="2.0" stroke="black" stroke-width="0.12941833673999997" transform="scale(7.726880326154934,-7.726880326154934)" /><circle cx="131.0" cy="-57.09" fill="none" r="2.0" stroke="black" stroke-width="0.12941833673999997" transform="scale(7.726880326154934,-7.726880326154934)" /><circle cx="131.0" cy="-71.09" fill="none" r="2.0" stroke="black" stroke-width="0.12941833673999997" transform="scale(7.726880326154934,-7.726880326154934)" /><circle cx="145.0" cy="-52.09" fill="none" r="2.0" stroke="black" stroke-width="0.12941833673999997" transform="scale(7.726880326154934,-7.726880326154934)" /><circle cx="145.0" cy="-38.09" fill="none" r="2.0" stroke="black" stroke-width="0.12941833673999997" transform="scale(7.726880326154934,-7.726880326154934)" /><circle cx="131.0" cy="-38.09" fill="none" r="2.0" stroke="black" stroke-width="0.12941833673999997" transform="scale(7.726880326154934,-7.726880326154934)" /><circle cx="131.0" cy="-52.09" fill="none" r="2.0" stroke="black" stroke-width="0.12941833673999997" transform="scale(7.726880326154934,-7.726880326154934)" /><circle cx="164.0" cy="-77.17" fill="none" r="2.0" stroke="black" stroke-width="0.12941833673999997" transform="scale(7.726880326154934,-7.726880326154934)" /><circle cx="164.0" cy="-63.17" fill="none" r="2.0" stroke="black" stroke-width="0.12941833673999997" transform="scale(7.726880326154934,-7.726880326154934)" /><circle cx="150.0" cy="-63.17" fill="none" r="2.0" stroke="black" stroke-width="0.12941833673999997" transform="scale(7.726880326154934,-7.726880326154934)" /><circle cx="150.0" cy="-77.17" fill="none" r="2.0" stroke="black" stroke-width="0.12941833673999997" transform="scale(7.726880326154934,-7.726880326154934)" /><circle cx="164.0" cy="-58.17" fill="none" r="2.0" stroke="black" stroke-width="0.12941833673999997" transform="scale(7.726880326154934,-7.726880326154934)" /><circle cx="164.0" cy="-44.17" fill="none" r="2.0" stroke="black" stroke-width="0.12941833673999997" transform="scale(7.726880326154934,-7.726880326154934)" /><circle cx="150.0" cy="-44.17" fill="none" r="2.0" stroke="black" stroke-width="0.12941833673999997" transform="scale(7.726880326154934,-7.726880326154934)" /><circle cx="150.0" cy="-58.17" fill="none" r="2.0" stroke="black" stroke-width="0.12941833673999997" transform="scale(7.726880326154934,-7.726880326154934)" /><circle cx="183.0" cy="-79.26" fill="none" r="2.0" stroke="black" stroke-width="0.12941833673999997" transform="scale(7.726880326154934,-7.726880326154934)" /><circle cx="183.0" cy="-65.26" fill="none" r="2.0" stroke="black" stroke-width="0.12941833673999997" transform="scale(7.726880326154934,-7.726880326154934)" /><circle cx="169.0" cy="-65.26" fill="none" r="2.0" stroke="black" stroke-width="0.12941833673999997" transform="scale(7.726880326154934,-7.726880326154934)" /><circle cx="169.0" cy="-79.26" fill="none" r="2.0" stroke="black" stroke-width="0.12941833673999997" transform="scale(7.726880326154934,-7.726880326154934)" /><circle cx="183.0" cy="-60.26" fill="none" r="2.0" stroke="black" stroke-width="0.12941833673999997" transform="scale(7.726880326154934,-7.726880326154934)" /><circle cx="183.0" cy="-46.26" fill="none" r="2.0" stroke="black" stroke-width="0.12941833673999997" transform="scale(7.726880326154934,-7.726880326154934)" /><circle cx="169.0" cy="-46.26" fill="none" r="2.0" stroke="black" stroke-width="0.12941833673999997" transform="scale(7.726880326154934,-7.726880326154934)" /><circle cx="169.0" cy="-60.26" fill="none" r="2.0" stroke="black" stroke-width="0.12941833673999997" transform="scale(7.726880326154934,-7.726880326154934)" /><line stroke="black" stroke-width="0.12941833673999997" transform="scale(7.726880326154934,-7.726880326154934)" x1="203.5589836" x2="191.434628" y1="-103.4128146" y2="-96.4128146" /><line stroke="black" stroke-width="0.12941833673999997" transform="scale(7.726880326154934,-7.726880326154934)" x1="177.934628" x2="190.0589836" y1="-119.7955006" y2="-126.7955006" /><circle cx="202.5589836" cy="-105.1448654" fill="none" r="2.0" stroke="black" stroke-width="0.12941833673999997" transform="scale(7.726880326154934,-7.726880326154934)" /><circle cx="190.434628" cy="-98.1448654" fill="none" r="2.0" stroke="black" stroke-width="0.12941833673999997" transform="scale(7.726880326154934,-7.726880326154934)" /><circle cx="178.934628" cy="-118.0634498" fill="none" r="2.0" stroke="black" stroke-width="0.12941833673999997" transform="scale(7.726880326154934,-7.726880326154934)" /><circle cx="191.0589836" cy="-125.0634498" fill="none" r="2.0" stroke="black" stroke-width="0.12941833673999997" transform="scale(7.726880326154934,-7.726880326154934)" /><line stroke="black" stroke-width="0.12941833673999997" transform="scale(7.726880326154934,-7.726880326154934)" x1="89.63" x2="89.632" y1="-52.9900516" y2="-109.2400516" /><line stroke="black" stroke-width="0.12941833673999997" transform="scale(7.726880326154934,-7.726880326154934)" x1="89.6299666" x2="89.63" y1="-52.0510039" y2="-52.9900516" /><line stroke="black" stroke-width="0.12941833673999997" transform="scale(7.726880326154934,-7.726880326154934)" x1="90.1241512" x2="108.1358154" y1="-51.5510199" y2="-51.3415159" /><line stroke="black" stroke-width="0.12941833673999997" transform="scale(7.726880326154934,-7.726880326154934)" x1="108.63" x2="108.63" y1="-50.8415497" y2="-40.0732444" /><line stroke="black" stroke-width="0.12941833673999997" transform="scale(7.726880326154934,-7.726880326154934)" x1="109.1282895" x2="127.1317105" y1="-39.5732473" y2="-39.5116567" /><line stroke="black" stroke-width="0.12941833673999997" transform="scale(7.726880326154934,-7.726880326154934)" x1="127.63" x2="127.63" y1="-39.0116596" y2="-35.253" /><line stroke="black" stroke-width="0.12941833673999997" transform="scale(7.726880326154934,-7.726880326154934)" x1="128.13" x2="148.032" y1="-34.753" y2="-34.753" /><line stroke="black" stroke-width="0.12941833673999997" transform="scale(7.726880326154934,-7.726880326154934)" x1="148.532" x2="148.532" y1="-40.025926" y2="-35.253" /><line stroke="black" stroke-width="0.12941833673999997" transform="scale(7.726880326154934,-7.726880326154934)" x1="149.0266056" x2="167.0373944" y1="-40.5258969" y2="-40.7202238" /><line stroke="black" stroke-width="0.12941833673999997" transform="scale(7.726880326154934,-7.726880326154934)" x1="167.532" x2="167.532" y1="-42.6785306" y2="-41.2201947" /><line stroke="black" stroke-width="0.12941833673999997" transform="scale(7.726880326154934,-7.726880326154934)" x1="168.0394992" x2="186.0240727" y1="-43.1784744" y2="-42.9087058" /><line stroke="black" stroke-width="0.12941833673999997" transform="scale(7.726880326154934,-7.726880326154934)" x1="186.5315718" x2="186.5319999" y1="-43.4084276" y2="-44.3723561" /><line stroke="black" stroke-width="0.12941833673999997" transform="scale(7.726880326154934,-7.726880326154934)" x1="186.5319999" x2="186.5321344" y1="-44.3723561" y2="-44.675222" /><line stroke="black" stroke-width="0.12941833673999997" transform="scale(7.726880326154934,-7.726880326154934)" x1="187.0321344" x2="206.783" y1="-45.175" y2="-45.175" /><line stroke="black" stroke-width="0.12941833673999997" transform="scale(7.726880326154934,-7.726880326154934)" x1="207.283" x2="207.283" y1="-107.4745263" y2="-45.675" /><line stroke="black" stroke-width="0.12941833673999997" transform="scale(7.726880326154934,-7.726880326154934)" x1="206.7486139" x2="207.283" y1="-108.4001101" y2="-107.4745263" /><line stroke="black" stroke-width="0.12941833673999997" transform="scale(7.726880326154934,-7.726880326154934)" x1="192.4308229" x2="206.7486139" y1="-129.6516873" y2="-108.4001101" /><line stroke="black" stroke-width="0.12941833673999997" transform="scale(7.726880326154934,-7.726880326154934)" x1="175.649264" x2="191.7661541" y1="-120.500235" y2="-129.8053259" /><line stroke="black" stroke-width="0.12941833673999997" transform="scale(7.726880326154934,-7.726880326154934)" x1="138.1421269" x2="175.463889" y1="-115.5727985" y2="-120.4374417" /><line stroke="black" stroke-width="0.12941833673999997" transform="scale(7.726880326154934,-7.726880326154934)" x1="127.6181655" x2="138.1421269" y1="-110.521886" y2="-115.5727985" /><line stroke="black" stroke-width="0.12941833673999997" transform="scale(7.726880326154934,-7.726880326154934)" x1="90.1350265" x2="127.3988279" y1="-110.6956937" y2="-110.4726664" /><line stroke="black" stroke-width="0.12941833673999997" transform="scale(7.726880326154934,-7.726880326154934)" x1="89.632" x2="89.632034" y1="-109.2400516" y2="-110.1957205" /><circle cx="90.1299666" cy="-52.0509861" fill="none" r="0.5" stroke="black" stroke-width="0.12941833673999997" transform="scale(7.726880326154934,-7.726880326154934)" /><circle cx="108.13" cy="-50.8415497" fill="none" r="0.5" stroke="black" stroke-width="0.12941833673999997" transform="scale(7.726880326154934,-7.726880326154934)" /><circle cx="109.13" cy="-40.0732444" fill="none" r="0.5" stroke="black" stroke-width="0.12941833673999997" transform="scale(7.726880326154934,-7.726880326154934)" /><circle cx="127.13" cy="-39.0116596" fill="none" r="0.5" stroke="black" stroke-width="0.12941833673999997" transform="scale(7.726880326154934,-7.726880326154934)" /><circle cx="128.13" cy="-35.253" fill="none" r="0.5" stroke="black" stroke-width="0.12941833673999997" transform="scale(7.726880326154934,-7.726880326154934)" /><circle cx="148.032" cy="-35.253" fill="none" r="0.5" stroke="black" stroke-width="0.12941833673999997" transform="scale(7.726880326154934,-7.726880326154934)" /><circle cx="149.032" cy="-40.025926" fill="none" r="0.5" stroke="black" stroke-width="0.12941833673999997" transform="scale(7.726880326154934,-7.726880326154934)" /><circle cx="167.032" cy="-41.2201947" fill="none" r="0.5" stroke="black" stroke-width="0.12941833673999997" transform="scale(7.726880326154934,-7.726880326154934)" /><circle cx="168.032" cy="-42.6785306" fill="none" r="0.5" stroke="black" stroke-width="0.12941833673999997" transform="scale(7.726880326154934,-7.726880326154934)" /><circle cx="186.0315718" cy="-43.4086496" fill="none" r="0.5" stroke="black" stroke-width="0.12941833673999997" transform="scale(7.726880326154934,-7.726880326154934)" /><circle cx="187.0321344" cy="-44.675" fill="none" r="0.5" stroke="black" stroke-width="0.12941833673999997" transform="scale(7.726880326154934,-7.726880326154934)" /><circle cx="206.783" cy="-45.675" fill="none" r="0.5" stroke="black" stroke-width="0.12941833673999997" transform="scale(7.726880326154934,-7.726880326154934)" /><circle cx="192.0161541" cy="-129.3723132" fill="none" r="0.5" stroke="black" stroke-width="0.12941833673999997" transform="scale(7.726880326154934,-7.726880326154934)" /><circle cx="175.399264" cy="-120.9332477" fill="none" r="0.5" stroke="black" stroke-width="0.12941833673999997" transform="scale(7.726880326154934,-7.726880326154934)" /><circle cx="127.4018204" cy="-110.9726574" fill="none" r="0.5" stroke="black" stroke-width="0.12941833673999997" transform="scale(7.726880326154934,-7.726880326154934)" /><circle cx="90.132034" cy="-110.1957027" fill="none" r="0.5" stroke="black" stroke-width="0.12941833673999997" transform="scale(7.726880326154934,-7.726880326154934)" /><line stroke="black" stroke-width="0.12941833673999997" transform="scale(7.726880326154934,-7.726880326154934)" x1="90.832" x2="90.83" y1="-109.2400089" y2="-52.9900089" /><line stroke="black" stroke-width="0.12941833673999997" transform="scale(7.726880326154934,-7.726880326154934)" x1="90.8299912" x2="90.83" y1="-52.7428911" y2="-52.9900089" /><line stroke="black" stroke-width="0.12941833673999997" transform="scale(7.726880326154934,-7.726880326154934)" x1="90.8299912" x2="109.3358154" y1="-52.7428911" y2="-52.5276391" /><line stroke="black" stroke-width="0.12941833673999997" transform="scale(7.726880326154934,-7.726880326154934)" x1="109.83" x2="109.83" y1="-52.0276729" y2="-40.7708538" /><line stroke="black" stroke-width="0.12941833673999997" transform="scale(7.726880326154934,-7.726880326154934)" x1="109.83" x2="128.3317105" y1="-40.7708538" y2="-40.7075585" /><line stroke="black" stroke-width="0.12941833673999997" transform="scale(7.726880326154934,-7.726880326154934)" x1="128.83" x2="128.83" y1="-40.2075614" y2="-35.953" /><line stroke="black" stroke-width="0.12941833673999997" transform="scale(7.726880326154934,-7.726880326154934)" x1="128.83" x2="147.332" y1="-35.953" y2="-35.953" /><line stroke="black" stroke-width="0.12941833673999997" transform="scale(7.726880326154934,-7.726880326154934)" x1="147.332" x2="147.332" y1="-41.2130485" y2="-35.953" /><line stroke="black" stroke-width="0.12941833673999997" transform="scale(7.726880326154934,-7.726880326154934)" x1="147.8266056" x2="166.332" y1="-41.7130194" y2="-41.9126828" /><line stroke="black" stroke-width="0.12941833673999997" transform="scale(7.726880326154934,-7.726880326154934)" x1="166.332" x2="166.332" y1="-43.8966656" y2="-41.9126828" /><line stroke="black" stroke-width="0.12941833673999997" transform="scale(7.726880326154934,-7.726880326154934)" x1="166.8394992" x2="185.3318873" y1="-44.3966094" y2="-44.1192236" /><line stroke="black" stroke-width="0.12941833673999997" transform="scale(7.726880326154934,-7.726880326154934)" x1="185.332" x2="185.3318873" y1="-44.372889" y2="-44.1192236" /><line stroke="black" stroke-width="0.12941833673999997" transform="scale(7.726880326154934,-7.726880326154934)" x1="185.332" x2="185.3326671" y1="-44.372889" y2="-45.875222" /><line stroke="black" stroke-width="0.12941833673999997" transform="scale(7.726880326154934,-7.726880326154934)" x1="185.8326671" x2="206.083" y1="-46.375" y2="-46.375" /><line stroke="black" stroke-width="0.12941833673999997" transform="scale(7.726880326154934,-7.726880326154934)" x1="206.083" x2="206.083" y1="-107.1529873" y2="-46.375" /><line stroke="black" stroke-width="0.12941833673999997" transform="scale(7.726880326154934,-7.726880326154934)" x1="205.7301189" x2="206.083" y1="-107.7641954" y2="-107.1529873" /><line stroke="black" stroke-width="0.12941833673999997" transform="scale(7.726880326154934,-7.726880326154934)" x1="205.7252093" x2="205.7301189" y1="-107.7714684" y2="-107.7641954" /><line stroke="black" stroke-width="0.12941833673999997" transform="scale(7.726880326154934,-7.726880326154934)" x1="205.7252093" x2="191.9309981" y1="-107.7714684" y2="-128.2459077" /><line stroke="black" stroke-width="0.12941833673999997" transform="scale(7.726880326154934,-7.726880326154934)" x1="191.8005429" x2="191.9307482" y1="-128.4395396" y2="-128.2462786" /><line stroke="black" stroke-width="0.12941833673999997" transform="scale(7.726880326154934,-7.726880326154934)" x1="176.0418526" x2="191.8005429" y1="-119.3412555" y2="-128.4395396" /><line stroke="black" stroke-width="0.12941833673999997" transform="scale(7.726880326154934,-7.726880326154934)" x1="138.4879529" x2="175.8564776" y1="-114.4077239" y2="-119.2784622" /><line stroke="black" stroke-width="0.12941833673999997" transform="scale(7.726880326154934,-7.726880326154934)" x1="127.8878144" x2="138.4879529" y1="-109.3202507" y2="-114.4077239" /><line stroke="black" stroke-width="0.12941833673999997" transform="scale(7.726880326154934,-7.726880326154934)" x1="90.8320089" x2="127.6684768" y1="-109.4915007" y2="-109.271031" /><line stroke="black" stroke-width="0.12941833673999997" transform="scale(7.726880326154934,-7.726880326154934)" x1="90.832" x2="90.8320089" y1="-109.2400089" y2="-109.4915007" /><circle cx="109.33" cy="-52.0276729" fill="none" r="0.5" stroke="black" stroke-width="0.12941833673999997" transform="scale(7.726880326154934,-7.726880326154934)" /><circle cx="128.33" cy="-40.2075614" fill="none" r="0.5" stroke="black" stroke-width="0.12941833673999997" transform="scale(7.726880326154934,-7.726880326154934)" /><circle cx="147.832" cy="-41.2130485" fill="none" r="0.5" stroke="black" stroke-width="0.12941833673999997" transform="scale(7.726880326154934,-7.726880326154934)" /><circle cx="166.832" cy="-43.8966656" fill="none" r="0.5" stroke="black" stroke-width="0.12941833673999997" transform="scale(7.726880326154934,-7.726880326154934)" /><circle cx="185.8326671" cy="-45.875" fill="none" r="0.5" stroke="black" stroke-width="0.12941833673999997" transform="scale(7.726880326154934,-7.726880326154934)" /><circle cx="175.7918526" cy="-119.7742682" fill="none" r="0.5" stroke="black" stroke-width="0.12941833673999997" transform="scale(7.726880326154934,-7.726880326154934)" /><circle cx="127.6714693" cy="-109.771022" fill="none" r="0.5" stroke="black" stroke-width="0.12941833673999997" transform="scale(7.726880326154934,-7.726880326154934)" /><line stroke="black" stroke-width="0.12941833673999997" transform="scale(7.726880326154934,-7.726880326154934)" x1="93.4818963" x2="93.4801019" y1="-106.3226098" y2="-55.8564813" /><line stroke="black" stroke-width="0.12941833673999997" transform="scale(7.726880326154934,-7.726880326154934)" x1="93.9742865" x2="111.9858154" y1="-55.3564973" y2="-55.1469947" /><line stroke="black" stroke-width="0.12941833673999997" transform="scale(7.726880326154934,-7.726880326154934)" x1="112.48" x2="112.48" y1="-54.6470285" y2="-43.910096" /><line stroke="black" stroke-width="0.12941833673999997" transform="scale(7.726880326154934,-7.726880326154934)" x1="112.9782895" x2="130.9817106" y1="-43.4100989" y2="-43.3485082" /><line stroke="black" stroke-width="0.12941833673999997" transform="scale(7.726880326154934,-7.726880326154934)" x1="131.48" x2="131.48" y1="-42.8485111" y2="-39.103" /><line stroke="black" stroke-width="0.12941833673999997" transform="scale(7.726880326154934,-7.726880326154934)" x1="131.98" x2="144.182" y1="-38.603" y2="-38.603" /><line stroke="black" stroke-width="0.12941833673999997" transform="scale(7.726880326154934,-7.726880326154934)" x1="144.682" x2="144.682" y1="-43.8346106" y2="-39.103" /><line stroke="black" stroke-width="0.12941833673999997" transform="scale(7.726880326154934,-7.726880326154934)" x1="145.1766056" x2="163.682" y1="-44.3345815" y2="-44.5342449" /><line stroke="black" stroke-width="0.12941833673999997" transform="scale(7.726880326154934,-7.726880326154934)" x1="163.682" x2="163.682" y1="-46.5867137" y2="-44.5342449" /><line stroke="black" stroke-width="0.12941833673999997" transform="scale(7.726880326154934,-7.726880326154934)" x1="164.1894992" x2="182.2201136" y1="-47.0866575" y2="-46.8161982" /><line stroke="black" stroke-width="0.12941833673999997" transform="scale(7.726880326154934,-7.726880326154934)" x1="182.7261388" x2="182.8250718" y1="-47.2777777" y2="-48.5633643" /><line stroke="black" stroke-width="0.12941833673999997" transform="scale(7.726880326154934,-7.726880326154934)" x1="183.3235978" x2="202.933" y1="-49.025" y2="-49.025" /><line stroke="black" stroke-width="0.12941833673999997" transform="scale(7.726880326154934,-7.726880326154934)" x1="203.433" x2="203.433" y1="-49.525" y2="-106.2782799" /><line stroke="black" stroke-width="0.12941833673999997" transform="scale(7.726880326154934,-7.726880326154934)" x1="203.3476687" x2="191.244961" y1="-106.557654" y2="-124.5214325" /><line stroke="black" stroke-width="0.12941833673999997" transform="scale(7.726880326154934,-7.726880326154934)" x1="176.8223986" x2="190.5802923" y1="-116.7319475" y2="-124.6750711" /><line stroke="black" stroke-width="0.12941833673999997" transform="scale(7.726880326154934,-7.726880326154934)" x1="139.3311212" x2="176.8223986" y1="-111.8452091" y2="-116.7319475" /><line stroke="black" stroke-width="0.12941833673999997" transform="scale(7.726880326154934,-7.726880326154934)" x1="128.4832888" x2="139.1794011" y1="-106.6666393" y2="-111.8001745" /><line stroke="black" stroke-width="0.12941833673999997" transform="scale(7.726880326154934,-7.726880326154934)" x1="93.9848888" x2="128.2639513" y1="-106.822583" y2="-106.6174197" /><circle cx="93.9801019" cy="-55.8564635" fill="none" r="0.5" stroke="black" stroke-width="0.12941833673999997" transform="scale(7.726880326154934,-7.726880326154934)" /><circle cx="111.98" cy="-54.6470285" fill="none" r="0.5" stroke="black" stroke-width="0.12941833673999997" transform="scale(7.726880326154934,-7.726880326154934)" /><circle cx="112.98" cy="-43.910096" fill="none" r="0.5" stroke="black" stroke-width="0.12941833673999997" transform="scale(7.726880326154934,-7.726880326154934)" /><circle cx="130.98" cy="-42.8485111" fill="none" r="0.5" stroke="black" stroke-width="0.12941833673999997" transform="scale(7.726880326154934,-7.726880326154934)" /><circle cx="131.98" cy="-39.103" fill="none" r="0.5" stroke="black" stroke-width="0.12941833673999997" transform="scale(7.726880326154934,-7.726880326154934)" /><circle cx="144.182" cy="-39.103" fill="none" r="0.5" stroke="black" stroke-width="0.12941833673999997" transform="scale(7.726880326154934,-7.726880326154934)" /><circle cx="145.182" cy="-43.8346106" fill="none" r="0.5" stroke="black" stroke-width="0.12941833673999997" transform="scale(7.726880326154934,-7.726880326154934)" /><circle cx="164.182" cy="-46.5867137" fill="none" r="0.5" stroke="black" stroke-width="0.12941833673999997" transform="scale(7.726880326154934,-7.726880326154934)" /><circle cx="182.2276128" cy="-47.316142" fill="none" r="0.5" stroke="black" stroke-width="0.12941833673999997" transform="scale(7.726880326154934,-7.726880326154934)" /><circle cx="183.3235978" cy="-48.525" fill="none" r="0.5" stroke="black" stroke-width="0.12941833673999997" transform="scale(7.726880326154934,-7.726880326154934)" /><circle cx="202.933" cy="-49.525" fill="none" r="0.5" stroke="black" stroke-width="0.12941833673999997" transform="scale(7.726880326154934,-7.726880326154934)" /><circle cx="202.933" cy="-106.2782799" fill="none" r="0.5" stroke="black" stroke-width="0.12941833673999997" transform="scale(7.726880326154934,-7.726880326154934)" /><circle cx="190.8302923" cy="-124.2420584" fill="none" r="0.5" stroke="black" stroke-width="0.12941833673999997" transform="scale(7.726880326154934,-7.726880326154934)" /><circle cx="139.3957462" cy="-111.3494031" fill="none" r="0.5" stroke="black" stroke-width="0.12941833673999997" transform="scale(7.726880326154934,-7.726880326154934)" /><circle cx="128.2669438" cy="-107.1174107" fill="none" r="0.5" stroke="black" stroke-width="0.12941833673999997" transform="scale(7.726880326154934,-7.726880326154934)" /><circle cx="93.9818963" cy="-106.322592" fill="none" r="0.5" stroke="black" stroke-width="0.12941833673999997" transform="scale(7.726880326154934,-7.726880326154934)" /></svg>