0
SECTION
2
HEADER
9
$INSUNITS
70
4
0
ENDSEC
0
SECTION
2
TABLES
0
TABLE
2
LTYPE
0
LTYPE
72
65
70
64
2
CONTINUOUS
3
______
73
0
40
0
0
ENDTAB
0
TABLE
2
LAYER
0
ENDTAB
0
ENDSEC
0
SECTION
2
ENTITIES
0
LINE
8
0
10
91.0800178
20
-53.4899915
11
91.0819822
21
-108.7400178
0
LINE
8
0
10
91.5799915
20
-52.9899737
11
109.5800263
21
-52.9890263
0
LINE
8
0
10
110.08
20
-52.4890263
11
110.08
21
-48.74
0
LINE
8
0
10
110.58
20
-48.24
11
128.58
21
-48.24
0
LINE
8
0
10
129.08
20
-47.74
11
129.08
21
-46.488
0
LINE
8
0
10
129.58
20
-45.988
11
146.582
21
-45.988
0
LINE
8
0
10
147.082
20
-47.74
11
147.082
21
-46.488
0
LINE
8
0
10
147.582
20
-48.24
11
165.582
21
-48.24
0
LINE
8
0
10
166.082
20
-50.238
11
166.082
21
-48.74
0
LINE
8
0
10
166.582
20
-50.738
11
184.5822219
21
-50.738
0
LINE
8
0
10
185.0822219
20
-51.237778
11
185.083
21
-52.99
0
LINE
8
0
10
191.9735319
20
-137.4583675
11
205.518
21
-113.996596
0
LINE
8
0
10
176.1236421
20
-128.8848015
11
191.2905097
21
-137.6413967
0
LINE
8
0
10
138.7729681
20
-123.977759
11
175.9382671
21
-128.8220082
0
LINE
8
0
10
127.9897756
20
-109.4455223
11
138.4335103
21
-123.7764307
0
LINE
8
0
10
91.5819822
20
-109.24
11
127.5856928
21
-109.24
0
LINE
8
0
10
185.5827781
20
-52.99
11
205.333
21
-52.99
0
LINE
8
0
10
205.833
20
-113.3170254
11
205.833
21
-53.49
0
LINE
8
0
10
205.518
20
-113.996596
11
205.7660127
21
-113.5670254
0
ARC
8
0
10
91.5800178
20
-53.4899737
40
0.5
50
90.0030138
51
450.0030138
0
ARC
8
0
10
109.58
20
-52.4890263
40
0.5
50
270.0030138
51
630.0030138
0
ARC
8
0
10
110.58
20
-48.74
40
0.5
50
90
51
450
0
ARC
8
0
10
128.58
20
-47.74
40
0.5
50
270
51
630
0
ARC
8
0
10
129.58
20
-46.488
40
0.5
50
90
51
450
0
ARC
8
0
10
146.582
20
-46.488
40
0.5
50
0
51
360
0
ARC
8
0
10
147.582
20
-47.74
40
0.5
50
180
51
540
0
ARC
8
0
10
165.582
20
-48.74
40
0.5
50
0
51
360
0
ARC
8
0
10
166.582
20
-50.238
40
0.5
50
180
51
540
0
ARC
8
0
10
184.5822219
20
-51.238
40
0.5
50
0.0254393
51
360.0254393
0
ARC
8
0
10
185.5827781
20
-52.49
40
0.5
50
180.0254393
51
540.0254393
0
ARC
8
0
10
205.333
20
-53.49
40
0.5
50
0
51
360
0
ARC
8
0
10
205.333
20
-113.3170254
40
0.5
50
329.9999999
51
689.9999999
0
ARC
8
0
10
191.5405097
20
-137.208384
40
0.5
50
239.9999999
51
599.9999999
0
ARC
8
0
10
175.8736421
20
-129.3178142
40
0.5
50
59.9999999
51
419.9999999
0
ARC
8
0
10
138.8375931
20
-123.481953
40
0.5
50
216.0829165
51
576.0829165
0
ARC
8
0
10
127.5856928
20
-109.74
40
0.5
50
36.0829165
51
396.0829165
0
ARC
8
0
10
91.5819822
20
-108.74
40
0.5
50
180.0020397
51
540.0020397
0
CIRCLE
8
0
10
166.468
20
-67.986
40
1.1
0
CIRCLE
8
0
10
133.657
20
-107.74
40
1.1
0
CIRCLE
8
0
10
180.2410516
20
-115.3236576
40
1.1
0
CIRCLE
8
0
10
166.468
20
-67.986
40
2.15
0
CIRCLE
8
0
10
133.657
20
-107.74
40
2.15
0
CIRCLE
8
0
10
180.2410516
20
-115.3236576
40
2.15
0
CIRCLE
8
0
10
188.762
20
-100.476
40
1.1
0
CIRCLE
8
0
10
203.194
20
-108.995
40
1.1
0
LINE
8
0
10
185.083
20
-52.990222
11
185.083
21
-101.9097681
0
LINE
8
0
10
185.333
20
-102.3427808
11
205.0850038
21
-113.7466055
0
ARC
8
0
10
184.583
20
-52.990222
40
0.5
50
0
51
0.0254393
0
ARC
8
0
10
185.583
20
-101.9097681
40
0.5
50
180
51
239.9999999
0
ARC
8
0
10
204.8350038
20
-114.1796182
40
0.5
50
330.0021845
51
59.9999999
0
LINE
8
0
10
93
20
-107
11
107
21
-107
0
LINE
8
0
10
107
20
-107
11
107
21
-93
0
LINE
8
0
10
107
20
-93
11
93
21
-93
0
LINE
8
0
10
93
20
-93
11
93
21
-107
0
LINE
8
0
10
93
20
-88
11
107
21
-88
0
LINE
8
0
10
107
20
-88
11
107
21
-74
0
LINE
8
0
10
107
20
-74
11
93
21
-74
0
LINE
8
0
10
93
20
-74
11
93
21
-88
0
LINE
8
0
10
93
20
-69
11
107
21
-69
0
LINE
8
0
10
107
20
-69
11
107
21
-55
0
LINE
8
0
10
107
20
-55
11
93
21
-55
0
LINE
8
0
10
93
20
-55
11
93
21
-69
0
LINE
8
0
10
112
20
-102.25
11
126
21
-102.25
0
LINE
8
0
10
126
20
-102.25
11
126
21
-88.25
0
LINE
8
0
10
126
20
-88.25
11
112
21
-88.25
0
LINE
8
0
10
112
20
-88.25
11
112
21
-102.25
0
LINE
8
0
10
112
20
-83.25
11
126
21
-83.25
0
LINE
8
0
10
126
20
-83.25
11
126
21
-69.25
0
LINE
8
0
10
126
20
-69.25
11
112
21
-69.25
0
LINE
8
0
10
112
20
-69.25
11
112
21
-83.25
0
LINE
8
0
10
112
20
-64.25
11
126
21
-64.25
0
LINE
8
0
10
126
20
-64.25
11
126
21
-50.25
0
LINE
8
0
10
126
20
-50.25
11
112
21
-50.25
0
LINE
8
0
10
112
20
-50.25
11
112
21
-64.25
0
LINE
8
0
10
131
20
-99.875
11
145
21
-99.875
0
LINE
8
0
10
145
20
-99.875
11
145
21
-85.875
0
LINE
8
0
10
145
20
-85.875
11
131
21
-85.875
0
LINE
8
0
10
131
20
-85.875
11
131
21
-99.875
0
LINE
8
0
10
131
20
-80.875
11
145
21
-80.875
0
LINE
8
0
10
145
20
-80.875
11
145
21
-66.875
0
LINE
8
0
10
145
20
-66.875
11
131
21
-66.875
0
LINE
8
0
10
131
20
-66.875
11
131
21
-80.875
0
LINE
8
0
10
131
20
-61.875
11
145
21
-61.875
0
LINE
8
0
10
145
20
-61.875
11
145
21
-47.875
0
LINE
8
0
10
145
20
-47.875
11
131
21
-47.875
0
LINE
8
0
10
131
20
-47.875
11
131
21
-61.875
0
LINE
8
0
10
150
20
-102.25
11
164
21
-102.25
0
LINE
8
0
10
164
20
-102.25
11
164
21
-88.25
0
LINE
8
0
10
164
20
-88.25
11
150
21
-88.25
0
LINE
8
0
10
150
20
-88.25
11
150
21
-102.25
0
LINE
8
0
10
150
20
-83.25
11
164
21
-83.25
0
LINE
8
0
10
164
20
-83.25
11
164
21
-69.25
0
LINE
8
0
10
164
20
-69.25
11
150
21
-69.25
0
LINE
8
0
10
150
20
-69.25
11
150
21
-83.25
0
LINE
8
0
10
150
20
-64.25
11
164
21
-64.25
0
LINE
8
0
10
164
20
-64.25
11
164
21
-50.25
0
LINE
8
0
10
164
20
-50.25
11
150
21
-50.25
0
LINE
8
0
10
150
20
-50.25
11
150
21
-64.25
0
LINE
8
0
10
169
20
-104.625
11
183
21
-104.625
0
LINE
8
0
10
183
20
-104.625
11
183
21
-90.625
0
LINE
8
0
10
183
20
-90.625
11
169
21
-90.625
0
LINE
8
0
10
169
20
-90.625
11
169
21
-104.625
0
LINE
8
0
10
169
20
-85.625
11
183
21
-85.625
0
LINE
8
0
10
183
20
-85.625
11
183
21
-71.625
0
LINE
8
0
10
183
20
-71.625
11
169
21
-71.625
0
LINE
8
0
10
169
20
-71.625
11
169
21
-85.625
0
LINE
8
0
10
169
20
-66.625
11
183
21
-66.625
0
LINE
8
0
10
183
20
-66.625
11
183
21
-52.625
0
LINE
8
0
10
183
20
-52.625
11
169
21
-52.625
0
LINE
8
0
10
169
20
-52.625
11
169
21
-66.625
0
LINE
8
0
10
140.5
20
-121.875
11
154.5
21
-121.875
0
LINE
8
0
10
154.5
20
-121.875
11
154.5
21
-107.875
0
LINE
8
0
10
154.5
20
-107.875
11
140.5
21
-107.875
0
LINE
8
0
10
140.5
20
-107.875
11
140.5
21
-121.875
0
LINE
8
0
10
159.9267859
20
-122.5747475
11
173.4497475
21
-126.1982141
0
LINE
8
0
10
173.4497475
20
-126.1982141
11
177.0732141
21
-112.6752525
0
LINE
8
0
10
177.0732141
20
-112.6752525
11
163.5502525
21
-109.0517859
0
LINE
8
0
10
163.5502525
20
-109.0517859
11
159.9267859
21
-122.5747475
0
LINE
8
0
10
193.3089836
20
-130.9513354
11
200.3089836
21
-118.8269798
0
LINE
8
0
10
200.3089836
20
-118.8269798
11
188.184628
21
-111.8269798
0
LINE
8
0
10
188.184628
20
-111.8269798
11
181.184628
21
-123.9513354
0
LINE
8
0
10
181.184628
20
-123.9513354
11
193.3089836
21
-130.9513354
0
LINE
8
0
10
186.113
20
-101.7769776
11
186.113
21
-53.49
0
LINE
8
0
10
205.083
20
-113.0179873
11
186.363
21
-102.2099903
0
ARC
8
0
10
186.613
20
-53.49
40
0.5
50
90
51
180
0
ARC
8
0
10
205.333
20
-112.5849746
40
0.5
50
239.9999999
51
0
0
ARC
8
0
10
186.613
20
-101.7769776
40
0.5
50
180
51
239.9999999
0
LINE
8
0
10
93
20
-109
11
107
21
-109
0
LINE
8
0
10
109
20
-107
11
109
21
-93
0
LINE
8
0
10
107
20
-91
11
93
21
-91
0
LINE
8
0
10
91
20
-93
11
91
21
-107
0
LINE
8
0
10
93
20
-90
11
107
21
-90
0
LINE
8
0
10
109
20
-88
11
109
21
-74
0
LINE
8
0
10
107
20
-72
11
93
21
-72
0
LINE
8
0
10
91
20
-74
11
91
21
-88
0
LINE
8
0
10
93
20
-71
11
107
21
-71
0
LINE
8
0
10
109
20
-69
11
109
21
-55
0
LINE
8
0
10
107
20
-53
11
93
21
-53
0
LINE
8
0
10
91
20
-55
11
91
21
-69
0
LINE
8
0
10
112
20
-104.25
11
126
21
-104.25
0
LINE
8
0
10
128
20
-102.25
11
128
21
-88.25
0
LINE
8
0
10
126
20
-86.25
11
112
21
-86.25
0
LINE
8
0
10
110
20
-88.25
11
110
21
-102.25
0
LINE
8
0
10
112
20
-85.25
11
126
21
-85.25
0
LINE
8
0
10
128
20
-83.25
11
128
21
-69.25
0
LINE
8
0
10
126
20
-67.25
11
112
21
-67.25
0
LINE
8
0
10
110
20
-69.25
11
110
21
-83.25
0
LINE
8
0
10
112
20
-66.25
11
126
21
-66.25
0
LINE
8
0
10
128
20
-64.25
11
128
21
-50.25
0
LINE
8
0
10
126
20
-48.25
11
112
21
-48.25
0
LINE
8
0
10
110
20
-50.25
11
110
21
-64.25
0
LINE
8
0
10
131
20
-101.875
11
145
21
-101.875
0
LINE
8
0
10
147
20
-99.875
11
147
21
-85.875
0
LINE
8
0
10
145
20
-83.875
11
131
21
-83.875
0
LINE
8
0
10
129
20
-85.875
11
129
21
-99.875
0
LINE
8
0
10
131
20
-82.875
11
145
21
-82.875
0
LINE
8
0
10
147
20
-80.875
11
147
21
-66.875
0
LINE
8
0
10
145
20
-64.875
11
131
21
-64.875
0
LINE
8
0
10
129
20
-66.875
11
129
21
-80.875
0
LINE
8
0
10
131
20
-63.875
11
145
21
-63.875
0
LINE
8
0
10
147
20
-61.875
11
147
21
-47.875
0
LINE
8
0
10
145
20
-45.875
11
131
21
-45.875
0
LINE
8
0
10
129
20
-47.875
11
129
21
-61.875
0
LINE
8
0
10
150
20
-104.25
11
164
21
-104.25
0
LINE
8
0
10
166
20
-102.25
11
166
21
-88.25
0
LINE
8
0
10
164
20
-86.25
11
150
21
-86.25
0
LINE
8
0
10
148
20
-88.25
11
148
21
-102.25
0
LINE
8
0
10
150
20
-85.25
11
164
21
-85.25
0
LINE
8
0
10
166
20
-83.25
11
166
21
-69.25
0
LINE
8
0
10
164
20
-67.25
11
150
21
-67.25
0
LINE
8
0
10
148
20
-69.25
11
148
21
-83.25
0
LINE
8
0
10
150
20
-66.25
11
164
21
-66.25
0
LINE
8
0
10
166
20
-64.25
11
166
21
-50.25
0
LINE
8
0
10
164
20
-48.25
11
150
21
-48.25
0
LINE
8
0
10
148
20
-50.25
11
148
21
-64.25
0
LINE
8
0
10
169
20
-106.625
11
183
21
-106.625
0
LINE
8
0
10
185
20
-104.625
11
185
21
-90.625
0
LINE
8
0
10
183
20
-88.625
11
169
21
-88.625
0
LINE
8
0
10
167
20
-90.625
11
167
21
-104.625
0
LINE
8
0
10
169
20
-87.625
11
183
21
-87.625
0
LINE
8
0
10
185
20
-85.625
11
185
21
-71.625
0
LINE
8
0
10
183
20
-69.625
11
169
21
-69.625
0
LINE
8
0
10
167
20
-71.625
11
167
21
-85.625
0
LINE
8
0
10
169
20
-68.625
11
183
21
-68.625
0
LINE
8
0
10
185
20
-66.625
11
185
21
-52.625
0
LINE
8
0
10
183
20
-50.625
11
169
21
-50.625
0
LINE
8
0
10
167
20
-52.625
11
167
21
-66.625
0
LINE
8
0
10
140.5
20
-123.875
11
154.5
21
-123.875
0
LINE
8
0
10
156.5
20
-121.875
11
156.5
21
-107.875
0
LINE
8
0
10
154.5
20
-105.875
11
140.5
21
-105.875
0
LINE
8
0
10
138.5
20
-107.875
11
138.5
21
-121.875
0
LINE
8
0
10
159.409148
20
-124.5065991
11
172.9321094
21
-128.1300657
0
LINE
8
0
10
175.3815991
20
-126.715852
11
179.0050657
21
-113.1928906
0
LINE
8
0
10
177.590852
20
-110.7434009
11
164.0678906
21
-107.1199343
0
LINE
8
0
10
161.6184009
20
-108.534148
11
157.9949343
21
-122.0571094
0
LINE
8
0
10
192.7910344
20
-135.8484498
11
204.2910344
21
-115.9298654
0
LINE
8
0
10
177.2025772
20
-126.8484498
11
188.7025772
21
-106.9298654
0
ARC
8
0
10
107
20
-107
40
2
50
270
51
0
0
ARC
8
0
10
107
20
-93
40
2
50
0
51
90
0
ARC
8
0
10
93
20
-93
40
2
50
90
51
180
0
ARC
8
0
10
93
20
-107
40
2
50
180
51
270
0
ARC
8
0
10
107
20
-88
40
2
50
270
51
0
0
ARC
8
0
10
107
20
-74
40
2
50
0
51
90
0
ARC
8
0
10
93
20
-74
40
2
50
90
51
180
0
ARC
8
0
10
93
20
-88
40
2
50
180
51
270
0
ARC
8
0
10
107
20
-69
40
2
50
270
51
0
0
ARC
8
0
10
107
20
-55
40
2
50
0
51
90
0
ARC
8
0
10
93
20
-55
40
2
50
90
51
180
0
ARC
8
0
10
93
20
-69
40
2
50
180
51
270
0
ARC
8
0
10
126
20
-102.25
40
2
50
270
51
0
0
ARC
8
0
10
126
20
-88.25
40
2
50
0
51
90
0
ARC
8
0
10
112
20
-88.25
40
2
50
90
51
180
0
ARC
8
0
10
112
20
-102.25
40
2
50
180
51
270
0
ARC
8
0
10
126
20
-83.25
40
2
50
270
51
0
0
ARC
8
0
10
126
20
-69.25
40
2
50
0
51
90
0
ARC
8
0
10
112
20
-69.25
40
2
50
90
51
180
0
ARC
8
0
10
112
20
-83.25
40
2
50
180
51
270
0
ARC
8
0
10
126
20
-64.25
40
2
50
270
51
0
0
ARC
8
0
10
126
20
-50.25
40
2
50
0
51
90
0
ARC
8
0
10
112
20
-50.25
40
2
50
90
51
180
0
ARC
8
0
10
112
20
-64.25
40
2
50
180
51
270
0
ARC
8
0
10
145
20
-99.875
40
2
50
270
51
0
0
ARC
8
0
10
145
20
-85.875
40
2
50
0
51
90
0
ARC
8
0
10
131
20
-85.875
40
2
50
90
51
180
0
ARC
8
0
10
131
20
-99.875
40
2
50
180
51
270
0
ARC
8
0
10
145
20
-80.875
40
2
50
270
51
0
0
ARC
8
0
10
145
20
-66.875
40
2
50
0
51
90
0
ARC
8
0
10
131
20
-66.875
40
2
50
90
51
180
0
ARC
8
0
10
131
20
-80.875
40
2
50
180
51
270
0
ARC
8
0
10
145
20
-61.875
40
2
50
270
51
0
0
ARC
8
0
10
145
20
-47.875
40
2
50
0
51
90
0
ARC
8
0
10
131
20
-47.875
40
2
50
90
51
180
0
ARC
8
0
10
131
20
-61.875
40
2
50
180
51
270
0
ARC
8
0
10
164
20
-102.25
40
2
50
270
51
0
0
ARC
8
0
10
164
20
-88.25
40
2
50
0
51
90
0
ARC
8
0
10
150
20
-88.25
40
2
50
90
51
180
0
ARC
8
0
10
150
20
-102.25
40
2
50
180
51
270
0
ARC
8
0
10
164
20
-83.25
40
2
50
270
51
0
0
ARC
8
0
10
164
20
-69.25
40
2
50
0
51
90
0
ARC
8
0
10
150
20
-69.25
40
2
50
90
51
180
0
ARC
8
0
10
150
20
-83.25
40
2
50
180
51
270
0
ARC
8
0
10
164
20
-64.25
40
2
50
270
51
0
0
ARC
8
0
10
164
20
-50.25
40
2
50
0
51
90
0
ARC
8
0
10
150
20
-50.25
40
2
50
90
51
180
0
ARC
8
0
10
150
20
-64.25
40
2
50
180
51
270
0
ARC
8
0
10
183
20
-104.625
40
2
50
270
51
0
0
ARC
8
0
10
183
20
-90.625
40
2
50
0
51
90
0
ARC
8
0
10
169
20
-90.625
40
2
50
90
51
180
0
ARC
8
0
10
169
20
-104.625
40
2
50
180
51
270
0
ARC
8
0
10
183
20
-85.625
40
2
50
270
51
0
0
ARC
8
0
10
183
20
-71.625
40
2
50
0
51
90
0
ARC
8
0
10
169
20
-71.625
40
2
50
90
51
180
0
ARC
8
0
10
169
20
-85.625
40
2
50
180
51
270
0
ARC
8
0
10
183
20
-66.625
40
2
50
270
51
0
0
ARC
8
0
10
183
20
-52.625
40
2
50
0
51
90
0
ARC
8
0
10
169
20
-52.625
40
2
50
90
51
180
0
ARC
8
0
10
169
20
-66.625
40
2
50
180
51
270
0
ARC
8
0
10
154.5
20
-121.875
40
2
50
270
51
0
0
ARC
8
0
10
154.5
20
-107.875
40
2
50
0
51
90
0
ARC
8
0
10
140.5
20
-107.875
40
2
50
90
51
180
0
ARC
8
0
10
140.5
20
-121.875
40
2
50
180
51
270
0
ARC
8
0
10
173.4497474
20
-126.198214
40
2
50
255.0000021
51
345.0000021
0
ARC
8
0
10
177.073214
20
-112.6752526
40
2
50
345.0000021
51
75.0000021
0
ARC
8
0
10
163.5502526
20
-109.051786
40
2
50
75.0000021
51
165.0000021
0
ARC
8
0
10
159.926786
20
-122.5747474
40
2
50
165.0000021
51
255.0000021
0
LINE
8
0
10
203.5589836
20
-113.1978146
11
191.434628
21
-106.1978146
0
LINE
8
0
10
177.934628
20
-129.5805006
11
190.0589836
21
-136.5805006
0
ARC
8
0
10
202.5589836
20
-114.9298654
40
2
50
329.9999999
51
59.9999999
0
ARC
8
0
10
190.434628
20
-107.9298654
40
2
50
59.9999999
51
149.9999999
0
ARC
8
0
10
178.934628
20
-127.8484498
40
2
50
149.9999999
51
239.9999999
0
ARC
8
0
10
191.0589836
20
-134.8484498
40
2
50
239.9999999
51
329.9999999
0
LINE
8
0
10
89.63
20
-52.9900516
11
89.632
21
-109.2400516
0
LINE
8
0
10
89.6299662
20
-52.0400678
11
89.63
21
-52.9900516
0
LINE
8
0
10
90.1299399
20
-51.54005
11
108.1300263
21
-51.5391026
0
LINE
8
0
10
108.63
20
-51.0391026
11
108.63
21
-47.29
0
LINE
8
0
10
109.13
20
-46.79
11
127.13
21
-46.79
0
LINE
8
0
10
127.63
20
-46.29
11
127.63
21
-45.038
0
LINE
8
0
10
128.13
20
-44.538
11
148.032
21
-44.538
0
LINE
8
0
10
148.532
20
-46.29
11
148.532
21
-45.038
0
LINE
8
0
10
149.032
20
-46.79
11
167.032
21
-46.79
0
LINE
8
0
10
167.532
20
-48.788
11
167.532
21
-47.29
0
LINE
8
0
10
168.032
20
-49.288
11
186.0315782
21
-49.288
0
LINE
8
0
10
186.5315782
20
-49.7877779
11
186.5319999
21
-50.7373561
0
LINE
8
0
10
186.5319999
20
-50.7373561
11
186.5321344
21
-51.040222
0
LINE
8
0
10
187.0321344
20
-51.54
11
206.783
21
-51.54
0
LINE
8
0
10
207.283
20
-113.8395263
11
207.283
21
-52.04
0
LINE
8
0
10
206.7737645
20
-114.7215481
11
207.283
21
-113.8395263
0
LINE
8
0
10
192.5043166
20
-139.4391319
11
206.7737368
21
-114.721596
0
LINE
8
0
10
175.649264
20
-130.285235
11
191.8212944
21
-139.6221612
0
LINE
8
0
10
137.967948
20
-125.3350954
11
175.463889
21
-130.2224417
0
LINE
8
0
10
127.2522848
20
-110.8955223
11
137.6284904
21
-125.1337671
0
LINE
8
0
10
90.1320338
20
-110.69
11
126.848202
21
-110.69
0
LINE
8
0
10
89.632
20
-109.2400516
11
89.6320338
21
-110.1900178
0
ARC
8
0
10
90.1299662
20
-52.04005
40
0.5
50
90.0030138
51
450.0030138
0
ARC
8
0
10
108.13
20
-51.0391026
40
0.5
50
270.0030138
51
630.0030138
0
ARC
8
0
10
109.13
20
-47.29
40
0.5
50
90
51
450
0
ARC
8
0
10
127.13
20
-46.29
40
0.5
50
270
51
630
0
ARC
8
0
10
128.13
20
-45.038
40
0.5
50
90
51
450
0
ARC
8
0
10
148.032
20
-45.038
40
0.5
50
0
51
360
0
ARC
8
0
10
149.032
20
-46.29
40
0.5
50
180
51
540
0
ARC
8
0
10
167.032
20
-47.29
40
0.5
50
0
51
360
0
ARC
8
0
10
168.032
20
-48.788
40
0.5
50
180
51
540
0
ARC
8
0
10
186.0315782
20
-49.788
40
0.5
50
0.0254451
51
360.0254451
0
ARC
8
0
10
187.0321344
20
-51.04
40
0.5
50
180.0254393
51
540.0254393
0
ARC
8
0
10
206.783
20
-52.04
40
0.5
50
0
51
360
0
ARC
8
0
10
192.0712944
20
-139.1891485
40
0.5
50
239.9999999
51
599.9999999
0
ARC
8
0
10
175.399264
20
-130.7182477
40
0.5
50
59.9999999
51
419.9999999
0
ARC
8
0
10
138.0325731
20
-124.8392894
40
0.5
50
216.0829211
51
576.0829211
0
ARC
8
0
10
126.848202
20
-111.19
40
0.5
50
36.0829165
51
396.0829165
0
ARC
8
0
10
90.1320338
20
-110.19
40
0.5
50
180.0020398
51
540.0020398
0
LINE
8
0
10
90.832
20
-109.2400089
11
90.83
21
-52.9900089
0
LINE
8
0
10
90.8299911
20
-52.7400132
11
90.83
21
-52.9900089
0
LINE
8
0
10
90.8299911
20
-52.7400132
11
109.3300263
21
-52.7390395
0
LINE
8
0
10
109.83
20
-52.2390395
11
109.83
21
-47.99
0
LINE
8
0
10
109.83
20
-47.99
11
128.33
21
-47.99
0
LINE
8
0
10
128.83
20
-47.49
11
128.83
21
-45.738
0
LINE
8
0
10
128.83
20
-45.738
11
147.332
21
-45.738
0
LINE
8
0
10
147.332
20
-47.49
11
147.332
21
-45.738
0
LINE
8
0
10
147.832
20
-47.99
11
166.332
21
-47.99
0
LINE
8
0
10
166.332
20
-49.988
11
166.332
21
-47.99
0
LINE
8
0
10
166.832
20
-50.488
11
185.331889
21
-50.488
0
LINE
8
0
10
185.332
20
-50.737889
11
185.331889
21
-50.488
0
LINE
8
0
10
185.332
20
-50.737889
11
185.3326671
21
-52.240222
0
LINE
8
0
10
185.8326671
20
-52.74
11
206.083
21
-52.74
0
LINE
8
0
10
206.083
20
-113.5179873
11
206.083
21
-52.74
0
LINE
8
0
10
205.7345064
20
-114.121596
11
206.083
21
-113.5179873
0
LINE
8
0
10
191.8150535
20
-138.2329173
11
205.7345111
21
-114.1215877
0
LINE
8
0
10
176.0418526
20
-129.1262555
11
191.8150535
21
-138.2329173
0
LINE
8
0
10
138.4212035
20
-124.1840235
11
175.8564776
21
-129.0634622
0
LINE
8
0
10
127.8626219
20
-109.6955223
11
138.4212035
21
-124.1840235
0
LINE
8
0
10
90.8320089
20
-109.49
11
127.4585392
21
-109.49
0
LINE
8
0
10
90.832
20
-109.2400089
11
90.8320089
21
-109.49
0
ARC
8
0
10
109.33
20
-52.2390395
40
0.5
50
270.0030138
51
0
0
ARC
8
0
10
128.33
20
-47.49
40
0.5
50
270
51
0
0
ARC
8
0
10
147.832
20
-47.49
40
0.5
50
180
51
270
0
ARC
8
0
10
166.832
20
-49.988
40
0.5
50
180
51
270
0
ARC
8
0
10
185.8326671
20
-52.24
40
0.5
50
180.0254393
51
270
0
ARC
8
0
10
175.7918526
20
-129.5592682
40
0.5
50
59.9999999
51
82.5737449
0
ARC
8
0
10
127.4585392
20
-109.99
40
0.5
50
36.0829165
51
90
0
LINE
8
0
10
93.4818969
20
-106.3400178
11
93.4801031
21
-55.8898652
0
LINE
8
0
10
93.9800768
20
-55.3898474
11
111.9800263
21
-55.3889
0
LINE
8
0
10
112.48
20
-54.8889
11
112.48
21
-51.14
0
LINE
8
0
10
112.98
20
-50.64
11
130.8662329
21
-50.64
0
LINE
8
0
10
131.3652813
20
-50.1708333
11
131.4464452
21
-48.8571667
0
LINE
8
0
10
131.9454936
20
-48.388
11
144.2165064
21
-48.388
0
LINE
8
0
10
144.7155548
20
-48.8571667
11
144.7967187
21
-50.1708333
0
LINE
8
0
10
145.2957671
20
-50.64
11
163.682
21
-50.64
0
LINE
8
0
10
163.682
20
-52.638
11
163.682
21
-50.64
0
LINE
8
0
10
164.182
20
-53.138
11
182.2175064
21
-53.138
0
LINE
8
0
10
182.7165548
20
-53.6071667
11
182.7977187
21
-54.9208333
0
LINE
8
0
10
183.2967671
20
-55.39
11
202.933
21
-55.39
0
LINE
8
0
10
203.433
20
-55.89
11
203.433
21
-112.6739586
0
LINE
8
0
10
203.3660222
20
-112.9239421
11
191.0949918
21
-134.1798607
0
LINE
8
0
10
176.8223986
20
-126.5169475
11
190.4119696
21
-134.36289
0
LINE
8
0
10
140.1054148
20
-121.7311331
11
176.8223986
21
-126.5169475
0
LINE
8
0
10
139.765957
20
-121.5298048
11
129.7800052
21
-107.8270669
0
LINE
8
0
10
129.7791892
20
-107.8259472
11
129.21045
21
-107.0455223
0
LINE
8
0
10
93.9818969
20
-106.84
11
128.8063672
21
-106.84
0
ARC
8
0
10
93.9801031
20
-55.8898474
40
0.5
50
90.0030138
51
180.0020397
0
ARC
8
0
10
111.98
20
-54.8889
40
0.5
50
270.0030138
51
0
0
ARC
8
0
10
112.98
20
-51.14
40
0.5
50
90
51
180
0
ARC
8
0
10
130.8662329
20
-50.14
40
0.5
50
270
51
356.4645209
0
ARC
8
0
10
131.9454936
20
-48.888
40
0.5
50
90
51
176.4645209
0
ARC
8
0
10
144.2165064
20
-48.888
40
0.5
50
3.5354791
51
90
0
ARC
8
0
10
145.2957671
20
-50.14
40
0.5
50
183.5354791
51
270
0
ARC
8
0
10
164.182
20
-52.638
40
0.5
50
180
51
270
0
ARC
8
0
10
182.2175064
20
-53.638
40
0.5
50
3.5354791
51
90
0
ARC
8
0
10
183.2967671
20
-54.89
40
0.5
50
183.5354791
51
270
0
ARC
8
0
10
202.933
20
-55.89
40
0.5
50
0
51
90
0
ARC
8
0
10
202.933
20
-112.6739586
40
0.5
50
330.0021845
51
0
0
ARC
8
0
10
190.6619696
20
-133.9298773
40
0.5
50
239.9999999
51
330.0021845
0
ARC
8
0
10
140.1700398
20
-121.2353271
40
0.5
50
216.0829165
51
262.5737449
0
ARC
8
0
10
128.8063672
20
-107.34
40
0.5
50
36.0829131
51
90
0
ARC
8
0
10
93.9818969
20
-106.34
40
0.5
50
180.0020398
51
270
0
ENDSEC
0
EOF