0
SECTION
2
HEADER
9
$INSUNITS
70
4
0
ENDSEC
0
SECTION
2
TABLES
0
TABLE
2
LTYPE
0
LTYPE
72
65
70
64
2
CONTINUOUS
3
______
73
0
40
0
0
ENDTAB
0
TABLE
2
LAYER
0
ENDTAB
0
ENDSEC
0
SECTION
2
ENTITIES
0
LINE
8
0
10
87.060611
20
-54.4474236
11
91.8782717
21
-109.4909974
0
LINE
8
0
10
87.5181143
20
-53.9054785
11
108.5050375
21
-52.1960109
0
LINE
8
0
10
108.964445
20
-51.6976614
11
108.964445
21
-39.9078828
0
LINE
8
0
10
109.4627345
20
-39.4078857
11
127.4661555
21
-39.346295
0
LINE
8
0
10
127.964445
20
-38.8462979
11
127.964445
21
-35.0925903
0
LINE
8
0
10
128.464445
20
-34.5925903
11
145.466445
21
-34.5925903
0
LINE
8
0
10
145.966445
20
-39.8499559
11
145.966445
21
-35.0925903
0
LINE
8
0
10
146.4610506
20
-40.3499268
11
164.4718394
21
-40.5442539
0
LINE
8
0
10
164.966445
20
-42.5400341
11
164.966445
21
-41.0442248
0
LINE
8
0
10
165.4739442
20
-43.0399779
11
183.4591712
21
-42.7701995
0
LINE
8
0
10
183.9666704
20
-43.2699213
11
183.9674451
21
-45.0145904
0
LINE
8
0
10
185.5553609
20
-99.2321006
11
204.4024451
21
-100.5601864
0
LINE
8
0
10
185.1362133
20
-100.051087
11
211.0531598
21
-131.1298667
0
LINE
8
0
10
198.2724595
20
-144.5538955
11
211.0227117
21
-131.8036433
0
LINE
8
0
10
185.2184018
20
-131.6245719
11
197.5573001
21
-144.5456552
0
LINE
8
0
10
167.7363224
20
-121.075771
11
185.1147454
21
-131.5415604
0
LINE
8
0
10
149.7108171
20
-116.0969645
11
167.6110135
21
-121.0220102
0
LINE
8
0
10
146.4494955
20
-97.4683765
11
149.3496706
21
-115.6934558
0
LINE
8
0
10
108.9826876
20
-95.9375377
11
145.9707017
21
-97.0471781
0
LINE
8
0
10
108.4732259
20
-96.5114809
11
110.2118201
21
-108.1024599
0
LINE
8
0
10
92.4129103
20
-109.9460646
11
109.7538944
21
-108.6752908
0
LINE
8
0
10
184.4672232
20
-45.0145904
11
204.2174451
21
-45.0145904
0
LINE
8
0
10
204.7174451
20
-99.8806158
11
204.7174451
21
-45.5145904
0
LINE
8
0
10
204.4024451
20
-100.5601864
11
204.6504578
21
-100.1306158
0
ARC
8
0
10
87.5587068
20
-54.403828
40
0.5
50
94.6566888
51
454.6566888
0
ARC
8
0
10
108.464445
20
-51.6976614
40
0.5
50
274.6566888
51
634.6566888
0
ARC
8
0
10
109.464445
20
-39.9078828
40
0.5
50
90.1960093
51
450.1960093
0
ARC
8
0
10
127.464445
20
-38.8462979
40
0.5
50
270.1960093
51
630.1960093
0
ARC
8
0
10
128.464445
20
-35.0925903
40
0.5
50
90
51
450
0
ARC
8
0
10
145.466445
20
-35.0925903
40
0.5
50
0
51
360
0
ARC
8
0
10
146.466445
20
-39.8499559
40
0.5
50
180
51
540
0
ARC
8
0
10
164.466445
20
-41.0442248
40
0.5
50
0
51
360
0
ARC
8
0
10
165.466445
20
-42.5400341
40
0.5
50
180
51
540
0
ARC
8
0
10
183.4666704
20
-43.2701433
40
0.5
50
0.0254393
51
360.0254393
0
ARC
8
0
10
184.4672232
20
-44.5145904
40
0.5
50
180.0254393
51
540.0254393
0
ARC
8
0
10
204.2174451
20
-45.5145904
40
0.5
50
0
51
360
0
ARC
8
0
10
204.2174451
20
-99.8806158
40
0.5
50
329.9999999
51
689.9999999
0
ARC
8
0
10
185.5202148
20
-99.7308638
40
0.5
50
85.9692356
51
445.9692356
0
ARC
8
0
10
210.6691583
20
-131.4500899
40
0.5
50
315
51
675
0
ARC
8
0
10
197.9189061
20
-144.2003421
40
0.5
50
223.6796985
51
583.6796985
0
ARC
8
0
10
184.8567958
20
-131.969885
40
0.5
50
43.6796985
51
403.6796985
0
ARC
8
0
10
167.4783729
20
-121.5040957
40
0.5
50
58.9424303
51
418.9424303
0
ARC
8
0
10
149.8434577
20
-115.614879
40
0.5
50
189.0417248
51
549.0417248
0
ARC
8
0
10
145.9557084
20
-97.5469533
40
0.5
50
9.0417248
51
369.0417248
0
ARC
8
0
10
108.9676944
20
-96.4373129
40
0.5
50
88.2816425
51
448.2816425
0
ARC
8
0
10
109.7173516
20
-108.176628
40
0.5
50
274.1912332
51
8.5305135
0
ARC
8
0
10
92.3763675
20
-109.4474018
40
0.5
50
185.0020393
51
545.0020393
0
CIRCLE
8
0
10
107.384445
20
-57.9195904
40
1.1
0
CIRCLE
8
0
10
108.384445
20
-76.9195904
40
1.1
0
CIRCLE
8
0
10
165.3524451
20
-60.0105904
40
1.1
0
CIRCLE
8
0
10
150.1570461
20
-99.4324716
40
1.1
0
CIRCLE
8
0
10
189.8298246
20
-123.3510864
40
1.1
0
CIRCLE
8
0
10
107.384445
20
-57.9195904
40
2.15
0
CIRCLE
8
0
10
108.384445
20
-76.9195904
40
2.15
0
CIRCLE
8
0
10
165.3524451
20
-60.0105904
40
2.15
0
CIRCLE
8
0
10
150.1570461
20
-99.4324716
40
2.15
0
CIRCLE
8
0
10
189.8298246
20
-123.3510864
40
2.15
0
LINE
8
0
10
183.9674451
20
-45.0148124
11
183.9674451
21
-88.4733585
0
LINE
8
0
10
184.2174451
20
-88.9063712
11
202.5245612
21
-99.4759896
0
ARC
8
0
10
183.4674451
20
-45.0148124
40
0.5
50
0
51
0.0254393
0
ARC
8
0
10
184.4674451
20
-88.4733585
40
0.5
50
180
51
239.9999999
0
ARC
8
0
10
202.2745612
20
-99.9090023
40
0.5
50
265.9692356
51
59.9999999
0
LINE
8
0
10
93.6367273
20
-107.5834531
11
107.5834531
21
-106.3632727
0
LINE
8
0
10
107.5834531
20
-106.3632727
11
106.3632727
21
-92.4165469
0
LINE
8
0
10
106.3632727
20
-92.4165469
11
92.4165469
21
-93.6367273
0
LINE
8
0
10
92.4165469
20
-93.6367273
11
93.6367273
21
-107.5834531
0
LINE
8
0
10
91.9807682
20
-88.6557538
11
105.927494
21
-87.4355734
0
LINE
8
0
10
105.927494
20
-87.4355734
11
104.7073136
21
-73.4888476
0
LINE
8
0
10
104.7073136
20
-73.4888476
11
90.7605878
21
-74.709028
0
LINE
8
0
10
90.7605878
20
-74.709028
11
91.9807682
21
-88.6557538
0
LINE
8
0
10
90.3248091
20
-69.7280545
11
104.2715349
21
-68.5078741
0
LINE
8
0
10
104.2715349
20
-68.5078741
11
103.0513545
21
-54.5611483
0
LINE
8
0
10
103.0513545
20
-54.5611483
11
89.1046287
21
-55.7813287
0
LINE
8
0
10
89.1046287
20
-55.7813287
11
90.3248091
21
-69.7280545
0
LINE
8
0
10
110.884445
20
-93.4195904
11
124.884445
21
-93.4195904
0
LINE
8
0
10
124.884445
20
-93.4195904
11
124.884445
21
-79.4195904
0
LINE
8
0
10
124.884445
20
-79.4195904
11
110.884445
21
-79.4195904
0
LINE
8
0
10
110.884445
20
-79.4195904
11
110.884445
21
-93.4195904
0
LINE
8
0
10
110.884445
20
-74.4195904
11
124.884445
21
-74.4195904
0
LINE
8
0
10
124.884445
20
-74.4195904
11
124.884445
21
-60.4195904
0
LINE
8
0
10
124.884445
20
-60.4195904
11
110.884445
21
-60.4195904
0
LINE
8
0
10
110.884445
20
-60.4195904
11
110.884445
21
-74.4195904
0
LINE
8
0
10
110.884445
20
-55.4195904
11
124.884445
21
-55.4195904
0
LINE
8
0
10
124.884445
20
-55.4195904
11
124.884445
21
-41.4195904
0
LINE
8
0
10
124.884445
20
-41.4195904
11
110.884445
21
-41.4195904
0
LINE
8
0
10
110.884445
20
-41.4195904
11
110.884445
21
-55.4195904
0
LINE
8
0
10
129.884445
20
-88.4795903
11
143.884445
21
-88.4795903
0
LINE
8
0
10
143.884445
20
-88.4795903
11
143.884445
21
-74.4795903
0
LINE
8
0
10
143.884445
20
-74.4795903
11
129.884445
21
-74.4795903
0
LINE
8
0
10
129.884445
20
-74.4795903
11
129.884445
21
-88.4795903
0
LINE
8
0
10
129.884445
20
-69.4795903
11
143.884445
21
-69.4795903
0
LINE
8
0
10
143.884445
20
-69.4795903
11
143.884445
21
-55.4795903
0
LINE
8
0
10
143.884445
20
-55.4795903
11
129.884445
21
-55.4795903
0
LINE
8
0
10
129.884445
20
-55.4795903
11
129.884445
21
-69.4795903
0
LINE
8
0
10
129.884445
20
-50.4795903
11
143.884445
21
-50.4795903
0
LINE
8
0
10
143.884445
20
-50.4795903
11
143.884445
21
-36.4795903
0
LINE
8
0
10
143.884445
20
-36.4795903
11
129.884445
21
-36.4795903
0
LINE
8
0
10
129.884445
20
-36.4795903
11
129.884445
21
-50.4795903
0
LINE
8
0
10
148.884445
20
-94.5595904
11
162.884445
21
-94.5595904
0
LINE
8
0
10
162.884445
20
-94.5595904
11
162.884445
21
-80.5595904
0
LINE
8
0
10
162.884445
20
-80.5595904
11
148.884445
21
-80.5595904
0
LINE
8
0
10
148.884445
20
-80.5595904
11
148.884445
21
-94.5595904
0
LINE
8
0
10
148.884445
20
-75.5595904
11
162.884445
21
-75.5595904
0
LINE
8
0
10
162.884445
20
-75.5595904
11
162.884445
21
-61.5595904
0
LINE
8
0
10
162.884445
20
-61.5595904
11
148.884445
21
-61.5595904
0
LINE
8
0
10
148.884445
20
-61.5595904
11
148.884445
21
-75.5595904
0
LINE
8
0
10
148.884445
20
-56.5595904
11
162.884445
21
-56.5595904
0
LINE
8
0
10
162.884445
20
-56.5595904
11
162.884445
21
-42.5595904
0
LINE
8
0
10
162.884445
20
-42.5595904
11
148.884445
21
-42.5595904
0
LINE
8
0
10
148.884445
20
-42.5595904
11
148.884445
21
-56.5595904
0
LINE
8
0
10
167.8844451
20
-96.6495904
11
181.8844451
21
-96.6495904
0
LINE
8
0
10
181.8844451
20
-96.6495904
11
181.8844451
21
-82.6495904
0
LINE
8
0
10
181.8844451
20
-82.6495904
11
167.8844451
21
-82.6495904
0
LINE
8
0
10
167.8844451
20
-82.6495904
11
167.8844451
21
-96.6495904
0
LINE
8
0
10
167.8844451
20
-77.6495904
11
181.8844451
21
-77.6495904
0
LINE
8
0
10
181.8844451
20
-77.6495904
11
181.8844451
21
-63.6495904
0
LINE
8
0
10
181.8844451
20
-63.6495904
11
167.8844451
21
-63.6495904
0
LINE
8
0
10
167.8844451
20
-63.6495904
11
167.8844451
21
-77.6495904
0
LINE
8
0
10
167.8844451
20
-58.6495904
11
181.8844451
21
-58.6495904
0
LINE
8
0
10
181.8844451
20
-58.6495904
11
181.8844451
21
-44.6495904
0
LINE
8
0
10
181.8844451
20
-44.6495904
11
167.8844451
21
-44.6495904
0
LINE
8
0
10
167.8844451
20
-44.6495904
11
167.8844451
21
-58.6495904
0
LINE
8
0
10
151.8112309
20
-114.5093379
11
165.3341925
21
-118.1328045
0
LINE
8
0
10
165.3341925
20
-118.1328045
11
168.9576591
21
-104.6098429
0
LINE
8
0
10
168.9576591
20
-104.6098429
11
155.4346975
21
-100.9863763
0
LINE
8
0
10
155.4346975
20
-100.9863763
11
151.8112309
21
-114.5093379
0
LINE
8
0
10
170.3949572
20
-120.2132642
11
182.5193128
21
-127.2132642
0
LINE
8
0
10
182.5193128
20
-127.2132642
11
189.5193128
21
-115.0889086
0
LINE
8
0
10
189.5193128
20
-115.0889086
11
177.3949572
21
-108.0889086
0
LINE
8
0
10
177.3949572
20
-108.0889086
11
170.3949572
21
-120.2132642
0
LINE
8
0
10
188.0111687
20
-131.4806626
11
197.9106636
21
-141.3801575
0
LINE
8
0
10
197.9106636
20
-141.3801575
11
207.8101585
21
-131.4806626
0
LINE
8
0
10
207.8101585
20
-131.4806626
11
197.9106636
21
-121.5811677
0
LINE
8
0
10
197.9106636
20
-121.5811677
11
188.0111687
21
-131.4806626
0
LINE
8
0
10
184.9974451
20
-88.340568
11
184.9974451
21
-45.5145904
0
LINE
8
0
10
203.9674451
20
-99.5815777
11
185.2474451
21
-88.7735807
0
ARC
8
0
10
185.4974451
20
-45.5145904
40
0.5
50
90
51
180
0
ARC
8
0
10
204.2174451
20
-99.148565
40
0.5
50
239.9999999
51
0
0
ARC
8
0
10
185.4974451
20
-88.340568
40
0.5
50
180
51
239.9999999
0
LINE
8
0
10
93.8110387
20
-109.5758425
11
107.7577645
21
-108.3556621
0
LINE
8
0
10
109.5758425
20
-106.1889613
11
108.3556621
21
-92.2422355
0
LINE
8
0
10
106.1889613
20
-90.4241575
11
92.2422355
21
-91.6443379
0
LINE
8
0
10
90.4241575
20
-93.8110387
11
91.6443379
21
-107.7577645
0
LINE
8
0
10
92.1550796
20
-90.6481432
11
106.1018054
21
-89.4279628
0
LINE
8
0
10
107.9198834
20
-87.261262
11
106.699703
21
-73.3145362
0
LINE
8
0
10
104.5330022
20
-71.4964582
11
90.5862764
21
-72.7166386
0
LINE
8
0
10
88.7681984
20
-74.8833394
11
89.9883788
21
-88.8300652
0
LINE
8
0
10
90.4991205
20
-71.7204439
11
104.4458463
21
-70.5002635
0
LINE
8
0
10
106.2639243
20
-68.3335627
11
105.0437439
21
-54.3868369
0
LINE
8
0
10
102.8770431
20
-52.5687589
11
88.9303173
21
-53.7889393
0
LINE
8
0
10
87.1122393
20
-55.9556401
11
88.3324197
21
-69.9023659
0
LINE
8
0
10
110.884445
20
-95.4195904
11
124.884445
21
-95.4195904
0
LINE
8
0
10
126.884445
20
-93.4195904
11
126.884445
21
-79.4195904
0
LINE
8
0
10
124.884445
20
-77.4195904
11
110.884445
21
-77.4195904
0
LINE
8
0
10
108.884445
20
-79.4195904
11
108.884445
21
-93.4195904
0
LINE
8
0
10
110.884445
20
-76.4195904
11
124.884445
21
-76.4195904
0
LINE
8
0
10
126.884445
20
-74.4195904
11
126.884445
21
-60.4195904
0
LINE
8
0
10
124.884445
20
-58.4195904
11
110.884445
21
-58.4195904
0
LINE
8
0
10
108.884445
20
-60.4195904
11
108.884445
21
-74.4195904
0
LINE
8
0
10
110.884445
20
-57.4195904
11
124.884445
21
-57.4195904
0
LINE
8
0
10
126.884445
20
-55.4195904
11
126.884445
21
-41.4195904
0
LINE
8
0
10
124.884445
20
-39.4195904
11
110.884445
21
-39.4195904
0
LINE
8
0
10
108.884445
20
-41.4195904
11
108.884445
21
-55.4195904
0
LINE
8
0
10
129.884445
20
-90.4795903
11
143.884445
21
-90.4795903
0
LINE
8
0
10
145.884445
20
-88.4795903
11
145.884445
21
-74.4795903
0
LINE
8
0
10
143.884445
20
-72.4795903
11
129.884445
21
-72.4795903
0
LINE
8
0
10
127.884445
20
-74.4795903
11
127.884445
21
-88.4795903
0
LINE
8
0
10
129.884445
20
-71.4795903
11
143.884445
21
-71.4795903
0
LINE
8
0
10
145.884445
20
-69.4795903
11
145.884445
21
-55.4795903
0
LINE
8
0
10
143.884445
20
-53.4795903
11
129.884445
21
-53.4795903
0
LINE
8
0
10
127.884445
20
-55.4795903
11
127.884445
21
-69.4795903
0
LINE
8
0
10
129.884445
20
-52.4795903
11
143.884445
21
-52.4795903
0
LINE
8
0
10
145.884445
20
-50.4795903
11
145.884445
21
-36.4795903
0
LINE
8
0
10
143.884445
20
-34.4795903
11
129.884445
21
-34.4795903
0
LINE
8
0
10
127.884445
20
-36.4795903
11
127.884445
21
-50.4795903
0
LINE
8
0
10
148.884445
20
-96.5595904
11
162.884445
21
-96.5595904
0
LINE
8
0
10
164.884445
20
-94.5595904
11
164.884445
21
-80.5595904
0
LINE
8
0
10
162.884445
20
-78.5595904
11
148.884445
21
-78.5595904
0
LINE
8
0
10
146.884445
20
-80.5595904
11
146.884445
21
-94.5595904
0
LINE
8
0
10
148.884445
20
-77.5595904
11
162.884445
21
-77.5595904
0
LINE
8
0
10
164.884445
20
-75.5595904
11
164.884445
21
-61.5595904
0
LINE
8
0
10
162.884445
20
-59.5595904
11
148.884445
21
-59.5595904
0
LINE
8
0
10
146.884445
20
-61.5595904
11
146.884445
21
-75.5595904
0
LINE
8
0
10
148.884445
20
-58.5595904
11
162.884445
21
-58.5595904
0
LINE
8
0
10
164.884445
20
-56.5595904
11
164.884445
21
-42.5595904
0
LINE
8
0
10
162.884445
20
-40.5595904
11
148.884445
21
-40.5595904
0
LINE
8
0
10
146.884445
20
-42.5595904
11
146.884445
21
-56.5595904
0
LINE
8
0
10
167.8844451
20
-98.6495904
11
181.8844451
21
-98.6495904
0
LINE
8
0
10
183.8844451
20
-96.6495904
11
183.8844451
21
-82.6495904
0
LINE
8
0
10
181.8844451
20
-80.6495904
11
167.8844451
21
-80.6495904
0
LINE
8
0
10
165.8844451
20
-82.6495904
11
165.8844451
21
-96.6495904
0
LINE
8
0
10
167.8844451
20
-79.6495904
11
181.8844451
21
-79.6495904
0
LINE
8
0
10
183.8844451
20
-77.6495904
11
183.8844451
21
-63.6495904
0
LINE
8
0
10
181.8844451
20
-61.6495904
11
167.8844451
21
-61.6495904
0
LINE
8
0
10
165.8844451
20
-63.6495904
11
165.8844451
21
-77.6495904
0
LINE
8
0
10
167.8844451
20
-60.6495904
11
181.8844451
21
-60.6495904
0
LINE
8
0
10
183.8844451
20
-58.6495904
11
183.8844451
21
-44.6495904
0
LINE
8
0
10
181.8844451
20
-42.6495904
11
167.8844451
21
-42.6495904
0
LINE
8
0
10
165.8844451
20
-44.6495904
11
165.8844451
21
-58.6495904
0
LINE
8
0
10
151.293593
20
-116.4411895
11
164.8165544
21
-120.0646561
0
LINE
8
0
10
167.2660441
20
-118.6504424
11
170.8895107
21
-105.127481
0
LINE
8
0
10
169.475297
20
-102.6779913
11
155.9523356
21
-99.0545247
0
LINE
8
0
10
153.5028459
20
-100.4687384
11
149.8793793
21
-113.9916998
0
LINE
8
0
10
169.3949572
20
-121.945315
11
181.5193128
21
-128.945315
0
LINE
8
0
10
184.2513636
20
-128.2132642
11
191.2513636
21
-116.0889086
0
LINE
8
0
10
190.5193128
20
-113.3568578
11
178.3949572
21
-106.3568578
0
LINE
8
0
10
175.6629064
20
-107.0889086
11
168.6629064
21
-119.2132642
0
LINE
8
0
10
186.5969551
20
-132.8948762
11
196.49645
21
-142.7943711
0
LINE
8
0
10
199.3248772
20
-142.7943711
11
209.2243721
21
-132.8948762
0
LINE
8
0
10
209.2243721
20
-130.066449
11
199.3248772
21
-120.1669541
0
LINE
8
0
10
196.49645
20
-120.1669541
11
186.5969551
21
-130.066449
0
ARC
8
0
10
197.9106636
20
-141.3801575
40
2
50
225
51
315
0
ARC
8
0
10
207.8101585
20
-131.4806626
40
2
50
315
51
45
0
ARC
8
0
10
197.9106636
20
-121.5811677
40
2
50
45
51
135
0
ARC
8
0
10
188.0111687
20
-131.4806626
40
2
50
135
51
225
0
ARC
8
0
10
107.5834531
20
-106.3632727
40
2
50
274.9999976
51
4.9999976
0
ARC
8
0
10
106.3632727
20
-92.4165469
40
2
50
4.9999976
51
94.9999976
0
ARC
8
0
10
92.4165469
20
-93.6367273
40
2
50
94.9999976
51
184.9999976
0
ARC
8
0
10
93.6367273
20
-107.5834531
40
2
50
184.9999976
51
274.9999976
0
ARC
8
0
10
105.927494
20
-87.4355734
40
2
50
274.9999976
51
4.9999976
0
ARC
8
0
10
104.7073136
20
-73.4888476
40
2
50
4.9999976
51
94.9999976
0
ARC
8
0
10
90.7605878
20
-74.709028
40
2
50
94.9999976
51
184.9999976
0
ARC
8
0
10
91.9807682
20
-88.6557538
40
2
50
184.9999976
51
274.9999976
0
ARC
8
0
10
104.2715349
20
-68.5078741
40
2
50
274.9999976
51
4.9999976
0
ARC
8
0
10
103.0513545
20
-54.5611483
40
2
50
4.9999976
51
94.9999976
0
ARC
8
0
10
89.1046287
20
-55.7813287
40
2
50
94.9999976
51
184.9999976
0
ARC
8
0
10
90.3248091
20
-69.7280545
40
2
50
184.9999976
51
274.9999976
0
ARC
8
0
10
124.884445
20
-93.4195904
40
2
50
270
51
0
0
ARC
8
0
10
124.884445
20
-79.4195904
40
2
50
0
51
90
0
ARC
8
0
10
110.884445
20
-79.4195904
40
2
50
90
51
180
0
ARC
8
0
10
110.884445
20
-93.4195904
40
2
50
180
51
270
0
ARC
8
0
10
124.884445
20
-74.4195904
40
2
50
270
51
0
0
ARC
8
0
10
124.884445
20
-60.4195904
40
2
50
0
51
90
0
ARC
8
0
10
110.884445
20
-60.4195904
40
2
50
90
51
180
0
ARC
8
0
10
110.884445
20
-74.4195904
40
2
50
180
51
270
0
ARC
8
0
10
124.884445
20
-55.4195904
40
2
50
270
51
0
0
ARC
8
0
10
124.884445
20
-41.4195904
40
2
50
0
51
90
0
ARC
8
0
10
110.884445
20
-41.4195904
40
2
50
90
51
180
0
ARC
8
0
10
110.884445
20
-55.4195904
40
2
50
180
51
270
0
ARC
8
0
10
143.884445
20
-88.4795903
40
2
50
270
51
0
0
ARC
8
0
10
143.884445
20
-74.4795903
40
2
50
0
51
90
0
ARC
8
0
10
129.884445
20
-74.4795903
40
2
50
90
51
180
0
ARC
8
0
10
129.884445
20
-88.4795903
40
2
50
180
51
270
0
ARC
8
0
10
143.884445
20
-69.4795903
40
2
50
270
51
0
0
ARC
8
0
10
143.884445
20
-55.4795903
40
2
50
0
51
90
0
ARC
8
0
10
129.884445
20
-55.4795903
40
2
50
90
51
180
0
ARC
8
0
10
129.884445
20
-69.4795903
40
2
50
180
51
270
0
ARC
8
0
10
143.884445
20
-50.4795903
40
2
50
270
51
0
0
ARC
8
0
10
143.884445
20
-36.4795903
40
2
50
0
51
90
0
ARC
8
0
10
129.884445
20
-36.4795903
40
2
50
90
51
180
0
ARC
8
0
10
129.884445
20
-50.4795903
40
2
50
180
51
270
0
ARC
8
0
10
162.884445
20
-94.5595904
40
2
50
270
51
0
0
ARC
8
0
10
162.884445
20
-80.5595904
40
2
50
0
51
90
0
ARC
8
0
10
148.884445
20
-80.5595904
40
2
50
90
51
180
0
ARC
8
0
10
148.884445
20
-94.5595904
40
2
50
180
51
270
0
ARC
8
0
10
162.884445
20
-75.5595904
40
2
50
270
51
0
0
ARC
8
0
10
162.884445
20
-61.5595904
40
2
50
0
51
90
0
ARC
8
0
10
148.884445
20
-61.5595904
40
2
50
90
51
180
0
ARC
8
0
10
148.884445
20
-75.5595904
40
2
50
180
51
270
0
ARC
8
0
10
162.884445
20
-56.5595904
40
2
50
270
51
0
0
ARC
8
0
10
162.884445
20
-42.5595904
40
2
50
0
51
90
0
ARC
8
0
10
148.884445
20
-42.5595904
40
2
50
90
51
180
0
ARC
8
0
10
148.884445
20
-56.5595904
40
2
50
180
51
270
0
ARC
8
0
10
181.8844451
20
-96.6495904
40
2
50
270
51
0
0
ARC
8
0
10
181.8844451
20
-82.6495904
40
2
50
0
51
90
0
ARC
8
0
10
167.8844451
20
-82.6495904
40
2
50
90
51
180
0
ARC
8
0
10
167.8844451
20
-96.6495904
40
2
50
180
51
270
0
ARC
8
0
10
181.8844451
20
-77.6495904
40
2
50
270
51
0
0
ARC
8
0
10
181.8844451
20
-63.6495904
40
2
50
0
51
90
0
ARC
8
0
10
167.8844451
20
-63.6495904
40
2
50
90
51
180
0
ARC
8
0
10
167.8844451
20
-77.6495904
40
2
50
180
51
270
0
ARC
8
0
10
181.8844451
20
-58.6495904
40
2
50
270
51
0
0
ARC
8
0
10
181.8844451
20
-44.6495904
40
2
50
0
51
90
0
ARC
8
0
10
167.8844451
20
-44.6495904
40
2
50
90
51
180
0
ARC
8
0
10
167.8844451
20
-58.6495904
40
2
50
180
51
270
0
ARC
8
0
10
182.5193128
20
-127.2132642
40
2
50
239.9999999
51
329.9999999
0
ARC
8
0
10
189.5193128
20
-115.0889086
40
2
50
329.9999999
51
59.9999999
0
ARC
8
0
10
177.3949572
20
-108.0889086
40
2
50
59.9999999
51
149.9999999
0
ARC
8
0
10
170.3949572
20
-120.2132642
40
2
50
149.9999999
51
239.9999999
0
ARC
8
0
10
165.3341924
20
-118.1328044
40
2
50
255.0000021
51
345.0000021
0
ARC
8
0
10
168.957659
20
-104.609843
40
2
50
345.0000021
51
75.0000021
0
ARC
8
0
10
155.4346976
20
-100.9863764
40
2
50
75.0000021
51
165.0000021
0
ARC
8
0
10
151.811231
20
-114.5093378
40
2
50
165.0000021
51
255.0000021
0
LINE
8
0
10
85.5722741
20
-54.0727436
11
90.5584445
21
-111.0416045
0
LINE
8
0
10
85.4889417
20
-53.12064
11
85.5722741
21
-54.0727436
0
LINE
8
0
10
85.946445
20
-52.5786949
11
107.0550375
21
-50.8593169
0
LINE
8
0
10
107.514445
20
-50.3609674
11
107.514445
21
-38.4628348
0
LINE
8
0
10
108.0127345
20
-37.9628377
11
126.0161555
21
-37.901247
0
LINE
8
0
10
126.514445
20
-37.4012499
11
126.514445
21
-33.6425903
0
LINE
8
0
10
127.014445
20
-33.1425903
11
146.916445
21
-33.1425903
0
LINE
8
0
10
147.416445
20
-38.4155163
11
147.416445
21
-33.6425903
0
LINE
8
0
10
147.9110506
20
-38.9154872
11
165.9218394
21
-39.1098142
0
LINE
8
0
10
166.416445
20
-41.068121
11
166.416445
21
-39.6097851
0
LINE
8
0
10
166.9239442
20
-41.5680648
11
184.9085178
21
-41.2982962
0
LINE
8
0
10
185.4160169
20
-41.798018
11
185.416445
21
-42.7619465
0
LINE
8
0
10
185.416445
20
-42.7619465
11
185.4165795
21
-43.0648124
0
LINE
8
0
10
185.9165795
20
-43.5645904
11
205.6674451
21
-43.5645904
0
LINE
8
0
10
206.1674451
20
-100.4031167
11
206.1674451
21
-44.0645904
0
LINE
8
0
10
205.3611917
20
-101.7995887
11
206.1674451
21
-100.4031167
0
LINE
8
0
10
188.8490929
20
-100.9177936
11
204.8930329
21
-102.0483519
0
LINE
8
0
10
188.4299454
20
-101.7367799
11
213.0151086
21
-131.2185275
0
LINE
8
0
10
198.2485563
20
-146.6284084
11
212.9846605
21
-131.8923042
0
LINE
8
0
10
184.3039187
20
-132.7664849
11
197.5333969
21
-146.6201681
0
LINE
8
0
10
167.1592374
20
-122.4208749
11
184.2002623
21
-132.6834733
0
LINE
8
0
10
148.4256171
20
-117.2472381
11
167.0339285
21
-122.367114
0
LINE
8
0
10
145.2061596
20
-98.8817287
11
148.0644707
21
-116.8437294
0
LINE
8
0
10
110.6741109
20
-97.4389327
11
144.7273657
21
-98.4605303
0
LINE
8
0
10
110.1646491
20
-98.0128759
11
111.8778052
21
-109.4342622
0
LINE
8
0
10
91.0930831
20
-111.4966717
11
111.4198795
21
-110.0070931
0
ARC
8
0
10
85.9870375
20
-53.0770444
40
0.5
50
94.656683
51
454.656683
0
ARC
8
0
10
107.014445
20
-50.3609674
40
0.5
50
274.6566888
51
634.6566888
0
ARC
8
0
10
108.014445
20
-38.4628348
40
0.5
50
90.1960093
51
450.1960093
0
ARC
8
0
10
126.014445
20
-37.4012499
40
0.5
50
270.1960093
51
630.1960093
0
ARC
8
0
10
127.014445
20
-33.6425903
40
0.5
50
90
51
450
0
ARC
8
0
10
146.916445
20
-33.6425903
40
0.5
50
0
51
360
0
ARC
8
0
10
147.916445
20
-38.4155163
40
0.5
50
180
51
540
0
ARC
8
0
10
165.916445
20
-39.6097851
40
0.5
50
0
51
360
0
ARC
8
0
10
166.916445
20
-41.068121
40
0.5
50
180
51
540
0
ARC
8
0
10
184.9160169
20
-41.79824
40
0.5
50
0.0254451
51
360.0254451
0
ARC
8
0
10
185.9165795
20
-43.0645904
40
0.5
50
180.0254393
51
540.0254393
0
ARC
8
0
10
205.6674451
20
-44.0645904
40
0.5
50
0
51
360
0
ARC
8
0
10
204.9281789
20
-101.5495887
40
0.5
50
265.9692413
51
625.9692413
0
ARC
8
0
10
188.8139469
20
-101.4165567
40
0.5
50
85.9692356
51
445.9692356
0
ARC
8
0
10
212.6311071
20
-131.5387507
40
0.5
50
314.9999959
51
674.9999959
0
ARC
8
0
10
197.8950028
20
-146.274855
40
0.5
50
223.6796985
51
583.6796985
0
ARC
8
0
10
183.9423128
20
-133.111798
40
0.5
50
43.6796985
51
403.6796985
0
ARC
8
0
10
166.9012879
20
-122.8491995
40
0.5
50
58.9424303
51
418.9424303
0
ARC
8
0
10
148.5582578
20
-116.7651526
40
0.5
50
189.0417192
51
549.0417192
0
ARC
8
0
10
144.7123725
20
-98.9603055
40
0.5
50
9.0417248
51
369.0417248
0
ARC
8
0
10
110.6591176
20
-97.9387079
40
0.5
50
88.2816425
51
448.2816425
0
ARC
8
0
10
111.3833367
20
-109.5084303
40
0.5
50
274.1912275
51
634.1912275
0
ARC
8
0
10
91.0565403
20
-110.9980089
40
0.5
50
185.0020336
51
545.0020336
0
LINE
8
0
10
91.6722068
20
-110.0038917
11
86.767704
21
-53.9681142
0
LINE
8
0
10
86.7457744
20
-53.7175606
11
86.767704
21
-53.9681142
0
LINE
8
0
10
86.7457744
20
-53.7175606
11
108.2550375
21
-51.9655464
0
LINE
8
0
10
108.714445
20
-51.4671969
11
108.714445
21
-39.1604442
0
LINE
8
0
10
108.714445
20
-39.1604442
11
127.2161555
21
-39.0971488
0
LINE
8
0
10
127.714445
20
-38.5971517
11
127.714445
21
-34.3425903
0
LINE
8
0
10
127.714445
20
-34.3425903
11
146.216445
21
-34.3425903
0
LINE
8
0
10
146.216445
20
-39.6026388
11
146.216445
21
-34.3425903
0
LINE
8
0
10
146.7110506
20
-40.1026097
11
165.216445
21
-40.3022732
0
LINE
8
0
10
165.216445
20
-42.286256
11
165.216445
21
-40.3022732
0
LINE
8
0
10
165.7239442
20
-42.7861998
11
184.2163324
21
-42.508814
0
LINE
8
0
10
184.2164451
20
-42.7624794
11
184.2163324
21
-42.508814
0
LINE
8
0
10
184.2164451
20
-42.7624794
11
184.2171122
21
-44.2648124
0
LINE
8
0
10
184.7171122
20
-44.7645904
11
204.9674451
21
-44.7645904
0
LINE
8
0
10
204.9674451
20
-100.0815777
11
204.9674451
21
-44.7645904
0
LINE
8
0
10
204.5407961
20
-100.8205554
11
204.9674451
21
-100.0815777
0
LINE
8
0
10
186.1232457
20
-99.5227373
11
204.5407961
21
-100.8205554
0
LINE
8
0
10
185.7040981
20
-100.3417237
11
211.6839594
21
-131.4959489
0
LINE
8
0
10
197.9065423
20
-145.2733661
11
211.6839594
21
-131.4959489
0
LINE
8
0
10
185.0607323
20
-131.8214535
11
197.9065423
21
-145.2733661
0
LINE
8
0
10
184.9570759
20
-131.7384419
11
167.6368251
21
-121.3076855
0
LINE
8
0
10
149.1786991
20
-116.209848
11
167.5115162
21
-121.2539247
0
LINE
8
0
10
149.1533918
20
-116.0508134
11
149.1786991
21
-116.209848
0
LINE
8
0
10
149.1533918
20
-116.0508134
11
146.2351273
21
-97.7120579
0
LINE
8
0
10
145.7563335
20
-97.2908596
11
109.2743124
21
-96.1963989
0
LINE
8
0
10
108.7648506
20
-96.7703422
11
110.5390635
21
-108.5987861
0
LINE
8
0
10
110.579068
20
-108.8654912
11
110.5390635
21
-108.5987861
0
LINE
8
0
10
91.6936983
20
-110.24944
11
110.579068
21
-108.8654912
0
LINE
8
0
10
91.6722068
20
-110.0038917
11
91.6936983
21
-110.24944
0
ARC
8
0
10
108.214445
20
-51.4671969
40
0.5
50
274.6566888
51
0
0
ARC
8
0
10
127.214445
20
-38.5971517
40
0.5
50
270.1960093
51
0
0
ARC
8
0
10
146.716445
20
-39.6026388
40
0.5
50
180
51
269.3818296
0
ARC
8
0
10
165.716445
20
-42.286256
40
0.5
50
180
51
270.8593715
0
ARC
8
0
10
184.7171122
20
-44.2645904
40
0.5
50
180.0254393
51
270
0
ARC
8
0
10
186.0880996
20
-100.0215005
40
0.5
50
85.9692356
51
219.825109
0
ARC
8
0
10
184.6991264
20
-132.1667666
40
0.5
50
43.6796985
51
58.9424303
0
ARC
8
0
10
167.3788756
20
-121.7360102
40
0.5
50
58.9424303
51
74.6163323
0
ARC
8
0
10
145.7413402
20
-97.7906348
40
0.5
50
9.0417248
51
88.2816425
0
ARC
8
0
10
109.2593191
20
-96.6961741
40
0.5
50
88.2816425
51
188.5305135
0
LINE
8
0
10
94.0628133
20
-106.9244753
11
89.6619948
21
-56.6434791
0
LINE
8
0
10
90.119498
20
-56.101534
11
110.9050375
21
-54.40847
0
LINE
8
0
10
111.364445
20
-53.9101205
11
111.364445
21
-42.2996864
0
LINE
8
0
10
111.8627345
20
-41.7996893
11
129.8661556
21
-41.7380985
0
LINE
8
0
10
130.364445
20
-41.2381014
11
130.364445
21
-37.4925903
0
LINE
8
0
10
130.864445
20
-36.9925903
11
143.066445
21
-36.9925903
0
LINE
8
0
10
143.566445
20
-42.2242009
11
143.566445
21
-37.4925903
0
LINE
8
0
10
144.0610506
20
-42.7241718
11
162.566445
21
-42.9238353
0
LINE
8
0
10
162.566445
20
-44.9763041
11
162.566445
21
-42.9238353
0
LINE
8
0
10
163.0739442
20
-45.4762479
11
181.1045587
21
-45.2057886
0
LINE
8
0
10
181.6105839
20
-45.6673681
11
181.7095169
21
-46.9529547
0
LINE
8
0
10
182.2080429
20
-47.4145904
11
201.8174451
21
-47.4145904
0
LINE
8
0
10
202.3174451
20
-47.9145904
11
202.3174451
21
-97.4708397
0
LINE
8
0
10
180.1036664
20
-96.4419882
11
201.7822991
21
-97.9696029
0
LINE
8
0
10
179.6845188
20
-97.2609746
11
207.8057961
21
-130.9831178
0
LINE
8
0
10
207.775348
20
-131.6568944
11
198.3120234
21
-141.120219
0
LINE
8
0
10
186.6857618
20
-129.686059
11
197.596864
21
-141.1119787
0
LINE
8
0
10
168.6325434
20
-118.8138883
11
186.6857618
21
-129.686059
0
LINE
8
0
10
151.8380446
20
-114.1930633
11
168.6325434
21
-118.8138883
0
LINE
8
0
10
148.507431
20
-95.1290348
11
151.4768982
21
-113.7895547
0
LINE
8
0
10
106.1830906
20
-93.45247
11
148.0286372
21
-94.7078364
0
LINE
8
0
10
105.6736289
20
-94.0264132
11
107.4543276
21
-105.8980976
0
LINE
8
0
10
106.9964019
20
-106.4709285
11
94.5974519
21
-107.3795425
0
ARC
8
0
10
90.1600906
20
-56.5998835
40
0.5
50
94.6566888
51
185.0020393
0
ARC
8
0
10
110.864445
20
-53.9101205
40
0.5
50
274.656683
51
0
0
ARC
8
0
10
111.864445
20
-42.2996864
40
0.5
50
90.1960093
51
180
0
ARC
8
0
10
129.864445
20
-41.2381014
40
0.5
50
270.196015
51
0
0
ARC
8
0
10
130.864445
20
-37.4925903
40
0.5
50
90
51
180
0
ARC
8
0
10
143.066445
20
-37.4925903
40
0.5
50
0
51
90
0
ARC
8
0
10
144.066445
20
-42.2242009
40
0.5
50
180
51
269.3818353
0
ARC
8
0
10
163.066445
20
-44.9763041
40
0.5
50
180
51
270.8593715
0
ARC
8
0
10
181.1120579
20
-45.7057324
40
0.5
50
4.4005558
51
90.8593715
0
ARC
8
0
10
182.2080429
20
-46.9145904
40
0.5
50
184.4005558
51
270
0
ARC
8
0
10
201.8174451
20
-47.9145904
40
0.5
50
0
51
90
0
ARC
8
0
10
201.8174451
20
-97.4708397
40
0.5
50
265.9692356
51
0
0
ARC
8
0
10
180.0685203
20
-96.9407514
40
0.5
50
85.9692356
51
219.825109
0
ARC
8
0
10
207.4217946
20
-131.303341
40
0.5
50
315
51
39.825109
0
ARC
8
0
10
197.95847
20
-140.7666656
40
0.5
50
223.6796985
51
315
0
ARC
8
0
10
151.9706853
20
-113.7109778
40
0.5
50
189.0417248
51
254.6163323
0
ARC
8
0
10
148.0136439
20
-95.2076116
40
0.5
50
9.0417192
51
88.2816425
0
ARC
8
0
10
106.1680974
20
-93.9522452
40
0.5
50
88.2816425
51
188.5305135
0
ARC
8
0
10
106.9598591
20
-105.9722657
40
0.5
50
274.1912332
51
8.5305135
0
ARC
8
0
10
94.5609091
20
-106.8808797
40
0.5
50
185.0020393
51
274.1912332
0
ENDSEC
0
EOF