<?xml version="1.0" encoding="utf-8" ?>
<svg baseProfile="full" height="787.6491937005574" version="1.1" viewBox="598.5476383450981 213.86631877366094 1000.0 787.6491937005574" width="1000" xmlns="http://www.w3.org/2000/svg" xmlns:ev="http://www.w3.org/2001/xml-events" xmlns:xlink="http://www.w3.org/1999/xlink"><defs /><line stroke="black" stroke-width="0.13274635374000002" transform="scale(7.533163599797418,-7.533163599797418)" x1="90.3687129" x2="91.8782446" y1="-92.2437231" y2="-109.4906875" /><line stroke="black" stroke-width="0.13274635374000002" transform="scale(7.533163599797418,-7.533163599797418)" x1="87.060611" x2="88.5491996" y1="-54.4474236" y2="-71.4551034" /><line stroke="black" stroke-width="0.13274635374000002" transform="scale(7.533163599797418,-7.533163599797418)" x1="88.7121175" x2="90.2058682" y1="-73.3165013" y2="-90.3831624" /><line stroke="black" stroke-width="0.13274635374000002" transform="scale(7.533163599797418,-7.533163599797418)" x1="87.5181143" x2="108.5050375" y1="-53.9054785" y2="-52.1960109" /><line stroke="black" stroke-width="0.13274635374000002" transform="scale(7.533163599797418,-7.533163599797418)" x1="108.964445" x2="108.964445" y1="-51.6976614" y2="-39.9078828" /><line stroke="black" stroke-width="0.13274635374000002" transform="scale(7.533163599797418,-7.533163599797418)" x1="109.4627345" x2="127.4661555" y1="-39.4078857" y2="-39.346295" /><line stroke="black" stroke-width="0.13274635374000002" transform="scale(7.533163599797418,-7.533163599797418)" x1="127.964445" x2="127.964445" y1="-38.8462979" y2="-35.0925903" /><line stroke="black" stroke-width="0.13274635374000002" transform="scale(7.533163599797418,-7.533163599797418)" x1="128.464445" x2="145.466445" y1="-34.5925903" y2="-34.5925903" /><line stroke="black" stroke-width="0.13274635374000002" transform="scale(7.533163599797418,-7.533163599797418)" x1="145.966445" x2="145.966445" y1="-39.8499559" y2="-35.0925903" /><line stroke="black" stroke-width="0.13274635374000002" transform="scale(7.533163599797418,-7.533163599797418)" x1="146.4610506" x2="164.4718394" y1="-40.3499268" y2="-40.5442539" /><line stroke="black" stroke-width="0.13274635374000002" transform="scale(7.533163599797418,-7.533163599797418)" x1="164.966445" x2="164.966445" y1="-42.5400341" y2="-41.0442248" /><line stroke="black" stroke-width="0.13274635374000002" transform="scale(7.533163599797418,-7.533163599797418)" x1="165.4739442" x2="183.4591712" y1="-43.0399779" y2="-42.7701995" /><line stroke="black" stroke-width="0.13274635374000002" transform="scale(7.533163599797418,-7.533163599797418)" x1="183.9666704" x2="183.9674451" y1="-43.2699213" y2="-45.0145904" /><line stroke="black" stroke-width="0.13274635374000002" transform="scale(7.533163599797418,-7.533163599797418)" x1="190.8686445" x2="204.4024451" y1="-126.1091037" y2="-106.0211864" /><line stroke="black" stroke-width="0.13274635374000002" transform="scale(7.533163599797418,-7.533163599797418)" x1="175.0080871" x2="190.2039758" y1="-117.4893918" y2="-126.2627423" /><line stroke="black" stroke-width="0.13274635374000002" transform="scale(7.533163599797418,-7.533163599797418)" x1="137.5239143" x2="174.8227121" y1="-112.5649486" y2="-117.4265985" /><line stroke="black" stroke-width="0.13274635374000002" transform="scale(7.533163599797418,-7.533163599797418)" x1="126.8446631" x2="137.3721942" y1="-107.4672883" y2="-112.519914" /><line stroke="black" stroke-width="0.13274635374000002" transform="scale(7.533163599797418,-7.533163599797418)" x1="92.4131977" x2="126.5914607" y1="-109.9457316" y2="-107.41942" /><line stroke="black" stroke-width="0.13274635374000002" transform="scale(7.533163599797418,-7.533163599797418)" x1="184.4672232" x2="204.2174451" y1="-45.0145904" y2="-45.0145904" /><line stroke="black" stroke-width="0.13274635374000002" transform="scale(7.533163599797418,-7.533163599797418)" x1="204.7174451" x2="204.7174451" y1="-105.3416158" y2="-45.5145904" /><line stroke="black" stroke-width="0.13274635374000002" transform="scale(7.533163599797418,-7.533163599797418)" x1="204.4024451" x2="204.6504578" y1="-106.0211864" y2="-105.5916158" /><circle cx="87.5587068" cy="-54.403828" fill="none" r="0.5" stroke="black" stroke-width="0.13274635374000002" transform="scale(7.533163599797418,-7.533163599797418)" /><circle cx="108.464445" cy="-51.6976614" fill="none" r="0.5" stroke="black" stroke-width="0.13274635374000002" transform="scale(7.533163599797418,-7.533163599797418)" /><circle cx="109.464445" cy="-39.9078828" fill="none" r="0.5" stroke="black" stroke-width="0.13274635374000002" transform="scale(7.533163599797418,-7.533163599797418)" /><circle cx="127.464445" cy="-38.8462979" fill="none" r="0.5" stroke="black" stroke-width="0.13274635374000002" transform="scale(7.533163599797418,-7.533163599797418)" /><circle cx="128.464445" cy="-35.0925903" fill="none" r="0.5" stroke="black" stroke-width="0.13274635374000002" transform="scale(7.533163599797418,-7.533163599797418)" /><circle cx="145.466445" cy="-35.0925903" fill="none" r="0.5" stroke="black" stroke-width="0.13274635374000002" transform="scale(7.533163599797418,-7.533163599797418)" /><circle cx="146.466445" cy="-39.8499559" fill="none" r="0.5" stroke="black" stroke-width="0.13274635374000002" transform="scale(7.533163599797418,-7.533163599797418)" /><circle cx="164.466445" cy="-41.0442248" fill="none" r="0.5" stroke="black" stroke-width="0.13274635374000002" transform="scale(7.533163599797418,-7.533163599797418)" /><circle cx="165.466445" cy="-42.5400341" fill="none" r="0.5" stroke="black" stroke-width="0.13274635374000002" transform="scale(7.533163599797418,-7.533163599797418)" /><circle cx="183.4666704" cy="-43.2701433" fill="none" r="0.5" stroke="black" stroke-width="0.13274635374000002" transform="scale(7.533163599797418,-7.533163599797418)" /><circle cx="184.4672232" cy="-44.5145904" fill="none" r="0.5" stroke="black" stroke-width="0.13274635374000002" transform="scale(7.533163599797418,-7.533163599797418)" /><circle cx="204.2174451" cy="-45.5145904" fill="none" r="0.5" stroke="black" stroke-width="0.13274635374000002" transform="scale(7.533163599797418,-7.533163599797418)" /><circle cx="204.2174451" cy="-105.3416158" fill="none" r="0.5" stroke="black" stroke-width="0.13274635374000002" transform="scale(7.533163599797418,-7.533163599797418)" /><circle cx="190.4539758" cy="-125.8297296" fill="none" r="0.5" stroke="black" stroke-width="0.13274635374000002" transform="scale(7.533163599797418,-7.533163599797418)" /><circle cx="174.7580871" cy="-117.9224045" fill="none" r="0.5" stroke="black" stroke-width="0.13274635374000002" transform="scale(7.533163599797418,-7.533163599797418)" /><circle cx="137.5885393" cy="-112.0691426" fill="none" r="0.5" stroke="black" stroke-width="0.13274635374000002" transform="scale(7.533163599797418,-7.533163599797418)" /><circle cx="126.628318" cy="-107.9180597" fill="none" r="0.5" stroke="black" stroke-width="0.13274635374000002" transform="scale(7.533163599797418,-7.533163599797418)" /><circle cx="92.3763404" cy="-109.4470919" fill="none" r="0.5" stroke="black" stroke-width="0.13274635374000002" transform="scale(7.533163599797418,-7.533163599797418)" /><circle cx="88.0522117" cy="-72.4364306" fill="none" r="1.1" stroke="black" stroke-width="0.13274635374000002" transform="scale(7.533163599797418,-7.533163599797418)" /><circle cx="89.7081708" cy="-91.3641299" fill="none" r="1.1" stroke="black" stroke-width="0.13274635374000002" transform="scale(7.533163599797418,-7.533163599797418)" /><circle cx="165.3524451" cy="-60.0105904" fill="none" r="1.1" stroke="black" stroke-width="0.13274635374000002" transform="scale(7.533163599797418,-7.533163599797418)" /><circle cx="132.541445" cy="-96.3445903" fill="none" r="1.1" stroke="black" stroke-width="0.13274635374000002" transform="scale(7.533163599797418,-7.533163599797418)" /><circle cx="179.1254966" cy="-103.9282479" fill="none" r="1.1" stroke="black" stroke-width="0.13274635374000002" transform="scale(7.533163599797418,-7.533163599797418)" /><circle cx="88.0522117" cy="-72.4364306" fill="none" r="2.15" stroke="black" stroke-width="0.13274635374000002" transform="scale(7.533163599797418,-7.533163599797418)" /><circle cx="89.7081708" cy="-91.3641299" fill="none" r="2.15" stroke="black" stroke-width="0.13274635374000002" transform="scale(7.533163599797418,-7.533163599797418)" /><circle cx="165.3524451" cy="-60.0105904" fill="none" r="2.15" stroke="black" stroke-width="0.13274635374000002" transform="scale(7.533163599797418,-7.533163599797418)" /><circle cx="132.541445" cy="-96.3445903" fill="none" r="2.15" stroke="black" stroke-width="0.13274635374000002" transform="scale(7.533163599797418,-7.533163599797418)" /><circle cx="179.1254966" cy="-103.9282479" fill="none" r="2.15" stroke="black" stroke-width="0.13274635374000002" transform="scale(7.533163599797418,-7.533163599797418)" /><circle cx="187.6464451" cy="-92.5005904" fill="none" r="1.1" stroke="black" stroke-width="0.13274635374000002" transform="scale(7.533163599797418,-7.533163599797418)" /><circle cx="202.0784451" cy="-101.0195904" fill="none" r="1.1" stroke="black" stroke-width="0.13274635374000002" transform="scale(7.533163599797418,-7.533163599797418)" /><line stroke="black" stroke-width="0.13274635374000002" transform="scale(7.533163599797418,-7.533163599797418)" x1="183.9674451" x2="183.9674451" y1="-45.0148124" y2="-93.9343585" /><line stroke="black" stroke-width="0.13274635374000002" transform="scale(7.533163599797418,-7.533163599797418)" x1="184.2174451" x2="203.9383454" y1="-94.3673712" y2="-105.7532383" /><circle cx="183.4674451" cy="-45.0148124" fill="none" r="0.5" stroke="black" stroke-width="0.13274635374000002" transform="scale(7.533163599797418,-7.533163599797418)" /><circle cx="184.4674451" cy="-93.9343585" fill="none" r="0.5" stroke="black" stroke-width="0.13274635374000002" transform="scale(7.533163599797418,-7.533163599797418)" /><circle cx="203.6883454" cy="-106.186251" fill="none" r="0.5" stroke="black" stroke-width="0.13274635374000002" transform="scale(7.533163599797418,-7.533163599797418)" /><line stroke="black" stroke-width="0.13274635374000002" transform="scale(7.533163599797418,-7.533163599797418)" x1="93.6367273" x2="107.5834531" y1="-107.5834531" y2="-106.3632727" /><line stroke="black" stroke-width="0.13274635374000002" transform="scale(7.533163599797418,-7.533163599797418)" x1="107.5834531" x2="106.3632727" y1="-106.3632727" y2="-92.4165469" /><line stroke="black" stroke-width="0.13274635374000002" transform="scale(7.533163599797418,-7.533163599797418)" x1="106.3632727" x2="92.4165469" y1="-92.4165469" y2="-93.6367273" /><line stroke="black" stroke-width="0.13274635374000002" transform="scale(7.533163599797418,-7.533163599797418)" x1="92.4165469" x2="93.6367273" y1="-93.6367273" y2="-107.5834531" /><line stroke="black" stroke-width="0.13274635374000002" transform="scale(7.533163599797418,-7.533163599797418)" x1="91.9807682" x2="105.927494" y1="-88.6557538" y2="-87.4355734" /><line stroke="black" stroke-width="0.13274635374000002" transform="scale(7.533163599797418,-7.533163599797418)" x1="105.927494" x2="104.7073136" y1="-87.4355734" y2="-73.4888476" /><line stroke="black" stroke-width="0.13274635374000002" transform="scale(7.533163599797418,-7.533163599797418)" x1="104.7073136" x2="90.7605878" y1="-73.4888476" y2="-74.709028" /><line stroke="black" stroke-width="0.13274635374000002" transform="scale(7.533163599797418,-7.533163599797418)" x1="90.7605878" x2="91.9807682" y1="-74.709028" y2="-88.6557538" /><line stroke="black" stroke-width="0.13274635374000002" transform="scale(7.533163599797418,-7.533163599797418)" x1="90.3248091" x2="104.2715349" y1="-69.7280545" y2="-68.5078741" /><line stroke="black" stroke-width="0.13274635374000002" transform="scale(7.533163599797418,-7.533163599797418)" x1="104.2715349" x2="103.0513545" y1="-68.5078741" y2="-54.5611483" /><line stroke="black" stroke-width="0.13274635374000002" transform="scale(7.533163599797418,-7.533163599797418)" x1="103.0513545" x2="89.1046287" y1="-54.5611483" y2="-55.7813287" /><line stroke="black" stroke-width="0.13274635374000002" transform="scale(7.533163599797418,-7.533163599797418)" x1="89.1046287" x2="90.3248091" y1="-55.7813287" y2="-69.7280545" /><line stroke="black" stroke-width="0.13274635374000002" transform="scale(7.533163599797418,-7.533163599797418)" x1="110.884445" x2="124.884445" y1="-93.4195904" y2="-93.4195904" /><line stroke="black" stroke-width="0.13274635374000002" transform="scale(7.533163599797418,-7.533163599797418)" x1="124.884445" x2="124.884445" y1="-93.4195904" y2="-79.4195904" /><line stroke="black" stroke-width="0.13274635374000002" transform="scale(7.533163599797418,-7.533163599797418)" x1="124.884445" x2="110.884445" y1="-79.4195904" y2="-79.4195904" /><line stroke="black" stroke-width="0.13274635374000002" transform="scale(7.533163599797418,-7.533163599797418)" x1="110.884445" x2="110.884445" y1="-79.4195904" y2="-93.4195904" /><line stroke="black" stroke-width="0.13274635374000002" transform="scale(7.533163599797418,-7.533163599797418)" x1="110.884445" x2="124.884445" y1="-74.4195904" y2="-74.4195904" /><line stroke="black" stroke-width="0.13274635374000002" transform="scale(7.533163599797418,-7.533163599797418)" x1="124.884445" x2="124.884445" y1="-74.4195904" y2="-60.4195904" /><line stroke="black" stroke-width="0.13274635374000002" transform="scale(7.533163599797418,-7.533163599797418)" x1="124.884445" x2="110.884445" y1="-60.4195904" y2="-60.4195904" /><line stroke="black" stroke-width="0.13274635374000002" transform="scale(7.533163599797418,-7.533163599797418)" x1="110.884445" x2="110.884445" y1="-60.4195904" y2="-74.4195904" /><line stroke="black" stroke-width="0.13274635374000002" transform="scale(7.533163599797418,-7.533163599797418)" x1="110.884445" x2="124.884445" y1="-55.4195904" y2="-55.4195904" /><line stroke="black" stroke-width="0.13274635374000002" transform="scale(7.533163599797418,-7.533163599797418)" x1="124.884445" x2="124.884445" y1="-55.4195904" y2="-41.4195904" /><line stroke="black" stroke-width="0.13274635374000002" transform="scale(7.533163599797418,-7.533163599797418)" x1="124.884445" x2="110.884445" y1="-41.4195904" y2="-41.4195904" /><line stroke="black" stroke-width="0.13274635374000002" transform="scale(7.533163599797418,-7.533163599797418)" x1="110.884445" x2="110.884445" y1="-41.4195904" y2="-55.4195904" /><line stroke="black" stroke-width="0.13274635374000002" transform="scale(7.533163599797418,-7.533163599797418)" x1="129.884445" x2="143.884445" y1="-88.4795903" y2="-88.4795903" /><line stroke="black" stroke-width="0.13274635374000002" transform="scale(7.533163599797418,-7.533163599797418)" x1="143.884445" x2="143.884445" y1="-88.4795903" y2="-74.4795903" /><line stroke="black" stroke-width="0.13274635374000002" transform="scale(7.533163599797418,-7.533163599797418)" x1="143.884445" x2="129.884445" y1="-74.4795903" y2="-74.4795903" /><line stroke="black" stroke-width="0.13274635374000002" transform="scale(7.533163599797418,-7.533163599797418)" x1="129.884445" x2="129.884445" y1="-74.4795903" y2="-88.4795903" /><line stroke="black" stroke-width="0.13274635374000002" transform="scale(7.533163599797418,-7.533163599797418)" x1="129.884445" x2="143.884445" y1="-69.4795903" y2="-69.4795903" /><line stroke="black" stroke-width="0.13274635374000002" transform="scale(7.533163599797418,-7.533163599797418)" x1="143.884445" x2="143.884445" y1="-69.4795903" y2="-55.4795903" /><line stroke="black" stroke-width="0.13274635374000002" transform="scale(7.533163599797418,-7.533163599797418)" x1="143.884445" x2="129.884445" y1="-55.4795903" y2="-55.4795903" /><line stroke="black" stroke-width="0.13274635374000002" transform="scale(7.533163599797418,-7.533163599797418)" x1="129.884445" x2="129.884445" y1="-55.4795903" y2="-69.4795903" /><line stroke="black" stroke-width="0.13274635374000002" transform="scale(7.533163599797418,-7.533163599797418)" x1="129.884445" x2="143.884445" y1="-50.4795903" y2="-50.4795903" /><line stroke="black" stroke-width="0.13274635374000002" transform="scale(7.533163599797418,-7.533163599797418)" x1="143.884445" x2="143.884445" y1="-50.4795903" y2="-36.4795903" /><line stroke="black" stroke-width="0.13274635374000002" transform="scale(7.533163599797418,-7.533163599797418)" x1="143.884445" x2="129.884445" y1="-36.4795903" y2="-36.4795903" /><line stroke="black" stroke-width="0.13274635374000002" transform="scale(7.533163599797418,-7.533163599797418)" x1="129.884445" x2="129.884445" y1="-36.4795903" y2="-50.4795903" /><line stroke="black" stroke-width="0.13274635374000002" transform="scale(7.533163599797418,-7.533163599797418)" x1="148.884445" x2="162.884445" y1="-94.5595904" y2="-94.5595904" /><line stroke="black" stroke-width="0.13274635374000002" transform="scale(7.533163599797418,-7.533163599797418)" x1="162.884445" x2="162.884445" y1="-94.5595904" y2="-80.5595904" /><line stroke="black" stroke-width="0.13274635374000002" transform="scale(7.533163599797418,-7.533163599797418)" x1="162.884445" x2="148.884445" y1="-80.5595904" y2="-80.5595904" /><line stroke="black" stroke-width="0.13274635374000002" transform="scale(7.533163599797418,-7.533163599797418)" x1="148.884445" x2="148.884445" y1="-80.5595904" y2="-94.5595904" /><line stroke="black" stroke-width="0.13274635374000002" transform="scale(7.533163599797418,-7.533163599797418)" x1="148.884445" x2="162.884445" y1="-75.5595904" y2="-75.5595904" /><line stroke="black" stroke-width="0.13274635374000002" transform="scale(7.533163599797418,-7.533163599797418)" x1="162.884445" x2="162.884445" y1="-75.5595904" y2="-61.5595904" /><line stroke="black" stroke-width="0.13274635374000002" transform="scale(7.533163599797418,-7.533163599797418)" x1="162.884445" x2="148.884445" y1="-61.5595904" y2="-61.5595904" /><line stroke="black" stroke-width="0.13274635374000002" transform="scale(7.533163599797418,-7.533163599797418)" x1="148.884445" x2="148.884445" y1="-61.5595904" y2="-75.5595904" /><line stroke="black" stroke-width="0.13274635374000002" transform="scale(7.533163599797418,-7.533163599797418)" x1="148.884445" x2="162.884445" y1="-56.5595904" y2="-56.5595904" /><line stroke="black" stroke-width="0.13274635374000002" transform="scale(7.533163599797418,-7.533163599797418)" x1="162.884445" x2="162.884445" y1="-56.5595904" y2="-42.5595904" /><line stroke="black" stroke-width="0.13274635374000002" transform="scale(7.533163599797418,-7.533163599797418)" x1="162.884445" x2="148.884445" y1="-42.5595904" y2="-42.5595904" /><line stroke="black" stroke-width="0.13274635374000002" transform="scale(7.533163599797418,-7.533163599797418)" x1="148.884445" x2="148.884445" y1="-42.5595904" y2="-56.5595904" /><line stroke="black" stroke-width="0.13274635374000002" transform="scale(7.533163599797418,-7.533163599797418)" x1="167.8844451" x2="181.8844451" y1="-96.6495904" y2="-96.6495904" /><line stroke="black" stroke-width="0.13274635374000002" transform="scale(7.533163599797418,-7.533163599797418)" x1="181.8844451" x2="181.8844451" y1="-96.6495904" y2="-82.6495904" /><line stroke="black" stroke-width="0.13274635374000002" transform="scale(7.533163599797418,-7.533163599797418)" x1="181.8844451" x2="167.8844451" y1="-82.6495904" y2="-82.6495904" /><line stroke="black" stroke-width="0.13274635374000002" transform="scale(7.533163599797418,-7.533163599797418)" x1="167.8844451" x2="167.8844451" y1="-82.6495904" y2="-96.6495904" /><line stroke="black" stroke-width="0.13274635374000002" transform="scale(7.533163599797418,-7.533163599797418)" x1="167.8844451" x2="181.8844451" y1="-77.6495904" y2="-77.6495904" /><line stroke="black" stroke-width="0.13274635374000002" transform="scale(7.533163599797418,-7.533163599797418)" x1="181.8844451" x2="181.8844451" y1="-77.6495904" y2="-63.6495904" /><line stroke="black" stroke-width="0.13274635374000002" transform="scale(7.533163599797418,-7.533163599797418)" x1="181.8844451" x2="167.8844451" y1="-63.6495904" y2="-63.6495904" /><line stroke="black" stroke-width="0.13274635374000002" transform="scale(7.533163599797418,-7.533163599797418)" x1="167.8844451" x2="167.8844451" y1="-63.6495904" y2="-77.6495904" /><line stroke="black" stroke-width="0.13274635374000002" transform="scale(7.533163599797418,-7.533163599797418)" x1="167.8844451" x2="181.8844451" y1="-58.6495904" y2="-58.6495904" /><line stroke="black" stroke-width="0.13274635374000002" transform="scale(7.533163599797418,-7.533163599797418)" x1="181.8844451" x2="181.8844451" y1="-58.6495904" y2="-44.6495904" /><line stroke="black" stroke-width="0.13274635374000002" transform="scale(7.533163599797418,-7.533163599797418)" x1="181.8844451" x2="167.8844451" y1="-44.6495904" y2="-44.6495904" /><line stroke="black" stroke-width="0.13274635374000002" transform="scale(7.533163599797418,-7.533163599797418)" x1="167.8844451" x2="167.8844451" y1="-44.6495904" y2="-58.6495904" /><line stroke="black" stroke-width="0.13274635374000002" transform="scale(7.533163599797418,-7.533163599797418)" x1="139.384445" x2="153.384445" y1="-110.4795903" y2="-110.4795903" /><line stroke="black" stroke-width="0.13274635374000002" transform="scale(7.533163599797418,-7.533163599797418)" x1="153.384445" x2="153.384445" y1="-110.4795903" y2="-96.4795903" /><line stroke="black" stroke-width="0.13274635374000002" transform="scale(7.533163599797418,-7.533163599797418)" x1="153.384445" x2="139.384445" y1="-96.4795903" y2="-96.4795903" /><line stroke="black" stroke-width="0.13274635374000002" transform="scale(7.533163599797418,-7.533163599797418)" x1="139.384445" x2="139.384445" y1="-96.4795903" y2="-110.4795903" /><line stroke="black" stroke-width="0.13274635374000002" transform="scale(7.533163599797418,-7.533163599797418)" x1="158.8112309" x2="172.3341925" y1="-111.1793378" y2="-114.8028044" /><line stroke="black" stroke-width="0.13274635374000002" transform="scale(7.533163599797418,-7.533163599797418)" x1="172.3341925" x2="175.9576591" y1="-114.8028044" y2="-101.2798428" /><line stroke="black" stroke-width="0.13274635374000002" transform="scale(7.533163599797418,-7.533163599797418)" x1="175.9576591" x2="162.4346975" y1="-101.2798428" y2="-97.6563762" /><line stroke="black" stroke-width="0.13274635374000002" transform="scale(7.533163599797418,-7.533163599797418)" x1="162.4346975" x2="158.8112309" y1="-97.6563762" y2="-111.1793378" /><line stroke="black" stroke-width="0.13274635374000002" transform="scale(7.533163599797418,-7.533163599797418)" x1="192.1934286" x2="199.1934286" y1="-119.5559257" y2="-107.4315701" /><line stroke="black" stroke-width="0.13274635374000002" transform="scale(7.533163599797418,-7.533163599797418)" x1="199.1934286" x2="187.069073" y1="-107.4315701" y2="-100.4315701" /><line stroke="black" stroke-width="0.13274635374000002" transform="scale(7.533163599797418,-7.533163599797418)" x1="187.069073" x2="180.069073" y1="-100.4315701" y2="-112.5559257" /><line stroke="black" stroke-width="0.13274635374000002" transform="scale(7.533163599797418,-7.533163599797418)" x1="180.069073" x2="192.1934286" y1="-112.5559257" y2="-119.5559257" /><line stroke="black" stroke-width="0.13274635374000002" transform="scale(7.533163599797418,-7.533163599797418)" x1="184.9974451" x2="184.9974451" y1="-93.801568" y2="-45.5145904" /><line stroke="black" stroke-width="0.13274635374000002" transform="scale(7.533163599797418,-7.533163599797418)" x1="203.9674451" x2="185.2474451" y1="-105.0425777" y2="-94.2345807" /><circle cx="185.4974451" cy="-45.5145904" fill="none" r="0.5" stroke="black" stroke-width="0.13274635374000002" transform="scale(7.533163599797418,-7.533163599797418)" /><circle cx="204.2174451" cy="-104.609565" fill="none" r="0.5" stroke="black" stroke-width="0.13274635374000002" transform="scale(7.533163599797418,-7.533163599797418)" /><circle cx="185.4974451" cy="-93.801568" fill="none" r="0.5" stroke="black" stroke-width="0.13274635374000002" transform="scale(7.533163599797418,-7.533163599797418)" /><line stroke="black" stroke-width="0.13274635374000002" transform="scale(7.533163599797418,-7.533163599797418)" x1="93.8110387" x2="107.7577645" y1="-109.5758425" y2="-108.3556621" /><line stroke="black" stroke-width="0.13274635374000002" transform="scale(7.533163599797418,-7.533163599797418)" x1="109.5758425" x2="108.3556621" y1="-106.1889613" y2="-92.2422355" /><line stroke="black" stroke-width="0.13274635374000002" transform="scale(7.533163599797418,-7.533163599797418)" x1="106.1889613" x2="92.2422355" y1="-90.4241575" y2="-91.6443379" /><line stroke="black" stroke-width="0.13274635374000002" transform="scale(7.533163599797418,-7.533163599797418)" x1="90.4241575" x2="91.6443379" y1="-93.8110387" y2="-107.7577645" /><line stroke="black" stroke-width="0.13274635374000002" transform="scale(7.533163599797418,-7.533163599797418)" x1="92.1550796" x2="106.1018054" y1="-90.6481432" y2="-89.4279628" /><line stroke="black" stroke-width="0.13274635374000002" transform="scale(7.533163599797418,-7.533163599797418)" x1="107.9198834" x2="106.699703" y1="-87.261262" y2="-73.3145362" /><line stroke="black" stroke-width="0.13274635374000002" transform="scale(7.533163599797418,-7.533163599797418)" x1="104.5330022" x2="90.5862764" y1="-71.4964582" y2="-72.7166386" /><line stroke="black" stroke-width="0.13274635374000002" transform="scale(7.533163599797418,-7.533163599797418)" x1="88.7681984" x2="89.9883788" y1="-74.8833394" y2="-88.8300652" /><line stroke="black" stroke-width="0.13274635374000002" transform="scale(7.533163599797418,-7.533163599797418)" x1="90.4991205" x2="104.4458463" y1="-71.7204439" y2="-70.5002635" /><line stroke="black" stroke-width="0.13274635374000002" transform="scale(7.533163599797418,-7.533163599797418)" x1="106.2639243" x2="105.0437439" y1="-68.3335627" y2="-54.3868369" /><line stroke="black" stroke-width="0.13274635374000002" transform="scale(7.533163599797418,-7.533163599797418)" x1="102.8770431" x2="88.9303173" y1="-52.5687589" y2="-53.7889393" /><line stroke="black" stroke-width="0.13274635374000002" transform="scale(7.533163599797418,-7.533163599797418)" x1="87.1122393" x2="88.3324197" y1="-55.9556401" y2="-69.9023659" /><line stroke="black" stroke-width="0.13274635374000002" transform="scale(7.533163599797418,-7.533163599797418)" x1="110.884445" x2="124.884445" y1="-95.4195904" y2="-95.4195904" /><line stroke="black" stroke-width="0.13274635374000002" transform="scale(7.533163599797418,-7.533163599797418)" x1="126.884445" x2="126.884445" y1="-93.4195904" y2="-79.4195904" /><line stroke="black" stroke-width="0.13274635374000002" transform="scale(7.533163599797418,-7.533163599797418)" x1="124.884445" x2="110.884445" y1="-77.4195904" y2="-77.4195904" /><line stroke="black" stroke-width="0.13274635374000002" transform="scale(7.533163599797418,-7.533163599797418)" x1="108.884445" x2="108.884445" y1="-79.4195904" y2="-93.4195904" /><line stroke="black" stroke-width="0.13274635374000002" transform="scale(7.533163599797418,-7.533163599797418)" x1="110.884445" x2="124.884445" y1="-76.4195904" y2="-76.4195904" /><line stroke="black" stroke-width="0.13274635374000002" transform="scale(7.533163599797418,-7.533163599797418)" x1="126.884445" x2="126.884445" y1="-74.4195904" y2="-60.4195904" /><line stroke="black" stroke-width="0.13274635374000002" transform="scale(7.533163599797418,-7.533163599797418)" x1="124.884445" x2="110.884445" y1="-58.4195904" y2="-58.4195904" /><line stroke="black" stroke-width="0.13274635374000002" transform="scale(7.533163599797418,-7.533163599797418)" x1="108.884445" x2="108.884445" y1="-60.4195904" y2="-74.4195904" /><line stroke="black" stroke-width="0.13274635374000002" transform="scale(7.533163599797418,-7.533163599797418)" x1="110.884445" x2="124.884445" y1="-57.4195904" y2="-57.4195904" /><line stroke="black" stroke-width="0.13274635374000002" transform="scale(7.533163599797418,-7.533163599797418)" x1="126.884445" x2="126.884445" y1="-55.4195904" y2="-41.4195904" /><line stroke="black" stroke-width="0.13274635374000002" transform="scale(7.533163599797418,-7.533163599797418)" x1="124.884445" x2="110.884445" y1="-39.4195904" y2="-39.4195904" /><line stroke="black" stroke-width="0.13274635374000002" transform="scale(7.533163599797418,-7.533163599797418)" x1="108.884445" x2="108.884445" y1="-41.4195904" y2="-55.4195904" /><line stroke="black" stroke-width="0.13274635374000002" transform="scale(7.533163599797418,-7.533163599797418)" x1="129.884445" x2="143.884445" y1="-90.4795903" y2="-90.4795903" /><line stroke="black" stroke-width="0.13274635374000002" transform="scale(7.533163599797418,-7.533163599797418)" x1="145.884445" x2="145.884445" y1="-88.4795903" y2="-74.4795903" /><line stroke="black" stroke-width="0.13274635374000002" transform="scale(7.533163599797418,-7.533163599797418)" x1="143.884445" x2="129.884445" y1="-72.4795903" y2="-72.4795903" /><line stroke="black" stroke-width="0.13274635374000002" transform="scale(7.533163599797418,-7.533163599797418)" x1="127.884445" x2="127.884445" y1="-74.4795903" y2="-88.4795903" /><line stroke="black" stroke-width="0.13274635374000002" transform="scale(7.533163599797418,-7.533163599797418)" x1="129.884445" x2="143.884445" y1="-71.4795903" y2="-71.4795903" /><line stroke="black" stroke-width="0.13274635374000002" transform="scale(7.533163599797418,-7.533163599797418)" x1="145.884445" x2="145.884445" y1="-69.4795903" y2="-55.4795903" /><line stroke="black" stroke-width="0.13274635374000002" transform="scale(7.533163599797418,-7.533163599797418)" x1="143.884445" x2="129.884445" y1="-53.4795903" y2="-53.4795903" /><line stroke="black" stroke-width="0.13274635374000002" transform="scale(7.533163599797418,-7.533163599797418)" x1="127.884445" x2="127.884445" y1="-55.4795903" y2="-69.4795903" /><line stroke="black" stroke-width="0.13274635374000002" transform="scale(7.533163599797418,-7.533163599797418)" x1="129.884445" x2="143.884445" y1="-52.4795903" y2="-52.4795903" /><line stroke="black" stroke-width="0.13274635374000002" transform="scale(7.533163599797418,-7.533163599797418)" x1="145.884445" x2="145.884445" y1="-50.4795903" y2="-36.4795903" /><line stroke="black" stroke-width="0.13274635374000002" transform="scale(7.533163599797418,-7.533163599797418)" x1="143.884445" x2="129.884445" y1="-34.4795903" y2="-34.4795903" /><line stroke="black" stroke-width="0.13274635374000002" transform="scale(7.533163599797418,-7.533163599797418)" x1="127.884445" x2="127.884445" y1="-36.4795903" y2="-50.4795903" /><line stroke="black" stroke-width="0.13274635374000002" transform="scale(7.533163599797418,-7.533163599797418)" x1="157.384445" x2="158.0515773" y1="-96.5595904" y2="-96.5595904" /><line stroke="black" stroke-width="0.13274635374000002" transform="scale(7.533163599797418,-7.533163599797418)" x1="164.884445" x2="164.884445" y1="-96.2422317" y2="-80.5595904" /><line stroke="black" stroke-width="0.13274635374000002" transform="scale(7.533163599797418,-7.533163599797418)" x1="162.884445" x2="148.884445" y1="-78.5595904" y2="-78.5595904" /><line stroke="black" stroke-width="0.13274635374000002" transform="scale(7.533163599797418,-7.533163599797418)" x1="146.884445" x2="146.884445" y1="-80.5595904" y2="-92.4795903" /><line stroke="black" stroke-width="0.13274635374000002" transform="scale(7.533163599797418,-7.533163599797418)" x1="148.884445" x2="162.884445" y1="-77.5595904" y2="-77.5595904" /><line stroke="black" stroke-width="0.13274635374000002" transform="scale(7.533163599797418,-7.533163599797418)" x1="164.884445" x2="164.884445" y1="-75.5595904" y2="-61.5595904" /><line stroke="black" stroke-width="0.13274635374000002" transform="scale(7.533163599797418,-7.533163599797418)" x1="162.884445" x2="148.884445" y1="-59.5595904" y2="-59.5595904" /><line stroke="black" stroke-width="0.13274635374000002" transform="scale(7.533163599797418,-7.533163599797418)" x1="146.884445" x2="146.884445" y1="-61.5595904" y2="-75.5595904" /><line stroke="black" stroke-width="0.13274635374000002" transform="scale(7.533163599797418,-7.533163599797418)" x1="148.884445" x2="162.884445" y1="-58.5595904" y2="-58.5595904" /><line stroke="black" stroke-width="0.13274635374000002" transform="scale(7.533163599797418,-7.533163599797418)" x1="164.884445" x2="164.884445" y1="-56.5595904" y2="-42.5595904" /><line stroke="black" stroke-width="0.13274635374000002" transform="scale(7.533163599797418,-7.533163599797418)" x1="162.884445" x2="148.884445" y1="-40.5595904" y2="-40.5595904" /><line stroke="black" stroke-width="0.13274635374000002" transform="scale(7.533163599797418,-7.533163599797418)" x1="146.884445" x2="146.884445" y1="-42.5595904" y2="-56.5595904" /><line stroke="black" stroke-width="0.13274635374000002" transform="scale(7.533163599797418,-7.533163599797418)" x1="173.8688298" x2="181.8844451" y1="-98.6495904" y2="-98.6495904" /><line stroke="black" stroke-width="0.13274635374000002" transform="scale(7.533163599797418,-7.533163599797418)" x1="183.8844451" x2="183.8844451" y1="-96.6495904" y2="-82.6495904" /><line stroke="black" stroke-width="0.13274635374000002" transform="scale(7.533163599797418,-7.533163599797418)" x1="181.8844451" x2="167.8844451" y1="-80.6495904" y2="-80.6495904" /><line stroke="black" stroke-width="0.13274635374000002" transform="scale(7.533163599797418,-7.533163599797418)" x1="165.8844451" x2="165.8844451" y1="-82.6495904" y2="-96.510181" /><line stroke="black" stroke-width="0.13274635374000002" transform="scale(7.533163599797418,-7.533163599797418)" x1="167.8844451" x2="181.8844451" y1="-79.6495904" y2="-79.6495904" /><line stroke="black" stroke-width="0.13274635374000002" transform="scale(7.533163599797418,-7.533163599797418)" x1="183.8844451" x2="183.8844451" y1="-77.6495904" y2="-63.6495904" /><line stroke="black" stroke-width="0.13274635374000002" transform="scale(7.533163599797418,-7.533163599797418)" x1="181.8844451" x2="167.8844451" y1="-61.6495904" y2="-61.6495904" /><line stroke="black" stroke-width="0.13274635374000002" transform="scale(7.533163599797418,-7.533163599797418)" x1="165.8844451" x2="165.8844451" y1="-63.6495904" y2="-77.6495904" /><line stroke="black" stroke-width="0.13274635374000002" transform="scale(7.533163599797418,-7.533163599797418)" x1="167.8844451" x2="181.8844451" y1="-60.6495904" y2="-60.6495904" /><line stroke="black" stroke-width="0.13274635374000002" transform="scale(7.533163599797418,-7.533163599797418)" x1="183.8844451" x2="183.8844451" y1="-58.6495904" y2="-44.6495904" /><line stroke="black" stroke-width="0.13274635374000002" transform="scale(7.533163599797418,-7.533163599797418)" x1="181.8844451" x2="167.8844451" y1="-42.6495904" y2="-42.6495904" /><line stroke="black" stroke-width="0.13274635374000002" transform="scale(7.533163599797418,-7.533163599797418)" x1="165.8844451" x2="165.8844451" y1="-44.6495904" y2="-58.6495904" /><line stroke="black" stroke-width="0.13274635374000002" transform="scale(7.533163599797418,-7.533163599797418)" x1="139.384445" x2="153.384445" y1="-112.4795903" y2="-112.4795903" /><line stroke="black" stroke-width="0.13274635374000002" transform="scale(7.533163599797418,-7.533163599797418)" x1="155.384445" x2="155.384445" y1="-110.4795903" y2="-98.5595904" /><line stroke="black" stroke-width="0.13274635374000002" transform="scale(7.533163599797418,-7.533163599797418)" x1="144.884445" x2="139.384445" y1="-94.4795903" y2="-94.4795903" /><line stroke="black" stroke-width="0.13274635374000002" transform="scale(7.533163599797418,-7.533163599797418)" x1="137.384445" x2="137.384445" y1="-96.4795903" y2="-110.4795903" /><line stroke="black" stroke-width="0.13274635374000002" transform="scale(7.533163599797418,-7.533163599797418)" x1="158.293593" x2="171.8165544" y1="-113.1111894" y2="-116.734656" /><line stroke="black" stroke-width="0.13274635374000002" transform="scale(7.533163599797418,-7.533163599797418)" x1="174.2660441" x2="177.8895107" y1="-115.3204423" y2="-101.7974809" /><line stroke="black" stroke-width="0.13274635374000002" transform="scale(7.533163599797418,-7.533163599797418)" x1="176.475297" x2="173.8688298" y1="-99.3479912" y2="-98.6495904" /><line stroke="black" stroke-width="0.13274635374000002" transform="scale(7.533163599797418,-7.533163599797418)" x1="165.8844451" x2="164.884445" y1="-96.510181" y2="-96.2422317" /><line stroke="black" stroke-width="0.13274635374000002" transform="scale(7.533163599797418,-7.533163599797418)" x1="159.983429" x2="156.8793793" y1="-99.0772284" y2="-110.6616997" /><line stroke="black" stroke-width="0.13274635374000002" transform="scale(7.533163599797418,-7.533163599797418)" x1="191.6754794" x2="203.1754794" y1="-124.4530401" y2="-104.5344557" /><line stroke="black" stroke-width="0.13274635374000002" transform="scale(7.533163599797418,-7.533163599797418)" x1="176.0870222" x2="187.5870222" y1="-115.4530401" y2="-95.5344557" /><circle cx="158.0515773" cy="-98.5595904" fill="none" r="2.0" stroke="black" stroke-width="0.13274635374000002" transform="scale(7.533163599797418,-7.533163599797418)" /><circle cx="158.811231" cy="-111.1793377" fill="none" r="2.0" stroke="black" stroke-width="0.13274635374000002" transform="scale(7.533163599797418,-7.533163599797418)" /><circle cx="172.3341924" cy="-114.8028043" fill="none" r="2.0" stroke="black" stroke-width="0.13274635374000002" transform="scale(7.533163599797418,-7.533163599797418)" /><circle cx="175.957659" cy="-101.2798429" fill="none" r="2.0" stroke="black" stroke-width="0.13274635374000002" transform="scale(7.533163599797418,-7.533163599797418)" /><circle cx="181.8844451" cy="-96.6495904" fill="none" r="2.0" stroke="black" stroke-width="0.13274635374000002" transform="scale(7.533163599797418,-7.533163599797418)" /><circle cx="181.8844451" cy="-82.6495904" fill="none" r="2.0" stroke="black" stroke-width="0.13274635374000002" transform="scale(7.533163599797418,-7.533163599797418)" /><circle cx="167.8844451" cy="-82.6495904" fill="none" r="2.0" stroke="black" stroke-width="0.13274635374000002" transform="scale(7.533163599797418,-7.533163599797418)" /><circle cx="162.884445" cy="-80.5595904" fill="none" r="2.0" stroke="black" stroke-width="0.13274635374000002" transform="scale(7.533163599797418,-7.533163599797418)" /><circle cx="148.884445" cy="-80.5595904" fill="none" r="2.0" stroke="black" stroke-width="0.13274635374000002" transform="scale(7.533163599797418,-7.533163599797418)" /><circle cx="144.884445" cy="-92.4795903" fill="none" r="2.0" stroke="black" stroke-width="0.13274635374000002" transform="scale(7.533163599797418,-7.533163599797418)" /><circle cx="139.384445" cy="-96.4795903" fill="none" r="2.0" stroke="black" stroke-width="0.13274635374000002" transform="scale(7.533163599797418,-7.533163599797418)" /><circle cx="139.384445" cy="-110.4795903" fill="none" r="2.0" stroke="black" stroke-width="0.13274635374000002" transform="scale(7.533163599797418,-7.533163599797418)" /><circle cx="153.384445" cy="-110.4795903" fill="none" r="2.0" stroke="black" stroke-width="0.13274635374000002" transform="scale(7.533163599797418,-7.533163599797418)" /><circle cx="157.384445" cy="-98.5595904" fill="none" r="2.0" stroke="black" stroke-width="0.13274635374000002" transform="scale(7.533163599797418,-7.533163599797418)" /><circle cx="107.5834531" cy="-106.3632727" fill="none" r="2.0" stroke="black" stroke-width="0.13274635374000002" transform="scale(7.533163599797418,-7.533163599797418)" /><circle cx="106.3632727" cy="-92.4165469" fill="none" r="2.0" stroke="black" stroke-width="0.13274635374000002" transform="scale(7.533163599797418,-7.533163599797418)" /><circle cx="92.4165469" cy="-93.6367273" fill="none" r="2.0" stroke="black" stroke-width="0.13274635374000002" transform="scale(7.533163599797418,-7.533163599797418)" /><circle cx="93.6367273" cy="-107.5834531" fill="none" r="2.0" stroke="black" stroke-width="0.13274635374000002" transform="scale(7.533163599797418,-7.533163599797418)" /><circle cx="105.927494" cy="-87.4355734" fill="none" r="2.0" stroke="black" stroke-width="0.13274635374000002" transform="scale(7.533163599797418,-7.533163599797418)" /><circle cx="104.7073136" cy="-73.4888476" fill="none" r="2.0" stroke="black" stroke-width="0.13274635374000002" transform="scale(7.533163599797418,-7.533163599797418)" /><circle cx="90.7605878" cy="-74.709028" fill="none" r="2.0" stroke="black" stroke-width="0.13274635374000002" transform="scale(7.533163599797418,-7.533163599797418)" /><circle cx="91.9807682" cy="-88.6557538" fill="none" r="2.0" stroke="black" stroke-width="0.13274635374000002" transform="scale(7.533163599797418,-7.533163599797418)" /><circle cx="104.2715349" cy="-68.5078741" fill="none" r="2.0" stroke="black" stroke-width="0.13274635374000002" transform="scale(7.533163599797418,-7.533163599797418)" /><circle cx="103.0513545" cy="-54.5611483" fill="none" r="2.0" stroke="black" stroke-width="0.13274635374000002" transform="scale(7.533163599797418,-7.533163599797418)" /><circle cx="89.1046287" cy="-55.7813287" fill="none" r="2.0" stroke="black" stroke-width="0.13274635374000002" transform="scale(7.533163599797418,-7.533163599797418)" /><circle cx="90.3248091" cy="-69.7280545" fill="none" r="2.0" stroke="black" stroke-width="0.13274635374000002" transform="scale(7.533163599797418,-7.533163599797418)" /><circle cx="124.884445" cy="-93.4195904" fill="none" r="2.0" stroke="black" stroke-width="0.13274635374000002" transform="scale(7.533163599797418,-7.533163599797418)" /><circle cx="124.884445" cy="-79.4195904" fill="none" r="2.0" stroke="black" stroke-width="0.13274635374000002" transform="scale(7.533163599797418,-7.533163599797418)" /><circle cx="110.884445" cy="-79.4195904" fill="none" r="2.0" stroke="black" stroke-width="0.13274635374000002" transform="scale(7.533163599797418,-7.533163599797418)" /><circle cx="110.884445" cy="-93.4195904" fill="none" r="2.0" stroke="black" stroke-width="0.13274635374000002" transform="scale(7.533163599797418,-7.533163599797418)" /><circle cx="124.884445" cy="-74.4195904" fill="none" r="2.0" stroke="black" stroke-width="0.13274635374000002" transform="scale(7.533163599797418,-7.533163599797418)" /><circle cx="124.884445" cy="-60.4195904" fill="none" r="2.0" stroke="black" stroke-width="0.13274635374000002" transform="scale(7.533163599797418,-7.533163599797418)" /><circle cx="110.884445" cy="-60.4195904" fill="none" r="2.0" stroke="black" stroke-width="0.13274635374000002" transform="scale(7.533163599797418,-7.533163599797418)" /><circle cx="110.884445" cy="-74.4195904" fill="none" r="2.0" stroke="black" stroke-width="0.13274635374000002" transform="scale(7.533163599797418,-7.533163599797418)" /><circle cx="124.884445" cy="-55.4195904" fill="none" r="2.0" stroke="black" stroke-width="0.13274635374000002" transform="scale(7.533163599797418,-7.533163599797418)" /><circle cx="124.884445" cy="-41.4195904" fill="none" r="2.0" stroke="black" stroke-width="0.13274635374000002" transform="scale(7.533163599797418,-7.533163599797418)" /><circle cx="110.884445" cy="-41.4195904" fill="none" r="2.0" stroke="black" stroke-width="0.13274635374000002" transform="scale(7.533163599797418,-7.533163599797418)" /><circle cx="110.884445" cy="-55.4195904" fill="none" r="2.0" stroke="black" stroke-width="0.13274635374000002" transform="scale(7.533163599797418,-7.533163599797418)" /><circle cx="143.884445" cy="-88.4795903" fill="none" r="2.0" stroke="black" stroke-width="0.13274635374000002" transform="scale(7.533163599797418,-7.533163599797418)" /><circle cx="143.884445" cy="-74.4795903" fill="none" r="2.0" stroke="black" stroke-width="0.13274635374000002" transform="scale(7.533163599797418,-7.533163599797418)" /><circle cx="129.884445" cy="-74.4795903" fill="none" r="2.0" stroke="black" stroke-width="0.13274635374000002" transform="scale(7.533163599797418,-7.533163599797418)" /><circle cx="129.884445" cy="-88.4795903" fill="none" r="2.0" stroke="black" stroke-width="0.13274635374000002" transform="scale(7.533163599797418,-7.533163599797418)" /><circle cx="143.884445" cy="-69.4795903" fill="none" r="2.0" stroke="black" stroke-width="0.13274635374000002" transform="scale(7.533163599797418,-7.533163599797418)" /><circle cx="143.884445" cy="-55.4795903" fill="none" r="2.0" stroke="black" stroke-width="0.13274635374000002" transform="scale(7.533163599797418,-7.533163599797418)" /><circle cx="129.884445" cy="-55.4795903" fill="none" r="2.0" stroke="black" stroke-width="0.13274635374000002" transform="scale(7.533163599797418,-7.533163599797418)" /><circle cx="129.884445" cy="-69.4795903" fill="none" r="2.0" stroke="black" stroke-width="0.13274635374000002" transform="scale(7.533163599797418,-7.533163599797418)" /><circle cx="143.884445" cy="-50.4795903" fill="none" r="2.0" stroke="black" stroke-width="0.13274635374000002" transform="scale(7.533163599797418,-7.533163599797418)" /><circle cx="143.884445" cy="-36.4795903" fill="none" r="2.0" stroke="black" stroke-width="0.13274635374000002" transform="scale(7.533163599797418,-7.533163599797418)" /><circle cx="129.884445" cy="-36.4795903" fill="none" r="2.0" stroke="black" stroke-width="0.13274635374000002" transform="scale(7.533163599797418,-7.533163599797418)" /><circle cx="129.884445" cy="-50.4795903" fill="none" r="2.0" stroke="black" stroke-width="0.13274635374000002" transform="scale(7.533163599797418,-7.533163599797418)" /><circle cx="162.884445" cy="-75.5595904" fill="none" r="2.0" stroke="black" stroke-width="0.13274635374000002" transform="scale(7.533163599797418,-7.533163599797418)" /><circle cx="162.884445" cy="-61.5595904" fill="none" r="2.0" stroke="black" stroke-width="0.13274635374000002" transform="scale(7.533163599797418,-7.533163599797418)" /><circle cx="148.884445" cy="-61.5595904" fill="none" r="2.0" stroke="black" stroke-width="0.13274635374000002" transform="scale(7.533163599797418,-7.533163599797418)" /><circle cx="148.884445" cy="-75.5595904" fill="none" r="2.0" stroke="black" stroke-width="0.13274635374000002" transform="scale(7.533163599797418,-7.533163599797418)" /><circle cx="162.884445" cy="-56.5595904" fill="none" r="2.0" stroke="black" stroke-width="0.13274635374000002" transform="scale(7.533163599797418,-7.533163599797418)" /><circle cx="162.884445" cy="-42.5595904" fill="none" r="2.0" stroke="black" stroke-width="0.13274635374000002" transform="scale(7.533163599797418,-7.533163599797418)" /><circle cx="148.884445" cy="-42.5595904" fill="none" r="2.0" stroke="black" stroke-width="0.13274635374000002" transform="scale(7.533163599797418,-7.533163599797418)" /><circle cx="148.884445" cy="-56.5595904" fill="none" r="2.0" stroke="black" stroke-width="0.13274635374000002" transform="scale(7.533163599797418,-7.533163599797418)" /><circle cx="181.8844451" cy="-77.6495904" fill="none" r="2.0" stroke="black" stroke-width="0.13274635374000002" transform="scale(7.533163599797418,-7.533163599797418)" /><circle cx="181.8844451" cy="-63.6495904" fill="none" r="2.0" stroke="black" stroke-width="0.13274635374000002" transform="scale(7.533163599797418,-7.533163599797418)" /><circle cx="167.8844451" cy="-63.6495904" fill="none" r="2.0" stroke="black" stroke-width="0.13274635374000002" transform="scale(7.533163599797418,-7.533163599797418)" /><circle cx="167.8844451" cy="-77.6495904" fill="none" r="2.0" stroke="black" stroke-width="0.13274635374000002" transform="scale(7.533163599797418,-7.533163599797418)" /><circle cx="181.8844451" cy="-58.6495904" fill="none" r="2.0" stroke="black" stroke-width="0.13274635374000002" transform="scale(7.533163599797418,-7.533163599797418)" /><circle cx="181.8844451" cy="-44.6495904" fill="none" r="2.0" stroke="black" stroke-width="0.13274635374000002" transform="scale(7.533163599797418,-7.533163599797418)" /><circle cx="167.8844451" cy="-44.6495904" fill="none" r="2.0" stroke="black" stroke-width="0.13274635374000002" transform="scale(7.533163599797418,-7.533163599797418)" /><circle cx="167.8844451" cy="-58.6495904" fill="none" r="2.0" stroke="black" stroke-width="0.13274635374000002" transform="scale(7.533163599797418,-7.533163599797418)" /><line stroke="black" stroke-width="0.13274635374000002" transform="scale(7.533163599797418,-7.533163599797418)" x1="202.4434286" x2="190.319073" y1="-101.8024049" y2="-94.8024049" /><line stroke="black" stroke-width="0.13274635374000002" transform="scale(7.533163599797418,-7.533163599797418)" x1="176.819073" x2="188.9434286" y1="-118.1850909" y2="-125.1850909" /><circle cx="201.4434286" cy="-103.5344557" fill="none" r="2.0" stroke="black" stroke-width="0.13274635374000002" transform="scale(7.533163599797418,-7.533163599797418)" /><circle cx="189.319073" cy="-96.5344557" fill="none" r="2.0" stroke="black" stroke-width="0.13274635374000002" transform="scale(7.533163599797418,-7.533163599797418)" /><circle cx="177.819073" cy="-116.4530401" fill="none" r="2.0" stroke="black" stroke-width="0.13274635374000002" transform="scale(7.533163599797418,-7.533163599797418)" /><circle cx="189.9434286" cy="-123.4530401" fill="none" r="2.0" stroke="black" stroke-width="0.13274635374000002" transform="scale(7.533163599797418,-7.533163599797418)" /><line stroke="black" stroke-width="0.13274635374000002" transform="scale(7.533163599797418,-7.533163599797418)" x1="85.5722741" x2="90.5584961" y1="-54.0727436" y2="-111.0421933" /><line stroke="black" stroke-width="0.13274635374000002" transform="scale(7.533163599797418,-7.533163599797418)" x1="85.4889417" x2="85.5722741" y1="-53.12064" y2="-54.0727436" /><line stroke="black" stroke-width="0.13274635374000002" transform="scale(7.533163599797418,-7.533163599797418)" x1="85.946445" x2="107.0550375" y1="-52.5786949" y2="-50.8593169" /><line stroke="black" stroke-width="0.13274635374000002" transform="scale(7.533163599797418,-7.533163599797418)" x1="107.514445" x2="107.514445" y1="-50.3609674" y2="-38.4628348" /><line stroke="black" stroke-width="0.13274635374000002" transform="scale(7.533163599797418,-7.533163599797418)" x1="108.0127345" x2="126.0161555" y1="-37.9628377" y2="-37.901247" /><line stroke="black" stroke-width="0.13274635374000002" transform="scale(7.533163599797418,-7.533163599797418)" x1="126.514445" x2="126.514445" y1="-37.4012499" y2="-33.6425903" /><line stroke="black" stroke-width="0.13274635374000002" transform="scale(7.533163599797418,-7.533163599797418)" x1="127.014445" x2="146.916445" y1="-33.1425903" y2="-33.1425903" /><line stroke="black" stroke-width="0.13274635374000002" transform="scale(7.533163599797418,-7.533163599797418)" x1="147.416445" x2="147.416445" y1="-38.4155163" y2="-33.6425903" /><line stroke="black" stroke-width="0.13274635374000002" transform="scale(7.533163599797418,-7.533163599797418)" x1="147.9110506" x2="165.9218394" y1="-38.9154872" y2="-39.1098142" /><line stroke="black" stroke-width="0.13274635374000002" transform="scale(7.533163599797418,-7.533163599797418)" x1="166.416445" x2="166.416445" y1="-41.068121" y2="-39.6097851" /><line stroke="black" stroke-width="0.13274635374000002" transform="scale(7.533163599797418,-7.533163599797418)" x1="166.9239442" x2="184.9085178" y1="-41.5680648" y2="-41.2982962" /><line stroke="black" stroke-width="0.13274635374000002" transform="scale(7.533163599797418,-7.533163599797418)" x1="185.4160169" x2="185.416445" y1="-41.798018" y2="-42.7619465" /><line stroke="black" stroke-width="0.13274635374000002" transform="scale(7.533163599797418,-7.533163599797418)" x1="185.416445" x2="185.4165795" y1="-42.7619465" y2="-43.0648124" /><line stroke="black" stroke-width="0.13274635374000002" transform="scale(7.533163599797418,-7.533163599797418)" x1="185.9165795" x2="205.6674451" y1="-43.5645904" y2="-43.5645904" /><line stroke="black" stroke-width="0.13274635374000002" transform="scale(7.533163599797418,-7.533163599797418)" x1="206.1674451" x2="206.1674451" y1="-105.8641167" y2="-44.0645904" /><line stroke="black" stroke-width="0.13274635374000002" transform="scale(7.533163599797418,-7.533163599797418)" x1="205.633059" x2="206.1674451" y1="-106.7897005" y2="-105.8641167" /><line stroke="black" stroke-width="0.13274635374000002" transform="scale(7.533163599797418,-7.533163599797418)" x1="191.3152679" x2="205.633059" y1="-128.0412776" y2="-106.7897005" /><line stroke="black" stroke-width="0.13274635374000002" transform="scale(7.533163599797418,-7.533163599797418)" x1="174.533709" x2="190.6505991" y1="-118.8898253" y2="-128.1949162" /><line stroke="black" stroke-width="0.13274635374000002" transform="scale(7.533163599797418,-7.533163599797418)" x1="137.0265719" x2="174.348334" y1="-113.9623888" y2="-118.827032" /><line stroke="black" stroke-width="0.13274635374000002" transform="scale(7.533163599797418,-7.533163599797418)" x1="126.5658948" x2="137.0265719" y1="-108.9418494" y2="-113.9623888" /><line stroke="black" stroke-width="0.13274635374000002" transform="scale(7.533163599797418,-7.533163599797418)" x1="91.0934492" x2="126.3126925" y1="-111.4972374" y2="-108.8939811" /><circle cx="85.9870375" cy="-53.0770444" fill="none" r="0.5" stroke="black" stroke-width="0.13274635374000002" transform="scale(7.533163599797418,-7.533163599797418)" /><circle cx="107.014445" cy="-50.3609674" fill="none" r="0.5" stroke="black" stroke-width="0.13274635374000002" transform="scale(7.533163599797418,-7.533163599797418)" /><circle cx="108.014445" cy="-38.4628348" fill="none" r="0.5" stroke="black" stroke-width="0.13274635374000002" transform="scale(7.533163599797418,-7.533163599797418)" /><circle cx="126.014445" cy="-37.4012499" fill="none" r="0.5" stroke="black" stroke-width="0.13274635374000002" transform="scale(7.533163599797418,-7.533163599797418)" /><circle cx="127.014445" cy="-33.6425903" fill="none" r="0.5" stroke="black" stroke-width="0.13274635374000002" transform="scale(7.533163599797418,-7.533163599797418)" /><circle cx="146.916445" cy="-33.6425903" fill="none" r="0.5" stroke="black" stroke-width="0.13274635374000002" transform="scale(7.533163599797418,-7.533163599797418)" /><circle cx="147.916445" cy="-38.4155163" fill="none" r="0.5" stroke="black" stroke-width="0.13274635374000002" transform="scale(7.533163599797418,-7.533163599797418)" /><circle cx="165.916445" cy="-39.6097851" fill="none" r="0.5" stroke="black" stroke-width="0.13274635374000002" transform="scale(7.533163599797418,-7.533163599797418)" /><circle cx="166.916445" cy="-41.068121" fill="none" r="0.5" stroke="black" stroke-width="0.13274635374000002" transform="scale(7.533163599797418,-7.533163599797418)" /><circle cx="184.9160169" cy="-41.79824" fill="none" r="0.5" stroke="black" stroke-width="0.13274635374000002" transform="scale(7.533163599797418,-7.533163599797418)" /><circle cx="185.9165795" cy="-43.0645904" fill="none" r="0.5" stroke="black" stroke-width="0.13274635374000002" transform="scale(7.533163599797418,-7.533163599797418)" /><circle cx="205.6674451" cy="-44.0645904" fill="none" r="0.5" stroke="black" stroke-width="0.13274635374000002" transform="scale(7.533163599797418,-7.533163599797418)" /><circle cx="190.9005991" cy="-127.7619035" fill="none" r="0.5" stroke="black" stroke-width="0.13274635374000002" transform="scale(7.533163599797418,-7.533163599797418)" /><circle cx="174.283709" cy="-119.322838" fill="none" r="0.5" stroke="black" stroke-width="0.13274635374000002" transform="scale(7.533163599797418,-7.533163599797418)" /><circle cx="126.3495498" cy="-109.3926208" fill="none" r="0.5" stroke="black" stroke-width="0.13274635374000002" transform="scale(7.533163599797418,-7.533163599797418)" /><circle cx="91.0565919" cy="-110.9985977" fill="none" r="0.5" stroke="black" stroke-width="0.13274635374000002" transform="scale(7.533163599797418,-7.533163599797418)" /><line stroke="black" stroke-width="0.13274635374000002" transform="scale(7.533163599797418,-7.533163599797418)" x1="91.6722068" x2="86.767704" y1="-110.0038917" y2="-53.9681142" /><line stroke="black" stroke-width="0.13274635374000002" transform="scale(7.533163599797418,-7.533163599797418)" x1="86.7457744" x2="86.767704" y1="-53.7175606" y2="-53.9681142" /><line stroke="black" stroke-width="0.13274635374000002" transform="scale(7.533163599797418,-7.533163599797418)" x1="86.7457744" x2="108.2550375" y1="-53.7175606" y2="-51.9655464" /><line stroke="black" stroke-width="0.13274635374000002" transform="scale(7.533163599797418,-7.533163599797418)" x1="108.714445" x2="108.714445" y1="-51.4671969" y2="-39.1604442" /><line stroke="black" stroke-width="0.13274635374000002" transform="scale(7.533163599797418,-7.533163599797418)" x1="108.714445" x2="127.2161555" y1="-39.1604442" y2="-39.0971488" /><line stroke="black" stroke-width="0.13274635374000002" transform="scale(7.533163599797418,-7.533163599797418)" x1="127.714445" x2="127.714445" y1="-38.5971517" y2="-34.3425903" /><line stroke="black" stroke-width="0.13274635374000002" transform="scale(7.533163599797418,-7.533163599797418)" x1="127.714445" x2="146.216445" y1="-34.3425903" y2="-34.3425903" /><line stroke="black" stroke-width="0.13274635374000002" transform="scale(7.533163599797418,-7.533163599797418)" x1="146.216445" x2="146.216445" y1="-39.6026388" y2="-34.3425903" /><line stroke="black" stroke-width="0.13274635374000002" transform="scale(7.533163599797418,-7.533163599797418)" x1="146.7110506" x2="165.216445" y1="-40.1026097" y2="-40.3022732" /><line stroke="black" stroke-width="0.13274635374000002" transform="scale(7.533163599797418,-7.533163599797418)" x1="165.216445" x2="165.216445" y1="-42.286256" y2="-40.3022732" /><line stroke="black" stroke-width="0.13274635374000002" transform="scale(7.533163599797418,-7.533163599797418)" x1="165.7239442" x2="184.2163324" y1="-42.7861998" y2="-42.508814" /><line stroke="black" stroke-width="0.13274635374000002" transform="scale(7.533163599797418,-7.533163599797418)" x1="184.2164451" x2="184.2163324" y1="-42.7624794" y2="-42.508814" /><line stroke="black" stroke-width="0.13274635374000002" transform="scale(7.533163599797418,-7.533163599797418)" x1="184.2164451" x2="184.2171122" y1="-42.7624794" y2="-44.2648124" /><line stroke="black" stroke-width="0.13274635374000002" transform="scale(7.533163599797418,-7.533163599797418)" x1="184.7171122" x2="204.9674451" y1="-44.7645904" y2="-44.7645904" /><line stroke="black" stroke-width="0.13274635374000002" transform="scale(7.533163599797418,-7.533163599797418)" x1="204.9674451" x2="204.9674451" y1="-105.5425777" y2="-44.7645904" /><line stroke="black" stroke-width="0.13274635374000002" transform="scale(7.533163599797418,-7.533163599797418)" x1="204.614564" x2="204.9674451" y1="-106.1537858" y2="-105.5425777" /><line stroke="black" stroke-width="0.13274635374000002" transform="scale(7.533163599797418,-7.533163599797418)" x1="204.6096544" x2="204.614564" y1="-106.1610588" y2="-106.1537858" /><line stroke="black" stroke-width="0.13274635374000002" transform="scale(7.533163599797418,-7.533163599797418)" x1="204.6096544" x2="190.8154431" y1="-106.1610588" y2="-126.635498" /><line stroke="black" stroke-width="0.13274635374000002" transform="scale(7.533163599797418,-7.533163599797418)" x1="190.6849879" x2="190.8151932" y1="-126.8291299" y2="-126.6358689" /><line stroke="black" stroke-width="0.13274635374000002" transform="scale(7.533163599797418,-7.533163599797418)" x1="174.9262976" x2="190.6849879" y1="-117.7308458" y2="-126.8291299" /><line stroke="black" stroke-width="0.13274635374000002" transform="scale(7.533163599797418,-7.533163599797418)" x1="137.3723979" x2="174.7409226" y1="-112.7973142" y2="-117.6680525" /><line stroke="black" stroke-width="0.13274635374000002" transform="scale(7.533163599797418,-7.533163599797418)" x1="126.7965995" x2="137.3723979" y1="-107.721523" y2="-112.7973142" /><line stroke="black" stroke-width="0.13274635374000002" transform="scale(7.533163599797418,-7.533163599797418)" x1="91.6937119" x2="126.5433972" y1="-110.249595" y2="-107.6736547" /><line stroke="black" stroke-width="0.13274635374000002" transform="scale(7.533163599797418,-7.533163599797418)" x1="91.6722068" x2="91.6937119" y1="-110.0038917" y2="-110.249595" /><circle cx="108.214445" cy="-51.4671969" fill="none" r="0.5" stroke="black" stroke-width="0.13274635374000002" transform="scale(7.533163599797418,-7.533163599797418)" /><circle cx="127.214445" cy="-38.5971517" fill="none" r="0.5" stroke="black" stroke-width="0.13274635374000002" transform="scale(7.533163599797418,-7.533163599797418)" /><circle cx="146.716445" cy="-39.6026388" fill="none" r="0.5" stroke="black" stroke-width="0.13274635374000002" transform="scale(7.533163599797418,-7.533163599797418)" /><circle cx="165.716445" cy="-42.286256" fill="none" r="0.5" stroke="black" stroke-width="0.13274635374000002" transform="scale(7.533163599797418,-7.533163599797418)" /><circle cx="184.7171122" cy="-44.2645904" fill="none" r="0.5" stroke="black" stroke-width="0.13274635374000002" transform="scale(7.533163599797418,-7.533163599797418)" /><circle cx="174.6762976" cy="-118.1638585" fill="none" r="0.5" stroke="black" stroke-width="0.13274635374000002" transform="scale(7.533163599797418,-7.533163599797418)" /><circle cx="126.5802545" cy="-108.1722944" fill="none" r="0.5" stroke="black" stroke-width="0.13274635374000002" transform="scale(7.533163599797418,-7.533163599797418)" /><line stroke="black" stroke-width="0.13274635374000002" transform="scale(7.533163599797418,-7.533163599797418)" x1="94.0626559" x2="89.6619948" y1="-106.9226778" y2="-56.6434791" /><line stroke="black" stroke-width="0.13274635374000002" transform="scale(7.533163599797418,-7.533163599797418)" x1="90.119498" x2="110.9050375" y1="-56.101534" y2="-54.40847" /><line stroke="black" stroke-width="0.13274635374000002" transform="scale(7.533163599797418,-7.533163599797418)" x1="111.364445" x2="111.364445" y1="-53.9101205" y2="-42.2996864" /><line stroke="black" stroke-width="0.13274635374000002" transform="scale(7.533163599797418,-7.533163599797418)" x1="111.8627345" x2="129.8661556" y1="-41.7996893" y2="-41.7380985" /><line stroke="black" stroke-width="0.13274635374000002" transform="scale(7.533163599797418,-7.533163599797418)" x1="130.364445" x2="130.364445" y1="-41.2381014" y2="-37.4925903" /><line stroke="black" stroke-width="0.13274635374000002" transform="scale(7.533163599797418,-7.533163599797418)" x1="130.864445" x2="143.066445" y1="-36.9925903" y2="-36.9925903" /><line stroke="black" stroke-width="0.13274635374000002" transform="scale(7.533163599797418,-7.533163599797418)" x1="143.566445" x2="143.566445" y1="-42.2242009" y2="-37.4925903" /><line stroke="black" stroke-width="0.13274635374000002" transform="scale(7.533163599797418,-7.533163599797418)" x1="144.0610506" x2="162.566445" y1="-42.7241718" y2="-42.9238353" /><line stroke="black" stroke-width="0.13274635374000002" transform="scale(7.533163599797418,-7.533163599797418)" x1="162.566445" x2="162.566445" y1="-44.9763041" y2="-42.9238353" /><line stroke="black" stroke-width="0.13274635374000002" transform="scale(7.533163599797418,-7.533163599797418)" x1="163.0739442" x2="181.1045587" y1="-45.4762479" y2="-45.2057886" /><line stroke="black" stroke-width="0.13274635374000002" transform="scale(7.533163599797418,-7.533163599797418)" x1="181.6105839" x2="181.7095169" y1="-45.6673681" y2="-46.9529547" /><line stroke="black" stroke-width="0.13274635374000002" transform="scale(7.533163599797418,-7.533163599797418)" x1="182.2080429" x2="201.8174451" y1="-47.4145904" y2="-47.4145904" /><line stroke="black" stroke-width="0.13274635374000002" transform="scale(7.533163599797418,-7.533163599797418)" x1="202.3174451" x2="202.3174451" y1="-47.9145904" y2="-104.6678703" /><line stroke="black" stroke-width="0.13274635374000002" transform="scale(7.533163599797418,-7.533163599797418)" x1="202.2321138" x2="190.129406" y1="-104.9472444" y2="-122.9110228" /><line stroke="black" stroke-width="0.13274635374000002" transform="scale(7.533163599797418,-7.533163599797418)" x1="175.7068436" x2="189.4647373" y1="-115.1215378" y2="-123.0646614" /><line stroke="black" stroke-width="0.13274635374000002" transform="scale(7.533163599797418,-7.533163599797418)" x1="138.2155662" x2="175.7068436" y1="-110.2347994" y2="-115.1215378" /><line stroke="black" stroke-width="0.13274635374000002" transform="scale(7.533163599797418,-7.533163599797418)" x1="127.3060724" x2="138.0638462" y1="-105.0266356" y2="-110.1897648" /><line stroke="black" stroke-width="0.13274635374000002" transform="scale(7.533163599797418,-7.533163599797418)" x1="94.597609" x2="127.0528701" y1="-107.3777219" y2="-104.9787673" /><circle cx="90.1600906" cy="-56.5998835" fill="none" r="0.5" stroke="black" stroke-width="0.13274635374000002" transform="scale(7.533163599797418,-7.533163599797418)" /><circle cx="110.864445" cy="-53.9101205" fill="none" r="0.5" stroke="black" stroke-width="0.13274635374000002" transform="scale(7.533163599797418,-7.533163599797418)" /><circle cx="111.864445" cy="-42.2996864" fill="none" r="0.5" stroke="black" stroke-width="0.13274635374000002" transform="scale(7.533163599797418,-7.533163599797418)" /><circle cx="129.864445" cy="-41.2381014" fill="none" r="0.5" stroke="black" stroke-width="0.13274635374000002" transform="scale(7.533163599797418,-7.533163599797418)" /><circle cx="130.864445" cy="-37.4925903" fill="none" r="0.5" stroke="black" stroke-width="0.13274635374000002" transform="scale(7.533163599797418,-7.533163599797418)" /><circle cx="143.066445" cy="-37.4925903" fill="none" r="0.5" stroke="black" stroke-width="0.13274635374000002" transform="scale(7.533163599797418,-7.533163599797418)" /><circle cx="144.066445" cy="-42.2242009" fill="none" r="0.5" stroke="black" stroke-width="0.13274635374000002" transform="scale(7.533163599797418,-7.533163599797418)" /><circle cx="163.066445" cy="-44.9763041" fill="none" r="0.5" stroke="black" stroke-width="0.13274635374000002" transform="scale(7.533163599797418,-7.533163599797418)" /><circle cx="181.1120579" cy="-45.7057324" fill="none" r="0.5" stroke="black" stroke-width="0.13274635374000002" transform="scale(7.533163599797418,-7.533163599797418)" /><circle cx="182.2080429" cy="-46.9145904" fill="none" r="0.5" stroke="black" stroke-width="0.13274635374000002" transform="scale(7.533163599797418,-7.533163599797418)" /><circle cx="201.8174451" cy="-47.9145904" fill="none" r="0.5" stroke="black" stroke-width="0.13274635374000002" transform="scale(7.533163599797418,-7.533163599797418)" /><circle cx="201.8174451" cy="-104.6678703" fill="none" r="0.5" stroke="black" stroke-width="0.13274635374000002" transform="scale(7.533163599797418,-7.533163599797418)" /><circle cx="189.7147373" cy="-122.6316487" fill="none" r="0.5" stroke="black" stroke-width="0.13274635374000002" transform="scale(7.533163599797418,-7.533163599797418)" /><circle cx="138.2801912" cy="-109.7389934" fill="none" r="0.5" stroke="black" stroke-width="0.13274635374000002" transform="scale(7.533163599797418,-7.533163599797418)" /><circle cx="127.0897274" cy="-105.477407" fill="none" r="0.5" stroke="black" stroke-width="0.13274635374000002" transform="scale(7.533163599797418,-7.533163599797418)" /><circle cx="94.5607517" cy="-106.8790822" fill="none" r="0.5" stroke="black" stroke-width="0.13274635374000002" transform="scale(7.533163599797418,-7.533163599797418)" /></svg>